G75*
%MOIN*%
%OFA0B0*%
%FSLAX25Y25*%
%IPPOS*%
%LPD*%
%AMOC8*
5,1,8,0,0,1.08239X$1,22.5*
%
%ADD10C,0.00000*%
%ADD11R,0.05118X0.05906*%
%ADD12R,0.05906X0.05118*%
%ADD13R,0.06693X0.07087*%
%ADD14R,0.01200X0.03900*%
%ADD15R,0.07874X0.23622*%
%ADD16R,0.06299X0.05118*%
%ADD17R,0.05118X0.06299*%
%ADD18C,0.00591*%
%ADD19R,0.03200X0.01200*%
%ADD20R,0.06900X0.09800*%
%ADD21C,0.07200*%
%ADD22R,0.01181X0.03150*%
%ADD23R,0.01181X0.02559*%
%ADD24R,0.01575X0.03740*%
%ADD25R,0.02362X0.08661*%
%ADD26R,0.07480X0.05118*%
%ADD27R,0.07480X0.07874*%
%ADD28R,0.03937X0.05512*%
%ADD29C,0.01000*%
%ADD30C,0.02400*%
%ADD31C,0.03200*%
D10*
X0005982Y0001000D02*
X0005982Y0197850D01*
X0202832Y0197850D01*
X0202832Y0001000D01*
X0005982Y0001000D01*
D11*
X0031690Y0069307D03*
X0039171Y0069307D03*
X0057281Y0153165D03*
X0064761Y0153165D03*
X0031100Y0183480D03*
X0023619Y0183480D03*
X0026336Y0158283D03*
X0018856Y0158283D03*
D12*
X0049092Y0134150D03*
X0049092Y0126669D03*
X0047911Y0104346D03*
X0047911Y0096866D03*
X0069171Y0078047D03*
X0069171Y0070567D03*
X0062084Y0051709D03*
X0062084Y0044228D03*
X0180982Y0073756D03*
X0180982Y0081236D03*
D13*
X0047911Y0086984D03*
X0047911Y0070843D03*
D14*
X0153915Y0053235D03*
X0156474Y0053235D03*
X0159033Y0053235D03*
X0161592Y0053235D03*
X0164151Y0053235D03*
X0166710Y0053235D03*
X0169269Y0053235D03*
X0171828Y0053235D03*
X0174387Y0053235D03*
X0176946Y0053235D03*
X0179505Y0053235D03*
X0182064Y0053235D03*
X0182064Y0030261D03*
X0179505Y0030261D03*
X0176946Y0030261D03*
X0174387Y0030261D03*
X0171828Y0030261D03*
X0169269Y0030261D03*
X0166710Y0030261D03*
X0164151Y0030261D03*
X0161592Y0030261D03*
X0159033Y0030261D03*
X0156474Y0030261D03*
X0153915Y0030261D03*
D15*
X0031730Y0136866D03*
X0018738Y0136866D03*
X0017832Y0092063D03*
X0030824Y0092063D03*
D16*
X0060115Y0078047D03*
X0060115Y0070567D03*
X0070745Y0051433D03*
X0070745Y0043953D03*
X0057989Y0017850D03*
X0057989Y0010370D03*
X0121572Y0091709D03*
X0121572Y0099189D03*
X0140863Y0098008D03*
X0140863Y0090528D03*
X0156808Y0090528D03*
X0156808Y0098008D03*
X0171533Y0097811D03*
X0171533Y0090331D03*
X0082163Y0120331D03*
X0082163Y0127811D03*
X0073895Y0126472D03*
X0073895Y0133953D03*
X0079801Y0109543D03*
X0079801Y0102063D03*
D17*
X0067753Y0091354D03*
X0060273Y0091354D03*
X0057635Y0126394D03*
X0065115Y0126394D03*
X0064289Y0144504D03*
X0056808Y0144504D03*
D18*
X0054663Y0162063D02*
X0047497Y0162063D01*
X0054663Y0162063D02*
X0054663Y0160291D01*
X0047497Y0160291D01*
X0047497Y0162063D01*
X0047497Y0160881D02*
X0054663Y0160881D01*
X0054663Y0161471D02*
X0047497Y0161471D01*
X0047497Y0162061D02*
X0054663Y0162061D01*
X0054663Y0167063D02*
X0047497Y0167063D01*
X0054663Y0167063D02*
X0054663Y0165291D01*
X0047497Y0165291D01*
X0047497Y0167063D01*
X0047497Y0165881D02*
X0054663Y0165881D01*
X0054663Y0166471D02*
X0047497Y0166471D01*
X0047497Y0167061D02*
X0054663Y0167061D01*
X0054663Y0172063D02*
X0047497Y0172063D01*
X0054663Y0172063D02*
X0054663Y0170291D01*
X0047497Y0170291D01*
X0047497Y0172063D01*
X0047497Y0170881D02*
X0054663Y0170881D01*
X0054663Y0171471D02*
X0047497Y0171471D01*
X0047497Y0172061D02*
X0054663Y0172061D01*
X0054663Y0177063D02*
X0047497Y0177063D01*
X0054663Y0177063D02*
X0054663Y0175291D01*
X0047497Y0175291D01*
X0047497Y0177063D01*
X0047497Y0175881D02*
X0054663Y0175881D01*
X0054663Y0176471D02*
X0047497Y0176471D01*
X0047497Y0177061D02*
X0054663Y0177061D01*
X0066985Y0177063D02*
X0074151Y0177063D01*
X0074151Y0175291D01*
X0066985Y0175291D01*
X0066985Y0177063D01*
X0066985Y0175881D02*
X0074151Y0175881D01*
X0074151Y0176471D02*
X0066985Y0176471D01*
X0066985Y0177061D02*
X0074151Y0177061D01*
X0074151Y0172063D02*
X0066985Y0172063D01*
X0074151Y0172063D02*
X0074151Y0170291D01*
X0066985Y0170291D01*
X0066985Y0172063D01*
X0066985Y0170881D02*
X0074151Y0170881D01*
X0074151Y0171471D02*
X0066985Y0171471D01*
X0066985Y0172061D02*
X0074151Y0172061D01*
X0074151Y0167063D02*
X0066985Y0167063D01*
X0074151Y0167063D02*
X0074151Y0165291D01*
X0066985Y0165291D01*
X0066985Y0167063D01*
X0066985Y0165881D02*
X0074151Y0165881D01*
X0074151Y0166471D02*
X0066985Y0166471D01*
X0066985Y0167061D02*
X0074151Y0167061D01*
X0074151Y0162063D02*
X0066985Y0162063D01*
X0074151Y0162063D02*
X0074151Y0160291D01*
X0066985Y0160291D01*
X0066985Y0162063D01*
X0066985Y0160881D02*
X0074151Y0160881D01*
X0074151Y0161471D02*
X0066985Y0161471D01*
X0066985Y0162061D02*
X0074151Y0162061D01*
X0052477Y0060902D02*
X0052477Y0053736D01*
X0052477Y0060902D02*
X0054249Y0060902D01*
X0054249Y0053736D01*
X0052477Y0053736D01*
X0052477Y0054326D02*
X0054249Y0054326D01*
X0054249Y0054916D02*
X0052477Y0054916D01*
X0052477Y0055506D02*
X0054249Y0055506D01*
X0054249Y0056096D02*
X0052477Y0056096D01*
X0052477Y0056686D02*
X0054249Y0056686D01*
X0054249Y0057276D02*
X0052477Y0057276D01*
X0052477Y0057866D02*
X0054249Y0057866D01*
X0054249Y0058456D02*
X0052477Y0058456D01*
X0052477Y0059046D02*
X0054249Y0059046D01*
X0054249Y0059636D02*
X0052477Y0059636D01*
X0052477Y0060226D02*
X0054249Y0060226D01*
X0054249Y0060816D02*
X0052477Y0060816D01*
X0047477Y0060902D02*
X0047477Y0053736D01*
X0047477Y0060902D02*
X0049249Y0060902D01*
X0049249Y0053736D01*
X0047477Y0053736D01*
X0047477Y0054326D02*
X0049249Y0054326D01*
X0049249Y0054916D02*
X0047477Y0054916D01*
X0047477Y0055506D02*
X0049249Y0055506D01*
X0049249Y0056096D02*
X0047477Y0056096D01*
X0047477Y0056686D02*
X0049249Y0056686D01*
X0049249Y0057276D02*
X0047477Y0057276D01*
X0047477Y0057866D02*
X0049249Y0057866D01*
X0049249Y0058456D02*
X0047477Y0058456D01*
X0047477Y0059046D02*
X0049249Y0059046D01*
X0049249Y0059636D02*
X0047477Y0059636D01*
X0047477Y0060226D02*
X0049249Y0060226D01*
X0049249Y0060816D02*
X0047477Y0060816D01*
X0042477Y0060902D02*
X0042477Y0053736D01*
X0042477Y0060902D02*
X0044249Y0060902D01*
X0044249Y0053736D01*
X0042477Y0053736D01*
X0042477Y0054326D02*
X0044249Y0054326D01*
X0044249Y0054916D02*
X0042477Y0054916D01*
X0042477Y0055506D02*
X0044249Y0055506D01*
X0044249Y0056096D02*
X0042477Y0056096D01*
X0042477Y0056686D02*
X0044249Y0056686D01*
X0044249Y0057276D02*
X0042477Y0057276D01*
X0042477Y0057866D02*
X0044249Y0057866D01*
X0044249Y0058456D02*
X0042477Y0058456D01*
X0042477Y0059046D02*
X0044249Y0059046D01*
X0044249Y0059636D02*
X0042477Y0059636D01*
X0042477Y0060226D02*
X0044249Y0060226D01*
X0044249Y0060816D02*
X0042477Y0060816D01*
X0037477Y0060902D02*
X0037477Y0053736D01*
X0037477Y0060902D02*
X0039249Y0060902D01*
X0039249Y0053736D01*
X0037477Y0053736D01*
X0037477Y0054326D02*
X0039249Y0054326D01*
X0039249Y0054916D02*
X0037477Y0054916D01*
X0037477Y0055506D02*
X0039249Y0055506D01*
X0039249Y0056096D02*
X0037477Y0056096D01*
X0037477Y0056686D02*
X0039249Y0056686D01*
X0039249Y0057276D02*
X0037477Y0057276D01*
X0037477Y0057866D02*
X0039249Y0057866D01*
X0039249Y0058456D02*
X0037477Y0058456D01*
X0037477Y0059046D02*
X0039249Y0059046D01*
X0039249Y0059636D02*
X0037477Y0059636D01*
X0037477Y0060226D02*
X0039249Y0060226D01*
X0039249Y0060816D02*
X0037477Y0060816D01*
X0037477Y0041414D02*
X0037477Y0034248D01*
X0037477Y0041414D02*
X0039249Y0041414D01*
X0039249Y0034248D01*
X0037477Y0034248D01*
X0037477Y0034838D02*
X0039249Y0034838D01*
X0039249Y0035428D02*
X0037477Y0035428D01*
X0037477Y0036018D02*
X0039249Y0036018D01*
X0039249Y0036608D02*
X0037477Y0036608D01*
X0037477Y0037198D02*
X0039249Y0037198D01*
X0039249Y0037788D02*
X0037477Y0037788D01*
X0037477Y0038378D02*
X0039249Y0038378D01*
X0039249Y0038968D02*
X0037477Y0038968D01*
X0037477Y0039558D02*
X0039249Y0039558D01*
X0039249Y0040148D02*
X0037477Y0040148D01*
X0037477Y0040738D02*
X0039249Y0040738D01*
X0039249Y0041328D02*
X0037477Y0041328D01*
X0042477Y0041414D02*
X0042477Y0034248D01*
X0042477Y0041414D02*
X0044249Y0041414D01*
X0044249Y0034248D01*
X0042477Y0034248D01*
X0042477Y0034838D02*
X0044249Y0034838D01*
X0044249Y0035428D02*
X0042477Y0035428D01*
X0042477Y0036018D02*
X0044249Y0036018D01*
X0044249Y0036608D02*
X0042477Y0036608D01*
X0042477Y0037198D02*
X0044249Y0037198D01*
X0044249Y0037788D02*
X0042477Y0037788D01*
X0042477Y0038378D02*
X0044249Y0038378D01*
X0044249Y0038968D02*
X0042477Y0038968D01*
X0042477Y0039558D02*
X0044249Y0039558D01*
X0044249Y0040148D02*
X0042477Y0040148D01*
X0042477Y0040738D02*
X0044249Y0040738D01*
X0044249Y0041328D02*
X0042477Y0041328D01*
X0047477Y0041414D02*
X0047477Y0034248D01*
X0047477Y0041414D02*
X0049249Y0041414D01*
X0049249Y0034248D01*
X0047477Y0034248D01*
X0047477Y0034838D02*
X0049249Y0034838D01*
X0049249Y0035428D02*
X0047477Y0035428D01*
X0047477Y0036018D02*
X0049249Y0036018D01*
X0049249Y0036608D02*
X0047477Y0036608D01*
X0047477Y0037198D02*
X0049249Y0037198D01*
X0049249Y0037788D02*
X0047477Y0037788D01*
X0047477Y0038378D02*
X0049249Y0038378D01*
X0049249Y0038968D02*
X0047477Y0038968D01*
X0047477Y0039558D02*
X0049249Y0039558D01*
X0049249Y0040148D02*
X0047477Y0040148D01*
X0047477Y0040738D02*
X0049249Y0040738D01*
X0049249Y0041328D02*
X0047477Y0041328D01*
X0052477Y0041414D02*
X0052477Y0034248D01*
X0052477Y0041414D02*
X0054249Y0041414D01*
X0054249Y0034248D01*
X0052477Y0034248D01*
X0052477Y0034838D02*
X0054249Y0034838D01*
X0054249Y0035428D02*
X0052477Y0035428D01*
X0052477Y0036018D02*
X0054249Y0036018D01*
X0054249Y0036608D02*
X0052477Y0036608D01*
X0052477Y0037198D02*
X0054249Y0037198D01*
X0054249Y0037788D02*
X0052477Y0037788D01*
X0052477Y0038378D02*
X0054249Y0038378D01*
X0054249Y0038968D02*
X0052477Y0038968D01*
X0052477Y0039558D02*
X0054249Y0039558D01*
X0054249Y0040148D02*
X0052477Y0040148D01*
X0052477Y0040738D02*
X0054249Y0040738D01*
X0054249Y0041328D02*
X0052477Y0041328D01*
D19*
X0055242Y0110252D03*
X0055242Y0112220D03*
X0055242Y0114189D03*
X0055242Y0116157D03*
X0055242Y0118126D03*
X0066642Y0118126D03*
X0066642Y0116157D03*
X0066642Y0114189D03*
X0066642Y0112220D03*
X0066642Y0110252D03*
D20*
X0060942Y0114189D03*
D21*
X0097972Y0112260D02*
X0105172Y0112260D01*
X0105172Y0122260D02*
X0097972Y0122260D01*
X0097972Y0132260D02*
X0105172Y0132260D01*
X0105172Y0142260D02*
X0097972Y0142260D01*
X0097972Y0152260D02*
X0105172Y0152260D01*
X0105172Y0162260D02*
X0097972Y0162260D01*
X0097972Y0172260D02*
X0105172Y0172260D01*
X0105172Y0182260D02*
X0097972Y0182260D01*
X0187972Y0182260D02*
X0195172Y0182260D01*
X0195172Y0172260D02*
X0187972Y0172260D01*
X0187972Y0162260D02*
X0195172Y0162260D01*
X0195172Y0152260D02*
X0187972Y0152260D01*
X0187972Y0142260D02*
X0195172Y0142260D01*
X0195172Y0132260D02*
X0187972Y0132260D01*
X0187972Y0122260D02*
X0195172Y0122260D01*
X0195172Y0112260D02*
X0187972Y0112260D01*
D22*
X0136139Y0036394D03*
X0133777Y0036394D03*
X0131415Y0036394D03*
X0129052Y0036394D03*
X0126690Y0036394D03*
X0124328Y0036394D03*
X0121966Y0036394D03*
X0119604Y0036394D03*
X0117241Y0036394D03*
X0114879Y0036394D03*
X0112517Y0036394D03*
X0110155Y0036394D03*
X0107793Y0036394D03*
X0105430Y0036394D03*
X0103068Y0036394D03*
X0100706Y0036394D03*
X0098344Y0036394D03*
X0095982Y0036394D03*
X0093619Y0036394D03*
X0091257Y0036394D03*
D23*
X0092438Y0047713D03*
X0094801Y0047713D03*
X0097163Y0047713D03*
X0099525Y0047713D03*
X0101887Y0047713D03*
X0104249Y0047713D03*
X0106612Y0047713D03*
X0108974Y0047713D03*
X0111336Y0047713D03*
X0113698Y0047713D03*
X0116060Y0047713D03*
X0118423Y0047713D03*
X0120785Y0047713D03*
X0123147Y0047713D03*
X0125509Y0047713D03*
X0127871Y0047713D03*
X0130234Y0047713D03*
X0132596Y0047713D03*
X0134958Y0047713D03*
D24*
X0138895Y0037476D03*
X0088501Y0037476D03*
D25*
X0027025Y0036315D03*
X0022025Y0036315D03*
X0017025Y0036315D03*
X0012025Y0036315D03*
X0012025Y0056787D03*
X0017025Y0056787D03*
X0022025Y0056787D03*
X0027025Y0056787D03*
D26*
X0042320Y0019701D03*
X0042320Y0009701D03*
D27*
X0022241Y0014701D03*
D28*
X0018186Y0167142D03*
X0014446Y0175803D03*
X0021926Y0175803D03*
G36*
X0032216Y0170569D02*
X0034999Y0167786D01*
X0031102Y0163889D01*
X0028319Y0166672D01*
X0032216Y0170569D01*
G37*
G36*
X0035696Y0179338D02*
X0038479Y0176555D01*
X0034582Y0172658D01*
X0031799Y0175441D01*
X0035696Y0179338D01*
G37*
G36*
X0040986Y0174049D02*
X0043769Y0171266D01*
X0039872Y0167369D01*
X0037089Y0170152D01*
X0040986Y0174049D01*
G37*
D29*
X0041383Y0175550D02*
X0040364Y0175550D01*
X0035588Y0170773D01*
X0035588Y0169531D01*
X0039251Y0165868D01*
X0040493Y0165868D01*
X0045269Y0170644D01*
X0045269Y0171887D01*
X0044767Y0172390D01*
X0045383Y0173006D01*
X0045383Y0187189D01*
X0096545Y0187189D01*
X0095083Y0186583D01*
X0093649Y0185149D01*
X0092872Y0183274D01*
X0092872Y0181245D01*
X0093649Y0179371D01*
X0095083Y0177936D01*
X0096716Y0177260D01*
X0095083Y0176583D01*
X0093649Y0175149D01*
X0092872Y0173274D01*
X0092872Y0171245D01*
X0093649Y0169371D01*
X0095083Y0167936D01*
X0096716Y0167260D01*
X0095083Y0166583D01*
X0093649Y0165149D01*
X0092872Y0163274D01*
X0092872Y0161245D01*
X0093649Y0159371D01*
X0095083Y0157936D01*
X0096716Y0157260D01*
X0095083Y0156583D01*
X0093649Y0155149D01*
X0092872Y0153274D01*
X0092872Y0151245D01*
X0093649Y0149371D01*
X0095083Y0147936D01*
X0096716Y0147260D01*
X0095083Y0146583D01*
X0093649Y0145149D01*
X0092872Y0143274D01*
X0092872Y0141245D01*
X0093649Y0139371D01*
X0095083Y0137936D01*
X0096716Y0137260D01*
X0095083Y0136583D01*
X0093649Y0135149D01*
X0093046Y0133693D01*
X0089871Y0136868D01*
X0089871Y0157340D01*
X0084034Y0163177D01*
X0075576Y0163177D01*
X0075028Y0163725D01*
X0075253Y0163855D01*
X0075587Y0164189D01*
X0075824Y0164598D01*
X0075946Y0165055D01*
X0075946Y0166087D01*
X0070659Y0166087D01*
X0070659Y0166268D01*
X0070478Y0166268D01*
X0070478Y0171087D01*
X0070659Y0171087D01*
X0070659Y0171268D01*
X0075946Y0171268D01*
X0075946Y0172299D01*
X0075824Y0172756D01*
X0075587Y0173165D01*
X0075253Y0173500D01*
X0075028Y0173630D01*
X0075946Y0174548D01*
X0075946Y0177807D01*
X0074895Y0178858D01*
X0066242Y0178858D01*
X0065190Y0177807D01*
X0065190Y0174548D01*
X0066108Y0173630D01*
X0065883Y0173500D01*
X0065549Y0173165D01*
X0065313Y0172756D01*
X0065190Y0172299D01*
X0065190Y0171268D01*
X0070478Y0171268D01*
X0070478Y0171087D01*
X0065190Y0171087D01*
X0065190Y0170055D01*
X0065313Y0169598D01*
X0065549Y0169189D01*
X0065883Y0168855D01*
X0066191Y0168677D01*
X0065883Y0168500D01*
X0065549Y0168165D01*
X0065313Y0167756D01*
X0065190Y0167299D01*
X0065190Y0166268D01*
X0070478Y0166268D01*
X0070478Y0166087D01*
X0065190Y0166087D01*
X0065190Y0165055D01*
X0065313Y0164598D01*
X0065549Y0164189D01*
X0065883Y0163855D01*
X0066108Y0163725D01*
X0065190Y0162807D01*
X0065190Y0159548D01*
X0066242Y0158496D01*
X0069730Y0158496D01*
X0069730Y0157734D01*
X0068778Y0156782D01*
X0067942Y0157618D01*
X0061581Y0157618D01*
X0061021Y0157058D01*
X0060761Y0157318D01*
X0060419Y0157516D01*
X0060037Y0157618D01*
X0057781Y0157618D01*
X0057781Y0153665D01*
X0056781Y0153665D01*
X0056781Y0152665D01*
X0057781Y0152665D01*
X0057781Y0149154D01*
X0057308Y0149154D01*
X0057308Y0145004D01*
X0056308Y0145004D01*
X0056308Y0144004D01*
X0052749Y0144004D01*
X0052749Y0141157D01*
X0052852Y0140775D01*
X0053049Y0140433D01*
X0053328Y0140154D01*
X0053670Y0139957D01*
X0054052Y0139854D01*
X0056308Y0139854D01*
X0056308Y0144004D01*
X0057308Y0144004D01*
X0057308Y0139854D01*
X0059565Y0139854D01*
X0059946Y0139957D01*
X0060288Y0140154D01*
X0060549Y0140414D01*
X0061108Y0139854D01*
X0067469Y0139854D01*
X0068348Y0140733D01*
X0068348Y0148275D01*
X0067910Y0148713D01*
X0067942Y0148713D01*
X0068820Y0149591D01*
X0068820Y0151168D01*
X0069989Y0152337D01*
X0072558Y0154906D01*
X0073730Y0156077D01*
X0073730Y0158496D01*
X0074895Y0158496D01*
X0075576Y0159177D01*
X0082378Y0159177D01*
X0085871Y0155683D01*
X0085871Y0135211D01*
X0087261Y0133821D01*
X0086736Y0133604D01*
X0085976Y0132844D01*
X0085566Y0131855D01*
X0085510Y0131870D01*
X0082663Y0131870D01*
X0082663Y0128311D01*
X0086812Y0128311D01*
X0086812Y0128994D01*
X0087728Y0128615D01*
X0088137Y0128615D01*
X0088627Y0128124D01*
X0088627Y0092251D01*
X0088220Y0092659D01*
X0087227Y0093070D01*
X0086153Y0093070D01*
X0085161Y0092659D01*
X0084401Y0091899D01*
X0083990Y0090907D01*
X0083990Y0089833D01*
X0084401Y0088841D01*
X0084690Y0088552D01*
X0084690Y0076110D01*
X0084676Y0076124D01*
X0083684Y0076535D01*
X0082610Y0076535D01*
X0081618Y0076124D01*
X0080858Y0075364D01*
X0080447Y0074372D01*
X0080447Y0073963D01*
X0075635Y0069151D01*
X0075635Y0067494D01*
X0075635Y0065257D01*
X0075023Y0065511D01*
X0073948Y0065511D01*
X0072956Y0065100D01*
X0072197Y0064340D01*
X0071786Y0063348D01*
X0071786Y0062274D01*
X0072197Y0061282D01*
X0072956Y0060522D01*
X0073273Y0060391D01*
X0073273Y0055492D01*
X0066974Y0055492D01*
X0066454Y0054972D01*
X0065658Y0055768D01*
X0064084Y0055768D01*
X0064084Y0059506D01*
X0063406Y0060184D01*
X0063406Y0060592D01*
X0062995Y0061585D01*
X0062235Y0062344D01*
X0061243Y0062755D01*
X0060169Y0062755D01*
X0059177Y0062344D01*
X0058888Y0062055D01*
X0055635Y0062055D01*
X0054993Y0062697D01*
X0051734Y0062697D01*
X0050863Y0061826D01*
X0050363Y0062326D01*
X0050363Y0065799D01*
X0051879Y0065799D01*
X0052757Y0066678D01*
X0052757Y0068843D01*
X0055466Y0068843D01*
X0055466Y0067387D01*
X0056345Y0066508D01*
X0061947Y0066508D01*
X0061943Y0066498D01*
X0061943Y0065424D01*
X0062354Y0064431D01*
X0063114Y0063672D01*
X0064106Y0063261D01*
X0065180Y0063261D01*
X0066172Y0063672D01*
X0066932Y0064431D01*
X0067343Y0065424D01*
X0067343Y0066498D01*
X0067339Y0066508D01*
X0072745Y0066508D01*
X0073623Y0067387D01*
X0073623Y0073747D01*
X0073064Y0074307D01*
X0073623Y0074867D01*
X0073623Y0081228D01*
X0072745Y0082106D01*
X0065596Y0082106D01*
X0064741Y0081251D01*
X0063886Y0082106D01*
X0062273Y0082106D01*
X0062273Y0086705D01*
X0063453Y0086705D01*
X0064013Y0087265D01*
X0064573Y0086705D01*
X0070934Y0086705D01*
X0071812Y0087583D01*
X0071812Y0095125D01*
X0070934Y0096004D01*
X0069753Y0096004D01*
X0069753Y0097376D01*
X0072952Y0100575D01*
X0074123Y0101746D01*
X0074123Y0110884D01*
X0072818Y0112189D01*
X0074326Y0112189D01*
X0075151Y0111364D01*
X0075151Y0106363D01*
X0075711Y0105803D01*
X0075451Y0105543D01*
X0075253Y0105201D01*
X0075151Y0104820D01*
X0075151Y0102563D01*
X0079300Y0102563D01*
X0079300Y0101563D01*
X0075151Y0101563D01*
X0075151Y0099306D01*
X0075253Y0098925D01*
X0075451Y0098583D01*
X0075730Y0098304D01*
X0076072Y0098106D01*
X0076453Y0098004D01*
X0079301Y0098004D01*
X0079301Y0101563D01*
X0080300Y0101563D01*
X0080300Y0098004D01*
X0083148Y0098004D01*
X0083529Y0098106D01*
X0083871Y0098304D01*
X0084150Y0098583D01*
X0084348Y0098925D01*
X0084450Y0099306D01*
X0084450Y0101563D01*
X0080301Y0101563D01*
X0080301Y0102563D01*
X0084450Y0102563D01*
X0084450Y0104820D01*
X0084348Y0105201D01*
X0084150Y0105543D01*
X0083890Y0105803D01*
X0084450Y0106363D01*
X0084450Y0107341D01*
X0085366Y0106961D01*
X0086440Y0106961D01*
X0087432Y0107372D01*
X0088192Y0108132D01*
X0088603Y0109124D01*
X0088603Y0110198D01*
X0088192Y0111191D01*
X0087432Y0111950D01*
X0086440Y0112361D01*
X0085366Y0112361D01*
X0084450Y0111982D01*
X0084450Y0112724D01*
X0083571Y0113602D01*
X0078570Y0113602D01*
X0078015Y0114157D01*
X0078818Y0114157D01*
X0080932Y0116272D01*
X0082370Y0116272D01*
X0083203Y0115438D01*
X0083203Y0115030D01*
X0083614Y0114037D01*
X0084373Y0113278D01*
X0085366Y0112867D01*
X0086440Y0112867D01*
X0087432Y0113278D01*
X0088192Y0114037D01*
X0088603Y0115030D01*
X0088603Y0116104D01*
X0088192Y0117096D01*
X0087432Y0117856D01*
X0086812Y0118113D01*
X0086812Y0123511D01*
X0086253Y0124071D01*
X0086513Y0124331D01*
X0086710Y0124673D01*
X0086812Y0125054D01*
X0086812Y0127311D01*
X0082663Y0127311D01*
X0082663Y0128311D01*
X0081663Y0128311D01*
X0081663Y0131870D01*
X0078816Y0131870D01*
X0078545Y0131797D01*
X0078545Y0133453D01*
X0074395Y0133453D01*
X0074395Y0134453D01*
X0073395Y0134453D01*
X0073395Y0138012D01*
X0070548Y0138012D01*
X0070166Y0137910D01*
X0069824Y0137712D01*
X0069545Y0137433D01*
X0069348Y0137091D01*
X0069245Y0136709D01*
X0069245Y0134453D01*
X0073395Y0134453D01*
X0073395Y0133453D01*
X0069245Y0133453D01*
X0069245Y0131196D01*
X0069348Y0130815D01*
X0069545Y0130473D01*
X0069805Y0130213D01*
X0069245Y0129653D01*
X0069245Y0128394D01*
X0069175Y0128394D01*
X0069175Y0130165D01*
X0068296Y0131043D01*
X0061935Y0131043D01*
X0061375Y0130484D01*
X0060816Y0131043D01*
X0060656Y0131043D01*
X0060353Y0131346D01*
X0053532Y0131346D01*
X0053545Y0131393D01*
X0053545Y0133650D01*
X0049592Y0133650D01*
X0049592Y0134650D01*
X0048592Y0134650D01*
X0048592Y0138209D01*
X0045942Y0138209D01*
X0045560Y0138106D01*
X0045218Y0137909D01*
X0044939Y0137630D01*
X0044741Y0137288D01*
X0044639Y0136906D01*
X0044639Y0134650D01*
X0048592Y0134650D01*
X0048592Y0133650D01*
X0044639Y0133650D01*
X0044639Y0131393D01*
X0044741Y0131012D01*
X0044939Y0130670D01*
X0045029Y0130579D01*
X0044596Y0130208D01*
X0044596Y0139542D01*
X0047449Y0142394D01*
X0047857Y0142394D01*
X0048850Y0142806D01*
X0049609Y0143565D01*
X0050020Y0144557D01*
X0050020Y0145632D01*
X0049609Y0146624D01*
X0048850Y0147383D01*
X0047857Y0147794D01*
X0046783Y0147794D01*
X0045791Y0147383D01*
X0045031Y0146624D01*
X0044620Y0145632D01*
X0044620Y0145223D01*
X0044596Y0145198D01*
X0044596Y0151864D01*
X0051227Y0158496D01*
X0055406Y0158496D01*
X0056458Y0159548D01*
X0056458Y0162807D01*
X0055540Y0163725D01*
X0055765Y0163855D01*
X0056099Y0164189D01*
X0056336Y0164598D01*
X0056458Y0165055D01*
X0056458Y0166087D01*
X0051171Y0166087D01*
X0051171Y0166268D01*
X0056458Y0166268D01*
X0056458Y0167299D01*
X0056336Y0167756D01*
X0056099Y0168165D01*
X0055765Y0168500D01*
X0055457Y0168677D01*
X0055765Y0168855D01*
X0056099Y0169189D01*
X0056336Y0169598D01*
X0056458Y0170055D01*
X0056458Y0171087D01*
X0051171Y0171087D01*
X0051171Y0171268D01*
X0056458Y0171268D01*
X0056458Y0172299D01*
X0056336Y0172756D01*
X0056099Y0173165D01*
X0055765Y0173500D01*
X0055540Y0173630D01*
X0056458Y0174548D01*
X0056458Y0177807D01*
X0055406Y0178858D01*
X0046754Y0178858D01*
X0045702Y0177807D01*
X0045702Y0174548D01*
X0046620Y0173630D01*
X0046395Y0173500D01*
X0046061Y0173165D01*
X0045824Y0172756D01*
X0045702Y0172299D01*
X0045702Y0171268D01*
X0050989Y0171268D01*
X0050989Y0171087D01*
X0045702Y0171087D01*
X0045702Y0170055D01*
X0045824Y0169598D01*
X0046061Y0169189D01*
X0046395Y0168855D01*
X0046703Y0168677D01*
X0046395Y0168500D01*
X0046061Y0168165D01*
X0045824Y0167756D01*
X0045702Y0167299D01*
X0045702Y0166268D01*
X0050989Y0166268D01*
X0050989Y0166087D01*
X0045702Y0166087D01*
X0045702Y0165055D01*
X0045824Y0164598D01*
X0046061Y0164189D01*
X0046395Y0163855D01*
X0046620Y0163725D01*
X0045702Y0162807D01*
X0045702Y0159548D01*
X0046162Y0159088D01*
X0040596Y0153521D01*
X0040596Y0128269D01*
X0040265Y0128600D01*
X0040265Y0144348D01*
X0039093Y0145520D01*
X0037167Y0147447D01*
X0037167Y0149298D01*
X0036288Y0150177D01*
X0027171Y0150177D01*
X0026293Y0149298D01*
X0026293Y0124434D01*
X0026423Y0124304D01*
X0026423Y0120644D01*
X0027594Y0119472D01*
X0030878Y0116189D01*
X0023730Y0116189D01*
X0023730Y0123989D01*
X0024175Y0124434D01*
X0024175Y0149298D01*
X0023730Y0149743D01*
X0023730Y0153831D01*
X0025836Y0153831D01*
X0025836Y0157783D01*
X0026836Y0157783D01*
X0026836Y0153831D01*
X0029092Y0153831D01*
X0029474Y0153933D01*
X0029816Y0154130D01*
X0030095Y0154410D01*
X0030293Y0154752D01*
X0030395Y0155133D01*
X0030395Y0157783D01*
X0026836Y0157783D01*
X0026836Y0158783D01*
X0030395Y0158783D01*
X0030395Y0161434D01*
X0030293Y0161815D01*
X0030095Y0162157D01*
X0029816Y0162437D01*
X0029474Y0162634D01*
X0029092Y0162736D01*
X0028027Y0162736D01*
X0028464Y0163173D01*
X0029080Y0163790D01*
X0030481Y0162388D01*
X0031724Y0162388D01*
X0036500Y0167164D01*
X0036500Y0168407D01*
X0032838Y0172070D01*
X0031595Y0172070D01*
X0029854Y0170329D01*
X0028457Y0170329D01*
X0028235Y0170552D01*
X0028149Y0170850D01*
X0027670Y0171116D01*
X0027282Y0171504D01*
X0026972Y0171504D01*
X0026701Y0171655D01*
X0026174Y0171504D01*
X0025626Y0171504D01*
X0025406Y0171285D01*
X0024796Y0171110D01*
X0021064Y0171110D01*
X0020776Y0171398D01*
X0015596Y0171398D01*
X0014718Y0170519D01*
X0014718Y0170439D01*
X0013815Y0169535D01*
X0012643Y0168364D01*
X0012643Y0104743D01*
X0012395Y0104495D01*
X0012395Y0079631D01*
X0013274Y0078752D01*
X0014378Y0078752D01*
X0014602Y0078528D01*
X0022558Y0078528D01*
X0023730Y0079699D01*
X0023730Y0112189D01*
X0032452Y0112189D01*
X0025635Y0105372D01*
X0025635Y0104743D01*
X0025387Y0104495D01*
X0025387Y0102368D01*
X0025241Y0102222D01*
X0025241Y0101718D01*
X0025082Y0101240D01*
X0025241Y0100922D01*
X0025241Y0081668D01*
X0025387Y0081522D01*
X0025387Y0079631D01*
X0026266Y0078752D01*
X0028157Y0078752D01*
X0028382Y0078528D01*
X0037912Y0078528D01*
X0039084Y0079699D01*
X0041446Y0082061D01*
X0041446Y0096628D01*
X0043424Y0098606D01*
X0043458Y0098640D01*
X0043458Y0093686D01*
X0044337Y0092807D01*
X0045911Y0092807D01*
X0045911Y0092028D01*
X0043943Y0092028D01*
X0043064Y0091149D01*
X0043064Y0082820D01*
X0043943Y0081941D01*
X0051879Y0081941D01*
X0052757Y0082820D01*
X0052757Y0091149D01*
X0051879Y0092028D01*
X0049911Y0092028D01*
X0049911Y0092807D01*
X0051485Y0092807D01*
X0052363Y0093686D01*
X0052363Y0094947D01*
X0054054Y0096638D01*
X0055226Y0097809D01*
X0055226Y0108152D01*
X0056508Y0108152D01*
X0056871Y0107789D01*
X0065014Y0107789D01*
X0065377Y0108152D01*
X0067761Y0108152D01*
X0067761Y0106553D01*
X0059445Y0098236D01*
X0058273Y0097065D01*
X0058273Y0096004D01*
X0057093Y0096004D01*
X0056214Y0095125D01*
X0056214Y0087583D01*
X0057093Y0086705D01*
X0058273Y0086705D01*
X0058273Y0082106D01*
X0056345Y0082106D01*
X0055466Y0081228D01*
X0055466Y0074867D01*
X0056026Y0074307D01*
X0055466Y0073747D01*
X0055466Y0072843D01*
X0052757Y0072843D01*
X0052757Y0075007D01*
X0051879Y0075886D01*
X0043943Y0075886D01*
X0043064Y0075007D01*
X0043064Y0073046D01*
X0042351Y0073760D01*
X0035990Y0073760D01*
X0035430Y0073200D01*
X0035170Y0073460D01*
X0034828Y0073658D01*
X0034447Y0073760D01*
X0032190Y0073760D01*
X0032190Y0069807D01*
X0031190Y0069807D01*
X0031190Y0068807D01*
X0027631Y0068807D01*
X0027631Y0066157D01*
X0027733Y0065775D01*
X0027931Y0065433D01*
X0028210Y0065154D01*
X0028552Y0064957D01*
X0028934Y0064854D01*
X0031190Y0064854D01*
X0031190Y0068807D01*
X0032190Y0068807D01*
X0032190Y0064854D01*
X0034447Y0064854D01*
X0034828Y0064957D01*
X0035170Y0065154D01*
X0035430Y0065414D01*
X0035990Y0064854D01*
X0042351Y0064854D01*
X0043230Y0065733D01*
X0043230Y0066513D01*
X0043943Y0065799D01*
X0046363Y0065799D01*
X0046363Y0062326D01*
X0045863Y0061826D01*
X0044993Y0062697D01*
X0041734Y0062697D01*
X0040863Y0061826D01*
X0039993Y0062697D01*
X0036734Y0062697D01*
X0035682Y0061645D01*
X0035682Y0052993D01*
X0036734Y0051941D01*
X0039993Y0051941D01*
X0040863Y0052811D01*
X0041363Y0052311D01*
X0041363Y0042838D01*
X0040816Y0042291D01*
X0040686Y0042516D01*
X0040352Y0042850D01*
X0039942Y0043086D01*
X0039486Y0043209D01*
X0038454Y0043209D01*
X0038454Y0037921D01*
X0038273Y0037921D01*
X0038273Y0037740D01*
X0038454Y0037740D01*
X0038454Y0032453D01*
X0039486Y0032453D01*
X0039942Y0032575D01*
X0040352Y0032811D01*
X0040686Y0033146D01*
X0040816Y0033371D01*
X0041734Y0032453D01*
X0044993Y0032453D01*
X0045863Y0033323D01*
X0046734Y0032453D01*
X0049993Y0032453D01*
X0050863Y0033323D01*
X0051734Y0032453D01*
X0054993Y0032453D01*
X0055989Y0033449D01*
X0055989Y0031952D01*
X0055701Y0031663D01*
X0055289Y0030671D01*
X0055289Y0029597D01*
X0055701Y0028604D01*
X0055989Y0028315D01*
X0055989Y0021909D01*
X0054219Y0021909D01*
X0053340Y0021031D01*
X0053340Y0014670D01*
X0053900Y0014110D01*
X0053340Y0013550D01*
X0053340Y0011701D01*
X0047560Y0011701D01*
X0047560Y0012881D01*
X0046682Y0013760D01*
X0037959Y0013760D01*
X0037080Y0012881D01*
X0037080Y0006520D01*
X0037959Y0005642D01*
X0046682Y0005642D01*
X0047560Y0006520D01*
X0047560Y0007701D01*
X0053340Y0007701D01*
X0053340Y0007190D01*
X0054219Y0006311D01*
X0061760Y0006311D01*
X0062639Y0007190D01*
X0062639Y0013550D01*
X0062079Y0014110D01*
X0062639Y0014670D01*
X0062639Y0021031D01*
X0061760Y0021909D01*
X0059989Y0021909D01*
X0059989Y0028315D01*
X0060278Y0028604D01*
X0060689Y0029597D01*
X0060689Y0030671D01*
X0060278Y0031663D01*
X0059989Y0031952D01*
X0059989Y0040169D01*
X0061584Y0040169D01*
X0061584Y0043728D01*
X0062584Y0043728D01*
X0062584Y0040169D01*
X0065234Y0040169D01*
X0065616Y0040272D01*
X0065958Y0040469D01*
X0066237Y0040748D01*
X0066395Y0040473D01*
X0066675Y0040193D01*
X0067017Y0039996D01*
X0067398Y0039894D01*
X0070245Y0039894D01*
X0070245Y0043453D01*
X0066537Y0043453D01*
X0066537Y0043728D01*
X0062584Y0043728D01*
X0062584Y0044728D01*
X0066096Y0044728D01*
X0066096Y0044453D01*
X0070245Y0044453D01*
X0070245Y0043453D01*
X0071245Y0043453D01*
X0071245Y0039894D01*
X0072756Y0039894D01*
X0072486Y0039624D01*
X0072486Y0014629D01*
X0072197Y0014340D01*
X0071786Y0013348D01*
X0071786Y0012274D01*
X0072197Y0011282D01*
X0072956Y0010522D01*
X0073948Y0010111D01*
X0075023Y0010111D01*
X0076015Y0010522D01*
X0076774Y0011282D01*
X0077186Y0012274D01*
X0077186Y0013348D01*
X0076774Y0014340D01*
X0076486Y0014629D01*
X0076486Y0025719D01*
X0077098Y0025465D01*
X0078172Y0025465D01*
X0079165Y0025876D01*
X0079924Y0026636D01*
X0080230Y0027374D01*
X0081035Y0027040D01*
X0082109Y0027040D01*
X0083102Y0027451D01*
X0083861Y0028211D01*
X0084272Y0029203D01*
X0084272Y0030277D01*
X0083861Y0031270D01*
X0083178Y0031952D01*
X0083178Y0031998D01*
X0083893Y0031283D01*
X0090668Y0031283D01*
X0091840Y0032455D01*
X0092086Y0032701D01*
X0092731Y0033346D01*
X0092831Y0033319D01*
X0093619Y0033319D01*
X0093619Y0036394D01*
X0093619Y0039468D01*
X0092831Y0039468D01*
X0092546Y0039392D01*
X0092469Y0039468D01*
X0090789Y0039468D01*
X0090789Y0039551D01*
X0093982Y0039551D01*
X0093982Y0039468D01*
X0093619Y0039468D01*
X0093619Y0036394D01*
X0093619Y0036394D01*
X0093619Y0036394D01*
X0093619Y0033319D01*
X0094407Y0033319D01*
X0094693Y0033395D01*
X0094770Y0033319D01*
X0096344Y0033319D01*
X0096344Y0029502D01*
X0095791Y0029273D01*
X0095031Y0028514D01*
X0094620Y0027521D01*
X0094620Y0026447D01*
X0095031Y0025455D01*
X0095791Y0024695D01*
X0096783Y0024284D01*
X0097857Y0024284D01*
X0098850Y0024695D01*
X0099609Y0025455D01*
X0100020Y0026447D01*
X0100020Y0026856D01*
X0100344Y0027179D01*
X0100344Y0033319D01*
X0101068Y0033319D01*
X0101068Y0016864D01*
X0102888Y0015045D01*
X0102888Y0014636D01*
X0103299Y0013644D01*
X0104058Y0012884D01*
X0105051Y0012473D01*
X0106125Y0012473D01*
X0107117Y0012884D01*
X0107877Y0013644D01*
X0108288Y0014636D01*
X0108288Y0015710D01*
X0107897Y0016655D01*
X0108298Y0016821D01*
X0109058Y0017581D01*
X0109469Y0018573D01*
X0109469Y0019647D01*
X0109334Y0019973D01*
X0109382Y0019954D01*
X0110456Y0019954D01*
X0111448Y0020365D01*
X0112208Y0021124D01*
X0112619Y0022116D01*
X0112619Y0023191D01*
X0112227Y0024135D01*
X0112629Y0024302D01*
X0113389Y0025061D01*
X0113800Y0026053D01*
X0113800Y0026646D01*
X0113999Y0026646D01*
X0114991Y0027058D01*
X0115241Y0027308D01*
X0115241Y0017419D01*
X0111759Y0013936D01*
X0111350Y0013936D01*
X0110358Y0013525D01*
X0109598Y0012766D01*
X0109187Y0011773D01*
X0109187Y0010699D01*
X0109598Y0009707D01*
X0110358Y0008947D01*
X0111350Y0008536D01*
X0112424Y0008536D01*
X0113417Y0008947D01*
X0114176Y0009707D01*
X0114587Y0010699D01*
X0114587Y0011108D01*
X0119241Y0015762D01*
X0119241Y0033319D01*
X0119966Y0033319D01*
X0119966Y0026313D01*
X0123667Y0022613D01*
X0123667Y0015920D01*
X0124148Y0015438D01*
X0124148Y0015030D01*
X0124559Y0014037D01*
X0125318Y0013278D01*
X0126311Y0012867D01*
X0127385Y0012867D01*
X0128377Y0013278D01*
X0129137Y0014037D01*
X0129548Y0015030D01*
X0129548Y0016104D01*
X0129137Y0017096D01*
X0128377Y0017856D01*
X0127667Y0018150D01*
X0127667Y0024269D01*
X0126495Y0025441D01*
X0123966Y0027970D01*
X0123966Y0033319D01*
X0124328Y0033319D01*
X0124328Y0036394D01*
X0124328Y0039468D01*
X0123966Y0039468D01*
X0123966Y0040172D01*
X0124879Y0041085D01*
X0125241Y0040723D01*
X0125241Y0040723D01*
X0126413Y0039551D01*
X0129415Y0039551D01*
X0129415Y0039468D01*
X0127841Y0039468D01*
X0127764Y0039392D01*
X0127478Y0039468D01*
X0126690Y0039468D01*
X0125902Y0039468D01*
X0125521Y0039366D01*
X0125509Y0039360D01*
X0125498Y0039366D01*
X0125116Y0039468D01*
X0124328Y0039468D01*
X0124328Y0036394D01*
X0124328Y0036394D01*
X0126690Y0036394D01*
X0126690Y0039468D01*
X0126690Y0036394D01*
X0126690Y0036394D01*
X0126690Y0036394D01*
X0124600Y0036394D01*
X0124328Y0036394D01*
X0124328Y0036394D01*
X0124328Y0036394D01*
X0124328Y0033319D01*
X0125116Y0033319D01*
X0125498Y0033421D01*
X0125509Y0033428D01*
X0125521Y0033421D01*
X0125687Y0033377D01*
X0125635Y0033324D01*
X0125635Y0027731D01*
X0129178Y0024187D01*
X0130350Y0023016D01*
X0135074Y0023016D01*
X0135871Y0022219D01*
X0135871Y0015132D01*
X0139502Y0011501D01*
X0139502Y0011093D01*
X0139913Y0010100D01*
X0140673Y0009341D01*
X0141665Y0008930D01*
X0142739Y0008930D01*
X0143731Y0009341D01*
X0144491Y0010100D01*
X0144902Y0011093D01*
X0144902Y0012167D01*
X0144491Y0013159D01*
X0143731Y0013919D01*
X0142739Y0014330D01*
X0142330Y0014330D01*
X0139871Y0016789D01*
X0139871Y0030487D01*
X0143021Y0033636D01*
X0143021Y0050647D01*
X0141849Y0051819D01*
X0141062Y0052606D01*
X0135074Y0052606D01*
X0133903Y0051435D01*
X0132960Y0050492D01*
X0131384Y0050492D01*
X0131307Y0050416D01*
X0131022Y0050492D01*
X0130234Y0050492D01*
X0130234Y0047713D01*
X0130234Y0047713D01*
X0130234Y0050492D01*
X0129871Y0050492D01*
X0129871Y0053164D01*
X0130126Y0053418D01*
X0130534Y0053418D01*
X0131527Y0053829D01*
X0132286Y0054589D01*
X0132697Y0055581D01*
X0132697Y0056655D01*
X0132444Y0057268D01*
X0155547Y0057268D01*
X0156129Y0056685D01*
X0155252Y0056685D01*
X0155129Y0056562D01*
X0155094Y0056583D01*
X0154712Y0056685D01*
X0153915Y0056685D01*
X0153915Y0053236D01*
X0153915Y0053236D01*
X0153915Y0056685D01*
X0153117Y0056685D01*
X0152736Y0056583D01*
X0152394Y0056386D01*
X0152114Y0056106D01*
X0151917Y0055764D01*
X0151815Y0055383D01*
X0151815Y0053235D01*
X0151815Y0051088D01*
X0151917Y0050706D01*
X0152114Y0050364D01*
X0152394Y0050085D01*
X0152736Y0049888D01*
X0153117Y0049785D01*
X0153915Y0049785D01*
X0154474Y0049785D01*
X0154474Y0042593D01*
X0154856Y0042210D01*
X0154856Y0041961D01*
X0154315Y0042503D01*
X0154351Y0042589D01*
X0154351Y0043663D01*
X0153940Y0044655D01*
X0153180Y0045415D01*
X0152188Y0045826D01*
X0151114Y0045826D01*
X0150121Y0045415D01*
X0149362Y0044655D01*
X0148951Y0043663D01*
X0148951Y0042589D01*
X0149362Y0041597D01*
X0150121Y0040837D01*
X0150467Y0040694D01*
X0150822Y0040339D01*
X0157033Y0034128D01*
X0157033Y0033711D01*
X0155252Y0033711D01*
X0155194Y0033652D01*
X0155136Y0033711D01*
X0152693Y0033711D01*
X0151815Y0032832D01*
X0151815Y0027689D01*
X0152013Y0027491D01*
X0152013Y0021962D01*
X0151707Y0021222D01*
X0151707Y0020148D01*
X0152118Y0019156D01*
X0152877Y0018396D01*
X0153870Y0017985D01*
X0154944Y0017985D01*
X0155250Y0018112D01*
X0155250Y0017786D01*
X0155661Y0016793D01*
X0156421Y0016034D01*
X0157413Y0015623D01*
X0158487Y0015623D01*
X0159480Y0016034D01*
X0159592Y0016146D01*
X0159592Y0013928D01*
X0159570Y0013919D01*
X0158811Y0013159D01*
X0158400Y0012167D01*
X0158400Y0011093D01*
X0158811Y0010100D01*
X0159218Y0009693D01*
X0154054Y0009693D01*
X0150501Y0013246D01*
X0150501Y0030962D01*
X0149233Y0032231D01*
X0149233Y0032639D01*
X0148822Y0033632D01*
X0148062Y0034391D01*
X0147070Y0034802D01*
X0145996Y0034802D01*
X0145003Y0034391D01*
X0144244Y0033632D01*
X0143833Y0032639D01*
X0143833Y0031565D01*
X0144244Y0030573D01*
X0145003Y0029813D01*
X0145996Y0029402D01*
X0146404Y0029402D01*
X0146501Y0029305D01*
X0146501Y0011589D01*
X0147673Y0010417D01*
X0152397Y0005693D01*
X0165471Y0005693D01*
X0166643Y0006864D01*
X0167430Y0007652D01*
X0167430Y0011526D01*
X0171689Y0007268D01*
X0193030Y0007268D01*
X0194202Y0008439D01*
X0198533Y0012770D01*
X0198533Y0083619D01*
X0198850Y0083750D01*
X0199609Y0084510D01*
X0200020Y0085502D01*
X0200020Y0086576D01*
X0199609Y0087569D01*
X0198850Y0088328D01*
X0197857Y0088739D01*
X0196783Y0088739D01*
X0196564Y0088649D01*
X0196564Y0088851D01*
X0196676Y0088851D01*
X0197669Y0089262D01*
X0198428Y0090022D01*
X0198839Y0091014D01*
X0198839Y0092088D01*
X0198428Y0093081D01*
X0197669Y0093840D01*
X0196676Y0094251D01*
X0195602Y0094251D01*
X0194610Y0093840D01*
X0194596Y0093826D01*
X0194596Y0093872D01*
X0195480Y0094757D01*
X0195889Y0094757D01*
X0196881Y0095168D01*
X0197641Y0095927D01*
X0198052Y0096920D01*
X0198052Y0097994D01*
X0197641Y0098986D01*
X0196881Y0099746D01*
X0195889Y0100157D01*
X0194815Y0100157D01*
X0193822Y0099746D01*
X0193063Y0098986D01*
X0192652Y0097994D01*
X0192652Y0097585D01*
X0192234Y0097167D01*
X0192234Y0098679D01*
X0171761Y0119151D01*
X0171761Y0119545D01*
X0170590Y0120717D01*
X0169217Y0120717D01*
X0168928Y0121005D01*
X0167936Y0121417D01*
X0166862Y0121417D01*
X0165870Y0121005D01*
X0165110Y0120246D01*
X0165068Y0120145D01*
X0165068Y0149875D01*
X0165180Y0149875D01*
X0166172Y0150286D01*
X0166932Y0151045D01*
X0167343Y0152038D01*
X0167343Y0153112D01*
X0166932Y0154104D01*
X0166172Y0154864D01*
X0165180Y0155275D01*
X0164106Y0155275D01*
X0163114Y0154864D01*
X0162354Y0154104D01*
X0161943Y0153112D01*
X0161943Y0152703D01*
X0161068Y0151828D01*
X0161068Y0104787D01*
X0160779Y0104498D01*
X0160368Y0103506D01*
X0160368Y0102431D01*
X0160519Y0102067D01*
X0153037Y0102067D01*
X0152863Y0101893D01*
X0152863Y0151435D01*
X0152382Y0151916D01*
X0152382Y0152324D01*
X0151971Y0153317D01*
X0151212Y0154076D01*
X0150219Y0154487D01*
X0149145Y0154487D01*
X0148153Y0154076D01*
X0147393Y0153317D01*
X0146982Y0152324D01*
X0146982Y0151250D01*
X0147393Y0150258D01*
X0148153Y0149498D01*
X0148863Y0149204D01*
X0148863Y0097954D01*
X0147755Y0099063D01*
X0146810Y0100008D01*
X0145513Y0100008D01*
X0145513Y0101188D01*
X0144634Y0102067D01*
X0137903Y0102067D01*
X0137903Y0161277D01*
X0137028Y0162152D01*
X0137028Y0162561D01*
X0136617Y0163553D01*
X0135857Y0164313D01*
X0134865Y0164724D01*
X0133791Y0164724D01*
X0132799Y0164313D01*
X0132039Y0163553D01*
X0131628Y0162561D01*
X0131628Y0161487D01*
X0132039Y0160494D01*
X0132799Y0159735D01*
X0133791Y0159324D01*
X0133903Y0159324D01*
X0133903Y0092976D01*
X0133614Y0092687D01*
X0133203Y0091695D01*
X0133203Y0090620D01*
X0133614Y0089628D01*
X0134373Y0088869D01*
X0126222Y0088869D01*
X0126222Y0088528D02*
X0126222Y0094889D01*
X0125662Y0095449D01*
X0126222Y0096009D01*
X0126222Y0096531D01*
X0126704Y0096331D01*
X0127779Y0096331D01*
X0128771Y0096743D01*
X0129530Y0097502D01*
X0129941Y0098494D01*
X0129941Y0099569D01*
X0129530Y0100561D01*
X0128771Y0101320D01*
X0127779Y0101731D01*
X0126704Y0101731D01*
X0126222Y0101532D01*
X0126222Y0102369D01*
X0125343Y0103248D01*
X0118218Y0103248D01*
X0118218Y0104502D01*
X0119015Y0105299D01*
X0120186Y0106471D01*
X0120186Y0131067D01*
X0120228Y0130967D01*
X0120988Y0130207D01*
X0121980Y0129796D01*
X0123054Y0129796D01*
X0124046Y0130207D01*
X0124806Y0130967D01*
X0125217Y0131959D01*
X0125217Y0133033D01*
X0124806Y0134025D01*
X0124517Y0134314D01*
X0124517Y0184899D01*
X0119399Y0190017D01*
X0119390Y0190026D01*
X0168871Y0190026D01*
X0169417Y0189480D01*
X0169417Y0124005D01*
X0169889Y0122866D01*
X0170761Y0121994D01*
X0183123Y0109632D01*
X0183627Y0109423D01*
X0183649Y0109371D01*
X0185083Y0107936D01*
X0186958Y0107160D01*
X0196187Y0107160D01*
X0198061Y0107936D01*
X0199496Y0109371D01*
X0200272Y0111245D01*
X0200272Y0113274D01*
X0199496Y0115149D01*
X0198061Y0116583D01*
X0196366Y0117285D01*
X0196366Y0117285D01*
X0197130Y0117533D01*
X0197845Y0117898D01*
X0198495Y0118370D01*
X0199062Y0118937D01*
X0199534Y0119587D01*
X0199898Y0120302D01*
X0200147Y0121066D01*
X0200257Y0121760D01*
X0192072Y0121760D01*
X0192072Y0122760D01*
X0200257Y0122760D01*
X0200147Y0123454D01*
X0199898Y0124218D01*
X0199534Y0124933D01*
X0199062Y0125582D01*
X0198495Y0126150D01*
X0197845Y0126622D01*
X0197130Y0126986D01*
X0196366Y0127234D01*
X0198061Y0127936D01*
X0199496Y0129371D01*
X0200272Y0131245D01*
X0200272Y0133274D01*
X0199496Y0135149D01*
X0198061Y0136583D01*
X0196428Y0137260D01*
X0198061Y0137936D01*
X0199496Y0139371D01*
X0200272Y0141245D01*
X0200272Y0143274D01*
X0199496Y0145149D01*
X0198061Y0146583D01*
X0196428Y0147260D01*
X0198061Y0147936D01*
X0199496Y0149371D01*
X0200272Y0151245D01*
X0200272Y0153274D01*
X0199496Y0155149D01*
X0198061Y0156583D01*
X0196428Y0157260D01*
X0198061Y0157936D01*
X0199496Y0159371D01*
X0200272Y0161245D01*
X0200272Y0163274D01*
X0199496Y0165149D01*
X0198061Y0166583D01*
X0196428Y0167260D01*
X0198061Y0167936D01*
X0199496Y0169371D01*
X0200272Y0171245D01*
X0200272Y0173274D01*
X0199496Y0175149D01*
X0198061Y0176583D01*
X0196428Y0177260D01*
X0198061Y0177936D01*
X0199496Y0179371D01*
X0200272Y0181245D01*
X0200272Y0183274D01*
X0199496Y0185149D01*
X0198061Y0186583D01*
X0196187Y0187360D01*
X0186958Y0187360D01*
X0185083Y0186583D01*
X0183649Y0185149D01*
X0182872Y0183274D01*
X0182872Y0181245D01*
X0183649Y0179371D01*
X0185083Y0177936D01*
X0186716Y0177260D01*
X0185083Y0176583D01*
X0183649Y0175149D01*
X0182872Y0173274D01*
X0182872Y0171245D01*
X0183649Y0169371D01*
X0185083Y0167936D01*
X0186716Y0167260D01*
X0185083Y0166583D01*
X0183649Y0165149D01*
X0182872Y0163274D01*
X0182872Y0161245D01*
X0183649Y0159371D01*
X0185083Y0157936D01*
X0186716Y0157260D01*
X0185083Y0156583D01*
X0183649Y0155149D01*
X0182872Y0153274D01*
X0182872Y0151245D01*
X0183649Y0149371D01*
X0185083Y0147936D01*
X0186716Y0147260D01*
X0185083Y0146583D01*
X0183649Y0145149D01*
X0182872Y0143274D01*
X0182872Y0141245D01*
X0183649Y0139371D01*
X0185083Y0137936D01*
X0186716Y0137260D01*
X0185083Y0136583D01*
X0183649Y0135149D01*
X0182872Y0133274D01*
X0182872Y0131245D01*
X0183649Y0129371D01*
X0185083Y0127936D01*
X0186778Y0127234D01*
X0186014Y0126986D01*
X0185299Y0126622D01*
X0184650Y0126150D01*
X0184082Y0125582D01*
X0183610Y0124933D01*
X0183246Y0124218D01*
X0182998Y0123454D01*
X0182888Y0122760D01*
X0191072Y0122760D01*
X0191072Y0121760D01*
X0182888Y0121760D01*
X0182998Y0121066D01*
X0183246Y0120302D01*
X0183610Y0119587D01*
X0184082Y0118937D01*
X0184650Y0118370D01*
X0185299Y0117898D01*
X0186014Y0117533D01*
X0186778Y0117285D01*
X0185083Y0116583D01*
X0185011Y0116512D01*
X0175617Y0125906D01*
X0175617Y0191380D01*
X0175145Y0192520D01*
X0172314Y0195350D01*
X0200332Y0195350D01*
X0200332Y0003500D01*
X0008482Y0003500D01*
X0008482Y0195350D01*
X0017602Y0195350D01*
X0012690Y0190439D01*
X0011818Y0189567D01*
X0011346Y0188428D01*
X0011346Y0179549D01*
X0010978Y0179180D01*
X0010978Y0172426D01*
X0011856Y0171547D01*
X0017036Y0171547D01*
X0017915Y0172426D01*
X0017915Y0179180D01*
X0017546Y0179549D01*
X0017546Y0179790D01*
X0019067Y0179790D01*
X0018458Y0179180D01*
X0018458Y0172426D01*
X0019337Y0171547D01*
X0024516Y0171547D01*
X0025395Y0172426D01*
X0025395Y0173016D01*
X0029251Y0173016D01*
X0030423Y0174187D01*
X0030677Y0174442D01*
X0033961Y0171158D01*
X0035204Y0171158D01*
X0039980Y0175934D01*
X0039980Y0176455D01*
X0040106Y0176581D01*
X0040578Y0177720D01*
X0040578Y0183900D01*
X0040106Y0185039D01*
X0039234Y0185912D01*
X0038094Y0186383D01*
X0036861Y0186383D01*
X0035722Y0185912D01*
X0035159Y0185349D01*
X0035159Y0186798D01*
X0035550Y0187189D01*
X0041383Y0187189D01*
X0041383Y0175550D01*
X0041383Y0175739D02*
X0039786Y0175739D01*
X0039556Y0174741D02*
X0038787Y0174741D01*
X0038557Y0173742D02*
X0037789Y0173742D01*
X0037559Y0172744D02*
X0036790Y0172744D01*
X0036560Y0171745D02*
X0035792Y0171745D01*
X0035588Y0170747D02*
X0034160Y0170747D01*
X0033373Y0171745D02*
X0033162Y0171745D01*
X0032375Y0172744D02*
X0025395Y0172744D01*
X0024715Y0171745D02*
X0031271Y0171745D01*
X0030272Y0170747D02*
X0028179Y0170747D01*
X0026848Y0169110D02*
X0027635Y0168323D01*
X0027635Y0165173D01*
X0026060Y0163598D01*
X0023304Y0163598D01*
X0021730Y0162024D01*
X0021730Y0080528D01*
X0015430Y0080528D01*
X0014643Y0081315D01*
X0014643Y0167535D01*
X0016218Y0169110D01*
X0026848Y0169110D01*
X0027208Y0168750D02*
X0015857Y0168750D01*
X0014859Y0167751D02*
X0027635Y0167751D01*
X0027635Y0166753D02*
X0014643Y0166753D01*
X0014643Y0165754D02*
X0027635Y0165754D01*
X0027218Y0164756D02*
X0014643Y0164756D01*
X0014643Y0163757D02*
X0026219Y0163757D01*
X0028049Y0162759D02*
X0030111Y0162759D01*
X0030307Y0161760D02*
X0045702Y0161760D01*
X0045702Y0160762D02*
X0030395Y0160762D01*
X0030395Y0159763D02*
X0045702Y0159763D01*
X0045839Y0158765D02*
X0026836Y0158765D01*
X0026836Y0157766D02*
X0025836Y0157766D01*
X0025836Y0156768D02*
X0026836Y0156768D01*
X0026836Y0155769D02*
X0025836Y0155769D01*
X0025836Y0154771D02*
X0026836Y0154771D01*
X0030298Y0154771D02*
X0041845Y0154771D01*
X0042844Y0155769D02*
X0030395Y0155769D01*
X0030395Y0156768D02*
X0043842Y0156768D01*
X0044841Y0157766D02*
X0030395Y0157766D01*
X0032094Y0162759D02*
X0045702Y0162759D01*
X0046564Y0163757D02*
X0033093Y0163757D01*
X0034091Y0164756D02*
X0045782Y0164756D01*
X0045702Y0165754D02*
X0035090Y0165754D01*
X0036089Y0166753D02*
X0038366Y0166753D01*
X0037367Y0167751D02*
X0036500Y0167751D01*
X0036369Y0168750D02*
X0036157Y0168750D01*
X0035588Y0169748D02*
X0035159Y0169748D01*
X0031376Y0173742D02*
X0029978Y0173742D01*
X0030423Y0174187D02*
X0030423Y0174187D01*
X0028423Y0175016D02*
X0022714Y0175016D01*
X0021926Y0175803D01*
X0018458Y0175739D02*
X0017915Y0175739D01*
X0017915Y0174741D02*
X0018458Y0174741D01*
X0018458Y0173742D02*
X0017915Y0173742D01*
X0017915Y0172744D02*
X0018458Y0172744D01*
X0019138Y0171745D02*
X0017234Y0171745D01*
X0014946Y0170747D02*
X0008482Y0170747D01*
X0008482Y0171745D02*
X0011658Y0171745D01*
X0010978Y0172744D02*
X0008482Y0172744D01*
X0008482Y0173742D02*
X0010978Y0173742D01*
X0010978Y0174741D02*
X0008482Y0174741D01*
X0008482Y0175739D02*
X0010978Y0175739D01*
X0010978Y0176738D02*
X0008482Y0176738D01*
X0008482Y0177737D02*
X0010978Y0177737D01*
X0010978Y0178735D02*
X0008482Y0178735D01*
X0008482Y0179734D02*
X0011346Y0179734D01*
X0011346Y0180732D02*
X0008482Y0180732D01*
X0008482Y0181731D02*
X0011346Y0181731D01*
X0011346Y0182729D02*
X0008482Y0182729D01*
X0008482Y0183728D02*
X0011346Y0183728D01*
X0011346Y0184726D02*
X0008482Y0184726D01*
X0008482Y0185725D02*
X0011346Y0185725D01*
X0011346Y0186723D02*
X0008482Y0186723D01*
X0008482Y0187722D02*
X0011346Y0187722D01*
X0011467Y0188720D02*
X0008482Y0188720D01*
X0008482Y0189719D02*
X0011970Y0189719D01*
X0012690Y0190439D02*
X0012690Y0190439D01*
X0012968Y0190717D02*
X0008482Y0190717D01*
X0008482Y0191716D02*
X0013967Y0191716D01*
X0014965Y0192714D02*
X0008482Y0192714D01*
X0008482Y0193713D02*
X0015964Y0193713D01*
X0016962Y0194711D02*
X0008482Y0194711D01*
X0017546Y0186527D02*
X0017546Y0185990D01*
X0019560Y0185990D01*
X0019560Y0187054D01*
X0020439Y0187933D01*
X0026800Y0187933D01*
X0027360Y0187373D01*
X0027919Y0187933D01*
X0030637Y0187933D01*
X0030859Y0188155D01*
X0031022Y0188550D01*
X0031422Y0188717D01*
X0032730Y0190026D01*
X0021045Y0190026D01*
X0017546Y0186527D01*
X0017742Y0186723D02*
X0019560Y0186723D01*
X0020228Y0187722D02*
X0018741Y0187722D01*
X0019739Y0188720D02*
X0031425Y0188720D01*
X0032423Y0189719D02*
X0020738Y0189719D01*
X0027011Y0187722D02*
X0027708Y0187722D01*
X0032556Y0187024D02*
X0031100Y0183480D01*
X0030982Y0183480D01*
X0030785Y0183283D01*
X0030785Y0177378D01*
X0028423Y0175016D01*
X0027594Y0177016D02*
X0025395Y0177016D01*
X0025395Y0179028D01*
X0026800Y0179028D01*
X0027360Y0179587D01*
X0027919Y0179028D01*
X0028785Y0179028D01*
X0028785Y0178206D01*
X0027594Y0177016D01*
X0028315Y0177737D02*
X0025395Y0177737D01*
X0025395Y0178735D02*
X0028785Y0178735D01*
X0032785Y0178735D02*
X0032971Y0178735D01*
X0032785Y0178549D02*
X0032785Y0179028D01*
X0033263Y0179028D01*
X0032785Y0178549D01*
X0035159Y0185725D02*
X0035535Y0185725D01*
X0035159Y0186723D02*
X0041383Y0186723D01*
X0041383Y0185725D02*
X0039421Y0185725D01*
X0040236Y0184726D02*
X0041383Y0184726D01*
X0041383Y0183728D02*
X0040578Y0183728D01*
X0040578Y0182729D02*
X0041383Y0182729D01*
X0041383Y0181731D02*
X0040578Y0181731D01*
X0040578Y0180732D02*
X0041383Y0180732D01*
X0041383Y0179734D02*
X0040578Y0179734D01*
X0040578Y0178735D02*
X0041383Y0178735D01*
X0041383Y0177737D02*
X0040578Y0177737D01*
X0040171Y0176738D02*
X0041383Y0176738D01*
X0043383Y0173835D02*
X0043383Y0188402D01*
X0044171Y0189189D01*
X0034722Y0189189D01*
X0032556Y0187024D01*
X0044171Y0189189D02*
X0117399Y0189189D01*
X0122517Y0184071D01*
X0122517Y0132496D01*
X0120517Y0134314D02*
X0120228Y0134025D01*
X0120186Y0133925D01*
X0120186Y0139230D01*
X0117037Y0142380D01*
X0115865Y0143551D01*
X0110157Y0143551D01*
X0109496Y0145149D01*
X0108061Y0146583D01*
X0106428Y0147260D01*
X0108061Y0147936D01*
X0109496Y0149371D01*
X0110272Y0151245D01*
X0110272Y0153274D01*
X0109496Y0155149D01*
X0108061Y0156583D01*
X0106428Y0157260D01*
X0108061Y0157936D01*
X0109496Y0159371D01*
X0110272Y0161245D01*
X0110272Y0163274D01*
X0109496Y0165149D01*
X0108061Y0166583D01*
X0106428Y0167260D01*
X0108061Y0167936D01*
X0109496Y0169371D01*
X0110272Y0171245D01*
X0110272Y0173274D01*
X0109496Y0175149D01*
X0108061Y0176583D01*
X0106428Y0177260D01*
X0108061Y0177936D01*
X0109496Y0179371D01*
X0110272Y0181245D01*
X0110272Y0183274D01*
X0109496Y0185149D01*
X0108061Y0186583D01*
X0106599Y0187189D01*
X0116570Y0187189D01*
X0120517Y0183242D01*
X0120517Y0134314D01*
X0120517Y0134801D02*
X0120186Y0134801D01*
X0120186Y0135799D02*
X0120517Y0135799D01*
X0120517Y0136798D02*
X0120186Y0136798D01*
X0120186Y0137796D02*
X0120517Y0137796D01*
X0120517Y0138795D02*
X0120186Y0138795D01*
X0120517Y0139793D02*
X0119623Y0139793D01*
X0120517Y0140792D02*
X0118625Y0140792D01*
X0117626Y0141790D02*
X0120517Y0141790D01*
X0120517Y0142789D02*
X0116628Y0142789D01*
X0115037Y0141551D02*
X0102281Y0141551D01*
X0101572Y0142260D01*
X0106428Y0137260D02*
X0108061Y0137936D01*
X0109496Y0139371D01*
X0109570Y0139551D01*
X0114208Y0139551D01*
X0116186Y0137573D01*
X0116186Y0131025D01*
X0114281Y0132931D01*
X0113109Y0134102D01*
X0109929Y0134102D01*
X0109496Y0135149D01*
X0108061Y0136583D01*
X0106428Y0137260D01*
X0107544Y0136798D02*
X0116186Y0136798D01*
X0116186Y0135799D02*
X0108845Y0135799D01*
X0109640Y0134801D02*
X0116186Y0134801D01*
X0116186Y0133802D02*
X0113410Y0133802D01*
X0114408Y0132803D02*
X0116186Y0132803D01*
X0116186Y0131805D02*
X0115407Y0131805D01*
X0114643Y0129740D02*
X0112281Y0132102D01*
X0101730Y0132102D01*
X0101572Y0132260D01*
X0106428Y0127260D02*
X0108061Y0127936D01*
X0109496Y0129371D01*
X0109799Y0130102D01*
X0111452Y0130102D01*
X0112643Y0128912D01*
X0112643Y0110096D01*
X0110578Y0108031D01*
X0110169Y0108031D01*
X0109177Y0107620D01*
X0108417Y0106860D01*
X0108006Y0105868D01*
X0108006Y0104794D01*
X0108417Y0103801D01*
X0109177Y0103042D01*
X0110169Y0102631D01*
X0111243Y0102631D01*
X0112235Y0103042D01*
X0112995Y0103801D01*
X0113406Y0104794D01*
X0113406Y0105202D01*
X0114218Y0106014D01*
X0114218Y0077228D01*
X0113535Y0076545D01*
X0113124Y0075553D01*
X0113124Y0074479D01*
X0113535Y0073486D01*
X0114295Y0072727D01*
X0115287Y0072316D01*
X0116361Y0072316D01*
X0117354Y0072727D01*
X0118113Y0073486D01*
X0118524Y0074479D01*
X0118524Y0075553D01*
X0118218Y0076292D01*
X0118218Y0087650D01*
X0125343Y0087650D01*
X0126222Y0088528D01*
X0125564Y0087870D02*
X0136214Y0087870D01*
X0136214Y0087347D02*
X0136214Y0088457D01*
X0135366Y0088457D01*
X0134373Y0088869D01*
X0133515Y0089868D02*
X0126222Y0089868D01*
X0126222Y0090866D02*
X0133203Y0090866D01*
X0133273Y0091865D02*
X0126222Y0091865D01*
X0126222Y0092863D02*
X0133790Y0092863D01*
X0133903Y0093862D02*
X0126222Y0093862D01*
X0126222Y0094860D02*
X0133903Y0094860D01*
X0133903Y0095859D02*
X0126072Y0095859D01*
X0128885Y0096857D02*
X0133903Y0096857D01*
X0133903Y0097856D02*
X0129677Y0097856D01*
X0129941Y0098854D02*
X0133903Y0098854D01*
X0133903Y0099853D02*
X0129824Y0099853D01*
X0129240Y0100851D02*
X0133903Y0100851D01*
X0133903Y0101850D02*
X0126222Y0101850D01*
X0125743Y0102848D02*
X0133903Y0102848D01*
X0133903Y0103847D02*
X0118218Y0103847D01*
X0118561Y0104845D02*
X0133903Y0104845D01*
X0133903Y0105844D02*
X0119559Y0105844D01*
X0120186Y0106842D02*
X0133903Y0106842D01*
X0133903Y0107841D02*
X0120186Y0107841D01*
X0120186Y0108839D02*
X0133903Y0108839D01*
X0133903Y0109838D02*
X0120186Y0109838D01*
X0120186Y0110836D02*
X0133903Y0110836D01*
X0133903Y0111835D02*
X0120186Y0111835D01*
X0120186Y0112833D02*
X0133903Y0112833D01*
X0133903Y0113832D02*
X0120186Y0113832D01*
X0120186Y0114830D02*
X0133903Y0114830D01*
X0133903Y0115829D02*
X0120186Y0115829D01*
X0120186Y0116827D02*
X0133903Y0116827D01*
X0133903Y0117826D02*
X0120186Y0117826D01*
X0120186Y0118824D02*
X0133903Y0118824D01*
X0133903Y0119823D02*
X0120186Y0119823D01*
X0120186Y0120821D02*
X0133903Y0120821D01*
X0133903Y0121820D02*
X0120186Y0121820D01*
X0120186Y0122818D02*
X0133903Y0122818D01*
X0133903Y0123817D02*
X0120186Y0123817D01*
X0120186Y0124815D02*
X0133903Y0124815D01*
X0133903Y0125814D02*
X0120186Y0125814D01*
X0120186Y0126812D02*
X0133903Y0126812D01*
X0133903Y0127811D02*
X0120186Y0127811D01*
X0120186Y0128809D02*
X0133903Y0128809D01*
X0133903Y0129808D02*
X0123083Y0129808D01*
X0121951Y0129808D02*
X0120186Y0129808D01*
X0120186Y0130806D02*
X0120388Y0130806D01*
X0124646Y0130806D02*
X0133903Y0130806D01*
X0133903Y0131805D02*
X0125153Y0131805D01*
X0125217Y0132803D02*
X0133903Y0132803D01*
X0133903Y0133802D02*
X0124899Y0133802D01*
X0124517Y0134801D02*
X0133903Y0134801D01*
X0133903Y0135799D02*
X0124517Y0135799D01*
X0124517Y0136798D02*
X0133903Y0136798D01*
X0133903Y0137796D02*
X0124517Y0137796D01*
X0124517Y0138795D02*
X0133903Y0138795D01*
X0133903Y0139793D02*
X0124517Y0139793D01*
X0124517Y0140792D02*
X0133903Y0140792D01*
X0133903Y0141790D02*
X0124517Y0141790D01*
X0124517Y0142789D02*
X0133903Y0142789D01*
X0133903Y0143787D02*
X0124517Y0143787D01*
X0124517Y0144786D02*
X0133903Y0144786D01*
X0133903Y0145784D02*
X0124517Y0145784D01*
X0124517Y0146783D02*
X0133903Y0146783D01*
X0133903Y0147781D02*
X0124517Y0147781D01*
X0124517Y0148780D02*
X0133903Y0148780D01*
X0133903Y0149778D02*
X0124517Y0149778D01*
X0124517Y0150777D02*
X0133903Y0150777D01*
X0133903Y0151775D02*
X0124517Y0151775D01*
X0124517Y0152774D02*
X0133903Y0152774D01*
X0133903Y0153772D02*
X0124517Y0153772D01*
X0124517Y0154771D02*
X0133903Y0154771D01*
X0133903Y0155769D02*
X0124517Y0155769D01*
X0124517Y0156768D02*
X0133903Y0156768D01*
X0133903Y0157766D02*
X0124517Y0157766D01*
X0124517Y0158765D02*
X0133903Y0158765D01*
X0132770Y0159763D02*
X0124517Y0159763D01*
X0124517Y0160762D02*
X0131928Y0160762D01*
X0131628Y0161760D02*
X0124517Y0161760D01*
X0124517Y0162759D02*
X0131710Y0162759D01*
X0132243Y0163757D02*
X0124517Y0163757D01*
X0124517Y0164756D02*
X0169417Y0164756D01*
X0169417Y0165754D02*
X0124517Y0165754D01*
X0124517Y0166753D02*
X0169417Y0166753D01*
X0169417Y0167751D02*
X0124517Y0167751D01*
X0124517Y0168750D02*
X0169417Y0168750D01*
X0169417Y0169748D02*
X0124517Y0169748D01*
X0124517Y0170747D02*
X0169417Y0170747D01*
X0169417Y0171745D02*
X0124517Y0171745D01*
X0124517Y0172744D02*
X0169417Y0172744D01*
X0169417Y0173742D02*
X0124517Y0173742D01*
X0124517Y0174741D02*
X0169417Y0174741D01*
X0169417Y0175739D02*
X0124517Y0175739D01*
X0124517Y0176738D02*
X0169417Y0176738D01*
X0169417Y0177737D02*
X0124517Y0177737D01*
X0124517Y0178735D02*
X0169417Y0178735D01*
X0169417Y0179734D02*
X0124517Y0179734D01*
X0124517Y0180732D02*
X0169417Y0180732D01*
X0169417Y0181731D02*
X0124517Y0181731D01*
X0124517Y0182729D02*
X0169417Y0182729D01*
X0169417Y0183728D02*
X0124517Y0183728D01*
X0124517Y0184726D02*
X0169417Y0184726D01*
X0169417Y0185725D02*
X0123692Y0185725D01*
X0122693Y0186723D02*
X0169417Y0186723D01*
X0169417Y0187722D02*
X0121695Y0187722D01*
X0120696Y0188720D02*
X0169417Y0188720D01*
X0169178Y0189719D02*
X0119698Y0189719D01*
X0117036Y0186723D02*
X0107724Y0186723D01*
X0108920Y0185725D02*
X0118035Y0185725D01*
X0119033Y0184726D02*
X0109671Y0184726D01*
X0110084Y0183728D02*
X0120032Y0183728D01*
X0120517Y0182729D02*
X0110272Y0182729D01*
X0110272Y0181731D02*
X0120517Y0181731D01*
X0120517Y0180732D02*
X0110060Y0180732D01*
X0109646Y0179734D02*
X0120517Y0179734D01*
X0120517Y0178735D02*
X0108860Y0178735D01*
X0107579Y0177737D02*
X0120517Y0177737D01*
X0120517Y0176738D02*
X0107688Y0176738D01*
X0108905Y0175739D02*
X0120517Y0175739D01*
X0120517Y0174741D02*
X0109665Y0174741D01*
X0110078Y0173742D02*
X0120517Y0173742D01*
X0120517Y0172744D02*
X0110272Y0172744D01*
X0110272Y0171745D02*
X0120517Y0171745D01*
X0120517Y0170747D02*
X0110066Y0170747D01*
X0109652Y0169748D02*
X0120517Y0169748D01*
X0120517Y0168750D02*
X0108875Y0168750D01*
X0107615Y0167751D02*
X0120517Y0167751D01*
X0120517Y0166753D02*
X0107652Y0166753D01*
X0108890Y0165754D02*
X0120517Y0165754D01*
X0120517Y0164756D02*
X0109658Y0164756D01*
X0110072Y0163757D02*
X0120517Y0163757D01*
X0120517Y0162759D02*
X0110272Y0162759D01*
X0110272Y0161760D02*
X0120517Y0161760D01*
X0120517Y0160762D02*
X0110072Y0160762D01*
X0109658Y0159763D02*
X0120517Y0159763D01*
X0120517Y0158765D02*
X0108890Y0158765D01*
X0107651Y0157766D02*
X0120517Y0157766D01*
X0120517Y0156768D02*
X0107616Y0156768D01*
X0108875Y0155769D02*
X0120517Y0155769D01*
X0120517Y0154771D02*
X0109652Y0154771D01*
X0110066Y0153772D02*
X0120517Y0153772D01*
X0120517Y0152774D02*
X0110272Y0152774D01*
X0110272Y0151775D02*
X0120517Y0151775D01*
X0120517Y0150777D02*
X0110078Y0150777D01*
X0109664Y0149778D02*
X0120517Y0149778D01*
X0120517Y0148780D02*
X0108904Y0148780D01*
X0107687Y0147781D02*
X0120517Y0147781D01*
X0120517Y0146783D02*
X0107580Y0146783D01*
X0108860Y0145784D02*
X0120517Y0145784D01*
X0120517Y0144786D02*
X0109646Y0144786D01*
X0110060Y0143787D02*
X0120517Y0143787D01*
X0118186Y0138402D02*
X0115037Y0141551D01*
X0114965Y0138795D02*
X0108919Y0138795D01*
X0107723Y0137796D02*
X0115963Y0137796D01*
X0118186Y0138402D02*
X0118186Y0107299D01*
X0116218Y0105331D01*
X0116218Y0090764D01*
X0117163Y0091709D01*
X0121572Y0091709D01*
X0118218Y0086872D02*
X0136689Y0086872D01*
X0137093Y0086469D02*
X0136214Y0087347D01*
X0137093Y0086469D02*
X0144226Y0086469D01*
X0144226Y0085502D01*
X0144638Y0084510D01*
X0145397Y0083750D01*
X0146389Y0083339D01*
X0147464Y0083339D01*
X0147863Y0083505D01*
X0146404Y0082046D01*
X0145996Y0082046D01*
X0145003Y0081635D01*
X0144244Y0080876D01*
X0143833Y0079884D01*
X0143833Y0078809D01*
X0144244Y0077817D01*
X0145003Y0077058D01*
X0145996Y0076646D01*
X0147070Y0076646D01*
X0148062Y0077058D01*
X0148822Y0077817D01*
X0149233Y0078809D01*
X0149233Y0079218D01*
X0151692Y0081677D01*
X0152863Y0082849D01*
X0152863Y0086642D01*
X0153037Y0086469D01*
X0160579Y0086469D01*
X0161458Y0087347D01*
X0161458Y0093708D01*
X0160898Y0094268D01*
X0161458Y0094827D01*
X0161458Y0096008D01*
X0162082Y0096008D01*
X0162643Y0095447D01*
X0162643Y0094944D01*
X0162354Y0094655D01*
X0161943Y0093663D01*
X0161943Y0092589D01*
X0162354Y0091597D01*
X0163114Y0090837D01*
X0164106Y0090426D01*
X0165180Y0090426D01*
X0166172Y0090837D01*
X0166883Y0091548D01*
X0166883Y0087150D01*
X0167762Y0086272D01*
X0172763Y0086272D01*
X0173273Y0085762D01*
X0173273Y0068282D01*
X0174445Y0067110D01*
X0180064Y0061490D01*
X0180064Y0056685D01*
X0179505Y0056685D01*
X0178708Y0056685D01*
X0178326Y0056583D01*
X0178226Y0056525D01*
X0178125Y0056583D01*
X0177744Y0056685D01*
X0176946Y0056685D01*
X0176387Y0056685D01*
X0176387Y0062557D01*
X0175216Y0063728D01*
X0170590Y0068354D01*
X0110271Y0068354D01*
X0109100Y0067183D01*
X0102249Y0060332D01*
X0102249Y0050492D01*
X0100675Y0050492D01*
X0100599Y0050416D01*
X0100313Y0050492D01*
X0099641Y0050492D01*
X0100108Y0050959D01*
X0100108Y0068282D01*
X0100905Y0069079D01*
X0102076Y0070250D01*
X0102076Y0077528D01*
X0102759Y0078211D01*
X0103170Y0079203D01*
X0103170Y0080277D01*
X0102759Y0081270D01*
X0101999Y0082029D01*
X0101007Y0082440D01*
X0099933Y0082440D01*
X0098940Y0082029D01*
X0098181Y0081270D01*
X0097770Y0080277D01*
X0097770Y0079203D01*
X0098076Y0078464D01*
X0098076Y0071907D01*
X0096171Y0070002D01*
X0096171Y0077528D01*
X0096853Y0078211D01*
X0097264Y0079203D01*
X0097264Y0080277D01*
X0096853Y0081270D01*
X0096094Y0082029D01*
X0095101Y0082440D01*
X0094693Y0082440D01*
X0094596Y0082537D01*
X0094596Y0108424D01*
X0095083Y0107936D01*
X0096958Y0107160D01*
X0106187Y0107160D01*
X0108061Y0107936D01*
X0109496Y0109371D01*
X0110272Y0111245D01*
X0110272Y0113274D01*
X0109496Y0115149D01*
X0108061Y0116583D01*
X0106428Y0117260D01*
X0108061Y0117936D01*
X0109496Y0119371D01*
X0110272Y0121245D01*
X0110272Y0123274D01*
X0109496Y0125149D01*
X0108061Y0126583D01*
X0106428Y0127260D01*
X0107508Y0126812D02*
X0112643Y0126812D01*
X0112643Y0125814D02*
X0108831Y0125814D01*
X0109634Y0124815D02*
X0112643Y0124815D01*
X0112643Y0123817D02*
X0110047Y0123817D01*
X0110272Y0122818D02*
X0112643Y0122818D01*
X0112643Y0121820D02*
X0110272Y0121820D01*
X0110097Y0120821D02*
X0112643Y0120821D01*
X0112643Y0119823D02*
X0109683Y0119823D01*
X0108949Y0118824D02*
X0112643Y0118824D01*
X0112643Y0117826D02*
X0107794Y0117826D01*
X0107472Y0116827D02*
X0112643Y0116827D01*
X0112643Y0115829D02*
X0108816Y0115829D01*
X0109628Y0114830D02*
X0112643Y0114830D01*
X0112643Y0113832D02*
X0110041Y0113832D01*
X0110272Y0112833D02*
X0112643Y0112833D01*
X0112643Y0111835D02*
X0110272Y0111835D01*
X0110103Y0110836D02*
X0112643Y0110836D01*
X0112385Y0109838D02*
X0109689Y0109838D01*
X0108964Y0108839D02*
X0111386Y0108839D01*
X0109710Y0107841D02*
X0107830Y0107841D01*
X0108410Y0106842D02*
X0094596Y0106842D01*
X0094596Y0105844D02*
X0108006Y0105844D01*
X0108006Y0104845D02*
X0094596Y0104845D01*
X0094596Y0103847D02*
X0108398Y0103847D01*
X0109644Y0102848D02*
X0094596Y0102848D01*
X0094596Y0101850D02*
X0114218Y0101850D01*
X0114218Y0102848D02*
X0111768Y0102848D01*
X0113014Y0103847D02*
X0114218Y0103847D01*
X0114218Y0104845D02*
X0113406Y0104845D01*
X0114047Y0105844D02*
X0114218Y0105844D01*
X0114643Y0109268D02*
X0110706Y0105331D01*
X0114643Y0109268D02*
X0114643Y0129740D01*
X0112643Y0128809D02*
X0108934Y0128809D01*
X0109677Y0129808D02*
X0111747Y0129808D01*
X0112643Y0127811D02*
X0107758Y0127811D01*
X0096716Y0127260D02*
X0095083Y0126583D01*
X0094596Y0126096D01*
X0094596Y0128424D01*
X0095083Y0127936D01*
X0096716Y0127260D01*
X0095636Y0126812D02*
X0094596Y0126812D01*
X0094596Y0127811D02*
X0095386Y0127811D01*
X0092596Y0131315D02*
X0092596Y0081709D01*
X0094564Y0079740D01*
X0094171Y0079346D01*
X0094171Y0059661D01*
X0092438Y0057929D01*
X0092438Y0047713D01*
X0090348Y0047930D02*
X0088690Y0047930D01*
X0088690Y0046932D02*
X0090348Y0046932D01*
X0090348Y0045933D02*
X0088690Y0045933D01*
X0088690Y0044934D02*
X0091225Y0044934D01*
X0091226Y0044933D02*
X0098375Y0044933D01*
X0098451Y0045010D01*
X0098737Y0044933D01*
X0099525Y0044933D01*
X0100313Y0044933D01*
X0100599Y0045010D01*
X0100675Y0044933D01*
X0121147Y0044933D01*
X0121147Y0043010D01*
X0121137Y0043000D01*
X0119966Y0041828D01*
X0119966Y0039468D01*
X0118392Y0039468D01*
X0097982Y0039468D01*
X0097982Y0041750D01*
X0097352Y0042380D01*
X0096180Y0043551D01*
X0088700Y0043551D01*
X0088690Y0043561D01*
X0088690Y0060595D01*
X0088732Y0060494D01*
X0089492Y0059735D01*
X0090484Y0059324D01*
X0091004Y0059324D01*
X0090438Y0058758D01*
X0090438Y0049704D01*
X0090348Y0049613D01*
X0090348Y0045812D01*
X0091226Y0044933D01*
X0088690Y0043936D02*
X0121147Y0043936D01*
X0121075Y0042937D02*
X0096794Y0042937D01*
X0097792Y0041939D02*
X0120076Y0041939D01*
X0119966Y0040940D02*
X0097982Y0040940D01*
X0097982Y0039942D02*
X0119966Y0039942D01*
X0121966Y0041000D02*
X0121966Y0036394D01*
X0121966Y0027142D01*
X0125667Y0023441D01*
X0125667Y0016748D01*
X0126848Y0015567D01*
X0128090Y0017975D02*
X0135871Y0017975D01*
X0135871Y0018973D02*
X0127667Y0018973D01*
X0127667Y0019972D02*
X0135871Y0019972D01*
X0135871Y0020970D02*
X0127667Y0020970D01*
X0127667Y0021969D02*
X0135871Y0021969D01*
X0135123Y0022967D02*
X0127667Y0022967D01*
X0127667Y0023966D02*
X0129400Y0023966D01*
X0128402Y0024964D02*
X0126972Y0024964D01*
X0127403Y0025963D02*
X0125973Y0025963D01*
X0126404Y0026961D02*
X0124975Y0026961D01*
X0125635Y0027960D02*
X0123976Y0027960D01*
X0123966Y0028958D02*
X0125635Y0028958D01*
X0125635Y0029957D02*
X0123966Y0029957D01*
X0123966Y0030955D02*
X0125635Y0030955D01*
X0125635Y0031954D02*
X0123966Y0031954D01*
X0123966Y0032952D02*
X0125635Y0032952D01*
X0124328Y0033951D02*
X0124328Y0033951D01*
X0124328Y0034949D02*
X0124328Y0034949D01*
X0124328Y0035948D02*
X0124328Y0035948D01*
X0124328Y0036946D02*
X0124328Y0036946D01*
X0124328Y0037945D02*
X0124328Y0037945D01*
X0124328Y0038943D02*
X0124328Y0038943D01*
X0123966Y0039942D02*
X0126022Y0039942D01*
X0126690Y0038943D02*
X0126690Y0038943D01*
X0126690Y0037945D02*
X0126690Y0037945D01*
X0126690Y0036946D02*
X0126690Y0036946D01*
X0129052Y0036394D02*
X0129052Y0033913D01*
X0127635Y0032496D01*
X0127635Y0028559D01*
X0131178Y0025016D01*
X0135903Y0025016D01*
X0137871Y0023047D01*
X0137871Y0015961D01*
X0142202Y0011630D01*
X0141021Y0012811D01*
X0139020Y0011984D02*
X0115463Y0011984D01*
X0114587Y0010985D02*
X0139547Y0010985D01*
X0140027Y0009987D02*
X0114292Y0009987D01*
X0113457Y0008988D02*
X0141525Y0008988D01*
X0142880Y0008988D02*
X0149102Y0008988D01*
X0148104Y0009987D02*
X0144377Y0009987D01*
X0144857Y0010985D02*
X0147105Y0010985D01*
X0146501Y0011984D02*
X0144902Y0011984D01*
X0144564Y0012982D02*
X0146501Y0012982D01*
X0146501Y0013981D02*
X0143582Y0013981D01*
X0141681Y0014979D02*
X0146501Y0014979D01*
X0146501Y0015978D02*
X0140683Y0015978D01*
X0139871Y0016976D02*
X0146501Y0016976D01*
X0146501Y0017975D02*
X0139871Y0017975D01*
X0139871Y0018973D02*
X0146501Y0018973D01*
X0146501Y0019972D02*
X0139871Y0019972D01*
X0139871Y0020970D02*
X0146501Y0020970D01*
X0146501Y0021969D02*
X0139871Y0021969D01*
X0139871Y0022967D02*
X0146501Y0022967D01*
X0146501Y0023966D02*
X0139871Y0023966D01*
X0139871Y0024964D02*
X0146501Y0024964D01*
X0146501Y0025963D02*
X0139871Y0025963D01*
X0139871Y0026961D02*
X0146501Y0026961D01*
X0146501Y0027960D02*
X0139871Y0027960D01*
X0139871Y0028958D02*
X0146501Y0028958D01*
X0144860Y0029957D02*
X0139871Y0029957D01*
X0140340Y0030955D02*
X0144085Y0030955D01*
X0143833Y0031954D02*
X0141339Y0031954D01*
X0142337Y0032952D02*
X0143962Y0032952D01*
X0144563Y0033951D02*
X0143021Y0033951D01*
X0143021Y0034949D02*
X0156212Y0034949D01*
X0157033Y0033951D02*
X0148503Y0033951D01*
X0149103Y0032952D02*
X0151935Y0032952D01*
X0151815Y0031954D02*
X0149510Y0031954D01*
X0150501Y0030955D02*
X0151815Y0030955D01*
X0151815Y0029957D02*
X0150501Y0029957D01*
X0150501Y0028958D02*
X0151815Y0028958D01*
X0151815Y0027960D02*
X0150501Y0027960D01*
X0150501Y0026961D02*
X0152013Y0026961D01*
X0152013Y0025963D02*
X0150501Y0025963D01*
X0150501Y0024964D02*
X0152013Y0024964D01*
X0152013Y0023966D02*
X0150501Y0023966D01*
X0150501Y0022967D02*
X0152013Y0022967D01*
X0152013Y0021969D02*
X0150501Y0021969D01*
X0150501Y0020970D02*
X0151707Y0020970D01*
X0151780Y0019972D02*
X0150501Y0019972D01*
X0150501Y0018973D02*
X0152300Y0018973D01*
X0150501Y0017975D02*
X0155250Y0017975D01*
X0155585Y0016976D02*
X0150501Y0016976D01*
X0150501Y0015978D02*
X0156556Y0015978D01*
X0157950Y0018323D02*
X0157950Y0023441D01*
X0156474Y0024917D01*
X0156474Y0030261D01*
X0154013Y0030162D02*
X0154013Y0021079D01*
X0154407Y0020685D01*
X0158779Y0025441D02*
X0158474Y0025746D01*
X0158474Y0026811D01*
X0159592Y0026811D01*
X0159592Y0024628D01*
X0158779Y0025441D01*
X0158779Y0025441D01*
X0158474Y0025963D02*
X0159592Y0025963D01*
X0159592Y0024964D02*
X0159255Y0024964D01*
X0159033Y0030261D02*
X0159033Y0034957D01*
X0151651Y0042339D01*
X0151651Y0043126D01*
X0153661Y0044934D02*
X0154474Y0044934D01*
X0154474Y0043936D02*
X0154238Y0043936D01*
X0154351Y0042937D02*
X0154474Y0042937D01*
X0156474Y0043421D02*
X0156474Y0053235D01*
X0153915Y0053235D02*
X0153915Y0049785D01*
X0153915Y0053235D01*
X0153915Y0053235D01*
X0151815Y0053235D01*
X0153915Y0053235D01*
X0153915Y0053235D01*
X0153915Y0052923D02*
X0153915Y0052923D01*
X0153915Y0053921D02*
X0153915Y0053921D01*
X0153915Y0054920D02*
X0153915Y0054920D01*
X0153915Y0055918D02*
X0153915Y0055918D01*
X0152006Y0055918D02*
X0132697Y0055918D01*
X0132589Y0056917D02*
X0155898Y0056917D01*
X0156375Y0059268D02*
X0114249Y0059268D01*
X0111336Y0056354D01*
X0111336Y0047713D01*
X0108974Y0047713D02*
X0108974Y0057535D01*
X0113068Y0061630D01*
X0160706Y0061630D01*
X0164249Y0058087D01*
X0164249Y0053334D01*
X0164151Y0053235D01*
X0166710Y0053235D02*
X0166710Y0045390D01*
X0167005Y0045094D01*
X0168987Y0046932D02*
X0169828Y0046932D01*
X0169828Y0046618D02*
X0169452Y0046242D01*
X0169294Y0046624D01*
X0168710Y0047208D01*
X0168710Y0049785D01*
X0169828Y0049785D01*
X0169828Y0046618D01*
X0169828Y0047930D02*
X0168710Y0047930D01*
X0168710Y0048929D02*
X0169828Y0048929D01*
X0173828Y0048929D02*
X0183509Y0048929D01*
X0183286Y0049785D02*
X0180843Y0049785D01*
X0180720Y0049908D01*
X0180684Y0049888D01*
X0180303Y0049785D01*
X0179505Y0049785D01*
X0179505Y0053235D01*
X0179505Y0053235D01*
X0176946Y0053235D01*
X0176946Y0053235D01*
X0176946Y0049785D01*
X0176149Y0049785D01*
X0175767Y0049888D01*
X0175731Y0049908D01*
X0175608Y0049785D01*
X0173828Y0049785D01*
X0173828Y0046421D01*
X0174019Y0046230D01*
X0174430Y0045238D01*
X0174430Y0044164D01*
X0174019Y0043171D01*
X0173259Y0042412D01*
X0172267Y0042001D01*
X0171193Y0042001D01*
X0170200Y0042412D01*
X0169441Y0043171D01*
X0169282Y0043553D01*
X0168535Y0042806D01*
X0167542Y0042394D01*
X0166468Y0042394D01*
X0165476Y0042806D01*
X0164716Y0043565D01*
X0164305Y0044557D01*
X0164305Y0045632D01*
X0164710Y0046609D01*
X0164710Y0049785D01*
X0163592Y0049785D01*
X0163592Y0046527D01*
X0163800Y0046025D01*
X0163800Y0044951D01*
X0163389Y0043959D01*
X0162629Y0043199D01*
X0161637Y0042788D01*
X0160563Y0042788D01*
X0160237Y0042923D01*
X0160256Y0042876D01*
X0160256Y0041802D01*
X0159845Y0040809D01*
X0159086Y0040050D01*
X0158093Y0039639D01*
X0157179Y0039639D01*
X0161033Y0035785D01*
X0161033Y0033711D01*
X0162813Y0033711D01*
X0162871Y0033652D01*
X0162930Y0033711D01*
X0165372Y0033711D01*
X0165430Y0033652D01*
X0165489Y0033711D01*
X0167931Y0033711D01*
X0167989Y0033652D01*
X0168048Y0033711D01*
X0170490Y0033711D01*
X0170549Y0033652D01*
X0170607Y0033711D01*
X0173049Y0033711D01*
X0173172Y0033588D01*
X0173208Y0033608D01*
X0173590Y0033711D01*
X0174387Y0033711D01*
X0174387Y0030261D01*
X0174387Y0030261D01*
X0174387Y0033711D01*
X0175185Y0033711D01*
X0175566Y0033608D01*
X0175602Y0033588D01*
X0175725Y0033711D01*
X0178167Y0033711D01*
X0178226Y0033652D01*
X0178284Y0033711D01*
X0180727Y0033711D01*
X0180785Y0033652D01*
X0180843Y0033711D01*
X0183286Y0033711D01*
X0183509Y0033487D01*
X0183509Y0050009D01*
X0183286Y0049785D01*
X0183427Y0049927D02*
X0183509Y0049927D01*
X0183509Y0047930D02*
X0173828Y0047930D01*
X0173828Y0046932D02*
X0183509Y0046932D01*
X0183509Y0045933D02*
X0174142Y0045933D01*
X0174430Y0044934D02*
X0183509Y0044934D01*
X0183509Y0043936D02*
X0174335Y0043936D01*
X0173785Y0042937D02*
X0183509Y0042937D01*
X0183509Y0041939D02*
X0160256Y0041939D01*
X0159900Y0040940D02*
X0183509Y0040940D01*
X0183509Y0039942D02*
X0158826Y0039942D01*
X0157874Y0038943D02*
X0183509Y0038943D01*
X0183509Y0037945D02*
X0158873Y0037945D01*
X0159871Y0036946D02*
X0183509Y0036946D01*
X0183509Y0035948D02*
X0160870Y0035948D01*
X0161033Y0034949D02*
X0183509Y0034949D01*
X0183509Y0033951D02*
X0161033Y0033951D01*
X0161592Y0030261D02*
X0161592Y0012122D01*
X0161100Y0011630D01*
X0162981Y0009693D02*
X0163389Y0010100D01*
X0163430Y0010201D01*
X0163430Y0009693D01*
X0162981Y0009693D01*
X0163275Y0009987D02*
X0163430Y0009987D01*
X0165430Y0008480D02*
X0164643Y0007693D01*
X0153226Y0007693D01*
X0148501Y0012417D01*
X0148501Y0030134D01*
X0146533Y0032102D01*
X0143021Y0035948D02*
X0155213Y0035948D01*
X0154215Y0036946D02*
X0143021Y0036946D01*
X0143021Y0037945D02*
X0153216Y0037945D01*
X0152218Y0038943D02*
X0143021Y0038943D01*
X0143021Y0039942D02*
X0151219Y0039942D01*
X0150018Y0040940D02*
X0143021Y0040940D01*
X0143021Y0041939D02*
X0149220Y0041939D01*
X0148951Y0042937D02*
X0143021Y0042937D01*
X0143021Y0043936D02*
X0149064Y0043936D01*
X0149641Y0044934D02*
X0143021Y0044934D01*
X0143021Y0045933D02*
X0154474Y0045933D01*
X0154474Y0046932D02*
X0143021Y0046932D01*
X0143021Y0047930D02*
X0154474Y0047930D01*
X0154474Y0048929D02*
X0143021Y0048929D01*
X0143021Y0049927D02*
X0152667Y0049927D01*
X0153915Y0049927D02*
X0153915Y0049927D01*
X0153915Y0050926D02*
X0153915Y0050926D01*
X0153915Y0051924D02*
X0153915Y0051924D01*
X0151815Y0051924D02*
X0141744Y0051924D01*
X0142743Y0050926D02*
X0151858Y0050926D01*
X0151815Y0052923D02*
X0129871Y0052923D01*
X0129871Y0051924D02*
X0134392Y0051924D01*
X0133394Y0050926D02*
X0129871Y0050926D01*
X0130234Y0050055D02*
X0130234Y0047713D01*
X0130234Y0047712D02*
X0130234Y0044933D01*
X0130596Y0044933D01*
X0130596Y0043797D01*
X0130586Y0043787D01*
X0130350Y0043551D01*
X0128070Y0043551D01*
X0127509Y0044112D01*
X0127509Y0044933D01*
X0129083Y0044933D01*
X0129160Y0045010D01*
X0129446Y0044933D01*
X0130234Y0044933D01*
X0130234Y0047712D01*
X0130234Y0047712D01*
X0130234Y0047930D02*
X0130234Y0047930D01*
X0130234Y0046932D02*
X0130234Y0046932D01*
X0130234Y0045933D02*
X0130234Y0045933D01*
X0130234Y0044934D02*
X0130234Y0044934D01*
X0129440Y0044934D02*
X0129085Y0044934D01*
X0127685Y0043936D02*
X0130596Y0043936D01*
X0132596Y0042969D02*
X0131415Y0041787D01*
X0131415Y0041551D01*
X0127241Y0041551D01*
X0125509Y0043283D01*
X0125509Y0047713D01*
X0123147Y0047713D02*
X0123147Y0042181D01*
X0121966Y0041000D01*
X0124735Y0040940D02*
X0125024Y0040940D01*
X0131415Y0041551D02*
X0131415Y0036394D01*
X0131415Y0032339D01*
X0131178Y0032102D01*
X0130942Y0032339D01*
X0133597Y0033319D02*
X0137047Y0033319D01*
X0137043Y0033315D01*
X0135871Y0032143D01*
X0135871Y0027016D01*
X0132007Y0027016D01*
X0129635Y0029387D01*
X0129635Y0029827D01*
X0129649Y0029813D01*
X0130641Y0029402D01*
X0131716Y0029402D01*
X0132708Y0029813D01*
X0133467Y0030573D01*
X0133878Y0031565D01*
X0133878Y0032639D01*
X0133597Y0033319D01*
X0133749Y0032952D02*
X0136680Y0032952D01*
X0135871Y0031954D02*
X0133878Y0031954D01*
X0133626Y0030955D02*
X0135871Y0030955D01*
X0135871Y0029957D02*
X0132851Y0029957D01*
X0131063Y0027960D02*
X0135871Y0027960D01*
X0135871Y0028958D02*
X0130064Y0028958D01*
X0123312Y0022967D02*
X0119241Y0022967D01*
X0119241Y0021969D02*
X0123667Y0021969D01*
X0123667Y0020970D02*
X0119241Y0020970D01*
X0119241Y0019972D02*
X0123667Y0019972D01*
X0123667Y0018973D02*
X0119241Y0018973D01*
X0119241Y0017975D02*
X0123667Y0017975D01*
X0123667Y0016976D02*
X0119241Y0016976D01*
X0119241Y0015978D02*
X0123667Y0015978D01*
X0124169Y0014979D02*
X0118458Y0014979D01*
X0117460Y0013981D02*
X0124616Y0013981D01*
X0126033Y0012982D02*
X0116461Y0012982D01*
X0117241Y0016591D02*
X0111887Y0011236D01*
X0109815Y0012982D02*
X0107215Y0012982D01*
X0108016Y0013981D02*
X0111803Y0013981D01*
X0112802Y0014979D02*
X0108288Y0014979D01*
X0108177Y0015978D02*
X0113800Y0015978D01*
X0114799Y0016976D02*
X0108453Y0016976D01*
X0109221Y0017975D02*
X0115241Y0017975D01*
X0115241Y0018973D02*
X0109469Y0018973D01*
X0109335Y0019972D02*
X0109338Y0019972D01*
X0110500Y0019972D02*
X0115241Y0019972D01*
X0115241Y0020970D02*
X0112054Y0020970D01*
X0112557Y0021969D02*
X0115241Y0021969D01*
X0115241Y0022967D02*
X0112619Y0022967D01*
X0112298Y0023966D02*
X0115241Y0023966D01*
X0115241Y0024964D02*
X0113292Y0024964D01*
X0113762Y0025963D02*
X0115241Y0025963D01*
X0115241Y0026961D02*
X0114759Y0026961D01*
X0113462Y0029346D02*
X0112517Y0031079D01*
X0112517Y0036394D01*
X0110155Y0036394D02*
X0110155Y0027535D01*
X0111100Y0026591D01*
X0107793Y0024780D02*
X0109919Y0022654D01*
X0107793Y0024780D02*
X0107793Y0036394D01*
X0105430Y0036394D02*
X0105430Y0020449D01*
X0106769Y0019110D01*
X0103068Y0017693D02*
X0105588Y0015173D01*
X0103159Y0013981D02*
X0076924Y0013981D01*
X0077186Y0012982D02*
X0103961Y0012982D01*
X0102888Y0014979D02*
X0076486Y0014979D01*
X0076486Y0015978D02*
X0101955Y0015978D01*
X0101068Y0016976D02*
X0076486Y0016976D01*
X0076486Y0017975D02*
X0101068Y0017975D01*
X0101068Y0018973D02*
X0076486Y0018973D01*
X0076486Y0019972D02*
X0101068Y0019972D01*
X0101068Y0020970D02*
X0076486Y0020970D01*
X0076486Y0021969D02*
X0101068Y0021969D01*
X0101068Y0022967D02*
X0076486Y0022967D01*
X0076486Y0023966D02*
X0101068Y0023966D01*
X0101068Y0024964D02*
X0099119Y0024964D01*
X0099820Y0025963D02*
X0101068Y0025963D01*
X0101068Y0026961D02*
X0100126Y0026961D01*
X0100344Y0027960D02*
X0101068Y0027960D01*
X0101068Y0028958D02*
X0100344Y0028958D01*
X0100344Y0029957D02*
X0101068Y0029957D01*
X0101068Y0030955D02*
X0100344Y0030955D01*
X0100344Y0031954D02*
X0101068Y0031954D01*
X0101068Y0032952D02*
X0100344Y0032952D01*
X0098344Y0036394D02*
X0098344Y0028008D01*
X0097320Y0026984D01*
X0094821Y0025963D02*
X0079251Y0025963D01*
X0080059Y0026961D02*
X0094620Y0026961D01*
X0094802Y0027960D02*
X0083610Y0027960D01*
X0084171Y0028958D02*
X0095476Y0028958D01*
X0096344Y0029957D02*
X0084272Y0029957D01*
X0083991Y0030955D02*
X0096344Y0030955D01*
X0096344Y0031954D02*
X0091339Y0031954D01*
X0091840Y0032455D02*
X0091840Y0032455D01*
X0092086Y0032701D02*
X0092086Y0032701D01*
X0092337Y0032952D02*
X0096344Y0032952D01*
X0093619Y0033951D02*
X0093619Y0033951D01*
X0093619Y0034949D02*
X0093619Y0034949D01*
X0093619Y0035948D02*
X0093619Y0035948D01*
X0093619Y0036946D02*
X0093619Y0036946D01*
X0093619Y0037945D02*
X0093619Y0037945D01*
X0093619Y0038943D02*
X0093619Y0038943D01*
X0095982Y0040921D02*
X0095982Y0036394D01*
X0095982Y0040921D02*
X0095352Y0041551D01*
X0087871Y0041551D01*
X0086690Y0042732D01*
X0086690Y0090370D01*
X0085653Y0092863D02*
X0071812Y0092863D01*
X0071812Y0091865D02*
X0084387Y0091865D01*
X0083990Y0090866D02*
X0071812Y0090866D01*
X0071812Y0089868D02*
X0083990Y0089868D01*
X0084390Y0088869D02*
X0071812Y0088869D01*
X0071812Y0087870D02*
X0084690Y0087870D01*
X0084690Y0086872D02*
X0071101Y0086872D01*
X0072972Y0081879D02*
X0084690Y0081879D01*
X0084690Y0080881D02*
X0073623Y0080881D01*
X0073623Y0079882D02*
X0084690Y0079882D01*
X0084690Y0078884D02*
X0073623Y0078884D01*
X0073623Y0077885D02*
X0084690Y0077885D01*
X0084690Y0076887D02*
X0073623Y0076887D01*
X0073623Y0075888D02*
X0081382Y0075888D01*
X0080662Y0074890D02*
X0073623Y0074890D01*
X0073479Y0073891D02*
X0080375Y0073891D01*
X0079377Y0072893D02*
X0073623Y0072893D01*
X0073623Y0071894D02*
X0078378Y0071894D01*
X0077380Y0070896D02*
X0073623Y0070896D01*
X0073623Y0069897D02*
X0076381Y0069897D01*
X0075635Y0068899D02*
X0073623Y0068899D01*
X0073623Y0067900D02*
X0075635Y0067900D01*
X0075635Y0066902D02*
X0073139Y0066902D01*
X0072761Y0064905D02*
X0067128Y0064905D01*
X0067343Y0065903D02*
X0075635Y0065903D01*
X0074486Y0062811D02*
X0075273Y0062024D01*
X0075273Y0039583D01*
X0074486Y0038795D01*
X0074486Y0012811D01*
X0076478Y0010985D02*
X0109187Y0010985D01*
X0109274Y0011984D02*
X0077065Y0011984D01*
X0072493Y0010985D02*
X0062639Y0010985D01*
X0062639Y0009987D02*
X0109482Y0009987D01*
X0110317Y0008988D02*
X0062639Y0008988D01*
X0062639Y0007990D02*
X0150101Y0007990D01*
X0151099Y0006991D02*
X0062440Y0006991D01*
X0059564Y0009701D02*
X0060312Y0010449D01*
X0059564Y0009701D02*
X0057950Y0009701D01*
X0057989Y0009740D01*
X0057989Y0010370D01*
X0057950Y0009701D02*
X0042320Y0009701D01*
X0047560Y0011984D02*
X0053340Y0011984D01*
X0053340Y0012982D02*
X0047459Y0012982D01*
X0046639Y0015744D02*
X0046258Y0015642D01*
X0042820Y0015642D01*
X0042820Y0019201D01*
X0042820Y0020201D01*
X0041820Y0020201D01*
X0041820Y0023760D01*
X0038383Y0023760D01*
X0038001Y0023658D01*
X0037659Y0023460D01*
X0037380Y0023181D01*
X0037182Y0022839D01*
X0037080Y0022457D01*
X0037080Y0020201D01*
X0041820Y0020201D01*
X0041820Y0019201D01*
X0037080Y0019201D01*
X0037080Y0016944D01*
X0037182Y0016563D01*
X0037380Y0016221D01*
X0037659Y0015941D01*
X0038001Y0015744D01*
X0038383Y0015642D01*
X0041820Y0015642D01*
X0041820Y0019201D01*
X0042820Y0019201D01*
X0047560Y0019201D01*
X0047560Y0016944D01*
X0047458Y0016563D01*
X0047261Y0016221D01*
X0046981Y0015941D01*
X0046639Y0015744D01*
X0047018Y0015978D02*
X0053340Y0015978D01*
X0053340Y0016976D02*
X0047560Y0016976D01*
X0047560Y0017975D02*
X0053340Y0017975D01*
X0053340Y0018973D02*
X0047560Y0018973D01*
X0047560Y0020201D02*
X0047560Y0022457D01*
X0047458Y0022839D01*
X0047261Y0023181D01*
X0046981Y0023460D01*
X0046639Y0023658D01*
X0046258Y0023760D01*
X0042820Y0023760D01*
X0042820Y0020201D01*
X0047560Y0020201D01*
X0047560Y0020970D02*
X0053340Y0020970D01*
X0053340Y0019972D02*
X0042820Y0019972D01*
X0042320Y0019701D02*
X0042320Y0025291D01*
X0038659Y0028953D01*
X0038659Y0037535D01*
X0038363Y0037831D01*
X0038273Y0037921D02*
X0035682Y0037921D01*
X0035682Y0041650D01*
X0035805Y0042106D01*
X0036041Y0042516D01*
X0036375Y0042850D01*
X0036785Y0043086D01*
X0037241Y0043209D01*
X0038273Y0043209D01*
X0038273Y0037921D01*
X0038273Y0037945D02*
X0038454Y0037945D01*
X0038273Y0037740D02*
X0038273Y0032453D01*
X0037241Y0032453D01*
X0036785Y0032575D01*
X0036375Y0032811D01*
X0036041Y0033146D01*
X0035805Y0033555D01*
X0035682Y0034012D01*
X0035682Y0037740D01*
X0038273Y0037740D01*
X0038273Y0036946D02*
X0038454Y0036946D01*
X0038454Y0035948D02*
X0038273Y0035948D01*
X0038273Y0034949D02*
X0038454Y0034949D01*
X0038454Y0033951D02*
X0038273Y0033951D01*
X0038273Y0032952D02*
X0038454Y0032952D01*
X0040493Y0032952D02*
X0041234Y0032952D01*
X0045493Y0032952D02*
X0046234Y0032952D01*
X0050493Y0032952D02*
X0051234Y0032952D01*
X0055493Y0032952D02*
X0055989Y0032952D01*
X0055989Y0031954D02*
X0033964Y0031954D01*
X0034255Y0031663D02*
X0033495Y0032423D01*
X0032503Y0032834D01*
X0031429Y0032834D01*
X0030436Y0032423D01*
X0029706Y0031692D01*
X0029706Y0041267D01*
X0028827Y0042146D01*
X0025222Y0042146D01*
X0024525Y0041448D01*
X0023827Y0042146D01*
X0020222Y0042146D01*
X0019525Y0041448D01*
X0019025Y0041948D01*
X0019025Y0044488D01*
X0019716Y0044774D01*
X0020475Y0045534D01*
X0020886Y0046526D01*
X0020886Y0047600D01*
X0020475Y0048592D01*
X0019716Y0049352D01*
X0018723Y0049763D01*
X0017649Y0049763D01*
X0016657Y0049352D01*
X0015897Y0048592D01*
X0015486Y0047600D01*
X0015486Y0047191D01*
X0015025Y0046730D01*
X0015025Y0041948D01*
X0014525Y0041448D01*
X0013827Y0042146D01*
X0010222Y0042146D01*
X0009344Y0041267D01*
X0009344Y0031363D01*
X0010025Y0030682D01*
X0010025Y0029168D01*
X0011462Y0027731D01*
X0012633Y0026559D01*
X0017046Y0026559D01*
X0017853Y0027366D01*
X0019025Y0028538D01*
X0019025Y0030682D01*
X0019525Y0031182D01*
X0020222Y0030484D01*
X0020241Y0030484D01*
X0020241Y0020138D01*
X0017880Y0020138D01*
X0017001Y0019259D01*
X0017001Y0010142D01*
X0017880Y0009264D01*
X0026603Y0009264D01*
X0027482Y0010142D01*
X0027482Y0019259D01*
X0026603Y0020138D01*
X0024241Y0020138D01*
X0024241Y0030898D01*
X0024525Y0031182D01*
X0025025Y0030682D01*
X0025025Y0029128D01*
X0026816Y0027337D01*
X0027988Y0026165D01*
X0030826Y0026165D01*
X0032094Y0027434D01*
X0032503Y0027434D01*
X0033495Y0027845D01*
X0034255Y0028604D01*
X0034666Y0029597D01*
X0034666Y0030671D01*
X0034255Y0031663D01*
X0034548Y0030955D02*
X0055407Y0030955D01*
X0055289Y0029957D02*
X0034666Y0029957D01*
X0034401Y0028958D02*
X0055554Y0028958D01*
X0055989Y0027960D02*
X0033610Y0027960D01*
X0031622Y0026961D02*
X0055989Y0026961D01*
X0055989Y0025963D02*
X0024241Y0025963D01*
X0024241Y0026961D02*
X0027192Y0026961D01*
X0026193Y0027960D02*
X0024241Y0027960D01*
X0024241Y0028958D02*
X0025195Y0028958D01*
X0025025Y0029957D02*
X0024241Y0029957D01*
X0024298Y0030955D02*
X0024751Y0030955D01*
X0027025Y0029957D02*
X0028816Y0028165D01*
X0029997Y0028165D01*
X0031966Y0030134D01*
X0029444Y0031101D02*
X0029266Y0030671D01*
X0029266Y0030544D01*
X0029077Y0030733D01*
X0029444Y0031101D01*
X0029384Y0030955D02*
X0029298Y0030955D01*
X0029706Y0031954D02*
X0029967Y0031954D01*
X0029706Y0032952D02*
X0036234Y0032952D01*
X0035699Y0033951D02*
X0029706Y0033951D01*
X0029706Y0034949D02*
X0035682Y0034949D01*
X0035682Y0035948D02*
X0029706Y0035948D01*
X0029706Y0036946D02*
X0035682Y0036946D01*
X0035682Y0037945D02*
X0029706Y0037945D01*
X0029706Y0038943D02*
X0035682Y0038943D01*
X0035682Y0039942D02*
X0029706Y0039942D01*
X0029706Y0040940D02*
X0035682Y0040940D01*
X0035760Y0041939D02*
X0029034Y0041939D01*
X0025016Y0041939D02*
X0024034Y0041939D01*
X0020016Y0041939D02*
X0019034Y0041939D01*
X0019025Y0042937D02*
X0036527Y0042937D01*
X0038273Y0042937D02*
X0038454Y0042937D01*
X0038454Y0041939D02*
X0038273Y0041939D01*
X0038273Y0040940D02*
X0038454Y0040940D01*
X0038454Y0039942D02*
X0038273Y0039942D01*
X0038273Y0038943D02*
X0038454Y0038943D01*
X0040200Y0042937D02*
X0041363Y0042937D01*
X0041363Y0043936D02*
X0019025Y0043936D01*
X0019876Y0044934D02*
X0041363Y0044934D01*
X0041363Y0045933D02*
X0020641Y0045933D01*
X0020886Y0046932D02*
X0041363Y0046932D01*
X0041363Y0047930D02*
X0020750Y0047930D01*
X0020139Y0048929D02*
X0041363Y0048929D01*
X0041363Y0049927D02*
X0008482Y0049927D01*
X0008482Y0048929D02*
X0016234Y0048929D01*
X0015623Y0047930D02*
X0008482Y0047930D01*
X0008482Y0046932D02*
X0015226Y0046932D01*
X0015025Y0045933D02*
X0008482Y0045933D01*
X0008482Y0044934D02*
X0015025Y0044934D01*
X0015025Y0043936D02*
X0008482Y0043936D01*
X0008482Y0042937D02*
X0015025Y0042937D01*
X0015016Y0041939D02*
X0014034Y0041939D01*
X0010016Y0041939D02*
X0008482Y0041939D01*
X0008482Y0040940D02*
X0009344Y0040940D01*
X0009344Y0039942D02*
X0008482Y0039942D01*
X0008482Y0038943D02*
X0009344Y0038943D01*
X0009344Y0037945D02*
X0008482Y0037945D01*
X0008482Y0036946D02*
X0009344Y0036946D01*
X0009344Y0035948D02*
X0008482Y0035948D01*
X0008482Y0034949D02*
X0009344Y0034949D01*
X0009344Y0033951D02*
X0008482Y0033951D01*
X0008482Y0032952D02*
X0009344Y0032952D01*
X0009344Y0031954D02*
X0008482Y0031954D01*
X0008482Y0030955D02*
X0009751Y0030955D01*
X0010025Y0029957D02*
X0008482Y0029957D01*
X0008482Y0028958D02*
X0010234Y0028958D01*
X0011233Y0027960D02*
X0008482Y0027960D01*
X0008482Y0026961D02*
X0012231Y0026961D01*
X0013462Y0028559D02*
X0016218Y0028559D01*
X0017025Y0029366D01*
X0017025Y0036315D01*
X0017025Y0045902D01*
X0018186Y0047063D01*
X0018827Y0050957D02*
X0019525Y0051654D01*
X0020222Y0050957D01*
X0023827Y0050957D01*
X0024525Y0051654D01*
X0025222Y0050957D01*
X0028827Y0050957D01*
X0029706Y0051835D01*
X0029706Y0061739D01*
X0028827Y0062618D01*
X0025222Y0062618D01*
X0024525Y0061921D01*
X0023827Y0062618D01*
X0020222Y0062618D01*
X0019525Y0061921D01*
X0018827Y0062618D01*
X0015222Y0062618D01*
X0014525Y0061921D01*
X0014281Y0062165D01*
X0014281Y0073591D01*
X0014570Y0073880D01*
X0014981Y0074872D01*
X0014981Y0075947D01*
X0014570Y0076939D01*
X0013810Y0077698D01*
X0012818Y0078109D01*
X0011744Y0078109D01*
X0010751Y0077698D01*
X0009992Y0076939D01*
X0009581Y0075947D01*
X0009581Y0074872D01*
X0009992Y0073880D01*
X0010281Y0073591D01*
X0010281Y0062618D01*
X0010222Y0062618D01*
X0009344Y0061739D01*
X0009344Y0051835D01*
X0010222Y0050957D01*
X0013827Y0050957D01*
X0014525Y0051654D01*
X0015222Y0050957D01*
X0018827Y0050957D01*
X0012281Y0057043D02*
X0012281Y0075409D01*
X0013359Y0077885D02*
X0055466Y0077885D01*
X0055466Y0076887D02*
X0014591Y0076887D01*
X0014981Y0075888D02*
X0055466Y0075888D01*
X0055466Y0074890D02*
X0052757Y0074890D01*
X0052757Y0073891D02*
X0055610Y0073891D01*
X0055466Y0072893D02*
X0052757Y0072893D01*
X0048363Y0070390D02*
X0048363Y0057319D01*
X0043363Y0057319D01*
X0043363Y0037831D01*
X0048363Y0037831D01*
X0045863Y0042338D02*
X0045363Y0042838D01*
X0045363Y0052311D01*
X0045863Y0052811D01*
X0046734Y0051941D01*
X0049993Y0051941D01*
X0050863Y0052811D01*
X0051734Y0051941D01*
X0054993Y0051941D01*
X0056045Y0052993D01*
X0056045Y0057172D01*
X0056928Y0058055D01*
X0058888Y0058055D01*
X0059177Y0057766D01*
X0060084Y0057390D01*
X0060084Y0055768D01*
X0058510Y0055768D01*
X0057631Y0054889D01*
X0057631Y0053394D01*
X0057515Y0053394D01*
X0056344Y0052222D01*
X0055163Y0051041D01*
X0055163Y0043039D01*
X0054993Y0043209D01*
X0051734Y0043209D01*
X0050863Y0042338D01*
X0049993Y0043209D01*
X0046734Y0043209D01*
X0045863Y0042338D01*
X0045363Y0042937D02*
X0046463Y0042937D01*
X0045363Y0043936D02*
X0055163Y0043936D01*
X0055163Y0044934D02*
X0045363Y0044934D01*
X0045363Y0045933D02*
X0055163Y0045933D01*
X0055163Y0046932D02*
X0045363Y0046932D01*
X0045363Y0047930D02*
X0055163Y0047930D01*
X0055163Y0048929D02*
X0045363Y0048929D01*
X0045363Y0049927D02*
X0055163Y0049927D01*
X0055163Y0050926D02*
X0045363Y0050926D01*
X0045363Y0051924D02*
X0056046Y0051924D01*
X0055975Y0052923D02*
X0057044Y0052923D01*
X0057631Y0053921D02*
X0056045Y0053921D01*
X0056045Y0054920D02*
X0057662Y0054920D01*
X0056045Y0055918D02*
X0060084Y0055918D01*
X0060084Y0056917D02*
X0056045Y0056917D01*
X0056788Y0057915D02*
X0059028Y0057915D01*
X0060706Y0060055D02*
X0056100Y0060055D01*
X0053363Y0057319D01*
X0050946Y0061909D02*
X0050781Y0061909D01*
X0050363Y0062908D02*
X0071786Y0062908D01*
X0071937Y0061909D02*
X0062670Y0061909D01*
X0063274Y0060911D02*
X0072568Y0060911D01*
X0073273Y0059912D02*
X0063677Y0059912D01*
X0064084Y0058914D02*
X0073273Y0058914D01*
X0073273Y0057915D02*
X0064084Y0057915D01*
X0064084Y0056917D02*
X0073273Y0056917D01*
X0073273Y0055918D02*
X0064084Y0055918D01*
X0062084Y0058677D02*
X0060706Y0060055D01*
X0062084Y0058677D02*
X0062084Y0051709D01*
X0061769Y0051394D01*
X0058344Y0051394D01*
X0057163Y0050213D01*
X0057163Y0041157D01*
X0057989Y0040331D01*
X0057989Y0030134D01*
X0057989Y0017850D01*
X0055989Y0021969D02*
X0047560Y0021969D01*
X0047384Y0022967D02*
X0055989Y0022967D01*
X0055989Y0023966D02*
X0024241Y0023966D01*
X0024241Y0024964D02*
X0055989Y0024964D01*
X0059989Y0024964D02*
X0072486Y0024964D01*
X0072486Y0023966D02*
X0059989Y0023966D01*
X0059989Y0022967D02*
X0072486Y0022967D01*
X0072486Y0021969D02*
X0059989Y0021969D01*
X0062639Y0020970D02*
X0072486Y0020970D01*
X0072486Y0019972D02*
X0062639Y0019972D01*
X0062639Y0018973D02*
X0072486Y0018973D01*
X0072486Y0017975D02*
X0062639Y0017975D01*
X0062639Y0016976D02*
X0072486Y0016976D01*
X0072486Y0015978D02*
X0062639Y0015978D01*
X0062639Y0014979D02*
X0072486Y0014979D01*
X0072048Y0013981D02*
X0062209Y0013981D01*
X0062639Y0012982D02*
X0071786Y0012982D01*
X0071906Y0011984D02*
X0062639Y0011984D01*
X0053770Y0013981D02*
X0027482Y0013981D01*
X0027482Y0014979D02*
X0053340Y0014979D01*
X0053538Y0006991D02*
X0047560Y0006991D01*
X0047032Y0005993D02*
X0152098Y0005993D01*
X0153760Y0009987D02*
X0158925Y0009987D01*
X0158444Y0010985D02*
X0152762Y0010985D01*
X0151763Y0011984D02*
X0158400Y0011984D01*
X0158737Y0012982D02*
X0150765Y0012982D01*
X0150501Y0013981D02*
X0159592Y0013981D01*
X0159592Y0014979D02*
X0150501Y0014979D01*
X0159344Y0015978D02*
X0159592Y0015978D01*
X0164151Y0013697D02*
X0165430Y0012417D01*
X0165430Y0008480D01*
X0166770Y0006991D02*
X0200332Y0006991D01*
X0200332Y0005993D02*
X0165771Y0005993D01*
X0167430Y0007990D02*
X0170967Y0007990D01*
X0169968Y0008988D02*
X0167430Y0008988D01*
X0167430Y0009987D02*
X0168970Y0009987D01*
X0167971Y0010985D02*
X0167430Y0010985D01*
X0164151Y0013697D02*
X0164151Y0030261D01*
X0166710Y0030261D02*
X0166710Y0015075D01*
X0172517Y0009268D01*
X0192202Y0009268D01*
X0196533Y0013598D01*
X0196533Y0085252D01*
X0197320Y0086039D01*
X0199307Y0087870D02*
X0200332Y0087870D01*
X0200332Y0086872D02*
X0199898Y0086872D01*
X0200020Y0085873D02*
X0200332Y0085873D01*
X0200332Y0084875D02*
X0199760Y0084875D01*
X0200332Y0083876D02*
X0198976Y0083876D01*
X0198533Y0082878D02*
X0200332Y0082878D01*
X0200332Y0081879D02*
X0198533Y0081879D01*
X0198533Y0080881D02*
X0200332Y0080881D01*
X0200332Y0079882D02*
X0198533Y0079882D01*
X0198533Y0078884D02*
X0200332Y0078884D01*
X0200332Y0077885D02*
X0198533Y0077885D01*
X0198533Y0076887D02*
X0200332Y0076887D01*
X0200332Y0075888D02*
X0198533Y0075888D01*
X0198533Y0074890D02*
X0200332Y0074890D01*
X0200332Y0073891D02*
X0198533Y0073891D01*
X0198533Y0072893D02*
X0200332Y0072893D01*
X0200332Y0071894D02*
X0198533Y0071894D01*
X0198533Y0070896D02*
X0200332Y0070896D01*
X0200332Y0069897D02*
X0198533Y0069897D01*
X0198533Y0068899D02*
X0200332Y0068899D01*
X0200332Y0067900D02*
X0198533Y0067900D01*
X0198533Y0066902D02*
X0200332Y0066902D01*
X0200332Y0065903D02*
X0198533Y0065903D01*
X0198533Y0064905D02*
X0200332Y0064905D01*
X0200332Y0063906D02*
X0198533Y0063906D01*
X0198533Y0062908D02*
X0200332Y0062908D01*
X0200332Y0061909D02*
X0198533Y0061909D01*
X0198533Y0060911D02*
X0200332Y0060911D01*
X0200332Y0059912D02*
X0198533Y0059912D01*
X0198533Y0058914D02*
X0200332Y0058914D01*
X0200332Y0057915D02*
X0198533Y0057915D01*
X0198533Y0056917D02*
X0200332Y0056917D01*
X0200332Y0055918D02*
X0198533Y0055918D01*
X0198533Y0054920D02*
X0200332Y0054920D01*
X0200332Y0053921D02*
X0198533Y0053921D01*
X0198533Y0052923D02*
X0200332Y0052923D01*
X0200332Y0051924D02*
X0198533Y0051924D01*
X0198533Y0050926D02*
X0200332Y0050926D01*
X0200332Y0049927D02*
X0198533Y0049927D01*
X0198533Y0048929D02*
X0200332Y0048929D01*
X0200332Y0047930D02*
X0198533Y0047930D01*
X0198533Y0046932D02*
X0200332Y0046932D01*
X0200332Y0045933D02*
X0198533Y0045933D01*
X0198533Y0044934D02*
X0200332Y0044934D01*
X0200332Y0043936D02*
X0198533Y0043936D01*
X0198533Y0042937D02*
X0200332Y0042937D01*
X0200332Y0041939D02*
X0198533Y0041939D01*
X0198533Y0040940D02*
X0200332Y0040940D01*
X0200332Y0039942D02*
X0198533Y0039942D01*
X0198533Y0038943D02*
X0200332Y0038943D01*
X0200332Y0037945D02*
X0198533Y0037945D01*
X0198533Y0036946D02*
X0200332Y0036946D01*
X0200332Y0035948D02*
X0198533Y0035948D01*
X0198533Y0034949D02*
X0200332Y0034949D01*
X0200332Y0033951D02*
X0198533Y0033951D01*
X0198533Y0032952D02*
X0200332Y0032952D01*
X0200332Y0031954D02*
X0198533Y0031954D01*
X0198533Y0030955D02*
X0200332Y0030955D01*
X0200332Y0029957D02*
X0198533Y0029957D01*
X0198533Y0028958D02*
X0200332Y0028958D01*
X0200332Y0027960D02*
X0198533Y0027960D01*
X0198533Y0026961D02*
X0200332Y0026961D01*
X0200332Y0025963D02*
X0198533Y0025963D01*
X0198533Y0024964D02*
X0200332Y0024964D01*
X0200332Y0023966D02*
X0198533Y0023966D01*
X0198533Y0022967D02*
X0200332Y0022967D01*
X0200332Y0021969D02*
X0198533Y0021969D01*
X0198533Y0020970D02*
X0200332Y0020970D01*
X0200332Y0019972D02*
X0198533Y0019972D01*
X0198533Y0018973D02*
X0200332Y0018973D01*
X0200332Y0017975D02*
X0198533Y0017975D01*
X0198533Y0016976D02*
X0200332Y0016976D01*
X0200332Y0015978D02*
X0198533Y0015978D01*
X0198533Y0014979D02*
X0200332Y0014979D01*
X0200332Y0013981D02*
X0198533Y0013981D01*
X0198533Y0012982D02*
X0200332Y0012982D01*
X0200332Y0011984D02*
X0197746Y0011984D01*
X0196748Y0010985D02*
X0200332Y0010985D01*
X0200332Y0009987D02*
X0195749Y0009987D01*
X0194751Y0008988D02*
X0200332Y0008988D01*
X0200332Y0007990D02*
X0193752Y0007990D01*
X0189840Y0011630D02*
X0194564Y0016354D01*
X0194564Y0089976D01*
X0196139Y0091551D01*
X0198274Y0089868D02*
X0200332Y0089868D01*
X0200332Y0090866D02*
X0198778Y0090866D01*
X0198839Y0091865D02*
X0200332Y0091865D01*
X0200332Y0092863D02*
X0198518Y0092863D01*
X0197617Y0093862D02*
X0200332Y0093862D01*
X0200332Y0094860D02*
X0196138Y0094860D01*
X0197572Y0095859D02*
X0200332Y0095859D01*
X0200332Y0096857D02*
X0198026Y0096857D01*
X0198052Y0097856D02*
X0200332Y0097856D01*
X0200332Y0098854D02*
X0197695Y0098854D01*
X0196623Y0099853D02*
X0200332Y0099853D01*
X0200332Y0100851D02*
X0190061Y0100851D01*
X0189063Y0101850D02*
X0200332Y0101850D01*
X0200332Y0102848D02*
X0188064Y0102848D01*
X0187066Y0103847D02*
X0200332Y0103847D01*
X0200332Y0104845D02*
X0186067Y0104845D01*
X0185069Y0105844D02*
X0200332Y0105844D01*
X0200332Y0106842D02*
X0184070Y0106842D01*
X0183072Y0107841D02*
X0185314Y0107841D01*
X0184180Y0108839D02*
X0182073Y0108839D01*
X0182917Y0109838D02*
X0181075Y0109838D01*
X0181919Y0110836D02*
X0180076Y0110836D01*
X0180920Y0111835D02*
X0179078Y0111835D01*
X0179922Y0112833D02*
X0178079Y0112833D01*
X0178923Y0113832D02*
X0177081Y0113832D01*
X0177925Y0114830D02*
X0176082Y0114830D01*
X0176926Y0115829D02*
X0175084Y0115829D01*
X0175928Y0116827D02*
X0174085Y0116827D01*
X0174929Y0117826D02*
X0173087Y0117826D01*
X0173931Y0118824D02*
X0172088Y0118824D01*
X0171483Y0119823D02*
X0172932Y0119823D01*
X0171934Y0120821D02*
X0169112Y0120821D01*
X0170935Y0121820D02*
X0165068Y0121820D01*
X0165068Y0122818D02*
X0169937Y0122818D01*
X0169495Y0123817D02*
X0165068Y0123817D01*
X0165068Y0124815D02*
X0169417Y0124815D01*
X0169417Y0125814D02*
X0165068Y0125814D01*
X0165068Y0126812D02*
X0169417Y0126812D01*
X0169417Y0127811D02*
X0165068Y0127811D01*
X0165068Y0128809D02*
X0169417Y0128809D01*
X0169417Y0129808D02*
X0165068Y0129808D01*
X0165068Y0130806D02*
X0169417Y0130806D01*
X0169417Y0131805D02*
X0165068Y0131805D01*
X0165068Y0132803D02*
X0169417Y0132803D01*
X0169417Y0133802D02*
X0165068Y0133802D01*
X0165068Y0134801D02*
X0169417Y0134801D01*
X0169417Y0135799D02*
X0165068Y0135799D01*
X0165068Y0136798D02*
X0169417Y0136798D01*
X0169417Y0137796D02*
X0165068Y0137796D01*
X0165068Y0138795D02*
X0169417Y0138795D01*
X0169417Y0139793D02*
X0165068Y0139793D01*
X0165068Y0140792D02*
X0169417Y0140792D01*
X0169417Y0141790D02*
X0165068Y0141790D01*
X0165068Y0142789D02*
X0169417Y0142789D01*
X0169417Y0143787D02*
X0165068Y0143787D01*
X0165068Y0144786D02*
X0169417Y0144786D01*
X0169417Y0145784D02*
X0165068Y0145784D01*
X0165068Y0146783D02*
X0169417Y0146783D01*
X0169417Y0147781D02*
X0165068Y0147781D01*
X0165068Y0148780D02*
X0169417Y0148780D01*
X0169417Y0149778D02*
X0165068Y0149778D01*
X0166663Y0150777D02*
X0169417Y0150777D01*
X0169417Y0151775D02*
X0167234Y0151775D01*
X0167343Y0152774D02*
X0169417Y0152774D01*
X0169417Y0153772D02*
X0167069Y0153772D01*
X0166265Y0154771D02*
X0169417Y0154771D01*
X0169417Y0155769D02*
X0137903Y0155769D01*
X0137903Y0154771D02*
X0163021Y0154771D01*
X0162217Y0153772D02*
X0151516Y0153772D01*
X0152196Y0152774D02*
X0161943Y0152774D01*
X0161068Y0151775D02*
X0152523Y0151775D01*
X0152863Y0150777D02*
X0161068Y0150777D01*
X0161068Y0149778D02*
X0152863Y0149778D01*
X0152863Y0148780D02*
X0161068Y0148780D01*
X0161068Y0147781D02*
X0152863Y0147781D01*
X0152863Y0146783D02*
X0161068Y0146783D01*
X0161068Y0145784D02*
X0152863Y0145784D01*
X0152863Y0144786D02*
X0161068Y0144786D01*
X0161068Y0143787D02*
X0152863Y0143787D01*
X0152863Y0142789D02*
X0161068Y0142789D01*
X0161068Y0141790D02*
X0152863Y0141790D01*
X0152863Y0140792D02*
X0161068Y0140792D01*
X0161068Y0139793D02*
X0152863Y0139793D01*
X0152863Y0138795D02*
X0161068Y0138795D01*
X0161068Y0137796D02*
X0152863Y0137796D01*
X0152863Y0136798D02*
X0161068Y0136798D01*
X0161068Y0135799D02*
X0152863Y0135799D01*
X0152863Y0134801D02*
X0161068Y0134801D01*
X0161068Y0133802D02*
X0152863Y0133802D01*
X0152863Y0132803D02*
X0161068Y0132803D01*
X0161068Y0131805D02*
X0152863Y0131805D01*
X0152863Y0130806D02*
X0161068Y0130806D01*
X0161068Y0129808D02*
X0152863Y0129808D01*
X0152863Y0128809D02*
X0161068Y0128809D01*
X0161068Y0127811D02*
X0152863Y0127811D01*
X0152863Y0126812D02*
X0161068Y0126812D01*
X0161068Y0125814D02*
X0152863Y0125814D01*
X0152863Y0124815D02*
X0161068Y0124815D01*
X0161068Y0123817D02*
X0152863Y0123817D01*
X0152863Y0122818D02*
X0161068Y0122818D01*
X0161068Y0121820D02*
X0152863Y0121820D01*
X0152863Y0120821D02*
X0161068Y0120821D01*
X0161068Y0119823D02*
X0152863Y0119823D01*
X0152863Y0118824D02*
X0161068Y0118824D01*
X0161068Y0117826D02*
X0152863Y0117826D01*
X0152863Y0116827D02*
X0161068Y0116827D01*
X0161068Y0115829D02*
X0152863Y0115829D01*
X0152863Y0114830D02*
X0161068Y0114830D01*
X0161068Y0113832D02*
X0152863Y0113832D01*
X0152863Y0112833D02*
X0161068Y0112833D01*
X0161068Y0111835D02*
X0152863Y0111835D01*
X0152863Y0110836D02*
X0161068Y0110836D01*
X0161068Y0109838D02*
X0152863Y0109838D01*
X0152863Y0108839D02*
X0161068Y0108839D01*
X0161068Y0107841D02*
X0152863Y0107841D01*
X0152863Y0106842D02*
X0161068Y0106842D01*
X0161068Y0105844D02*
X0152863Y0105844D01*
X0152863Y0104845D02*
X0161068Y0104845D01*
X0160510Y0103847D02*
X0152863Y0103847D01*
X0152863Y0102848D02*
X0160368Y0102848D01*
X0161458Y0100760D02*
X0161539Y0100680D01*
X0162531Y0100269D01*
X0163605Y0100269D01*
X0164598Y0100680D01*
X0165357Y0101439D01*
X0165768Y0102431D01*
X0165768Y0103506D01*
X0165357Y0104498D01*
X0165068Y0104787D01*
X0165068Y0108961D01*
X0165082Y0108947D01*
X0166074Y0108536D01*
X0166483Y0108536D01*
X0170123Y0104896D01*
X0170123Y0101870D01*
X0167762Y0101870D01*
X0166883Y0100991D01*
X0166883Y0094704D01*
X0166643Y0094944D01*
X0166643Y0097104D01*
X0165471Y0098276D01*
X0164911Y0098836D01*
X0164911Y0098836D01*
X0163739Y0100008D01*
X0161458Y0100008D01*
X0161458Y0100760D01*
X0163894Y0099853D02*
X0166883Y0099853D01*
X0166883Y0100851D02*
X0164769Y0100851D01*
X0165527Y0101850D02*
X0167741Y0101850D01*
X0165768Y0102848D02*
X0170123Y0102848D01*
X0170123Y0103847D02*
X0165627Y0103847D01*
X0165068Y0104845D02*
X0170123Y0104845D01*
X0169176Y0105844D02*
X0165068Y0105844D01*
X0165068Y0106842D02*
X0168177Y0106842D01*
X0167179Y0107841D02*
X0165068Y0107841D01*
X0165068Y0108839D02*
X0165343Y0108839D01*
X0166612Y0111236D02*
X0172123Y0105724D01*
X0172123Y0098402D01*
X0171533Y0097811D01*
X0171887Y0097457D01*
X0181966Y0097457D01*
X0186297Y0093126D01*
X0186297Y0076197D01*
X0183856Y0073756D01*
X0180982Y0073756D01*
X0181178Y0073559D01*
X0181178Y0068717D01*
X0185509Y0064386D01*
X0185509Y0026984D01*
X0184328Y0025803D01*
X0183147Y0025803D01*
X0182064Y0026886D01*
X0182064Y0030261D01*
X0179505Y0030261D02*
X0179505Y0023539D01*
X0180785Y0022260D01*
X0187871Y0022260D01*
X0188265Y0022654D01*
X0188265Y0094307D01*
X0176060Y0106512D01*
X0174123Y0104630D02*
X0174531Y0104223D01*
X0175523Y0103812D01*
X0175932Y0103812D01*
X0180287Y0099457D01*
X0176182Y0099457D01*
X0176182Y0100991D01*
X0175304Y0101870D01*
X0174123Y0101870D01*
X0174123Y0104630D01*
X0174123Y0103847D02*
X0175439Y0103847D01*
X0174123Y0102848D02*
X0176896Y0102848D01*
X0177894Y0101850D02*
X0175324Y0101850D01*
X0176182Y0100851D02*
X0178893Y0100851D01*
X0179891Y0099853D02*
X0176182Y0099853D01*
X0176182Y0095457D02*
X0181137Y0095457D01*
X0184297Y0092298D01*
X0184297Y0085251D01*
X0184132Y0085295D01*
X0181482Y0085295D01*
X0181482Y0081736D01*
X0180482Y0081736D01*
X0180482Y0085295D01*
X0177831Y0085295D01*
X0177450Y0085193D01*
X0177273Y0085091D01*
X0177273Y0087419D01*
X0176182Y0088510D01*
X0176182Y0093511D01*
X0175623Y0094071D01*
X0176182Y0094631D01*
X0176182Y0095457D01*
X0176182Y0094860D02*
X0181734Y0094860D01*
X0182733Y0093862D02*
X0175832Y0093862D01*
X0176182Y0092863D02*
X0183731Y0092863D01*
X0184297Y0091865D02*
X0176182Y0091865D01*
X0176182Y0090866D02*
X0184297Y0090866D01*
X0184297Y0089868D02*
X0176182Y0089868D01*
X0176182Y0088869D02*
X0184297Y0088869D01*
X0184297Y0087870D02*
X0176821Y0087870D01*
X0177273Y0086872D02*
X0184297Y0086872D01*
X0184297Y0085873D02*
X0177273Y0085873D01*
X0175273Y0086591D02*
X0171533Y0090331D01*
X0171887Y0089976D01*
X0173162Y0085873D02*
X0152863Y0085873D01*
X0152863Y0084875D02*
X0173273Y0084875D01*
X0173273Y0083876D02*
X0152863Y0083876D01*
X0152863Y0082878D02*
X0173273Y0082878D01*
X0173273Y0081879D02*
X0151894Y0081879D01*
X0151692Y0081677D02*
X0151692Y0081677D01*
X0150896Y0080881D02*
X0173273Y0080881D01*
X0173273Y0079882D02*
X0149897Y0079882D01*
X0149233Y0078884D02*
X0173273Y0078884D01*
X0173273Y0077885D02*
X0148850Y0077885D01*
X0147650Y0076887D02*
X0173273Y0076887D01*
X0173273Y0075888D02*
X0118385Y0075888D01*
X0118524Y0074890D02*
X0173273Y0074890D01*
X0173273Y0073891D02*
X0118281Y0073891D01*
X0117520Y0072893D02*
X0173273Y0072893D01*
X0173273Y0071894D02*
X0102076Y0071894D01*
X0102076Y0070896D02*
X0173273Y0070896D01*
X0173273Y0069897D02*
X0101723Y0069897D01*
X0100725Y0068899D02*
X0173273Y0068899D01*
X0173654Y0067900D02*
X0171044Y0067900D01*
X0172042Y0066902D02*
X0174653Y0066902D01*
X0175652Y0065903D02*
X0173041Y0065903D01*
X0174039Y0064905D02*
X0176650Y0064905D01*
X0177649Y0063906D02*
X0175038Y0063906D01*
X0176036Y0062908D02*
X0178647Y0062908D01*
X0179646Y0061909D02*
X0176387Y0061909D01*
X0176387Y0060911D02*
X0180064Y0060911D01*
X0180064Y0059912D02*
X0176387Y0059912D01*
X0176387Y0058914D02*
X0180064Y0058914D01*
X0180064Y0057915D02*
X0176387Y0057915D01*
X0176387Y0056917D02*
X0180064Y0056917D01*
X0179505Y0056685D02*
X0179505Y0053236D01*
X0179505Y0056685D01*
X0179505Y0055918D02*
X0179505Y0055918D01*
X0179505Y0054920D02*
X0179505Y0054920D01*
X0179505Y0053921D02*
X0179505Y0053921D01*
X0179505Y0053236D02*
X0179505Y0053236D01*
X0179505Y0053235D02*
X0179505Y0053235D01*
X0179505Y0049785D01*
X0178708Y0049785D01*
X0178326Y0049888D01*
X0178226Y0049946D01*
X0178125Y0049888D01*
X0177744Y0049785D01*
X0176946Y0049785D01*
X0176946Y0053235D01*
X0176946Y0053235D01*
X0179046Y0053235D01*
X0179505Y0053235D01*
X0179505Y0059760D01*
X0177635Y0061630D01*
X0174387Y0061728D02*
X0174387Y0053235D01*
X0176946Y0053236D02*
X0176946Y0056685D01*
X0176946Y0053236D01*
X0176946Y0053236D01*
X0176946Y0052923D02*
X0176946Y0052923D01*
X0176946Y0053921D02*
X0176946Y0053921D01*
X0176946Y0054920D02*
X0176946Y0054920D01*
X0176946Y0055918D02*
X0176946Y0055918D01*
X0179505Y0052923D02*
X0179505Y0052923D01*
X0179505Y0051924D02*
X0179505Y0051924D01*
X0179505Y0050926D02*
X0179505Y0050926D01*
X0179505Y0049927D02*
X0179505Y0049927D01*
X0178258Y0049927D02*
X0178193Y0049927D01*
X0176946Y0049927D02*
X0176946Y0049927D01*
X0176946Y0050926D02*
X0176946Y0050926D01*
X0176946Y0051924D02*
X0176946Y0051924D01*
X0182064Y0053235D02*
X0182064Y0062319D01*
X0175273Y0069110D01*
X0175273Y0086591D01*
X0180482Y0084875D02*
X0181482Y0084875D01*
X0181482Y0083876D02*
X0180482Y0083876D01*
X0180482Y0082878D02*
X0181482Y0082878D01*
X0181482Y0081879D02*
X0180482Y0081879D01*
X0186265Y0073337D02*
X0186265Y0066458D01*
X0183178Y0069545D01*
X0183178Y0069697D01*
X0184556Y0069697D01*
X0185434Y0070576D01*
X0185434Y0072506D01*
X0186265Y0073337D01*
X0186265Y0072893D02*
X0185821Y0072893D01*
X0185434Y0071894D02*
X0186265Y0071894D01*
X0186265Y0070896D02*
X0185434Y0070896D01*
X0184756Y0069897D02*
X0186265Y0069897D01*
X0186265Y0068899D02*
X0183825Y0068899D01*
X0184823Y0067900D02*
X0186265Y0067900D01*
X0186265Y0066902D02*
X0185822Y0066902D01*
X0179178Y0068033D02*
X0177515Y0069697D01*
X0179178Y0069697D01*
X0179178Y0068033D01*
X0179178Y0068899D02*
X0178313Y0068899D01*
X0170379Y0062908D02*
X0168556Y0062908D01*
X0169381Y0063906D02*
X0167557Y0063906D01*
X0167109Y0064354D02*
X0170097Y0061366D01*
X0171269Y0060195D01*
X0171269Y0056685D01*
X0172387Y0056685D01*
X0172387Y0060900D01*
X0168933Y0064354D01*
X0167109Y0064354D01*
X0164643Y0063992D02*
X0169269Y0059366D01*
X0169269Y0053235D01*
X0171828Y0053235D02*
X0171828Y0044799D01*
X0171730Y0044701D01*
X0169675Y0042937D02*
X0168667Y0042937D01*
X0165344Y0042937D02*
X0161997Y0042937D01*
X0163366Y0043936D02*
X0164563Y0043936D01*
X0164305Y0044934D02*
X0163793Y0044934D01*
X0163800Y0045933D02*
X0164430Y0045933D01*
X0164710Y0046932D02*
X0163592Y0046932D01*
X0163592Y0047930D02*
X0164710Y0047930D01*
X0164710Y0048929D02*
X0163592Y0048929D01*
X0161592Y0045980D02*
X0161592Y0053235D01*
X0159131Y0053334D02*
X0159033Y0053235D01*
X0159131Y0053334D02*
X0159131Y0056512D01*
X0156375Y0059268D01*
X0158841Y0059630D02*
X0159878Y0059630D01*
X0162249Y0057258D01*
X0162249Y0056685D01*
X0161131Y0056685D01*
X0161131Y0057340D01*
X0159960Y0058512D01*
X0158841Y0059630D01*
X0159558Y0058914D02*
X0160594Y0058914D01*
X0160556Y0057915D02*
X0161592Y0057915D01*
X0161131Y0056917D02*
X0162249Y0056917D01*
X0166249Y0056917D02*
X0167269Y0056917D01*
X0167269Y0056685D02*
X0166249Y0056685D01*
X0166249Y0058915D01*
X0165078Y0060087D01*
X0163172Y0061992D01*
X0163815Y0061992D01*
X0167269Y0058538D01*
X0167269Y0056685D01*
X0167269Y0057915D02*
X0166249Y0057915D01*
X0166249Y0058914D02*
X0166893Y0058914D01*
X0165895Y0059912D02*
X0165252Y0059912D01*
X0164896Y0060911D02*
X0164254Y0060911D01*
X0163898Y0061909D02*
X0163255Y0061909D01*
X0164643Y0063992D02*
X0111887Y0063992D01*
X0106612Y0058717D01*
X0106612Y0047713D01*
X0104249Y0047713D02*
X0104249Y0059504D01*
X0111100Y0066354D01*
X0169761Y0066354D01*
X0174387Y0061728D01*
X0172376Y0060911D02*
X0170553Y0060911D01*
X0171269Y0059912D02*
X0172387Y0059912D01*
X0172387Y0058914D02*
X0171269Y0058914D01*
X0171269Y0057915D02*
X0172387Y0057915D01*
X0172387Y0056917D02*
X0171269Y0056917D01*
X0171378Y0061909D02*
X0169554Y0061909D01*
X0159592Y0049785D02*
X0158474Y0049785D01*
X0158474Y0046204D01*
X0158811Y0047018D01*
X0159570Y0047777D01*
X0159592Y0047786D01*
X0159592Y0049785D01*
X0159592Y0048929D02*
X0158474Y0048929D01*
X0158474Y0047930D02*
X0159592Y0047930D01*
X0158775Y0046932D02*
X0158474Y0046932D01*
X0156474Y0043421D02*
X0157556Y0042339D01*
X0161100Y0045488D02*
X0161592Y0045980D01*
X0151815Y0053921D02*
X0131619Y0053921D01*
X0132423Y0054920D02*
X0151815Y0054920D01*
X0141021Y0049819D02*
X0141021Y0034465D01*
X0137871Y0031315D01*
X0137871Y0023047D01*
X0135871Y0016976D02*
X0129186Y0016976D01*
X0129548Y0015978D02*
X0135871Y0015978D01*
X0136024Y0014979D02*
X0129527Y0014979D01*
X0129080Y0013981D02*
X0137023Y0013981D01*
X0138021Y0012982D02*
X0127663Y0012982D01*
X0117241Y0016591D02*
X0117241Y0036394D01*
X0115241Y0033319D02*
X0114517Y0033319D01*
X0114517Y0031832D01*
X0114991Y0031635D01*
X0115241Y0031385D01*
X0115241Y0033319D01*
X0115241Y0032952D02*
X0114517Y0032952D01*
X0114517Y0031954D02*
X0115241Y0031954D01*
X0119241Y0031954D02*
X0119966Y0031954D01*
X0119966Y0032952D02*
X0119241Y0032952D01*
X0119241Y0030955D02*
X0119966Y0030955D01*
X0119966Y0029957D02*
X0119241Y0029957D01*
X0119241Y0028958D02*
X0119966Y0028958D01*
X0119966Y0027960D02*
X0119241Y0027960D01*
X0119241Y0026961D02*
X0119966Y0026961D01*
X0120316Y0025963D02*
X0119241Y0025963D01*
X0119241Y0024964D02*
X0121315Y0024964D01*
X0122313Y0023966D02*
X0119241Y0023966D01*
X0133777Y0036394D02*
X0133777Y0039819D01*
X0137084Y0043126D01*
X0134596Y0044174D02*
X0134596Y0044933D01*
X0135073Y0044933D01*
X0134795Y0044655D01*
X0134596Y0044174D01*
X0132596Y0042969D02*
X0132596Y0047713D01*
X0134958Y0047713D02*
X0134958Y0049661D01*
X0135903Y0050606D01*
X0140234Y0050606D01*
X0141021Y0049819D01*
X0139021Y0048606D02*
X0137049Y0048606D01*
X0137049Y0045826D01*
X0137621Y0045826D01*
X0138613Y0045415D01*
X0139021Y0045007D01*
X0139021Y0048606D01*
X0139021Y0047930D02*
X0137049Y0047930D01*
X0137049Y0046932D02*
X0139021Y0046932D01*
X0139021Y0045933D02*
X0137049Y0045933D01*
X0139021Y0041245D02*
X0138623Y0040846D01*
X0139021Y0040846D01*
X0139021Y0041245D01*
X0139021Y0040940D02*
X0138717Y0040940D01*
X0136608Y0039821D02*
X0136608Y0039468D01*
X0136255Y0039468D01*
X0136608Y0039821D01*
X0130234Y0048929D02*
X0130234Y0048929D01*
X0130234Y0049927D02*
X0130234Y0049927D01*
X0130234Y0050055D02*
X0132360Y0052181D01*
X0129997Y0056118D02*
X0127871Y0053992D01*
X0127871Y0047713D01*
X0125871Y0050492D02*
X0125871Y0053164D01*
X0125871Y0054821D01*
X0127297Y0056247D01*
X0127297Y0056655D01*
X0127551Y0057268D01*
X0117253Y0057268D01*
X0117354Y0057226D01*
X0118113Y0056466D01*
X0118524Y0055474D01*
X0118524Y0054400D01*
X0118502Y0054347D01*
X0119019Y0054864D01*
X0120011Y0055275D01*
X0121086Y0055275D01*
X0122078Y0054864D01*
X0122837Y0054104D01*
X0123249Y0053112D01*
X0123249Y0052038D01*
X0122837Y0051045D01*
X0122284Y0050492D01*
X0125871Y0050492D01*
X0125871Y0050926D02*
X0122718Y0050926D01*
X0123201Y0051924D02*
X0125871Y0051924D01*
X0125871Y0052923D02*
X0123249Y0052923D01*
X0122913Y0053921D02*
X0125871Y0053921D01*
X0125970Y0054920D02*
X0121943Y0054920D01*
X0120549Y0052575D02*
X0118423Y0050449D01*
X0118423Y0047713D01*
X0116060Y0047713D02*
X0116060Y0054701D01*
X0115824Y0054937D01*
X0113336Y0053889D02*
X0113535Y0053408D01*
X0114060Y0052882D01*
X0114060Y0050492D01*
X0113336Y0050492D01*
X0113336Y0053889D01*
X0113336Y0052923D02*
X0114020Y0052923D01*
X0114060Y0051924D02*
X0113336Y0051924D01*
X0113336Y0050926D02*
X0114060Y0050926D01*
X0118524Y0054920D02*
X0119154Y0054920D01*
X0118340Y0055918D02*
X0126969Y0055918D01*
X0127406Y0056917D02*
X0117663Y0056917D01*
X0107820Y0065903D02*
X0100108Y0065903D01*
X0100108Y0064905D02*
X0106822Y0064905D01*
X0105823Y0063906D02*
X0100108Y0063906D01*
X0100108Y0062908D02*
X0104825Y0062908D01*
X0103826Y0061909D02*
X0100108Y0061909D01*
X0100108Y0060911D02*
X0102828Y0060911D01*
X0102249Y0059912D02*
X0100108Y0059912D01*
X0100108Y0058914D02*
X0102249Y0058914D01*
X0102249Y0057915D02*
X0100108Y0057915D01*
X0100108Y0056917D02*
X0102249Y0056917D01*
X0102249Y0055918D02*
X0100108Y0055918D01*
X0100108Y0054920D02*
X0102249Y0054920D01*
X0102249Y0053921D02*
X0100108Y0053921D01*
X0100108Y0052923D02*
X0102249Y0052923D01*
X0102249Y0051924D02*
X0100108Y0051924D01*
X0100074Y0050926D02*
X0102249Y0050926D01*
X0100863Y0051000D02*
X0100863Y0052969D01*
X0100863Y0051000D02*
X0099525Y0049661D01*
X0099525Y0047713D01*
X0099525Y0050376D01*
X0099525Y0050376D01*
X0099525Y0047713D01*
X0099525Y0047713D01*
X0099525Y0047712D02*
X0099525Y0044933D01*
X0099525Y0047712D01*
X0099525Y0047712D01*
X0099525Y0047930D02*
X0099525Y0047930D01*
X0099525Y0046932D02*
X0099525Y0046932D01*
X0099525Y0045933D02*
X0099525Y0045933D01*
X0099525Y0044934D02*
X0099525Y0044934D01*
X0100318Y0044934D02*
X0100674Y0044934D01*
X0098732Y0044934D02*
X0098376Y0044934D01*
X0097163Y0047713D02*
X0097163Y0050843D01*
X0098108Y0051787D01*
X0098108Y0069110D01*
X0100076Y0071079D01*
X0100076Y0079346D01*
X0100470Y0079740D01*
X0102433Y0077885D02*
X0114218Y0077885D01*
X0114218Y0078884D02*
X0103038Y0078884D01*
X0103170Y0079882D02*
X0114218Y0079882D01*
X0114218Y0080881D02*
X0102920Y0080881D01*
X0102149Y0081879D02*
X0114218Y0081879D01*
X0114218Y0082878D02*
X0094596Y0082878D01*
X0094596Y0083876D02*
X0114218Y0083876D01*
X0114218Y0084875D02*
X0094596Y0084875D01*
X0094596Y0085873D02*
X0114218Y0085873D01*
X0114218Y0086872D02*
X0094596Y0086872D01*
X0094596Y0087870D02*
X0114218Y0087870D01*
X0114218Y0088869D02*
X0094596Y0088869D01*
X0094596Y0089868D02*
X0114218Y0089868D01*
X0114218Y0090866D02*
X0094596Y0090866D01*
X0094596Y0091865D02*
X0114218Y0091865D01*
X0114218Y0092863D02*
X0094596Y0092863D01*
X0094596Y0093862D02*
X0114218Y0093862D01*
X0114218Y0094860D02*
X0094596Y0094860D01*
X0094596Y0095859D02*
X0114218Y0095859D01*
X0114218Y0096857D02*
X0094596Y0096857D01*
X0094596Y0097856D02*
X0114218Y0097856D01*
X0114218Y0098854D02*
X0094596Y0098854D01*
X0094596Y0099853D02*
X0114218Y0099853D01*
X0114218Y0100851D02*
X0094596Y0100851D01*
X0088627Y0100851D02*
X0084450Y0100851D01*
X0084450Y0099853D02*
X0088627Y0099853D01*
X0088627Y0098854D02*
X0084307Y0098854D01*
X0084450Y0102848D02*
X0088627Y0102848D01*
X0088627Y0101850D02*
X0080301Y0101850D01*
X0080300Y0100851D02*
X0079301Y0100851D01*
X0079301Y0099853D02*
X0080300Y0099853D01*
X0080300Y0098854D02*
X0079301Y0098854D01*
X0079300Y0101850D02*
X0074123Y0101850D01*
X0074123Y0102848D02*
X0075151Y0102848D01*
X0075151Y0103847D02*
X0074123Y0103847D01*
X0074123Y0104845D02*
X0075158Y0104845D01*
X0075670Y0105844D02*
X0074123Y0105844D01*
X0074123Y0106842D02*
X0075151Y0106842D01*
X0075151Y0107841D02*
X0074123Y0107841D01*
X0074123Y0108839D02*
X0075151Y0108839D01*
X0075151Y0109838D02*
X0074123Y0109838D01*
X0074123Y0110836D02*
X0075151Y0110836D01*
X0074681Y0111835D02*
X0073172Y0111835D01*
X0072123Y0110055D02*
X0069958Y0112220D01*
X0066642Y0112220D01*
X0066642Y0110252D02*
X0068777Y0110252D01*
X0069761Y0109268D01*
X0069761Y0105724D01*
X0060273Y0096236D01*
X0060273Y0091354D01*
X0060273Y0078205D01*
X0060115Y0078047D01*
X0069171Y0078047D01*
X0065370Y0081879D02*
X0064113Y0081879D01*
X0062273Y0082878D02*
X0084690Y0082878D01*
X0084690Y0083876D02*
X0062273Y0083876D01*
X0062273Y0084875D02*
X0084690Y0084875D01*
X0084690Y0085873D02*
X0062273Y0085873D01*
X0063621Y0086872D02*
X0064406Y0086872D01*
X0067753Y0091354D02*
X0067753Y0098205D01*
X0072123Y0102575D01*
X0072123Y0110055D01*
X0067761Y0107841D02*
X0065065Y0107841D01*
X0067052Y0105844D02*
X0055226Y0105844D01*
X0055226Y0106842D02*
X0067761Y0106842D01*
X0066053Y0104845D02*
X0055226Y0104845D01*
X0055226Y0103847D02*
X0065055Y0103847D01*
X0064056Y0102848D02*
X0055226Y0102848D01*
X0055226Y0101850D02*
X0063058Y0101850D01*
X0062059Y0100851D02*
X0055226Y0100851D01*
X0055226Y0099853D02*
X0061061Y0099853D01*
X0060062Y0098854D02*
X0055226Y0098854D01*
X0055226Y0097856D02*
X0059064Y0097856D01*
X0058273Y0096857D02*
X0054273Y0096857D01*
X0053275Y0095859D02*
X0056947Y0095859D01*
X0056214Y0094860D02*
X0052363Y0094860D01*
X0052363Y0093862D02*
X0056214Y0093862D01*
X0056214Y0092863D02*
X0051541Y0092863D01*
X0052042Y0091865D02*
X0056214Y0091865D01*
X0056214Y0090866D02*
X0052757Y0090866D01*
X0052757Y0089868D02*
X0056214Y0089868D01*
X0056214Y0088869D02*
X0052757Y0088869D01*
X0052757Y0087870D02*
X0056214Y0087870D01*
X0056925Y0086872D02*
X0052757Y0086872D01*
X0052757Y0085873D02*
X0058273Y0085873D01*
X0058273Y0084875D02*
X0052757Y0084875D01*
X0052757Y0083876D02*
X0058273Y0083876D01*
X0058273Y0082878D02*
X0052757Y0082878D01*
X0055466Y0080881D02*
X0040266Y0080881D01*
X0041264Y0081879D02*
X0056118Y0081879D01*
X0055466Y0079882D02*
X0039267Y0079882D01*
X0038269Y0078884D02*
X0055466Y0078884D01*
X0059840Y0070843D02*
X0047911Y0070843D01*
X0046375Y0069307D01*
X0039171Y0069307D01*
X0043230Y0065903D02*
X0043839Y0065903D01*
X0042401Y0064905D02*
X0046363Y0064905D01*
X0046363Y0063906D02*
X0014281Y0063906D01*
X0014281Y0062908D02*
X0046363Y0062908D01*
X0045946Y0061909D02*
X0045781Y0061909D01*
X0040946Y0061909D02*
X0040781Y0061909D01*
X0035946Y0061909D02*
X0029536Y0061909D01*
X0029706Y0060911D02*
X0035682Y0060911D01*
X0035682Y0059912D02*
X0029706Y0059912D01*
X0029706Y0058914D02*
X0035682Y0058914D01*
X0035682Y0057915D02*
X0029706Y0057915D01*
X0029706Y0056917D02*
X0035682Y0056917D01*
X0035682Y0055918D02*
X0029706Y0055918D01*
X0029706Y0054920D02*
X0035682Y0054920D01*
X0035682Y0053921D02*
X0029706Y0053921D01*
X0029706Y0052923D02*
X0035752Y0052923D01*
X0041363Y0051924D02*
X0029706Y0051924D01*
X0041363Y0050926D02*
X0008482Y0050926D01*
X0008482Y0051924D02*
X0009344Y0051924D01*
X0009344Y0052923D02*
X0008482Y0052923D01*
X0008482Y0053921D02*
X0009344Y0053921D01*
X0009344Y0054920D02*
X0008482Y0054920D01*
X0008482Y0055918D02*
X0009344Y0055918D01*
X0009344Y0056917D02*
X0008482Y0056917D01*
X0008482Y0057915D02*
X0009344Y0057915D01*
X0009344Y0058914D02*
X0008482Y0058914D01*
X0008482Y0059912D02*
X0009344Y0059912D01*
X0009344Y0060911D02*
X0008482Y0060911D01*
X0008482Y0061909D02*
X0009514Y0061909D01*
X0010281Y0062908D02*
X0008482Y0062908D01*
X0008482Y0063906D02*
X0010281Y0063906D01*
X0010281Y0064905D02*
X0008482Y0064905D01*
X0008482Y0065903D02*
X0010281Y0065903D01*
X0010281Y0066902D02*
X0008482Y0066902D01*
X0008482Y0067900D02*
X0010281Y0067900D01*
X0010281Y0068899D02*
X0008482Y0068899D01*
X0008482Y0069897D02*
X0010281Y0069897D01*
X0010281Y0070896D02*
X0008482Y0070896D01*
X0008482Y0071894D02*
X0010281Y0071894D01*
X0010281Y0072893D02*
X0008482Y0072893D01*
X0008482Y0073891D02*
X0009987Y0073891D01*
X0009581Y0074890D02*
X0008482Y0074890D01*
X0008482Y0075888D02*
X0009581Y0075888D01*
X0009970Y0076887D02*
X0008482Y0076887D01*
X0008482Y0077885D02*
X0011203Y0077885D01*
X0013142Y0078884D02*
X0008482Y0078884D01*
X0008482Y0079882D02*
X0012395Y0079882D01*
X0012395Y0080881D02*
X0008482Y0080881D01*
X0008482Y0081879D02*
X0012395Y0081879D01*
X0012395Y0082878D02*
X0008482Y0082878D01*
X0008482Y0083876D02*
X0012395Y0083876D01*
X0012395Y0084875D02*
X0008482Y0084875D01*
X0008482Y0085873D02*
X0012395Y0085873D01*
X0012395Y0086872D02*
X0008482Y0086872D01*
X0008482Y0087870D02*
X0012395Y0087870D01*
X0012395Y0088869D02*
X0008482Y0088869D01*
X0008482Y0089868D02*
X0012395Y0089868D01*
X0012395Y0090866D02*
X0008482Y0090866D01*
X0008482Y0091865D02*
X0012395Y0091865D01*
X0012395Y0092863D02*
X0008482Y0092863D01*
X0008482Y0093862D02*
X0012395Y0093862D01*
X0012395Y0094860D02*
X0008482Y0094860D01*
X0008482Y0095859D02*
X0012395Y0095859D01*
X0012395Y0096857D02*
X0008482Y0096857D01*
X0008482Y0097856D02*
X0012395Y0097856D01*
X0012395Y0098854D02*
X0008482Y0098854D01*
X0008482Y0099853D02*
X0012395Y0099853D01*
X0012395Y0100851D02*
X0008482Y0100851D01*
X0008482Y0101850D02*
X0012395Y0101850D01*
X0012395Y0102848D02*
X0008482Y0102848D01*
X0008482Y0103847D02*
X0012395Y0103847D01*
X0012643Y0104845D02*
X0008482Y0104845D01*
X0008482Y0105844D02*
X0012643Y0105844D01*
X0012643Y0106842D02*
X0008482Y0106842D01*
X0008482Y0107841D02*
X0012643Y0107841D01*
X0012643Y0108839D02*
X0008482Y0108839D01*
X0008482Y0109838D02*
X0012643Y0109838D01*
X0012643Y0110836D02*
X0008482Y0110836D01*
X0008482Y0111835D02*
X0012643Y0111835D01*
X0012643Y0112833D02*
X0008482Y0112833D01*
X0008482Y0113832D02*
X0012643Y0113832D01*
X0012643Y0114830D02*
X0008482Y0114830D01*
X0008482Y0115829D02*
X0012643Y0115829D01*
X0012643Y0116827D02*
X0008482Y0116827D01*
X0008482Y0117826D02*
X0012643Y0117826D01*
X0012643Y0118824D02*
X0008482Y0118824D01*
X0008482Y0119823D02*
X0012643Y0119823D01*
X0012643Y0120821D02*
X0008482Y0120821D01*
X0008482Y0121820D02*
X0012643Y0121820D01*
X0012643Y0122818D02*
X0008482Y0122818D01*
X0008482Y0123817D02*
X0012643Y0123817D01*
X0012643Y0124815D02*
X0008482Y0124815D01*
X0008482Y0125814D02*
X0012643Y0125814D01*
X0012643Y0126812D02*
X0008482Y0126812D01*
X0008482Y0127811D02*
X0012643Y0127811D01*
X0012643Y0128809D02*
X0008482Y0128809D01*
X0008482Y0129808D02*
X0012643Y0129808D01*
X0012643Y0130806D02*
X0008482Y0130806D01*
X0008482Y0131805D02*
X0012643Y0131805D01*
X0012643Y0132803D02*
X0008482Y0132803D01*
X0008482Y0133802D02*
X0012643Y0133802D01*
X0012643Y0134801D02*
X0008482Y0134801D01*
X0008482Y0135799D02*
X0012643Y0135799D01*
X0012643Y0136798D02*
X0008482Y0136798D01*
X0008482Y0137796D02*
X0012643Y0137796D01*
X0012643Y0138795D02*
X0008482Y0138795D01*
X0008482Y0139793D02*
X0012643Y0139793D01*
X0012643Y0140792D02*
X0008482Y0140792D01*
X0008482Y0141790D02*
X0012643Y0141790D01*
X0012643Y0142789D02*
X0008482Y0142789D01*
X0008482Y0143787D02*
X0012643Y0143787D01*
X0012643Y0144786D02*
X0008482Y0144786D01*
X0008482Y0145784D02*
X0012643Y0145784D01*
X0012643Y0146783D02*
X0008482Y0146783D01*
X0008482Y0147781D02*
X0012643Y0147781D01*
X0012643Y0148780D02*
X0008482Y0148780D01*
X0008482Y0149778D02*
X0012643Y0149778D01*
X0012643Y0150777D02*
X0008482Y0150777D01*
X0008482Y0151775D02*
X0012643Y0151775D01*
X0012643Y0152774D02*
X0008482Y0152774D01*
X0008482Y0153772D02*
X0012643Y0153772D01*
X0012643Y0154771D02*
X0008482Y0154771D01*
X0008482Y0155769D02*
X0012643Y0155769D01*
X0012643Y0156768D02*
X0008482Y0156768D01*
X0008482Y0157766D02*
X0012643Y0157766D01*
X0012643Y0158765D02*
X0008482Y0158765D01*
X0008482Y0159763D02*
X0012643Y0159763D01*
X0012643Y0160762D02*
X0008482Y0160762D01*
X0008482Y0161760D02*
X0012643Y0161760D01*
X0012643Y0162759D02*
X0008482Y0162759D01*
X0008482Y0163757D02*
X0012643Y0163757D01*
X0012643Y0164756D02*
X0008482Y0164756D01*
X0008482Y0165754D02*
X0012643Y0165754D01*
X0012643Y0166753D02*
X0008482Y0166753D01*
X0008482Y0167751D02*
X0012643Y0167751D01*
X0013029Y0168750D02*
X0008482Y0168750D01*
X0008482Y0169748D02*
X0014028Y0169748D01*
X0018186Y0167142D02*
X0026454Y0169504D01*
X0024092Y0167142D01*
X0023698Y0167142D01*
X0022465Y0162759D02*
X0014643Y0162759D01*
X0014643Y0161760D02*
X0021730Y0161760D01*
X0021730Y0160762D02*
X0014643Y0160762D01*
X0014643Y0159763D02*
X0021730Y0159763D01*
X0021730Y0158765D02*
X0014643Y0158765D01*
X0014643Y0157766D02*
X0021730Y0157766D01*
X0021730Y0156768D02*
X0014643Y0156768D01*
X0014643Y0155769D02*
X0021730Y0155769D01*
X0021730Y0154771D02*
X0014643Y0154771D01*
X0014643Y0153772D02*
X0021730Y0153772D01*
X0021730Y0152774D02*
X0014643Y0152774D01*
X0014643Y0151775D02*
X0021730Y0151775D01*
X0021730Y0150777D02*
X0014643Y0150777D01*
X0014643Y0149778D02*
X0021730Y0149778D01*
X0021730Y0148780D02*
X0014643Y0148780D01*
X0014643Y0147781D02*
X0021730Y0147781D01*
X0021730Y0146783D02*
X0014643Y0146783D01*
X0014643Y0145784D02*
X0021730Y0145784D01*
X0021730Y0144786D02*
X0014643Y0144786D01*
X0014643Y0143787D02*
X0021730Y0143787D01*
X0021730Y0142789D02*
X0014643Y0142789D01*
X0014643Y0141790D02*
X0021730Y0141790D01*
X0021730Y0140792D02*
X0014643Y0140792D01*
X0014643Y0139793D02*
X0021730Y0139793D01*
X0021730Y0138795D02*
X0014643Y0138795D01*
X0014643Y0137796D02*
X0021730Y0137796D01*
X0021730Y0136798D02*
X0014643Y0136798D01*
X0014643Y0135799D02*
X0021730Y0135799D01*
X0021730Y0134801D02*
X0014643Y0134801D01*
X0014643Y0133802D02*
X0021730Y0133802D01*
X0021730Y0132803D02*
X0014643Y0132803D01*
X0014643Y0131805D02*
X0021730Y0131805D01*
X0021730Y0130806D02*
X0014643Y0130806D01*
X0014643Y0129808D02*
X0021730Y0129808D01*
X0021730Y0128809D02*
X0014643Y0128809D01*
X0014643Y0127811D02*
X0021730Y0127811D01*
X0021730Y0126812D02*
X0014643Y0126812D01*
X0014643Y0125814D02*
X0021730Y0125814D01*
X0021730Y0124815D02*
X0014643Y0124815D01*
X0014643Y0123817D02*
X0021730Y0123817D01*
X0021730Y0122818D02*
X0014643Y0122818D01*
X0014643Y0121820D02*
X0021730Y0121820D01*
X0021730Y0120821D02*
X0014643Y0120821D01*
X0014643Y0119823D02*
X0021730Y0119823D01*
X0021730Y0118824D02*
X0014643Y0118824D01*
X0014643Y0117826D02*
X0021730Y0117826D01*
X0021730Y0116827D02*
X0014643Y0116827D01*
X0014643Y0115829D02*
X0021730Y0115829D01*
X0021730Y0114830D02*
X0014643Y0114830D01*
X0014643Y0113832D02*
X0021730Y0113832D01*
X0021730Y0112833D02*
X0014643Y0112833D01*
X0014643Y0111835D02*
X0021730Y0111835D01*
X0021730Y0110836D02*
X0014643Y0110836D01*
X0014643Y0109838D02*
X0021730Y0109838D01*
X0021730Y0108839D02*
X0014643Y0108839D01*
X0014643Y0107841D02*
X0021730Y0107841D01*
X0021730Y0106842D02*
X0014643Y0106842D01*
X0014643Y0105844D02*
X0021730Y0105844D01*
X0021730Y0104845D02*
X0014643Y0104845D01*
X0014643Y0103847D02*
X0021730Y0103847D01*
X0021730Y0102848D02*
X0014643Y0102848D01*
X0014643Y0101850D02*
X0021730Y0101850D01*
X0021730Y0100851D02*
X0014643Y0100851D01*
X0014643Y0099853D02*
X0021730Y0099853D01*
X0021730Y0098854D02*
X0014643Y0098854D01*
X0014643Y0097856D02*
X0021730Y0097856D01*
X0021730Y0096857D02*
X0014643Y0096857D01*
X0014643Y0095859D02*
X0021730Y0095859D01*
X0021730Y0094860D02*
X0014643Y0094860D01*
X0014643Y0093862D02*
X0021730Y0093862D01*
X0021730Y0092863D02*
X0014643Y0092863D01*
X0014643Y0091865D02*
X0021730Y0091865D01*
X0021730Y0090866D02*
X0014643Y0090866D01*
X0014643Y0089868D02*
X0021730Y0089868D01*
X0021730Y0088869D02*
X0014643Y0088869D01*
X0014643Y0087870D02*
X0021730Y0087870D01*
X0021730Y0086872D02*
X0014643Y0086872D01*
X0014643Y0085873D02*
X0021730Y0085873D01*
X0021730Y0084875D02*
X0014643Y0084875D01*
X0014643Y0083876D02*
X0021730Y0083876D01*
X0021730Y0082878D02*
X0014643Y0082878D01*
X0014643Y0081879D02*
X0021730Y0081879D01*
X0021730Y0080881D02*
X0015077Y0080881D01*
X0014981Y0074890D02*
X0043064Y0074890D01*
X0043064Y0073891D02*
X0014574Y0073891D01*
X0014281Y0072893D02*
X0027765Y0072893D01*
X0027733Y0072839D02*
X0027631Y0072457D01*
X0027631Y0069807D01*
X0031190Y0069807D01*
X0031190Y0073760D01*
X0028934Y0073760D01*
X0028552Y0073658D01*
X0028210Y0073460D01*
X0027931Y0073181D01*
X0027733Y0072839D01*
X0027631Y0071894D02*
X0014281Y0071894D01*
X0014281Y0070896D02*
X0027631Y0070896D01*
X0027631Y0069897D02*
X0014281Y0069897D01*
X0014281Y0068899D02*
X0031190Y0068899D01*
X0031190Y0069897D02*
X0032190Y0069897D01*
X0032190Y0070896D02*
X0031190Y0070896D01*
X0031190Y0071894D02*
X0032190Y0071894D01*
X0032190Y0072893D02*
X0031190Y0072893D01*
X0031190Y0067900D02*
X0032190Y0067900D01*
X0032190Y0066902D02*
X0031190Y0066902D01*
X0031190Y0065903D02*
X0032190Y0065903D01*
X0032190Y0064905D02*
X0031190Y0064905D01*
X0028746Y0064905D02*
X0014281Y0064905D01*
X0014281Y0065903D02*
X0027699Y0065903D01*
X0027631Y0066902D02*
X0014281Y0066902D01*
X0014281Y0067900D02*
X0027631Y0067900D01*
X0034635Y0064905D02*
X0035940Y0064905D01*
X0047911Y0070843D02*
X0048363Y0070390D01*
X0052757Y0067900D02*
X0055466Y0067900D01*
X0055951Y0066902D02*
X0052757Y0066902D01*
X0051983Y0065903D02*
X0061943Y0065903D01*
X0062158Y0064905D02*
X0050363Y0064905D01*
X0050363Y0063906D02*
X0062879Y0063906D01*
X0064643Y0065961D02*
X0064643Y0069780D01*
X0063856Y0070567D01*
X0060115Y0070567D01*
X0059840Y0070843D01*
X0063856Y0070567D02*
X0069171Y0070567D01*
X0065278Y0074307D02*
X0064741Y0074843D01*
X0064205Y0074307D01*
X0064741Y0073771D01*
X0065278Y0074307D01*
X0064862Y0073891D02*
X0064621Y0073891D01*
X0066407Y0063906D02*
X0072017Y0063906D01*
X0077635Y0068323D02*
X0083147Y0073835D01*
X0083275Y0071135D02*
X0083684Y0071135D01*
X0084676Y0071546D01*
X0084690Y0071560D01*
X0084690Y0060362D01*
X0084676Y0060376D01*
X0083684Y0060787D01*
X0082610Y0060787D01*
X0081618Y0060376D01*
X0080858Y0059616D01*
X0080447Y0058624D01*
X0080447Y0057550D01*
X0080858Y0056557D01*
X0081541Y0055875D01*
X0081541Y0049369D01*
X0080641Y0049369D01*
X0079649Y0048958D01*
X0079635Y0048944D01*
X0079635Y0067494D01*
X0083275Y0071135D01*
X0083037Y0070896D02*
X0084690Y0070896D01*
X0084690Y0069897D02*
X0082038Y0069897D01*
X0081040Y0068899D02*
X0084690Y0068899D01*
X0084690Y0067900D02*
X0080041Y0067900D01*
X0079635Y0066902D02*
X0084690Y0066902D01*
X0084690Y0065903D02*
X0079635Y0065903D01*
X0079635Y0064905D02*
X0084690Y0064905D01*
X0084690Y0063906D02*
X0079635Y0063906D01*
X0079635Y0062908D02*
X0084690Y0062908D01*
X0084690Y0061909D02*
X0079635Y0061909D01*
X0079635Y0060911D02*
X0084690Y0060911D01*
X0083147Y0058087D02*
X0083541Y0057693D01*
X0083541Y0034465D01*
X0084722Y0033283D01*
X0089840Y0033283D01*
X0091257Y0034701D01*
X0091257Y0036394D01*
X0086214Y0035948D02*
X0085541Y0035948D01*
X0085541Y0035293D02*
X0085541Y0041053D01*
X0085862Y0040732D01*
X0086420Y0040174D01*
X0086214Y0039968D01*
X0086214Y0035283D01*
X0085550Y0035283D01*
X0085541Y0035293D01*
X0085541Y0036946D02*
X0086214Y0036946D01*
X0086214Y0037945D02*
X0085541Y0037945D01*
X0085541Y0038943D02*
X0086214Y0038943D01*
X0086214Y0039942D02*
X0085541Y0039942D01*
X0085541Y0040940D02*
X0085654Y0040940D01*
X0081178Y0046669D02*
X0081178Y0030134D01*
X0081572Y0029740D01*
X0083178Y0031954D02*
X0083223Y0031954D01*
X0077635Y0028165D02*
X0077635Y0068323D01*
X0079635Y0059912D02*
X0081154Y0059912D01*
X0080567Y0058914D02*
X0079635Y0058914D01*
X0079635Y0057915D02*
X0080447Y0057915D01*
X0080709Y0056917D02*
X0079635Y0056917D01*
X0079635Y0055918D02*
X0081497Y0055918D01*
X0081541Y0054920D02*
X0079635Y0054920D01*
X0079635Y0053921D02*
X0081541Y0053921D01*
X0081541Y0052923D02*
X0079635Y0052923D01*
X0079635Y0051924D02*
X0081541Y0051924D01*
X0081541Y0050926D02*
X0079635Y0050926D01*
X0079635Y0049927D02*
X0081541Y0049927D01*
X0088690Y0049927D02*
X0090438Y0049927D01*
X0090438Y0050926D02*
X0088690Y0050926D01*
X0088690Y0051924D02*
X0090438Y0051924D01*
X0090438Y0052923D02*
X0088690Y0052923D01*
X0088690Y0053921D02*
X0090438Y0053921D01*
X0090438Y0054920D02*
X0088690Y0054920D01*
X0088690Y0055918D02*
X0090438Y0055918D01*
X0090438Y0056917D02*
X0088690Y0056917D01*
X0088690Y0057915D02*
X0090438Y0057915D01*
X0090594Y0058914D02*
X0088690Y0058914D01*
X0088690Y0059912D02*
X0089314Y0059912D01*
X0091021Y0062024D02*
X0090627Y0062417D01*
X0090627Y0128953D01*
X0088265Y0131315D01*
X0087214Y0133802D02*
X0074395Y0133802D01*
X0074171Y0133677D02*
X0073895Y0133953D01*
X0052832Y0133953D01*
X0057281Y0138402D01*
X0057281Y0153165D01*
X0056808Y0152693D01*
X0056808Y0144504D01*
X0056308Y0144786D02*
X0050020Y0144786D01*
X0049957Y0145784D02*
X0052749Y0145784D01*
X0052749Y0145004D02*
X0056308Y0145004D01*
X0056308Y0148713D01*
X0056781Y0148713D01*
X0056781Y0152665D01*
X0053222Y0152665D01*
X0053222Y0150015D01*
X0053324Y0149634D01*
X0053521Y0149292D01*
X0053742Y0149071D01*
X0053670Y0149051D01*
X0053328Y0148854D01*
X0053049Y0148575D01*
X0052852Y0148233D01*
X0052749Y0147851D01*
X0052749Y0145004D01*
X0052749Y0143787D02*
X0049701Y0143787D01*
X0048809Y0142789D02*
X0052749Y0142789D01*
X0052749Y0141790D02*
X0046844Y0141790D01*
X0045846Y0140792D02*
X0052847Y0140792D01*
X0052242Y0138209D02*
X0049592Y0138209D01*
X0049592Y0134650D01*
X0053545Y0134650D01*
X0053545Y0136906D01*
X0053442Y0137288D01*
X0053245Y0137630D01*
X0052966Y0137909D01*
X0052624Y0138106D01*
X0052242Y0138209D01*
X0053079Y0137796D02*
X0069970Y0137796D01*
X0069269Y0136798D02*
X0053545Y0136798D01*
X0053545Y0135799D02*
X0069245Y0135799D01*
X0069245Y0134801D02*
X0053545Y0134801D01*
X0052832Y0133953D02*
X0049289Y0133953D01*
X0049092Y0134150D01*
X0049592Y0133802D02*
X0073395Y0133802D01*
X0074171Y0133677D02*
X0079604Y0133677D01*
X0082163Y0131118D01*
X0082163Y0127811D01*
X0082663Y0127811D02*
X0088627Y0127811D01*
X0088627Y0126812D02*
X0086812Y0126812D01*
X0086812Y0125814D02*
X0088627Y0125814D01*
X0088627Y0124815D02*
X0086748Y0124815D01*
X0086506Y0123817D02*
X0088627Y0123817D01*
X0088627Y0122818D02*
X0086812Y0122818D01*
X0086812Y0121820D02*
X0088627Y0121820D01*
X0088627Y0120821D02*
X0086812Y0120821D01*
X0086812Y0119823D02*
X0088627Y0119823D01*
X0088627Y0118824D02*
X0086812Y0118824D01*
X0087462Y0117826D02*
X0088627Y0117826D01*
X0088627Y0116827D02*
X0088303Y0116827D01*
X0088603Y0115829D02*
X0088627Y0115829D01*
X0088627Y0114830D02*
X0088520Y0114830D01*
X0088627Y0113832D02*
X0087986Y0113832D01*
X0088627Y0112833D02*
X0084341Y0112833D01*
X0083820Y0113832D02*
X0078340Y0113832D01*
X0079491Y0114830D02*
X0083286Y0114830D01*
X0082813Y0115829D02*
X0080489Y0115829D01*
X0077989Y0116157D02*
X0082163Y0120331D01*
X0082163Y0119307D01*
X0085903Y0115567D01*
X0087548Y0111835D02*
X0088627Y0111835D01*
X0088627Y0110836D02*
X0088339Y0110836D01*
X0088603Y0109838D02*
X0088627Y0109838D01*
X0088627Y0108839D02*
X0088485Y0108839D01*
X0088627Y0107841D02*
X0087901Y0107841D01*
X0088627Y0106842D02*
X0084450Y0106842D01*
X0083931Y0105844D02*
X0088627Y0105844D01*
X0088627Y0104845D02*
X0084443Y0104845D01*
X0084450Y0103847D02*
X0088627Y0103847D01*
X0094596Y0107841D02*
X0095314Y0107841D01*
X0094596Y0116096D02*
X0094596Y0118424D01*
X0095083Y0117936D01*
X0096716Y0117260D01*
X0095083Y0116583D01*
X0094596Y0116096D01*
X0094596Y0116827D02*
X0095672Y0116827D01*
X0095350Y0117826D02*
X0094596Y0117826D01*
X0085903Y0109661D02*
X0085785Y0109543D01*
X0079801Y0109543D01*
X0075155Y0114189D01*
X0066642Y0114189D01*
X0066642Y0116157D02*
X0077989Y0116157D01*
X0077161Y0118157D02*
X0074393Y0118157D01*
X0075314Y0119079D01*
X0076486Y0120250D01*
X0076486Y0122413D01*
X0077513Y0122413D01*
X0077513Y0118510D01*
X0077161Y0118157D01*
X0077513Y0118824D02*
X0075060Y0118824D01*
X0076058Y0119823D02*
X0077513Y0119823D01*
X0077513Y0120821D02*
X0076486Y0120821D01*
X0076486Y0121820D02*
X0077513Y0121820D01*
X0074486Y0121079D02*
X0074486Y0125882D01*
X0073895Y0126472D01*
X0073816Y0126394D01*
X0065115Y0126394D01*
X0069175Y0124394D02*
X0069175Y0122623D01*
X0068296Y0121744D01*
X0061935Y0121744D01*
X0061493Y0122187D01*
X0060747Y0121441D01*
X0058385Y0121441D01*
X0057533Y0120589D01*
X0065014Y0120589D01*
X0065377Y0120226D01*
X0068864Y0120226D01*
X0068964Y0120126D01*
X0070704Y0120126D01*
X0072486Y0121907D01*
X0072486Y0122413D01*
X0070124Y0122413D01*
X0069245Y0123292D01*
X0069245Y0124394D01*
X0069175Y0124394D01*
X0069175Y0123817D02*
X0069245Y0123817D01*
X0069175Y0122818D02*
X0069719Y0122818D01*
X0068372Y0121820D02*
X0072398Y0121820D01*
X0071400Y0120821D02*
X0057765Y0120821D01*
X0055935Y0121820D02*
X0046741Y0121820D01*
X0045885Y0122818D02*
X0056934Y0122818D01*
X0057556Y0123441D02*
X0055194Y0121079D01*
X0055194Y0119110D01*
X0054013Y0117929D01*
X0050076Y0117929D01*
X0045352Y0123441D01*
X0045745Y0128559D01*
X0046926Y0129346D01*
X0059525Y0129346D01*
X0060312Y0128559D01*
X0060312Y0123835D01*
X0059919Y0123441D01*
X0057556Y0123441D01*
X0060295Y0123817D02*
X0045381Y0123817D01*
X0045457Y0124815D02*
X0060312Y0124815D01*
X0060312Y0125814D02*
X0045534Y0125814D01*
X0045611Y0126812D02*
X0060312Y0126812D01*
X0060312Y0127811D02*
X0045688Y0127811D01*
X0046121Y0128809D02*
X0060062Y0128809D01*
X0061052Y0130806D02*
X0061698Y0130806D01*
X0057635Y0126394D02*
X0049092Y0126669D01*
X0044092Y0126669D01*
X0042596Y0128165D01*
X0042596Y0140370D01*
X0042596Y0152693D01*
X0051080Y0161177D01*
X0050498Y0157766D02*
X0069730Y0157766D01*
X0071730Y0156906D02*
X0071730Y0160016D01*
X0070568Y0161177D01*
X0083206Y0161177D01*
X0087871Y0156512D01*
X0087871Y0136039D01*
X0092596Y0131315D01*
X0092937Y0133802D02*
X0093091Y0133802D01*
X0093504Y0134801D02*
X0091939Y0134801D01*
X0090940Y0135799D02*
X0094299Y0135799D01*
X0095600Y0136798D02*
X0089942Y0136798D01*
X0089871Y0137796D02*
X0095422Y0137796D01*
X0094225Y0138795D02*
X0089871Y0138795D01*
X0089871Y0139793D02*
X0093474Y0139793D01*
X0093060Y0140792D02*
X0089871Y0140792D01*
X0089871Y0141790D02*
X0092872Y0141790D01*
X0092872Y0142789D02*
X0089871Y0142789D01*
X0089871Y0143787D02*
X0093085Y0143787D01*
X0093498Y0144786D02*
X0089871Y0144786D01*
X0089871Y0145784D02*
X0094284Y0145784D01*
X0095564Y0146783D02*
X0089871Y0146783D01*
X0089871Y0147781D02*
X0095458Y0147781D01*
X0094240Y0148780D02*
X0089871Y0148780D01*
X0089871Y0149778D02*
X0093480Y0149778D01*
X0093066Y0150777D02*
X0089871Y0150777D01*
X0089871Y0151775D02*
X0092872Y0151775D01*
X0092872Y0152774D02*
X0089871Y0152774D01*
X0089871Y0153772D02*
X0093078Y0153772D01*
X0093492Y0154771D02*
X0089871Y0154771D01*
X0089871Y0155769D02*
X0094269Y0155769D01*
X0095528Y0156768D02*
X0089871Y0156768D01*
X0089445Y0157766D02*
X0095494Y0157766D01*
X0094255Y0158765D02*
X0088447Y0158765D01*
X0087448Y0159763D02*
X0093486Y0159763D01*
X0093072Y0160762D02*
X0086450Y0160762D01*
X0085451Y0161760D02*
X0092872Y0161760D01*
X0092872Y0162759D02*
X0084453Y0162759D01*
X0082790Y0158765D02*
X0075163Y0158765D01*
X0073730Y0157766D02*
X0083788Y0157766D01*
X0084787Y0156768D02*
X0073730Y0156768D01*
X0073422Y0155769D02*
X0085785Y0155769D01*
X0085871Y0154771D02*
X0072423Y0154771D01*
X0071425Y0153772D02*
X0085871Y0153772D01*
X0085871Y0152774D02*
X0070426Y0152774D01*
X0069428Y0151775D02*
X0085871Y0151775D01*
X0085871Y0150777D02*
X0068820Y0150777D01*
X0068820Y0149778D02*
X0085871Y0149778D01*
X0085871Y0148780D02*
X0068009Y0148780D01*
X0068348Y0147781D02*
X0085871Y0147781D01*
X0085871Y0146783D02*
X0068348Y0146783D01*
X0068348Y0145784D02*
X0085871Y0145784D01*
X0085871Y0144786D02*
X0068348Y0144786D01*
X0068348Y0143787D02*
X0085871Y0143787D01*
X0085871Y0142789D02*
X0068348Y0142789D01*
X0068348Y0141790D02*
X0085871Y0141790D01*
X0085871Y0140792D02*
X0068348Y0140792D01*
X0064289Y0144504D02*
X0064289Y0149465D01*
X0067989Y0153165D01*
X0071730Y0156906D01*
X0067989Y0153165D02*
X0064761Y0153165D01*
X0061021Y0149272D02*
X0061140Y0149154D01*
X0061108Y0149154D01*
X0060549Y0148594D01*
X0060347Y0148796D01*
X0060419Y0148815D01*
X0060761Y0149012D01*
X0061021Y0149272D01*
X0060734Y0148780D02*
X0060363Y0148780D01*
X0057781Y0149778D02*
X0056781Y0149778D01*
X0056781Y0148780D02*
X0057308Y0148780D01*
X0057308Y0147781D02*
X0056308Y0147781D01*
X0056308Y0146783D02*
X0057308Y0146783D01*
X0057308Y0145784D02*
X0056308Y0145784D01*
X0056308Y0143787D02*
X0057308Y0143787D01*
X0057308Y0142789D02*
X0056308Y0142789D01*
X0056308Y0141790D02*
X0057308Y0141790D01*
X0057308Y0140792D02*
X0056308Y0140792D01*
X0052749Y0146783D02*
X0049450Y0146783D01*
X0047889Y0147781D02*
X0052749Y0147781D01*
X0053254Y0148780D02*
X0044596Y0148780D01*
X0044596Y0149778D02*
X0053285Y0149778D01*
X0053222Y0150777D02*
X0044596Y0150777D01*
X0044596Y0151775D02*
X0053222Y0151775D01*
X0053222Y0153665D02*
X0056781Y0153665D01*
X0056781Y0157618D01*
X0054524Y0157618D01*
X0054143Y0157516D01*
X0053801Y0157318D01*
X0053521Y0157039D01*
X0053324Y0156697D01*
X0053222Y0156316D01*
X0053222Y0153665D01*
X0053222Y0153772D02*
X0046504Y0153772D01*
X0047502Y0154771D02*
X0053222Y0154771D01*
X0053222Y0155769D02*
X0048501Y0155769D01*
X0049499Y0156768D02*
X0053365Y0156768D01*
X0055675Y0158765D02*
X0065973Y0158765D01*
X0065190Y0159763D02*
X0056458Y0159763D01*
X0056458Y0160762D02*
X0065190Y0160762D01*
X0065190Y0161760D02*
X0056458Y0161760D01*
X0056458Y0162759D02*
X0065190Y0162759D01*
X0066052Y0163757D02*
X0055596Y0163757D01*
X0056378Y0164756D02*
X0065270Y0164756D01*
X0065190Y0165754D02*
X0056458Y0165754D01*
X0056458Y0166753D02*
X0065190Y0166753D01*
X0065311Y0167751D02*
X0056337Y0167751D01*
X0055583Y0168750D02*
X0066065Y0168750D01*
X0065272Y0169748D02*
X0056376Y0169748D01*
X0056458Y0170747D02*
X0065190Y0170747D01*
X0065190Y0171745D02*
X0056458Y0171745D01*
X0056339Y0172744D02*
X0065309Y0172744D01*
X0065996Y0173742D02*
X0055653Y0173742D01*
X0056458Y0174741D02*
X0065190Y0174741D01*
X0065190Y0175739D02*
X0056458Y0175739D01*
X0056458Y0176738D02*
X0065190Y0176738D01*
X0065190Y0177737D02*
X0056458Y0177737D01*
X0055530Y0178735D02*
X0066119Y0178735D01*
X0070659Y0171087D02*
X0075946Y0171087D01*
X0075946Y0170055D01*
X0075824Y0169598D01*
X0075587Y0169189D01*
X0075253Y0168855D01*
X0074946Y0168677D01*
X0075253Y0168500D01*
X0075587Y0168165D01*
X0075824Y0167756D01*
X0075946Y0167299D01*
X0075946Y0166268D01*
X0070659Y0166268D01*
X0070659Y0168496D01*
X0070659Y0171087D01*
X0070659Y0170747D02*
X0070478Y0170747D01*
X0070478Y0169748D02*
X0070659Y0169748D01*
X0070659Y0168750D02*
X0070478Y0168750D01*
X0070478Y0167751D02*
X0070659Y0167751D01*
X0070659Y0166753D02*
X0070478Y0166753D01*
X0075072Y0168750D02*
X0094270Y0168750D01*
X0093492Y0169748D02*
X0075864Y0169748D01*
X0075946Y0170747D02*
X0093079Y0170747D01*
X0092872Y0171745D02*
X0075946Y0171745D01*
X0075827Y0172744D02*
X0092872Y0172744D01*
X0093066Y0173742D02*
X0075141Y0173742D01*
X0075946Y0174741D02*
X0093480Y0174741D01*
X0094239Y0175739D02*
X0075946Y0175739D01*
X0075946Y0176738D02*
X0095456Y0176738D01*
X0095566Y0177737D02*
X0075946Y0177737D01*
X0075018Y0178735D02*
X0094284Y0178735D01*
X0093498Y0179734D02*
X0045383Y0179734D01*
X0045383Y0180732D02*
X0093085Y0180732D01*
X0092872Y0181731D02*
X0045383Y0181731D01*
X0045383Y0182729D02*
X0092872Y0182729D01*
X0093060Y0183728D02*
X0045383Y0183728D01*
X0045383Y0184726D02*
X0093474Y0184726D01*
X0094224Y0185725D02*
X0045383Y0185725D01*
X0045383Y0186723D02*
X0095421Y0186723D01*
X0095530Y0167751D02*
X0075825Y0167751D01*
X0075946Y0166753D02*
X0095492Y0166753D01*
X0094254Y0165754D02*
X0075946Y0165754D01*
X0075866Y0164756D02*
X0093486Y0164756D01*
X0093072Y0163757D02*
X0075084Y0163757D01*
X0057781Y0156768D02*
X0056781Y0156768D01*
X0056781Y0155769D02*
X0057781Y0155769D01*
X0057781Y0154771D02*
X0056781Y0154771D01*
X0056781Y0153772D02*
X0057781Y0153772D01*
X0056781Y0152774D02*
X0045505Y0152774D01*
X0040847Y0153772D02*
X0023730Y0153772D01*
X0023730Y0152774D02*
X0040596Y0152774D01*
X0040596Y0151775D02*
X0023730Y0151775D01*
X0023730Y0150777D02*
X0040596Y0150777D01*
X0040596Y0149778D02*
X0036687Y0149778D01*
X0037167Y0148780D02*
X0040596Y0148780D01*
X0040596Y0147781D02*
X0037167Y0147781D01*
X0037831Y0146783D02*
X0040596Y0146783D01*
X0040596Y0145784D02*
X0038829Y0145784D01*
X0039828Y0144786D02*
X0040596Y0144786D01*
X0040596Y0143787D02*
X0040265Y0143787D01*
X0040265Y0142789D02*
X0040596Y0142789D01*
X0040596Y0141790D02*
X0040265Y0141790D01*
X0040265Y0140792D02*
X0040596Y0140792D01*
X0040596Y0139793D02*
X0040265Y0139793D01*
X0040265Y0138795D02*
X0040596Y0138795D01*
X0040596Y0137796D02*
X0040265Y0137796D01*
X0040265Y0136798D02*
X0040596Y0136798D01*
X0040596Y0135799D02*
X0040265Y0135799D01*
X0040265Y0134801D02*
X0040596Y0134801D01*
X0040596Y0133802D02*
X0040265Y0133802D01*
X0040265Y0132803D02*
X0040596Y0132803D01*
X0040596Y0131805D02*
X0040265Y0131805D01*
X0040265Y0130806D02*
X0040596Y0130806D01*
X0040596Y0129808D02*
X0040265Y0129808D01*
X0040265Y0128809D02*
X0040596Y0128809D01*
X0038265Y0128809D02*
X0028423Y0128809D01*
X0028423Y0127811D02*
X0038265Y0127811D01*
X0038265Y0127772D02*
X0046926Y0119110D01*
X0046926Y0117535D01*
X0045745Y0116354D01*
X0043777Y0116354D01*
X0044564Y0116748D01*
X0033147Y0116748D01*
X0028423Y0121472D01*
X0028423Y0147063D01*
X0034722Y0147063D01*
X0038265Y0143520D01*
X0038265Y0127772D01*
X0039224Y0126812D02*
X0028423Y0126812D01*
X0028423Y0125814D02*
X0040223Y0125814D01*
X0041221Y0124815D02*
X0028423Y0124815D01*
X0028423Y0123817D02*
X0042220Y0123817D01*
X0043218Y0122818D02*
X0028423Y0122818D01*
X0028423Y0121820D02*
X0044217Y0121820D01*
X0045215Y0120821D02*
X0029074Y0120821D01*
X0028816Y0121866D02*
X0028816Y0133953D01*
X0031730Y0136866D01*
X0028423Y0136798D02*
X0038265Y0136798D01*
X0038265Y0137796D02*
X0028423Y0137796D01*
X0028423Y0138795D02*
X0038265Y0138795D01*
X0038265Y0139793D02*
X0028423Y0139793D01*
X0028423Y0140792D02*
X0038265Y0140792D01*
X0038265Y0141790D02*
X0028423Y0141790D01*
X0028423Y0142789D02*
X0038265Y0142789D01*
X0037998Y0143787D02*
X0028423Y0143787D01*
X0028423Y0144786D02*
X0036999Y0144786D01*
X0036001Y0145784D02*
X0028423Y0145784D01*
X0028423Y0146783D02*
X0035002Y0146783D01*
X0026772Y0149778D02*
X0023730Y0149778D01*
X0024175Y0148780D02*
X0026293Y0148780D01*
X0026293Y0147781D02*
X0024175Y0147781D01*
X0024175Y0146783D02*
X0026293Y0146783D01*
X0026293Y0145784D02*
X0024175Y0145784D01*
X0024175Y0144786D02*
X0026293Y0144786D01*
X0026293Y0143787D02*
X0024175Y0143787D01*
X0024175Y0142789D02*
X0026293Y0142789D01*
X0026293Y0141790D02*
X0024175Y0141790D01*
X0024175Y0140792D02*
X0026293Y0140792D01*
X0026293Y0139793D02*
X0024175Y0139793D01*
X0024175Y0138795D02*
X0026293Y0138795D01*
X0026293Y0137796D02*
X0024175Y0137796D01*
X0024175Y0136798D02*
X0026293Y0136798D01*
X0026293Y0135799D02*
X0024175Y0135799D01*
X0024175Y0134801D02*
X0026293Y0134801D01*
X0026293Y0133802D02*
X0024175Y0133802D01*
X0024175Y0132803D02*
X0026293Y0132803D01*
X0026293Y0131805D02*
X0024175Y0131805D01*
X0024175Y0130806D02*
X0026293Y0130806D01*
X0026293Y0129808D02*
X0024175Y0129808D01*
X0024175Y0128809D02*
X0026293Y0128809D01*
X0026293Y0127811D02*
X0024175Y0127811D01*
X0024175Y0126812D02*
X0026293Y0126812D01*
X0026293Y0125814D02*
X0024175Y0125814D01*
X0024175Y0124815D02*
X0026293Y0124815D01*
X0026423Y0123817D02*
X0023730Y0123817D01*
X0023730Y0122818D02*
X0026423Y0122818D01*
X0026423Y0121820D02*
X0023730Y0121820D01*
X0023730Y0120821D02*
X0026423Y0120821D01*
X0027244Y0119823D02*
X0023730Y0119823D01*
X0023730Y0118824D02*
X0028242Y0118824D01*
X0029241Y0117826D02*
X0023730Y0117826D01*
X0023730Y0116827D02*
X0030239Y0116827D01*
X0032069Y0117826D02*
X0046926Y0117826D01*
X0046926Y0118824D02*
X0031071Y0118824D01*
X0030072Y0119823D02*
X0046214Y0119823D01*
X0047597Y0120821D02*
X0055194Y0120821D01*
X0055194Y0119823D02*
X0048453Y0119823D01*
X0049289Y0119110D02*
X0049289Y0126472D01*
X0049092Y0126669D01*
X0044860Y0130806D02*
X0044596Y0130806D01*
X0044596Y0131805D02*
X0044639Y0131805D01*
X0044596Y0132803D02*
X0044639Y0132803D01*
X0044596Y0133802D02*
X0048592Y0133802D01*
X0048592Y0134801D02*
X0049592Y0134801D01*
X0049592Y0135799D02*
X0048592Y0135799D01*
X0048592Y0136798D02*
X0049592Y0136798D01*
X0049592Y0137796D02*
X0048592Y0137796D01*
X0045105Y0137796D02*
X0044596Y0137796D01*
X0044596Y0136798D02*
X0044639Y0136798D01*
X0044596Y0135799D02*
X0044639Y0135799D01*
X0044596Y0134801D02*
X0044639Y0134801D01*
X0044596Y0138795D02*
X0085871Y0138795D01*
X0085871Y0139793D02*
X0044847Y0139793D01*
X0042596Y0140370D02*
X0047320Y0145094D01*
X0045190Y0146783D02*
X0044596Y0146783D01*
X0044596Y0147781D02*
X0046751Y0147781D01*
X0044683Y0145784D02*
X0044596Y0145784D01*
X0038265Y0135799D02*
X0028423Y0135799D01*
X0028423Y0134801D02*
X0038265Y0134801D01*
X0038265Y0133802D02*
X0028423Y0133802D01*
X0028423Y0132803D02*
X0038265Y0132803D01*
X0038265Y0131805D02*
X0028423Y0131805D01*
X0028423Y0130806D02*
X0038265Y0130806D01*
X0038265Y0129808D02*
X0028423Y0129808D01*
X0028816Y0121866D02*
X0034525Y0116157D01*
X0055242Y0116157D01*
X0055242Y0114189D02*
X0018186Y0114189D01*
X0017832Y0113835D01*
X0017832Y0092063D01*
X0023730Y0091865D02*
X0025241Y0091865D01*
X0025241Y0092863D02*
X0023730Y0092863D01*
X0023730Y0093862D02*
X0025241Y0093862D01*
X0025241Y0094860D02*
X0023730Y0094860D01*
X0023730Y0095859D02*
X0025241Y0095859D01*
X0025241Y0096857D02*
X0023730Y0096857D01*
X0023730Y0097856D02*
X0025241Y0097856D01*
X0025241Y0098854D02*
X0023730Y0098854D01*
X0023730Y0099853D02*
X0025241Y0099853D01*
X0025241Y0100851D02*
X0023730Y0100851D01*
X0023730Y0101850D02*
X0025241Y0101850D01*
X0025387Y0102848D02*
X0023730Y0102848D01*
X0023730Y0103847D02*
X0025387Y0103847D01*
X0025635Y0104845D02*
X0023730Y0104845D01*
X0023730Y0105844D02*
X0026107Y0105844D01*
X0027106Y0106842D02*
X0023730Y0106842D01*
X0023730Y0107841D02*
X0028104Y0107841D01*
X0029103Y0108839D02*
X0023730Y0108839D01*
X0023730Y0109838D02*
X0030101Y0109838D01*
X0031100Y0110836D02*
X0023730Y0110836D01*
X0023730Y0111835D02*
X0032098Y0111835D01*
X0033928Y0110836D02*
X0048901Y0110836D01*
X0048501Y0110843D02*
X0049879Y0112220D01*
X0055242Y0112220D01*
X0055242Y0110252D02*
X0053423Y0110252D01*
X0053226Y0110055D01*
X0053226Y0098638D01*
X0051454Y0096866D01*
X0047911Y0096866D01*
X0047911Y0086984D01*
X0043064Y0086872D02*
X0041446Y0086872D01*
X0041446Y0087870D02*
X0043064Y0087870D01*
X0043064Y0088869D02*
X0041446Y0088869D01*
X0041446Y0089868D02*
X0043064Y0089868D01*
X0043064Y0090866D02*
X0041446Y0090866D01*
X0041446Y0091865D02*
X0043780Y0091865D01*
X0044281Y0092863D02*
X0041446Y0092863D01*
X0041446Y0093862D02*
X0043458Y0093862D01*
X0043458Y0094860D02*
X0041446Y0094860D01*
X0041446Y0095859D02*
X0043458Y0095859D01*
X0043458Y0096857D02*
X0041675Y0096857D01*
X0042673Y0097856D02*
X0043458Y0097856D01*
X0043424Y0098606D02*
X0043424Y0098606D01*
X0041842Y0099853D02*
X0027241Y0099853D01*
X0027635Y0100606D02*
X0027635Y0104543D01*
X0034722Y0111630D01*
X0048108Y0111630D01*
X0049682Y0110055D01*
X0049682Y0102969D01*
X0048895Y0102181D01*
X0044171Y0102181D01*
X0039446Y0097457D01*
X0039446Y0082890D01*
X0037084Y0080528D01*
X0029210Y0080528D01*
X0027241Y0082496D01*
X0027241Y0101394D01*
X0027635Y0100606D01*
X0027635Y0100851D02*
X0042841Y0100851D01*
X0043839Y0101850D02*
X0027635Y0101850D01*
X0027635Y0102848D02*
X0049562Y0102848D01*
X0049682Y0103847D02*
X0027635Y0103847D01*
X0027937Y0104845D02*
X0049682Y0104845D01*
X0049682Y0105844D02*
X0028936Y0105844D01*
X0029934Y0106842D02*
X0049682Y0106842D01*
X0049682Y0107841D02*
X0030933Y0107841D01*
X0031931Y0108839D02*
X0049682Y0108839D01*
X0049682Y0109838D02*
X0032930Y0109838D01*
X0033068Y0116827D02*
X0046218Y0116827D01*
X0049309Y0118824D02*
X0054908Y0118824D01*
X0055242Y0118126D02*
X0050273Y0118126D01*
X0049289Y0119110D01*
X0048501Y0110843D02*
X0048501Y0104937D01*
X0047911Y0104346D01*
X0047714Y0104150D01*
X0041415Y0104150D01*
X0030824Y0093559D01*
X0030824Y0092063D01*
X0027241Y0091865D02*
X0039446Y0091865D01*
X0039446Y0092863D02*
X0027241Y0092863D01*
X0027241Y0093862D02*
X0039446Y0093862D01*
X0039446Y0094860D02*
X0027241Y0094860D01*
X0027241Y0095859D02*
X0039446Y0095859D01*
X0039446Y0096857D02*
X0027241Y0096857D01*
X0027241Y0097856D02*
X0039845Y0097856D01*
X0040844Y0098854D02*
X0027241Y0098854D01*
X0027241Y0100851D02*
X0027513Y0100851D01*
X0027241Y0090866D02*
X0039446Y0090866D01*
X0039446Y0089868D02*
X0027241Y0089868D01*
X0027241Y0088869D02*
X0039446Y0088869D01*
X0039446Y0087870D02*
X0027241Y0087870D01*
X0027241Y0086872D02*
X0039446Y0086872D01*
X0039446Y0085873D02*
X0027241Y0085873D01*
X0027241Y0084875D02*
X0039446Y0084875D01*
X0039446Y0083876D02*
X0027241Y0083876D01*
X0027241Y0082878D02*
X0039434Y0082878D01*
X0038436Y0081879D02*
X0027858Y0081879D01*
X0028857Y0080881D02*
X0037437Y0080881D01*
X0041446Y0082878D02*
X0043064Y0082878D01*
X0043064Y0083876D02*
X0041446Y0083876D01*
X0041446Y0084875D02*
X0043064Y0084875D01*
X0043064Y0085873D02*
X0041446Y0085873D01*
X0025241Y0085873D02*
X0023730Y0085873D01*
X0023730Y0084875D02*
X0025241Y0084875D01*
X0025241Y0083876D02*
X0023730Y0083876D01*
X0023730Y0082878D02*
X0025241Y0082878D01*
X0025241Y0081879D02*
X0023730Y0081879D01*
X0023730Y0080881D02*
X0025387Y0080881D01*
X0025387Y0079882D02*
X0023730Y0079882D01*
X0022914Y0078884D02*
X0026134Y0078884D01*
X0025241Y0086872D02*
X0023730Y0086872D01*
X0023730Y0087870D02*
X0025241Y0087870D01*
X0025241Y0088869D02*
X0023730Y0088869D01*
X0023730Y0089868D02*
X0025241Y0089868D01*
X0025241Y0090866D02*
X0023730Y0090866D01*
X0018186Y0114189D02*
X0017202Y0114189D01*
X0017005Y0113992D01*
X0018186Y0114189D02*
X0018738Y0114740D01*
X0018738Y0136866D01*
X0018738Y0158165D01*
X0018856Y0158283D01*
X0018856Y0161276D01*
X0029048Y0163757D02*
X0029112Y0163757D01*
X0041378Y0166753D02*
X0045702Y0166753D01*
X0045823Y0167751D02*
X0042376Y0167751D01*
X0043375Y0168750D02*
X0046577Y0168750D01*
X0045784Y0169748D02*
X0044373Y0169748D01*
X0045269Y0170747D02*
X0045702Y0170747D01*
X0045702Y0171745D02*
X0045269Y0171745D01*
X0045121Y0172744D02*
X0045821Y0172744D01*
X0045383Y0173742D02*
X0046507Y0173742D01*
X0045702Y0174741D02*
X0045383Y0174741D01*
X0045383Y0175739D02*
X0045702Y0175739D01*
X0045702Y0176738D02*
X0045383Y0176738D01*
X0045383Y0177737D02*
X0045702Y0177737D01*
X0045383Y0178735D02*
X0046630Y0178735D01*
X0043383Y0173835D02*
X0040429Y0170880D01*
X0040429Y0170709D01*
X0050989Y0170747D02*
X0051171Y0170747D01*
X0051171Y0171087D02*
X0051171Y0166268D01*
X0050989Y0166268D01*
X0050989Y0168858D01*
X0050989Y0171087D01*
X0051171Y0171087D01*
X0051171Y0169748D02*
X0050989Y0169748D01*
X0050989Y0168750D02*
X0051171Y0168750D01*
X0051171Y0167751D02*
X0050989Y0167751D01*
X0050989Y0166753D02*
X0051171Y0166753D01*
X0056781Y0151775D02*
X0057781Y0151775D01*
X0057781Y0150777D02*
X0056781Y0150777D01*
X0053545Y0132803D02*
X0069245Y0132803D01*
X0069245Y0131805D02*
X0053545Y0131805D01*
X0061126Y0121820D02*
X0061859Y0121820D01*
X0066642Y0118126D02*
X0071533Y0118126D01*
X0074486Y0121079D01*
X0069245Y0128809D02*
X0069175Y0128809D01*
X0069175Y0129808D02*
X0069401Y0129808D01*
X0069352Y0130806D02*
X0068533Y0130806D01*
X0073395Y0134801D02*
X0074395Y0134801D01*
X0074395Y0134453D02*
X0074395Y0138012D01*
X0077242Y0138012D01*
X0077624Y0137910D01*
X0077966Y0137712D01*
X0078245Y0137433D01*
X0078442Y0137091D01*
X0078545Y0136709D01*
X0078545Y0134453D01*
X0074395Y0134453D01*
X0074395Y0135799D02*
X0073395Y0135799D01*
X0073395Y0136798D02*
X0074395Y0136798D01*
X0074395Y0137796D02*
X0073395Y0137796D01*
X0077820Y0137796D02*
X0085871Y0137796D01*
X0085871Y0136798D02*
X0078521Y0136798D01*
X0078545Y0135799D02*
X0085871Y0135799D01*
X0086282Y0134801D02*
X0078545Y0134801D01*
X0078545Y0132803D02*
X0085959Y0132803D01*
X0082663Y0131805D02*
X0081663Y0131805D01*
X0081663Y0130806D02*
X0082663Y0130806D01*
X0082663Y0129808D02*
X0081663Y0129808D01*
X0081663Y0128809D02*
X0082663Y0128809D01*
X0086812Y0128809D02*
X0087258Y0128809D01*
X0078573Y0131805D02*
X0078545Y0131805D01*
X0056819Y0107841D02*
X0055226Y0107841D01*
X0065719Y0098854D02*
X0065753Y0098854D01*
X0065753Y0098888D02*
X0065753Y0097376D01*
X0065753Y0096004D01*
X0064573Y0096004D01*
X0064013Y0095444D01*
X0063453Y0096004D01*
X0062869Y0096004D01*
X0065753Y0098888D01*
X0065753Y0097856D02*
X0064721Y0097856D01*
X0063722Y0096857D02*
X0065753Y0096857D01*
X0064428Y0095859D02*
X0063599Y0095859D01*
X0069753Y0096857D02*
X0088627Y0096857D01*
X0088627Y0095859D02*
X0071079Y0095859D01*
X0071812Y0094860D02*
X0088627Y0094860D01*
X0088627Y0093862D02*
X0071812Y0093862D01*
X0070233Y0097856D02*
X0088627Y0097856D01*
X0088627Y0092863D02*
X0087727Y0092863D01*
X0075294Y0098854D02*
X0071231Y0098854D01*
X0072230Y0099853D02*
X0075151Y0099853D01*
X0075151Y0100851D02*
X0073228Y0100851D01*
X0094171Y0080134D02*
X0094564Y0079740D01*
X0096528Y0077885D02*
X0098076Y0077885D01*
X0098076Y0076887D02*
X0096171Y0076887D01*
X0096171Y0075888D02*
X0098076Y0075888D01*
X0098076Y0074890D02*
X0096171Y0074890D01*
X0096171Y0073891D02*
X0098076Y0073891D01*
X0098076Y0072893D02*
X0096171Y0072893D01*
X0096171Y0071894D02*
X0098063Y0071894D01*
X0097065Y0070896D02*
X0096171Y0070896D01*
X0100108Y0067900D02*
X0109817Y0067900D01*
X0108819Y0066902D02*
X0100108Y0066902D01*
X0102076Y0072893D02*
X0114129Y0072893D01*
X0113367Y0073891D02*
X0102076Y0073891D01*
X0102076Y0074890D02*
X0113124Y0074890D01*
X0113263Y0075888D02*
X0102076Y0075888D01*
X0102076Y0076887D02*
X0113877Y0076887D01*
X0115824Y0075016D02*
X0116218Y0075409D01*
X0116218Y0090764D01*
X0118218Y0085873D02*
X0144226Y0085873D01*
X0144486Y0084875D02*
X0118218Y0084875D01*
X0118218Y0083876D02*
X0145271Y0083876D01*
X0145592Y0081879D02*
X0118218Y0081879D01*
X0118218Y0080881D02*
X0144249Y0080881D01*
X0143833Y0079882D02*
X0118218Y0079882D01*
X0118218Y0078884D02*
X0143833Y0078884D01*
X0144216Y0077885D02*
X0118218Y0077885D01*
X0118218Y0076887D02*
X0145415Y0076887D01*
X0146533Y0079346D02*
X0150863Y0083677D01*
X0150863Y0090370D01*
X0150863Y0150606D01*
X0149682Y0151787D01*
X0147179Y0150777D02*
X0137903Y0150777D01*
X0137903Y0151775D02*
X0146982Y0151775D01*
X0147168Y0152774D02*
X0137903Y0152774D01*
X0137903Y0153772D02*
X0147849Y0153772D01*
X0147873Y0149778D02*
X0137903Y0149778D01*
X0137903Y0148780D02*
X0148863Y0148780D01*
X0148863Y0147781D02*
X0137903Y0147781D01*
X0137903Y0146783D02*
X0148863Y0146783D01*
X0148863Y0145784D02*
X0137903Y0145784D01*
X0137903Y0144786D02*
X0148863Y0144786D01*
X0148863Y0143787D02*
X0137903Y0143787D01*
X0137903Y0142789D02*
X0148863Y0142789D01*
X0148863Y0141790D02*
X0137903Y0141790D01*
X0137903Y0140792D02*
X0148863Y0140792D01*
X0148863Y0139793D02*
X0137903Y0139793D01*
X0137903Y0138795D02*
X0148863Y0138795D01*
X0148863Y0137796D02*
X0137903Y0137796D01*
X0137903Y0136798D02*
X0148863Y0136798D01*
X0148863Y0135799D02*
X0137903Y0135799D01*
X0137903Y0134801D02*
X0148863Y0134801D01*
X0148863Y0133802D02*
X0137903Y0133802D01*
X0137903Y0132803D02*
X0148863Y0132803D01*
X0148863Y0131805D02*
X0137903Y0131805D01*
X0137903Y0130806D02*
X0148863Y0130806D01*
X0148863Y0129808D02*
X0137903Y0129808D01*
X0137903Y0128809D02*
X0148863Y0128809D01*
X0148863Y0127811D02*
X0137903Y0127811D01*
X0137903Y0126812D02*
X0148863Y0126812D01*
X0148863Y0125814D02*
X0137903Y0125814D01*
X0137903Y0124815D02*
X0148863Y0124815D01*
X0148863Y0123817D02*
X0137903Y0123817D01*
X0137903Y0122818D02*
X0148863Y0122818D01*
X0148863Y0121820D02*
X0137903Y0121820D01*
X0137903Y0120821D02*
X0148863Y0120821D01*
X0148863Y0119823D02*
X0137903Y0119823D01*
X0137903Y0118824D02*
X0148863Y0118824D01*
X0148863Y0117826D02*
X0137903Y0117826D01*
X0137903Y0116827D02*
X0148863Y0116827D01*
X0148863Y0115829D02*
X0137903Y0115829D01*
X0137903Y0114830D02*
X0148863Y0114830D01*
X0148863Y0113832D02*
X0137903Y0113832D01*
X0137903Y0112833D02*
X0148863Y0112833D01*
X0148863Y0111835D02*
X0137903Y0111835D01*
X0137903Y0110836D02*
X0148863Y0110836D01*
X0148863Y0109838D02*
X0137903Y0109838D01*
X0137903Y0108839D02*
X0148863Y0108839D01*
X0148863Y0107841D02*
X0137903Y0107841D01*
X0137903Y0106842D02*
X0148863Y0106842D01*
X0148863Y0105844D02*
X0137903Y0105844D01*
X0137903Y0104845D02*
X0148863Y0104845D01*
X0148863Y0103847D02*
X0137903Y0103847D01*
X0137903Y0102848D02*
X0148863Y0102848D01*
X0148863Y0101850D02*
X0144852Y0101850D01*
X0145513Y0100851D02*
X0148863Y0100851D01*
X0148863Y0099853D02*
X0146965Y0099853D01*
X0147964Y0098854D02*
X0148863Y0098854D01*
X0146926Y0097063D02*
X0146926Y0086039D01*
X0147236Y0082878D02*
X0118218Y0082878D01*
X0121572Y0099189D02*
X0123698Y0099189D01*
X0123856Y0099031D01*
X0127241Y0099031D01*
X0127084Y0099189D01*
X0123698Y0099189D01*
X0135903Y0091157D02*
X0135903Y0160449D01*
X0134328Y0162024D01*
X0136413Y0163757D02*
X0169417Y0163757D01*
X0169417Y0162759D02*
X0136946Y0162759D01*
X0137420Y0161760D02*
X0169417Y0161760D01*
X0169417Y0160762D02*
X0137903Y0160762D01*
X0137903Y0159763D02*
X0169417Y0159763D01*
X0169417Y0158765D02*
X0137903Y0158765D01*
X0137903Y0157766D02*
X0169417Y0157766D01*
X0169417Y0156768D02*
X0137903Y0156768D01*
X0163068Y0151000D02*
X0164643Y0152575D01*
X0163068Y0151000D02*
X0163068Y0102969D01*
X0164893Y0098854D02*
X0166883Y0098854D01*
X0166883Y0097856D02*
X0165891Y0097856D01*
X0165471Y0098276D02*
X0165471Y0098276D01*
X0166643Y0096857D02*
X0166883Y0096857D01*
X0166883Y0095859D02*
X0166643Y0095859D01*
X0166727Y0094860D02*
X0166883Y0094860D01*
X0166984Y0094530D02*
X0167443Y0094071D01*
X0167253Y0093881D01*
X0166984Y0094530D01*
X0164643Y0093126D02*
X0164643Y0096276D01*
X0162911Y0098008D01*
X0156808Y0098008D01*
X0161458Y0095859D02*
X0162232Y0095859D01*
X0162559Y0094860D02*
X0161458Y0094860D01*
X0161304Y0093862D02*
X0162025Y0093862D01*
X0161943Y0092863D02*
X0161458Y0092863D01*
X0161458Y0091865D02*
X0162243Y0091865D01*
X0161458Y0090866D02*
X0163085Y0090866D01*
X0161458Y0089868D02*
X0166883Y0089868D01*
X0166883Y0090866D02*
X0166201Y0090866D01*
X0166883Y0088869D02*
X0161458Y0088869D01*
X0161458Y0087870D02*
X0166883Y0087870D01*
X0167162Y0086872D02*
X0160983Y0086872D01*
X0156808Y0090528D02*
X0151021Y0090528D01*
X0150863Y0090370D01*
X0146926Y0097063D02*
X0145982Y0098008D01*
X0140863Y0098008D01*
X0140863Y0090528D02*
X0136139Y0090528D01*
X0135903Y0090764D01*
X0135903Y0091157D01*
X0165068Y0113511D02*
X0165068Y0117288D01*
X0165110Y0117187D01*
X0165870Y0116428D01*
X0166862Y0116017D01*
X0167936Y0116017D01*
X0168857Y0116398D01*
X0176044Y0109212D01*
X0175523Y0109212D01*
X0174531Y0108801D01*
X0173771Y0108041D01*
X0173439Y0107238D01*
X0169312Y0111365D01*
X0169312Y0111773D01*
X0168900Y0112766D01*
X0168141Y0113525D01*
X0167149Y0113936D01*
X0166074Y0113936D01*
X0165082Y0113525D01*
X0165068Y0113511D01*
X0165068Y0113832D02*
X0165822Y0113832D01*
X0165068Y0114830D02*
X0170425Y0114830D01*
X0171424Y0113832D02*
X0167401Y0113832D01*
X0168833Y0112833D02*
X0172422Y0112833D01*
X0173421Y0111835D02*
X0169286Y0111835D01*
X0169840Y0110836D02*
X0174419Y0110836D01*
X0175418Y0109838D02*
X0170838Y0109838D01*
X0171837Y0108839D02*
X0174624Y0108839D01*
X0173688Y0107841D02*
X0172835Y0107841D01*
X0169427Y0115829D02*
X0165068Y0115829D01*
X0165068Y0116827D02*
X0165470Y0116827D01*
X0167399Y0118717D02*
X0169367Y0118717D01*
X0190234Y0097850D01*
X0190234Y0020685D01*
X0189052Y0019504D01*
X0180391Y0019504D01*
X0176946Y0022949D01*
X0176946Y0030261D01*
X0174387Y0030260D02*
X0174387Y0026811D01*
X0174387Y0030260D01*
X0174387Y0030260D01*
X0174387Y0029957D02*
X0174387Y0029957D01*
X0174387Y0030955D02*
X0174387Y0030955D01*
X0174387Y0031954D02*
X0174387Y0031954D01*
X0174387Y0032952D02*
X0174387Y0032952D01*
X0171828Y0030261D02*
X0171828Y0017831D01*
X0175667Y0013992D01*
X0189052Y0013992D01*
X0192596Y0017535D01*
X0192596Y0095094D01*
X0192989Y0095094D01*
X0195352Y0097457D01*
X0194081Y0099853D02*
X0191060Y0099853D01*
X0192058Y0098854D02*
X0193008Y0098854D01*
X0192652Y0097856D02*
X0192234Y0097856D01*
X0194596Y0093862D02*
X0194661Y0093862D01*
X0196719Y0088869D02*
X0200332Y0088869D01*
X0200332Y0107841D02*
X0197830Y0107841D01*
X0198964Y0108839D02*
X0200332Y0108839D01*
X0200332Y0109838D02*
X0199689Y0109838D01*
X0200103Y0110836D02*
X0200332Y0110836D01*
X0200332Y0111835D02*
X0200272Y0111835D01*
X0200272Y0112833D02*
X0200332Y0112833D01*
X0200332Y0113832D02*
X0200041Y0113832D01*
X0200332Y0114830D02*
X0199628Y0114830D01*
X0200332Y0115829D02*
X0198816Y0115829D01*
X0197472Y0116827D02*
X0200332Y0116827D01*
X0200332Y0117826D02*
X0197704Y0117826D01*
X0198949Y0118824D02*
X0200332Y0118824D01*
X0200332Y0119823D02*
X0199654Y0119823D01*
X0200067Y0120821D02*
X0200332Y0120821D01*
X0200332Y0121820D02*
X0192072Y0121820D01*
X0191072Y0121820D02*
X0179703Y0121820D01*
X0178705Y0122818D02*
X0182897Y0122818D01*
X0183116Y0123817D02*
X0177706Y0123817D01*
X0176708Y0124815D02*
X0183550Y0124815D01*
X0184314Y0125814D02*
X0175709Y0125814D01*
X0175617Y0126812D02*
X0185673Y0126812D01*
X0185386Y0127811D02*
X0175617Y0127811D01*
X0175617Y0128809D02*
X0184210Y0128809D01*
X0183468Y0129808D02*
X0175617Y0129808D01*
X0175617Y0130806D02*
X0183054Y0130806D01*
X0182872Y0131805D02*
X0175617Y0131805D01*
X0175617Y0132803D02*
X0182872Y0132803D01*
X0183091Y0133802D02*
X0175617Y0133802D01*
X0175617Y0134801D02*
X0183504Y0134801D01*
X0184299Y0135799D02*
X0175617Y0135799D01*
X0175617Y0136798D02*
X0185600Y0136798D01*
X0185422Y0137796D02*
X0175617Y0137796D01*
X0175617Y0138795D02*
X0184225Y0138795D01*
X0183474Y0139793D02*
X0175617Y0139793D01*
X0175617Y0140792D02*
X0183060Y0140792D01*
X0182872Y0141790D02*
X0175617Y0141790D01*
X0175617Y0142789D02*
X0182872Y0142789D01*
X0183085Y0143787D02*
X0175617Y0143787D01*
X0175617Y0144786D02*
X0183498Y0144786D01*
X0184284Y0145784D02*
X0175617Y0145784D01*
X0175617Y0146783D02*
X0185564Y0146783D01*
X0185458Y0147781D02*
X0175617Y0147781D01*
X0175617Y0148780D02*
X0184240Y0148780D01*
X0183480Y0149778D02*
X0175617Y0149778D01*
X0175617Y0150777D02*
X0183066Y0150777D01*
X0182872Y0151775D02*
X0175617Y0151775D01*
X0175617Y0152774D02*
X0182872Y0152774D01*
X0183078Y0153772D02*
X0175617Y0153772D01*
X0175617Y0154771D02*
X0183492Y0154771D01*
X0184269Y0155769D02*
X0175617Y0155769D01*
X0175617Y0156768D02*
X0185528Y0156768D01*
X0185494Y0157766D02*
X0175617Y0157766D01*
X0175617Y0158765D02*
X0184255Y0158765D01*
X0183486Y0159763D02*
X0175617Y0159763D01*
X0175617Y0160762D02*
X0183072Y0160762D01*
X0182872Y0161760D02*
X0175617Y0161760D01*
X0175617Y0162759D02*
X0182872Y0162759D01*
X0183072Y0163757D02*
X0175617Y0163757D01*
X0175617Y0164756D02*
X0183486Y0164756D01*
X0184254Y0165754D02*
X0175617Y0165754D01*
X0175617Y0166753D02*
X0185492Y0166753D01*
X0185530Y0167751D02*
X0175617Y0167751D01*
X0175617Y0168750D02*
X0184270Y0168750D01*
X0183492Y0169748D02*
X0175617Y0169748D01*
X0175617Y0170747D02*
X0183079Y0170747D01*
X0182872Y0171745D02*
X0175617Y0171745D01*
X0175617Y0172744D02*
X0182872Y0172744D01*
X0183066Y0173742D02*
X0175617Y0173742D01*
X0175617Y0174741D02*
X0183480Y0174741D01*
X0184239Y0175739D02*
X0175617Y0175739D01*
X0175617Y0176738D02*
X0185456Y0176738D01*
X0185566Y0177737D02*
X0175617Y0177737D01*
X0175617Y0178735D02*
X0184284Y0178735D01*
X0183498Y0179734D02*
X0175617Y0179734D01*
X0175617Y0180732D02*
X0183085Y0180732D01*
X0182872Y0181731D02*
X0175617Y0181731D01*
X0175617Y0182729D02*
X0182872Y0182729D01*
X0183060Y0183728D02*
X0175617Y0183728D01*
X0175617Y0184726D02*
X0183474Y0184726D01*
X0184224Y0185725D02*
X0175617Y0185725D01*
X0175617Y0186723D02*
X0185421Y0186723D01*
X0175617Y0187722D02*
X0200332Y0187722D01*
X0200332Y0188720D02*
X0175617Y0188720D01*
X0175617Y0189719D02*
X0200332Y0189719D01*
X0200332Y0190717D02*
X0175617Y0190717D01*
X0175478Y0191716D02*
X0200332Y0191716D01*
X0200332Y0192714D02*
X0174951Y0192714D01*
X0173952Y0193713D02*
X0200332Y0193713D01*
X0200332Y0194711D02*
X0172954Y0194711D01*
X0197724Y0186723D02*
X0200332Y0186723D01*
X0200332Y0185725D02*
X0198920Y0185725D01*
X0199671Y0184726D02*
X0200332Y0184726D01*
X0200332Y0183728D02*
X0200084Y0183728D01*
X0200272Y0182729D02*
X0200332Y0182729D01*
X0200332Y0181731D02*
X0200272Y0181731D01*
X0200332Y0180732D02*
X0200060Y0180732D01*
X0200332Y0179734D02*
X0199646Y0179734D01*
X0200332Y0178735D02*
X0198860Y0178735D01*
X0197579Y0177737D02*
X0200332Y0177737D01*
X0200332Y0176738D02*
X0197688Y0176738D01*
X0198905Y0175739D02*
X0200332Y0175739D01*
X0200332Y0174741D02*
X0199665Y0174741D01*
X0200078Y0173742D02*
X0200332Y0173742D01*
X0200332Y0172744D02*
X0200272Y0172744D01*
X0200272Y0171745D02*
X0200332Y0171745D01*
X0200332Y0170747D02*
X0200066Y0170747D01*
X0200332Y0169748D02*
X0199652Y0169748D01*
X0200332Y0168750D02*
X0198875Y0168750D01*
X0197615Y0167751D02*
X0200332Y0167751D01*
X0200332Y0166753D02*
X0197652Y0166753D01*
X0198890Y0165754D02*
X0200332Y0165754D01*
X0200332Y0164756D02*
X0199658Y0164756D01*
X0200072Y0163757D02*
X0200332Y0163757D01*
X0200332Y0162759D02*
X0200272Y0162759D01*
X0200272Y0161760D02*
X0200332Y0161760D01*
X0200332Y0160762D02*
X0200072Y0160762D01*
X0200332Y0159763D02*
X0199658Y0159763D01*
X0200332Y0158765D02*
X0198890Y0158765D01*
X0197651Y0157766D02*
X0200332Y0157766D01*
X0200332Y0156768D02*
X0197616Y0156768D01*
X0198875Y0155769D02*
X0200332Y0155769D01*
X0200332Y0154771D02*
X0199652Y0154771D01*
X0200066Y0153772D02*
X0200332Y0153772D01*
X0200332Y0152774D02*
X0200272Y0152774D01*
X0200272Y0151775D02*
X0200332Y0151775D01*
X0200332Y0150777D02*
X0200078Y0150777D01*
X0200332Y0149778D02*
X0199664Y0149778D01*
X0200332Y0148780D02*
X0198904Y0148780D01*
X0197687Y0147781D02*
X0200332Y0147781D01*
X0200332Y0146783D02*
X0197580Y0146783D01*
X0198860Y0145784D02*
X0200332Y0145784D01*
X0200332Y0144786D02*
X0199646Y0144786D01*
X0200060Y0143787D02*
X0200332Y0143787D01*
X0200332Y0142789D02*
X0200272Y0142789D01*
X0200272Y0141790D02*
X0200332Y0141790D01*
X0200332Y0140792D02*
X0200084Y0140792D01*
X0200332Y0139793D02*
X0199671Y0139793D01*
X0200332Y0138795D02*
X0198919Y0138795D01*
X0197723Y0137796D02*
X0200332Y0137796D01*
X0200332Y0136798D02*
X0197544Y0136798D01*
X0198845Y0135799D02*
X0200332Y0135799D01*
X0200332Y0134801D02*
X0199640Y0134801D01*
X0200054Y0133802D02*
X0200332Y0133802D01*
X0200332Y0132803D02*
X0200272Y0132803D01*
X0200272Y0131805D02*
X0200332Y0131805D01*
X0200332Y0130806D02*
X0200090Y0130806D01*
X0200332Y0129808D02*
X0199677Y0129808D01*
X0200332Y0128809D02*
X0198934Y0128809D01*
X0197758Y0127811D02*
X0200332Y0127811D01*
X0200332Y0126812D02*
X0197471Y0126812D01*
X0196366Y0127234D02*
X0196366Y0127234D01*
X0198831Y0125814D02*
X0200332Y0125814D01*
X0200332Y0124815D02*
X0199594Y0124815D01*
X0200029Y0123817D02*
X0200332Y0123817D01*
X0200332Y0122818D02*
X0200247Y0122818D01*
X0186778Y0127234D02*
X0186778Y0127234D01*
X0183077Y0120821D02*
X0180702Y0120821D01*
X0181700Y0119823D02*
X0183490Y0119823D01*
X0184195Y0118824D02*
X0182699Y0118824D01*
X0183697Y0117826D02*
X0185441Y0117826D01*
X0185672Y0116827D02*
X0184696Y0116827D01*
X0186778Y0117285D02*
X0186778Y0117285D01*
X0169761Y0118717D02*
X0169367Y0118717D01*
X0165685Y0120821D02*
X0165068Y0120821D01*
X0191572Y0152260D02*
X0191257Y0152575D01*
X0098791Y0081879D02*
X0096243Y0081879D01*
X0097014Y0080881D02*
X0098020Y0080881D01*
X0097770Y0079882D02*
X0097264Y0079882D01*
X0097132Y0078884D02*
X0097902Y0078884D01*
X0096108Y0058770D02*
X0096108Y0055415D01*
X0095495Y0055668D01*
X0094438Y0055668D01*
X0094438Y0057101D01*
X0094999Y0057661D01*
X0096108Y0058770D01*
X0096108Y0057915D02*
X0095253Y0057915D01*
X0094438Y0056917D02*
X0096108Y0056917D01*
X0096108Y0055918D02*
X0094438Y0055918D01*
X0094958Y0052969D02*
X0094801Y0052811D01*
X0094801Y0047713D01*
X0090348Y0048929D02*
X0088690Y0048929D01*
X0099525Y0048929D02*
X0099525Y0048929D01*
X0099525Y0049927D02*
X0099525Y0049927D01*
X0103068Y0036394D02*
X0103068Y0017693D01*
X0095522Y0024964D02*
X0076486Y0024964D01*
X0072486Y0025963D02*
X0059989Y0025963D01*
X0059989Y0026961D02*
X0072486Y0026961D01*
X0072486Y0027960D02*
X0059989Y0027960D01*
X0060425Y0028958D02*
X0072486Y0028958D01*
X0072486Y0029957D02*
X0060689Y0029957D01*
X0060572Y0030955D02*
X0072486Y0030955D01*
X0072486Y0031954D02*
X0059989Y0031954D01*
X0059989Y0032952D02*
X0072486Y0032952D01*
X0072486Y0033951D02*
X0059989Y0033951D01*
X0059989Y0034949D02*
X0072486Y0034949D01*
X0072486Y0035948D02*
X0059989Y0035948D01*
X0059989Y0036946D02*
X0072486Y0036946D01*
X0072486Y0037945D02*
X0059989Y0037945D01*
X0059989Y0038943D02*
X0072486Y0038943D01*
X0071245Y0039942D02*
X0070245Y0039942D01*
X0070245Y0040940D02*
X0071245Y0040940D01*
X0071245Y0041939D02*
X0070245Y0041939D01*
X0070245Y0042937D02*
X0071245Y0042937D01*
X0070745Y0043953D02*
X0063108Y0043953D01*
X0063068Y0043913D01*
X0069761Y0043913D01*
X0070155Y0044307D01*
X0070245Y0043936D02*
X0062584Y0043936D01*
X0062584Y0042937D02*
X0061584Y0042937D01*
X0061584Y0041939D02*
X0062584Y0041939D01*
X0062584Y0040940D02*
X0061584Y0040940D01*
X0059989Y0039942D02*
X0067218Y0039942D01*
X0066396Y0047433D02*
X0066656Y0047693D01*
X0066178Y0048170D01*
X0065977Y0047968D01*
X0066237Y0047708D01*
X0066396Y0047433D01*
X0066418Y0047930D02*
X0066015Y0047930D01*
X0062360Y0051433D02*
X0062084Y0051709D01*
X0062360Y0051433D02*
X0070745Y0051433D01*
X0051463Y0042937D02*
X0050264Y0042937D01*
X0042820Y0022967D02*
X0041820Y0022967D01*
X0041820Y0021969D02*
X0042820Y0021969D01*
X0042820Y0020970D02*
X0041820Y0020970D01*
X0041820Y0019972D02*
X0026769Y0019972D01*
X0027482Y0018973D02*
X0037080Y0018973D01*
X0037080Y0017975D02*
X0027482Y0017975D01*
X0027482Y0016976D02*
X0037080Y0016976D01*
X0037623Y0015978D02*
X0027482Y0015978D01*
X0027482Y0012982D02*
X0037181Y0012982D01*
X0037080Y0011984D02*
X0027482Y0011984D01*
X0027482Y0010985D02*
X0037080Y0010985D01*
X0037080Y0009987D02*
X0027326Y0009987D01*
X0022241Y0014701D02*
X0022241Y0036098D01*
X0022025Y0036315D01*
X0027025Y0036315D02*
X0027025Y0029957D01*
X0020241Y0029957D02*
X0019025Y0029957D01*
X0019025Y0028958D02*
X0020241Y0028958D01*
X0020241Y0027960D02*
X0018447Y0027960D01*
X0017448Y0026961D02*
X0020241Y0026961D01*
X0020241Y0025963D02*
X0008482Y0025963D01*
X0008482Y0024964D02*
X0020241Y0024964D01*
X0020241Y0023966D02*
X0008482Y0023966D01*
X0008482Y0022967D02*
X0020241Y0022967D01*
X0020241Y0021969D02*
X0008482Y0021969D01*
X0008482Y0020970D02*
X0020241Y0020970D01*
X0017714Y0019972D02*
X0008482Y0019972D01*
X0008482Y0018973D02*
X0017001Y0018973D01*
X0017001Y0017975D02*
X0008482Y0017975D01*
X0008482Y0016976D02*
X0017001Y0016976D01*
X0017001Y0015978D02*
X0008482Y0015978D01*
X0008482Y0014979D02*
X0017001Y0014979D01*
X0017001Y0013981D02*
X0008482Y0013981D01*
X0008482Y0012982D02*
X0017001Y0012982D01*
X0017001Y0011984D02*
X0008482Y0011984D01*
X0008482Y0010985D02*
X0017001Y0010985D01*
X0017157Y0009987D02*
X0008482Y0009987D01*
X0008482Y0008988D02*
X0037080Y0008988D01*
X0037080Y0007990D02*
X0008482Y0007990D01*
X0008482Y0006991D02*
X0037080Y0006991D01*
X0037608Y0005993D02*
X0008482Y0005993D01*
X0008482Y0004994D02*
X0200332Y0004994D01*
X0200332Y0003996D02*
X0008482Y0003996D01*
X0024241Y0020970D02*
X0037080Y0020970D01*
X0037080Y0021969D02*
X0024241Y0021969D01*
X0024241Y0022967D02*
X0037256Y0022967D01*
X0041820Y0018973D02*
X0042820Y0018973D01*
X0042820Y0017975D02*
X0041820Y0017975D01*
X0041820Y0016976D02*
X0042820Y0016976D01*
X0042820Y0015978D02*
X0041820Y0015978D01*
X0019751Y0030955D02*
X0019298Y0030955D01*
X0015025Y0030682D02*
X0015025Y0030559D01*
X0014290Y0030559D01*
X0014096Y0030753D01*
X0014525Y0031182D01*
X0015025Y0030682D01*
X0014751Y0030955D02*
X0014298Y0030955D01*
X0012025Y0029996D02*
X0013462Y0028559D01*
X0012025Y0029996D02*
X0012025Y0036315D01*
X0012025Y0056787D02*
X0012281Y0057043D01*
X0017915Y0176738D02*
X0018458Y0176738D01*
X0018458Y0177737D02*
X0017915Y0177737D01*
X0017915Y0178735D02*
X0018458Y0178735D01*
X0019011Y0179734D02*
X0017546Y0179734D01*
X0153915Y0030261D02*
X0154013Y0030162D01*
X0166710Y0030261D02*
X0166710Y0023933D01*
X0166612Y0023835D01*
X0169269Y0030261D02*
X0169269Y0017240D01*
X0174879Y0011630D01*
X0189840Y0011630D01*
X0188224Y0015992D02*
X0176495Y0015992D01*
X0173828Y0018659D01*
X0173828Y0026811D01*
X0174387Y0026811D01*
X0174946Y0026811D01*
X0174946Y0022120D01*
X0178391Y0018676D01*
X0179563Y0017504D01*
X0189736Y0017504D01*
X0188224Y0015992D01*
X0189208Y0016976D02*
X0175511Y0016976D01*
X0174512Y0017975D02*
X0179092Y0017975D01*
X0178093Y0018973D02*
X0173828Y0018973D01*
X0173828Y0019972D02*
X0177095Y0019972D01*
X0176096Y0020970D02*
X0173828Y0020970D01*
X0173828Y0021969D02*
X0175098Y0021969D01*
X0174946Y0022967D02*
X0173828Y0022967D01*
X0173828Y0023966D02*
X0174946Y0023966D01*
X0174946Y0024964D02*
X0173828Y0024964D01*
X0173828Y0025963D02*
X0174946Y0025963D01*
X0174387Y0026961D02*
X0174387Y0026961D01*
X0174387Y0027960D02*
X0174387Y0027960D01*
X0174387Y0028958D02*
X0174387Y0028958D01*
X0181505Y0024616D02*
X0181862Y0024260D01*
X0181613Y0024260D01*
X0181505Y0024368D01*
X0181505Y0024616D01*
X0185613Y0024260D02*
X0186265Y0024912D01*
X0186265Y0024260D01*
X0185613Y0024260D01*
D30*
X0175667Y0018323D03*
X0161100Y0011630D03*
X0157950Y0018323D03*
X0154407Y0020685D03*
X0146533Y0032102D03*
X0151651Y0043126D03*
X0157556Y0042339D03*
X0161100Y0045488D03*
X0167005Y0045094D03*
X0171730Y0044701D03*
X0177635Y0061630D03*
X0153226Y0079346D03*
X0146533Y0079346D03*
X0146926Y0086039D03*
X0141021Y0083677D03*
X0135903Y0091157D03*
X0127635Y0084858D03*
X0115824Y0075016D03*
X0104407Y0069110D03*
X0100470Y0079740D03*
X0094564Y0079740D03*
X0083147Y0073835D03*
X0074486Y0062811D03*
X0083147Y0058087D03*
X0091021Y0062024D03*
X0094958Y0052969D03*
X0100863Y0052969D03*
X0115824Y0054937D03*
X0120549Y0052575D03*
X0129997Y0056118D03*
X0132360Y0052181D03*
X0137084Y0043126D03*
X0131178Y0032102D03*
X0126848Y0015567D03*
X0132753Y0013992D03*
X0142202Y0011630D03*
X0113462Y0029346D03*
X0111100Y0026591D03*
X0109919Y0022654D03*
X0106769Y0019110D03*
X0105588Y0015173D03*
X0111887Y0011236D03*
X0097320Y0026984D03*
X0081572Y0029740D03*
X0077635Y0028165D03*
X0074486Y0012811D03*
X0057989Y0030134D03*
X0081178Y0046669D03*
X0060706Y0060055D03*
X0064643Y0065961D03*
X0081572Y0089189D03*
X0086690Y0090370D03*
X0085903Y0109661D03*
X0085903Y0115567D03*
X0088265Y0131315D03*
X0082360Y0149031D03*
X0047320Y0145094D03*
X0037478Y0183283D03*
X0037084Y0193126D03*
X0122517Y0132496D03*
X0149682Y0151787D03*
X0164643Y0152575D03*
X0179604Y0126197D03*
X0167399Y0125803D03*
X0167399Y0118717D03*
X0166612Y0111236D03*
X0163068Y0102969D03*
X0164643Y0093126D03*
X0164249Y0089583D03*
X0180785Y0090370D03*
X0196139Y0091551D03*
X0197320Y0086039D03*
X0195352Y0097457D03*
X0176060Y0106512D03*
X0127241Y0099031D03*
X0110706Y0105331D03*
X0134328Y0162024D03*
X0017399Y0067535D03*
X0012281Y0075409D03*
X0018186Y0047063D03*
X0031966Y0030134D03*
D31*
X0031659Y0167229D02*
X0018274Y0167229D01*
X0018186Y0167142D01*
X0014446Y0175803D02*
X0014446Y0182890D01*
X0023029Y0182890D01*
X0023619Y0183480D01*
X0014446Y0182890D02*
X0014446Y0187811D01*
X0019761Y0193126D01*
X0037084Y0193126D01*
X0041021Y0193126D01*
X0170155Y0193126D01*
X0172517Y0190764D01*
X0172517Y0124622D01*
X0184879Y0112260D01*
X0191572Y0112260D01*
X0037478Y0178337D02*
X0037478Y0183283D01*
X0037478Y0178337D02*
X0035139Y0175998D01*
M02*
