G75*
%MOIN*%
%OFA0B0*%
%FSLAX25Y25*%
%IPPOS*%
%LPD*%
%AMOC8*
5,1,8,0,0,1.08239X$1,22.5*
%
%ADD10C,0.00000*%
%ADD11C,0.07200*%
%ADD12C,0.01000*%
%ADD13C,0.02400*%
%ADD14C,0.03200*%
D10*
X0005982Y0001000D02*
X0005982Y0197850D01*
X0202832Y0197850D01*
X0202832Y0001000D01*
X0005982Y0001000D01*
D11*
X0097972Y0112260D02*
X0105172Y0112260D01*
X0105172Y0122260D02*
X0097972Y0122260D01*
X0097972Y0132260D02*
X0105172Y0132260D01*
X0105172Y0142260D02*
X0097972Y0142260D01*
X0097972Y0152260D02*
X0105172Y0152260D01*
X0105172Y0162260D02*
X0097972Y0162260D01*
X0097972Y0172260D02*
X0105172Y0172260D01*
X0105172Y0182260D02*
X0097972Y0182260D01*
X0187972Y0182260D02*
X0195172Y0182260D01*
X0195172Y0172260D02*
X0187972Y0172260D01*
X0187972Y0162260D02*
X0195172Y0162260D01*
X0195172Y0152260D02*
X0187972Y0152260D01*
X0187972Y0142260D02*
X0195172Y0142260D01*
X0195172Y0132260D02*
X0187972Y0132260D01*
X0187972Y0122260D02*
X0195172Y0122260D01*
X0195172Y0112260D02*
X0187972Y0112260D01*
D12*
X0184329Y0115829D02*
X0108816Y0115829D01*
X0109496Y0115149D02*
X0108061Y0116583D01*
X0106821Y0117097D01*
X0165569Y0116728D01*
X0165870Y0116428D01*
X0166862Y0116017D01*
X0167936Y0116017D01*
X0168928Y0116428D01*
X0169688Y0117187D01*
X0170099Y0118179D01*
X0170099Y0119254D01*
X0169688Y0120246D01*
X0168928Y0121005D01*
X0167936Y0121417D01*
X0166862Y0121417D01*
X0165870Y0121005D01*
X0165592Y0120728D01*
X0110202Y0121076D01*
X0110272Y0121245D01*
X0110272Y0123274D01*
X0109496Y0125149D01*
X0109267Y0125378D01*
X0110747Y0125378D01*
X0111919Y0126550D01*
X0113493Y0128124D01*
X0113493Y0136392D01*
X0117361Y0140260D01*
X0183280Y0140260D01*
X0183649Y0139371D01*
X0185083Y0137936D01*
X0186716Y0137260D01*
X0185083Y0136583D01*
X0183649Y0135149D01*
X0183280Y0134260D01*
X0124572Y0134260D01*
X0124046Y0134785D01*
X0123054Y0135196D01*
X0121980Y0135196D01*
X0120988Y0134785D01*
X0120228Y0134025D01*
X0119817Y0133033D01*
X0119817Y0131959D01*
X0120228Y0130967D01*
X0120988Y0130207D01*
X0121980Y0129796D01*
X0123054Y0129796D01*
X0124046Y0130207D01*
X0124099Y0130260D01*
X0183280Y0130260D01*
X0183649Y0129371D01*
X0185083Y0127936D01*
X0186778Y0127234D01*
X0186014Y0126986D01*
X0185299Y0126622D01*
X0184650Y0126150D01*
X0184082Y0125582D01*
X0183610Y0124933D01*
X0183246Y0124218D01*
X0182998Y0123454D01*
X0182888Y0122760D01*
X0191072Y0122760D01*
X0191072Y0121760D01*
X0182888Y0121760D01*
X0182998Y0121066D01*
X0183246Y0120302D01*
X0183610Y0119587D01*
X0184082Y0118937D01*
X0184650Y0118370D01*
X0185299Y0117898D01*
X0186014Y0117533D01*
X0186778Y0117285D01*
X0185083Y0116583D01*
X0183649Y0115149D01*
X0182872Y0113274D01*
X0182872Y0111245D01*
X0183649Y0109371D01*
X0185083Y0107936D01*
X0186958Y0107160D01*
X0196187Y0107160D01*
X0198061Y0107936D01*
X0199496Y0109371D01*
X0200272Y0111245D01*
X0200272Y0113274D01*
X0199496Y0115149D01*
X0198061Y0116583D01*
X0196366Y0117285D01*
X0196366Y0117285D01*
X0197130Y0117533D01*
X0197845Y0117898D01*
X0198495Y0118370D01*
X0199062Y0118937D01*
X0199534Y0119587D01*
X0199898Y0120302D01*
X0200147Y0121066D01*
X0200257Y0121760D01*
X0192072Y0121760D01*
X0192072Y0122760D01*
X0200257Y0122760D01*
X0200147Y0123454D01*
X0199898Y0124218D01*
X0199534Y0124933D01*
X0199062Y0125582D01*
X0198495Y0126150D01*
X0197845Y0126622D01*
X0197130Y0126986D01*
X0196366Y0127234D01*
X0198061Y0127936D01*
X0199496Y0129371D01*
X0200272Y0131245D01*
X0200272Y0133274D01*
X0199496Y0135149D01*
X0198061Y0136583D01*
X0196428Y0137260D01*
X0198061Y0137936D01*
X0199496Y0139371D01*
X0200272Y0141245D01*
X0200272Y0143274D01*
X0199496Y0145149D01*
X0198061Y0146583D01*
X0196428Y0147260D01*
X0198061Y0147936D01*
X0199496Y0149371D01*
X0200272Y0151245D01*
X0200272Y0153274D01*
X0199496Y0155149D01*
X0198061Y0156583D01*
X0196428Y0157260D01*
X0198061Y0157936D01*
X0199496Y0159371D01*
X0200272Y0161245D01*
X0200272Y0163274D01*
X0199496Y0165149D01*
X0198061Y0166583D01*
X0196428Y0167260D01*
X0198061Y0167936D01*
X0199496Y0169371D01*
X0200272Y0171245D01*
X0200272Y0173274D01*
X0199496Y0175149D01*
X0198061Y0176583D01*
X0196428Y0177260D01*
X0198061Y0177936D01*
X0199496Y0179371D01*
X0200272Y0181245D01*
X0200272Y0183274D01*
X0199496Y0185149D01*
X0198061Y0186583D01*
X0196187Y0187360D01*
X0186958Y0187360D01*
X0185083Y0186583D01*
X0183649Y0185149D01*
X0182872Y0183274D01*
X0182872Y0181245D01*
X0183649Y0179371D01*
X0185083Y0177936D01*
X0186716Y0177260D01*
X0185083Y0176583D01*
X0183649Y0175149D01*
X0182872Y0173274D01*
X0182872Y0171245D01*
X0183649Y0169371D01*
X0185083Y0167936D01*
X0186716Y0167260D01*
X0185083Y0166583D01*
X0183649Y0165149D01*
X0182872Y0163274D01*
X0182872Y0161245D01*
X0183649Y0159371D01*
X0185083Y0157936D01*
X0186716Y0157260D01*
X0185083Y0156583D01*
X0183649Y0155149D01*
X0183411Y0154575D01*
X0166461Y0154575D01*
X0166172Y0154864D01*
X0165180Y0155275D01*
X0164106Y0155275D01*
X0163114Y0154864D01*
X0162354Y0154104D01*
X0161943Y0153112D01*
X0161943Y0152038D01*
X0162354Y0151045D01*
X0163114Y0150286D01*
X0164106Y0149875D01*
X0165180Y0149875D01*
X0166172Y0150286D01*
X0166461Y0150575D01*
X0183150Y0150575D01*
X0183649Y0149371D01*
X0185083Y0147936D01*
X0186716Y0147260D01*
X0185083Y0146583D01*
X0183649Y0145149D01*
X0183280Y0144260D01*
X0115704Y0144260D01*
X0110665Y0139220D01*
X0109493Y0138049D01*
X0109493Y0135151D01*
X0108061Y0136583D01*
X0106428Y0137260D01*
X0108061Y0137936D01*
X0109496Y0139371D01*
X0110272Y0141245D01*
X0110272Y0143274D01*
X0109496Y0145149D01*
X0108061Y0146583D01*
X0106428Y0147260D01*
X0108061Y0147936D01*
X0109496Y0149371D01*
X0109668Y0149787D01*
X0147864Y0149787D01*
X0148153Y0149498D01*
X0149145Y0149087D01*
X0150219Y0149087D01*
X0151212Y0149498D01*
X0151971Y0150258D01*
X0152382Y0151250D01*
X0152382Y0152324D01*
X0151971Y0153317D01*
X0151212Y0154076D01*
X0150219Y0154487D01*
X0149145Y0154487D01*
X0148153Y0154076D01*
X0147864Y0153787D01*
X0110060Y0153787D01*
X0109496Y0155149D01*
X0108061Y0156583D01*
X0106428Y0157260D01*
X0108061Y0157936D01*
X0109496Y0159371D01*
X0109766Y0160024D01*
X0132510Y0160024D01*
X0132799Y0159735D01*
X0133791Y0159324D01*
X0134865Y0159324D01*
X0135857Y0159735D01*
X0136617Y0160494D01*
X0137028Y0161487D01*
X0137028Y0162561D01*
X0136617Y0163553D01*
X0135857Y0164313D01*
X0134865Y0164724D01*
X0133791Y0164724D01*
X0132799Y0164313D01*
X0132510Y0164024D01*
X0109962Y0164024D01*
X0109496Y0165149D01*
X0108061Y0166583D01*
X0106428Y0167260D01*
X0108061Y0167936D01*
X0109496Y0169371D01*
X0110272Y0171245D01*
X0110272Y0173274D01*
X0109496Y0175149D01*
X0108061Y0176583D01*
X0106428Y0177260D01*
X0108061Y0177936D01*
X0109496Y0179371D01*
X0110272Y0181245D01*
X0110272Y0183274D01*
X0109496Y0185149D01*
X0108061Y0186583D01*
X0106187Y0187360D01*
X0096958Y0187360D01*
X0095083Y0186583D01*
X0093649Y0185149D01*
X0092872Y0183274D01*
X0092872Y0181245D01*
X0093649Y0179371D01*
X0095083Y0177936D01*
X0096716Y0177260D01*
X0095083Y0176583D01*
X0093649Y0175149D01*
X0092872Y0173274D01*
X0092872Y0171245D01*
X0093649Y0169371D01*
X0095083Y0167936D01*
X0096716Y0167260D01*
X0095083Y0166583D01*
X0093649Y0165149D01*
X0092872Y0163274D01*
X0092872Y0161245D01*
X0093649Y0159371D01*
X0095083Y0157936D01*
X0096716Y0157260D01*
X0095083Y0156583D01*
X0093649Y0155149D01*
X0092872Y0153274D01*
X0092872Y0151245D01*
X0093649Y0149371D01*
X0095083Y0147936D01*
X0096716Y0147260D01*
X0095083Y0146583D01*
X0093649Y0145149D01*
X0092872Y0143274D01*
X0092872Y0141245D01*
X0093649Y0139371D01*
X0095083Y0137936D01*
X0096716Y0137260D01*
X0095083Y0136583D01*
X0093649Y0135149D01*
X0092872Y0133274D01*
X0092872Y0131245D01*
X0093649Y0129371D01*
X0093886Y0129134D01*
X0085074Y0120323D01*
X0083903Y0119151D01*
X0083903Y0117385D01*
X0083614Y0117096D01*
X0083203Y0116104D01*
X0083203Y0115030D01*
X0083614Y0114037D01*
X0084373Y0113278D01*
X0085366Y0112867D01*
X0086440Y0112867D01*
X0087432Y0113278D01*
X0088192Y0114037D01*
X0088603Y0115030D01*
X0088603Y0116104D01*
X0088192Y0117096D01*
X0087903Y0117385D01*
X0087903Y0117494D01*
X0092872Y0122464D01*
X0092872Y0121245D01*
X0093649Y0119371D01*
X0095083Y0117936D01*
X0096716Y0117260D01*
X0095083Y0116583D01*
X0093649Y0115149D01*
X0092872Y0113274D01*
X0092872Y0111245D01*
X0093649Y0109371D01*
X0095083Y0107936D01*
X0096958Y0107160D01*
X0106187Y0107160D01*
X0108061Y0107936D01*
X0109496Y0109371D01*
X0109864Y0110260D01*
X0164094Y0110260D01*
X0164323Y0109707D01*
X0165082Y0108947D01*
X0166074Y0108536D01*
X0167149Y0108536D01*
X0168141Y0108947D01*
X0168900Y0109707D01*
X0169312Y0110699D01*
X0169312Y0111773D01*
X0168900Y0112766D01*
X0168141Y0113525D01*
X0167149Y0113936D01*
X0166740Y0113936D01*
X0166416Y0114260D01*
X0109864Y0114260D01*
X0109496Y0115149D01*
X0109628Y0114830D02*
X0183517Y0114830D01*
X0183103Y0113832D02*
X0167401Y0113832D01*
X0168833Y0112833D02*
X0182872Y0112833D01*
X0182872Y0111835D02*
X0169286Y0111835D01*
X0169312Y0110836D02*
X0183042Y0110836D01*
X0183455Y0109838D02*
X0168955Y0109838D01*
X0167880Y0108839D02*
X0174624Y0108839D01*
X0174531Y0108801D02*
X0174242Y0108512D01*
X0111059Y0108512D01*
X0110578Y0108031D01*
X0110169Y0108031D01*
X0109177Y0107620D01*
X0108417Y0106860D01*
X0108006Y0105868D01*
X0108006Y0104794D01*
X0108097Y0104575D01*
X0094605Y0104575D01*
X0088335Y0110845D01*
X0088192Y0111191D01*
X0087432Y0111950D01*
X0086440Y0112361D01*
X0085366Y0112361D01*
X0084373Y0111950D01*
X0083614Y0111191D01*
X0083203Y0110198D01*
X0083203Y0109124D01*
X0083614Y0108132D01*
X0084373Y0107372D01*
X0085366Y0106961D01*
X0086440Y0106961D01*
X0086526Y0106997D01*
X0091777Y0101746D01*
X0092948Y0100575D01*
X0121771Y0100575D01*
X0122558Y0101362D01*
X0125813Y0101362D01*
X0125712Y0101320D01*
X0124952Y0100561D01*
X0124541Y0099569D01*
X0124541Y0098494D01*
X0124952Y0097502D01*
X0125712Y0096743D01*
X0126704Y0096331D01*
X0127113Y0096331D01*
X0127988Y0095457D01*
X0163214Y0095457D01*
X0163114Y0095415D01*
X0162354Y0094655D01*
X0161943Y0093663D01*
X0161943Y0092589D01*
X0162354Y0091597D01*
X0163114Y0090837D01*
X0164106Y0090426D01*
X0165180Y0090426D01*
X0166172Y0090837D01*
X0166461Y0091126D01*
X0193439Y0091126D01*
X0193439Y0091014D01*
X0193850Y0090022D01*
X0194610Y0089262D01*
X0195602Y0088851D01*
X0196676Y0088851D01*
X0197669Y0089262D01*
X0198428Y0090022D01*
X0198839Y0091014D01*
X0198839Y0092088D01*
X0198428Y0093081D01*
X0197669Y0093840D01*
X0196676Y0094251D01*
X0196267Y0094251D01*
X0195762Y0094757D01*
X0195889Y0094757D01*
X0196881Y0095168D01*
X0197641Y0095927D01*
X0198052Y0096920D01*
X0198052Y0097994D01*
X0197641Y0098986D01*
X0196881Y0099746D01*
X0195889Y0100157D01*
X0194815Y0100157D01*
X0193822Y0099746D01*
X0193533Y0099457D01*
X0129941Y0099457D01*
X0129941Y0099569D01*
X0129530Y0100561D01*
X0128771Y0101320D01*
X0128670Y0101362D01*
X0160856Y0101362D01*
X0161539Y0100680D01*
X0162531Y0100269D01*
X0163605Y0100269D01*
X0164598Y0100680D01*
X0165357Y0101439D01*
X0165768Y0102431D01*
X0165768Y0103506D01*
X0165357Y0104498D01*
X0165343Y0104512D01*
X0174242Y0104512D01*
X0174531Y0104223D01*
X0175523Y0103812D01*
X0176597Y0103812D01*
X0177590Y0104223D01*
X0178349Y0104982D01*
X0178760Y0105975D01*
X0178760Y0107049D01*
X0178349Y0108041D01*
X0177590Y0108801D01*
X0176597Y0109212D01*
X0175523Y0109212D01*
X0174531Y0108801D01*
X0176060Y0106512D02*
X0111887Y0106512D01*
X0110706Y0105331D01*
X0109710Y0107841D02*
X0107830Y0107841D01*
X0108410Y0106842D02*
X0092338Y0106842D01*
X0093336Y0105844D02*
X0108006Y0105844D01*
X0108006Y0104845D02*
X0094335Y0104845D01*
X0093777Y0102575D02*
X0120942Y0102575D01*
X0121730Y0103362D01*
X0162675Y0103362D01*
X0163068Y0102969D01*
X0161367Y0100851D02*
X0129240Y0100851D01*
X0129824Y0099853D02*
X0194081Y0099853D01*
X0196623Y0099853D02*
X0200332Y0099853D01*
X0200332Y0100851D02*
X0164769Y0100851D01*
X0165527Y0101850D02*
X0200332Y0101850D01*
X0200332Y0102848D02*
X0165768Y0102848D01*
X0165627Y0103847D02*
X0175439Y0103847D01*
X0176682Y0103847D02*
X0200332Y0103847D01*
X0200332Y0104845D02*
X0178212Y0104845D01*
X0178706Y0105844D02*
X0200332Y0105844D01*
X0200332Y0106842D02*
X0178760Y0106842D01*
X0178432Y0107841D02*
X0185314Y0107841D01*
X0184180Y0108839D02*
X0177497Y0108839D01*
X0169328Y0116827D02*
X0185672Y0116827D01*
X0185441Y0117826D02*
X0169952Y0117826D01*
X0170099Y0118824D02*
X0184195Y0118824D01*
X0183490Y0119823D02*
X0169863Y0119823D01*
X0169112Y0120821D02*
X0183077Y0120821D01*
X0182897Y0122818D02*
X0110272Y0122818D01*
X0110272Y0121820D02*
X0191072Y0121820D01*
X0192072Y0121820D02*
X0200332Y0121820D01*
X0200332Y0122818D02*
X0200247Y0122818D01*
X0200332Y0123817D02*
X0200029Y0123817D01*
X0200332Y0124815D02*
X0199594Y0124815D01*
X0200332Y0125814D02*
X0198831Y0125814D01*
X0197471Y0126812D02*
X0200332Y0126812D01*
X0200332Y0127811D02*
X0197758Y0127811D01*
X0196366Y0127234D02*
X0196366Y0127234D01*
X0198934Y0128809D02*
X0200332Y0128809D01*
X0200332Y0129808D02*
X0199677Y0129808D01*
X0200090Y0130806D02*
X0200332Y0130806D01*
X0200332Y0131805D02*
X0200272Y0131805D01*
X0200272Y0132803D02*
X0200332Y0132803D01*
X0200332Y0133802D02*
X0200054Y0133802D01*
X0200332Y0134801D02*
X0199640Y0134801D01*
X0200332Y0135799D02*
X0198845Y0135799D01*
X0197544Y0136798D02*
X0200332Y0136798D01*
X0200332Y0137796D02*
X0197723Y0137796D01*
X0198919Y0138795D02*
X0200332Y0138795D01*
X0200332Y0139793D02*
X0199671Y0139793D01*
X0200084Y0140792D02*
X0200332Y0140792D01*
X0200332Y0141790D02*
X0200272Y0141790D01*
X0200272Y0142789D02*
X0200332Y0142789D01*
X0200332Y0143787D02*
X0200060Y0143787D01*
X0200332Y0144786D02*
X0199646Y0144786D01*
X0200332Y0145784D02*
X0198860Y0145784D01*
X0197580Y0146783D02*
X0200332Y0146783D01*
X0200332Y0147781D02*
X0197687Y0147781D01*
X0198904Y0148780D02*
X0200332Y0148780D01*
X0200332Y0149778D02*
X0199664Y0149778D01*
X0200078Y0150777D02*
X0200332Y0150777D01*
X0200332Y0151775D02*
X0200272Y0151775D01*
X0200272Y0152774D02*
X0200332Y0152774D01*
X0200332Y0153772D02*
X0200066Y0153772D01*
X0200332Y0154771D02*
X0199652Y0154771D01*
X0200332Y0155769D02*
X0198875Y0155769D01*
X0197616Y0156768D02*
X0200332Y0156768D01*
X0200332Y0157766D02*
X0197651Y0157766D01*
X0198890Y0158765D02*
X0200332Y0158765D01*
X0200332Y0159763D02*
X0199658Y0159763D01*
X0200072Y0160762D02*
X0200332Y0160762D01*
X0200332Y0161760D02*
X0200272Y0161760D01*
X0200272Y0162759D02*
X0200332Y0162759D01*
X0200332Y0163757D02*
X0200072Y0163757D01*
X0200332Y0164756D02*
X0199658Y0164756D01*
X0200332Y0165754D02*
X0198890Y0165754D01*
X0197652Y0166753D02*
X0200332Y0166753D01*
X0200332Y0167751D02*
X0197615Y0167751D01*
X0198875Y0168750D02*
X0200332Y0168750D01*
X0200332Y0169748D02*
X0199652Y0169748D01*
X0200066Y0170747D02*
X0200332Y0170747D01*
X0200332Y0171745D02*
X0200272Y0171745D01*
X0200272Y0172744D02*
X0200332Y0172744D01*
X0200332Y0173742D02*
X0200078Y0173742D01*
X0200332Y0174741D02*
X0199665Y0174741D01*
X0200332Y0175739D02*
X0198905Y0175739D01*
X0197688Y0176738D02*
X0200332Y0176738D01*
X0200332Y0177737D02*
X0197579Y0177737D01*
X0198860Y0178735D02*
X0200332Y0178735D01*
X0200332Y0179734D02*
X0199646Y0179734D01*
X0200060Y0180732D02*
X0200332Y0180732D01*
X0200332Y0181731D02*
X0200272Y0181731D01*
X0200272Y0182729D02*
X0200332Y0182729D01*
X0200332Y0183728D02*
X0200084Y0183728D01*
X0200332Y0184726D02*
X0199671Y0184726D01*
X0200332Y0185725D02*
X0198920Y0185725D01*
X0197724Y0186723D02*
X0200332Y0186723D01*
X0200332Y0187722D02*
X0040578Y0187722D01*
X0040578Y0188720D02*
X0200332Y0188720D01*
X0200332Y0189719D02*
X0040578Y0189719D01*
X0040578Y0190717D02*
X0200332Y0190717D01*
X0200332Y0191716D02*
X0040578Y0191716D01*
X0040578Y0192714D02*
X0200332Y0192714D01*
X0200332Y0193713D02*
X0040578Y0193713D01*
X0040578Y0193743D02*
X0040106Y0194882D01*
X0039637Y0195350D01*
X0200332Y0195350D01*
X0200332Y0003500D01*
X0008482Y0003500D01*
X0008482Y0195350D01*
X0034924Y0195350D01*
X0034456Y0194882D01*
X0033984Y0193743D01*
X0033984Y0192509D01*
X0034378Y0191559D01*
X0034378Y0182667D01*
X0034850Y0181527D01*
X0035722Y0180655D01*
X0036861Y0180183D01*
X0038094Y0180183D01*
X0039234Y0180655D01*
X0040106Y0181527D01*
X0040578Y0182667D01*
X0040578Y0193743D01*
X0040176Y0194711D02*
X0200332Y0194711D01*
X0185421Y0186723D02*
X0107724Y0186723D01*
X0108920Y0185725D02*
X0184224Y0185725D01*
X0183474Y0184726D02*
X0109671Y0184726D01*
X0110084Y0183728D02*
X0183060Y0183728D01*
X0182872Y0182729D02*
X0110272Y0182729D01*
X0110272Y0181731D02*
X0182872Y0181731D01*
X0183085Y0180732D02*
X0110060Y0180732D01*
X0109646Y0179734D02*
X0183498Y0179734D01*
X0184284Y0178735D02*
X0108860Y0178735D01*
X0107579Y0177737D02*
X0185566Y0177737D01*
X0185456Y0176738D02*
X0107688Y0176738D01*
X0108905Y0175739D02*
X0184239Y0175739D01*
X0183480Y0174741D02*
X0109665Y0174741D01*
X0110078Y0173742D02*
X0183066Y0173742D01*
X0182872Y0172744D02*
X0110272Y0172744D01*
X0110272Y0171745D02*
X0182872Y0171745D01*
X0183079Y0170747D02*
X0110066Y0170747D01*
X0109652Y0169748D02*
X0183492Y0169748D01*
X0184270Y0168750D02*
X0108875Y0168750D01*
X0107615Y0167751D02*
X0185530Y0167751D01*
X0185492Y0166753D02*
X0107652Y0166753D01*
X0108890Y0165754D02*
X0184254Y0165754D01*
X0183486Y0164756D02*
X0109658Y0164756D01*
X0109658Y0159763D02*
X0132770Y0159763D01*
X0134328Y0162024D02*
X0101808Y0162024D01*
X0101572Y0162260D01*
X0107651Y0157766D02*
X0185494Y0157766D01*
X0185528Y0156768D02*
X0107616Y0156768D01*
X0108875Y0155769D02*
X0184269Y0155769D01*
X0183492Y0154771D02*
X0166265Y0154771D01*
X0164643Y0152575D02*
X0191257Y0152575D01*
X0191572Y0152260D01*
X0185458Y0147781D02*
X0107687Y0147781D01*
X0107580Y0146783D02*
X0185564Y0146783D01*
X0184284Y0145784D02*
X0108860Y0145784D01*
X0109646Y0144786D02*
X0183498Y0144786D01*
X0184240Y0148780D02*
X0108904Y0148780D01*
X0109664Y0149778D02*
X0147873Y0149778D01*
X0149682Y0151787D02*
X0102045Y0151787D01*
X0101572Y0152260D01*
X0095528Y0156768D02*
X0008482Y0156768D01*
X0008482Y0157766D02*
X0095494Y0157766D01*
X0094255Y0158765D02*
X0008482Y0158765D01*
X0008482Y0159763D02*
X0093486Y0159763D01*
X0093072Y0160762D02*
X0008482Y0160762D01*
X0008482Y0161760D02*
X0092872Y0161760D01*
X0092872Y0162759D02*
X0008482Y0162759D01*
X0008482Y0163757D02*
X0093072Y0163757D01*
X0093486Y0164756D02*
X0008482Y0164756D01*
X0008482Y0165754D02*
X0094254Y0165754D01*
X0095492Y0166753D02*
X0008482Y0166753D01*
X0008482Y0167751D02*
X0095530Y0167751D01*
X0094270Y0168750D02*
X0008482Y0168750D01*
X0008482Y0169748D02*
X0093492Y0169748D01*
X0093079Y0170747D02*
X0008482Y0170747D01*
X0008482Y0171745D02*
X0092872Y0171745D01*
X0092872Y0172744D02*
X0008482Y0172744D01*
X0008482Y0173742D02*
X0093066Y0173742D01*
X0093480Y0174741D02*
X0008482Y0174741D01*
X0008482Y0175739D02*
X0094239Y0175739D01*
X0095456Y0176738D02*
X0008482Y0176738D01*
X0008482Y0177737D02*
X0095566Y0177737D01*
X0094284Y0178735D02*
X0008482Y0178735D01*
X0008482Y0179734D02*
X0093498Y0179734D01*
X0093085Y0180732D02*
X0039310Y0180732D01*
X0040190Y0181731D02*
X0092872Y0181731D01*
X0092872Y0182729D02*
X0040578Y0182729D01*
X0040578Y0183728D02*
X0093060Y0183728D01*
X0093474Y0184726D02*
X0040578Y0184726D01*
X0040578Y0185725D02*
X0094224Y0185725D01*
X0095421Y0186723D02*
X0040578Y0186723D01*
X0034378Y0186723D02*
X0008482Y0186723D01*
X0008482Y0185725D02*
X0034378Y0185725D01*
X0034378Y0184726D02*
X0008482Y0184726D01*
X0008482Y0183728D02*
X0034378Y0183728D01*
X0034378Y0182729D02*
X0008482Y0182729D01*
X0008482Y0181731D02*
X0034765Y0181731D01*
X0035645Y0180732D02*
X0008482Y0180732D01*
X0008482Y0187722D02*
X0034378Y0187722D01*
X0034378Y0188720D02*
X0008482Y0188720D01*
X0008482Y0189719D02*
X0034378Y0189719D01*
X0034378Y0190717D02*
X0008482Y0190717D01*
X0008482Y0191716D02*
X0034313Y0191716D01*
X0033984Y0192714D02*
X0008482Y0192714D01*
X0008482Y0193713D02*
X0033984Y0193713D01*
X0034385Y0194711D02*
X0008482Y0194711D01*
X0008482Y0155769D02*
X0094269Y0155769D01*
X0093492Y0154771D02*
X0008482Y0154771D01*
X0008482Y0153772D02*
X0093078Y0153772D01*
X0092872Y0152774D02*
X0008482Y0152774D01*
X0008482Y0151775D02*
X0092872Y0151775D01*
X0093066Y0150777D02*
X0008482Y0150777D01*
X0008482Y0149778D02*
X0093480Y0149778D01*
X0094240Y0148780D02*
X0008482Y0148780D01*
X0008482Y0147781D02*
X0046751Y0147781D01*
X0046783Y0147794D02*
X0045791Y0147383D01*
X0045031Y0146624D01*
X0044620Y0145632D01*
X0044620Y0144557D01*
X0045031Y0143565D01*
X0045791Y0142806D01*
X0046783Y0142394D01*
X0047857Y0142394D01*
X0048850Y0142806D01*
X0049139Y0143094D01*
X0072870Y0143094D01*
X0085478Y0130487D01*
X0085833Y0130131D01*
X0085976Y0129786D01*
X0086736Y0129026D01*
X0087728Y0128615D01*
X0088802Y0128615D01*
X0089794Y0129026D01*
X0090554Y0129786D01*
X0090965Y0130778D01*
X0090965Y0131852D01*
X0090554Y0132844D01*
X0089794Y0133604D01*
X0088802Y0134015D01*
X0087728Y0134015D01*
X0087642Y0133979D01*
X0074527Y0147094D01*
X0049139Y0147094D01*
X0048850Y0147383D01*
X0047857Y0147794D01*
X0046783Y0147794D01*
X0047889Y0147781D02*
X0095458Y0147781D01*
X0095564Y0146783D02*
X0074838Y0146783D01*
X0075837Y0145784D02*
X0094284Y0145784D01*
X0093498Y0144786D02*
X0076835Y0144786D01*
X0077834Y0143787D02*
X0093085Y0143787D01*
X0092872Y0142789D02*
X0078832Y0142789D01*
X0079831Y0141790D02*
X0092872Y0141790D01*
X0093060Y0140792D02*
X0080829Y0140792D01*
X0081828Y0139793D02*
X0093474Y0139793D01*
X0094225Y0138795D02*
X0082826Y0138795D01*
X0083825Y0137796D02*
X0095422Y0137796D01*
X0095600Y0136798D02*
X0084823Y0136798D01*
X0085822Y0135799D02*
X0094299Y0135799D01*
X0093504Y0134801D02*
X0086821Y0134801D01*
X0089316Y0133802D02*
X0093091Y0133802D01*
X0092872Y0132803D02*
X0090571Y0132803D01*
X0090965Y0131805D02*
X0092872Y0131805D01*
X0093054Y0130806D02*
X0090965Y0130806D01*
X0090563Y0129808D02*
X0093468Y0129808D01*
X0093561Y0128809D02*
X0089272Y0128809D01*
X0087258Y0128809D02*
X0008482Y0128809D01*
X0008482Y0127811D02*
X0092563Y0127811D01*
X0091564Y0126812D02*
X0008482Y0126812D01*
X0008482Y0125814D02*
X0090566Y0125814D01*
X0089567Y0124815D02*
X0008482Y0124815D01*
X0008482Y0123817D02*
X0088569Y0123817D01*
X0087570Y0122818D02*
X0008482Y0122818D01*
X0008482Y0121820D02*
X0086571Y0121820D01*
X0085573Y0120821D02*
X0008482Y0120821D01*
X0008482Y0119823D02*
X0084574Y0119823D01*
X0083903Y0118824D02*
X0008482Y0118824D01*
X0008482Y0117826D02*
X0083903Y0117826D01*
X0083502Y0116827D02*
X0008482Y0116827D01*
X0008482Y0115829D02*
X0083203Y0115829D01*
X0083286Y0114830D02*
X0008482Y0114830D01*
X0008482Y0113832D02*
X0083820Y0113832D01*
X0084258Y0111835D02*
X0008482Y0111835D01*
X0008482Y0112833D02*
X0092872Y0112833D01*
X0092872Y0111835D02*
X0087548Y0111835D01*
X0088344Y0110836D02*
X0093042Y0110836D01*
X0093455Y0109838D02*
X0089342Y0109838D01*
X0090341Y0108839D02*
X0094180Y0108839D01*
X0095314Y0107841D02*
X0091339Y0107841D01*
X0088678Y0104845D02*
X0008482Y0104845D01*
X0008482Y0103847D02*
X0089677Y0103847D01*
X0090675Y0102848D02*
X0008482Y0102848D01*
X0008482Y0101850D02*
X0091674Y0101850D01*
X0092672Y0100851D02*
X0008482Y0100851D01*
X0008482Y0099853D02*
X0124659Y0099853D01*
X0124541Y0098854D02*
X0008482Y0098854D01*
X0008482Y0097856D02*
X0124806Y0097856D01*
X0125597Y0096857D02*
X0008482Y0096857D01*
X0008482Y0095859D02*
X0127586Y0095859D01*
X0128816Y0097457D02*
X0127241Y0099031D01*
X0128816Y0097457D02*
X0195352Y0097457D01*
X0196138Y0094860D02*
X0200332Y0094860D01*
X0200332Y0093862D02*
X0197617Y0093862D01*
X0198518Y0092863D02*
X0200332Y0092863D01*
X0200332Y0091865D02*
X0198839Y0091865D01*
X0198778Y0090866D02*
X0200332Y0090866D01*
X0200332Y0089868D02*
X0198274Y0089868D01*
X0197857Y0088739D02*
X0196783Y0088739D01*
X0195791Y0088328D01*
X0195502Y0088039D01*
X0148745Y0088039D01*
X0148456Y0088328D01*
X0147464Y0088739D01*
X0146389Y0088739D01*
X0145397Y0088328D01*
X0144638Y0087569D01*
X0144226Y0086576D01*
X0144226Y0085502D01*
X0144638Y0084510D01*
X0145397Y0083750D01*
X0146389Y0083339D01*
X0147464Y0083339D01*
X0148456Y0083750D01*
X0148745Y0084039D01*
X0195502Y0084039D01*
X0195791Y0083750D01*
X0196783Y0083339D01*
X0197857Y0083339D01*
X0198850Y0083750D01*
X0199609Y0084510D01*
X0200020Y0085502D01*
X0200020Y0086576D01*
X0199609Y0087569D01*
X0198850Y0088328D01*
X0197857Y0088739D01*
X0196719Y0088869D02*
X0200332Y0088869D01*
X0200332Y0087870D02*
X0199307Y0087870D01*
X0199898Y0086872D02*
X0200332Y0086872D01*
X0200332Y0085873D02*
X0200020Y0085873D01*
X0199760Y0084875D02*
X0200332Y0084875D01*
X0200332Y0083876D02*
X0198976Y0083876D01*
X0200332Y0082878D02*
X0008482Y0082878D01*
X0008482Y0083876D02*
X0145271Y0083876D01*
X0144486Y0084875D02*
X0008482Y0084875D01*
X0008482Y0085873D02*
X0144226Y0085873D01*
X0144349Y0086872D02*
X0008482Y0086872D01*
X0008482Y0087870D02*
X0085669Y0087870D01*
X0086153Y0087670D02*
X0085161Y0088081D01*
X0084401Y0088841D01*
X0083990Y0089833D01*
X0083990Y0090907D01*
X0084401Y0091899D01*
X0085161Y0092659D01*
X0086153Y0093070D01*
X0087227Y0093070D01*
X0088220Y0092659D01*
X0088509Y0092370D01*
X0133483Y0092370D01*
X0133614Y0092687D01*
X0134373Y0093446D01*
X0135366Y0093857D01*
X0136440Y0093857D01*
X0137432Y0093446D01*
X0138192Y0092687D01*
X0138603Y0091695D01*
X0138603Y0090620D01*
X0138192Y0089628D01*
X0137432Y0088869D01*
X0136440Y0088457D01*
X0136031Y0088457D01*
X0135944Y0088370D01*
X0088509Y0088370D01*
X0088220Y0088081D01*
X0087227Y0087670D01*
X0086153Y0087670D01*
X0087711Y0087870D02*
X0144939Y0087870D01*
X0146926Y0086039D02*
X0197320Y0086039D01*
X0195665Y0083876D02*
X0148582Y0083876D01*
X0147473Y0081879D02*
X0200332Y0081879D01*
X0200332Y0080881D02*
X0148817Y0080881D01*
X0148822Y0080876D02*
X0148062Y0081635D01*
X0147070Y0082046D01*
X0145996Y0082046D01*
X0145256Y0081740D01*
X0102288Y0081740D01*
X0101999Y0082029D01*
X0101007Y0082440D01*
X0099933Y0082440D01*
X0098940Y0082029D01*
X0098181Y0081270D01*
X0097770Y0080277D01*
X0097770Y0079203D01*
X0098181Y0078211D01*
X0098940Y0077451D01*
X0099933Y0077040D01*
X0101007Y0077040D01*
X0101999Y0077451D01*
X0102288Y0077740D01*
X0144321Y0077740D01*
X0145003Y0077058D01*
X0145996Y0076646D01*
X0147070Y0076646D01*
X0148062Y0077058D01*
X0148822Y0077817D01*
X0149233Y0078809D01*
X0149233Y0079884D01*
X0148822Y0080876D01*
X0149233Y0079882D02*
X0200332Y0079882D01*
X0200332Y0078884D02*
X0149233Y0078884D01*
X0148850Y0077885D02*
X0200332Y0077885D01*
X0200332Y0076887D02*
X0147650Y0076887D01*
X0145415Y0076887D02*
X0117771Y0076887D01*
X0118113Y0076545D02*
X0117354Y0077305D01*
X0116361Y0077716D01*
X0115287Y0077716D01*
X0114295Y0077305D01*
X0113535Y0076545D01*
X0113241Y0075835D01*
X0084965Y0075835D01*
X0084676Y0076124D01*
X0083684Y0076535D01*
X0082610Y0076535D01*
X0081618Y0076124D01*
X0080858Y0075364D01*
X0080447Y0074372D01*
X0080447Y0073298D01*
X0080858Y0072305D01*
X0081618Y0071546D01*
X0082610Y0071135D01*
X0083684Y0071135D01*
X0084676Y0071546D01*
X0084965Y0071835D01*
X0115471Y0071835D01*
X0115953Y0072316D01*
X0116361Y0072316D01*
X0117354Y0072727D01*
X0118113Y0073486D01*
X0118524Y0074479D01*
X0118524Y0075553D01*
X0118113Y0076545D01*
X0118385Y0075888D02*
X0200332Y0075888D01*
X0200332Y0074890D02*
X0118524Y0074890D01*
X0118281Y0073891D02*
X0200332Y0073891D01*
X0200332Y0072893D02*
X0117520Y0072893D01*
X0115531Y0071894D02*
X0200332Y0071894D01*
X0200332Y0070896D02*
X0008482Y0070896D01*
X0008482Y0071894D02*
X0081269Y0071894D01*
X0080615Y0072893D02*
X0013261Y0072893D01*
X0012818Y0072709D02*
X0013810Y0073120D01*
X0014570Y0073880D01*
X0014981Y0074872D01*
X0014981Y0075281D01*
X0017440Y0077740D01*
X0092746Y0077740D01*
X0093035Y0077451D01*
X0094027Y0077040D01*
X0095101Y0077040D01*
X0096094Y0077451D01*
X0096853Y0078211D01*
X0097264Y0079203D01*
X0097264Y0080277D01*
X0096853Y0081270D01*
X0096094Y0082029D01*
X0095101Y0082440D01*
X0094027Y0082440D01*
X0093035Y0082029D01*
X0092746Y0081740D01*
X0015783Y0081740D01*
X0014612Y0080569D01*
X0014612Y0080569D01*
X0012152Y0078109D01*
X0011744Y0078109D01*
X0010751Y0077698D01*
X0009992Y0076939D01*
X0009581Y0075947D01*
X0009581Y0074872D01*
X0009992Y0073880D01*
X0010751Y0073120D01*
X0011744Y0072709D01*
X0012818Y0072709D01*
X0011301Y0072893D02*
X0008482Y0072893D01*
X0008482Y0073891D02*
X0009987Y0073891D01*
X0009581Y0074890D02*
X0008482Y0074890D01*
X0008482Y0075888D02*
X0009581Y0075888D01*
X0009970Y0076887D02*
X0008482Y0076887D01*
X0008482Y0077885D02*
X0011203Y0077885D01*
X0012927Y0078884D02*
X0008482Y0078884D01*
X0008482Y0079882D02*
X0013925Y0079882D01*
X0014924Y0080881D02*
X0008482Y0080881D01*
X0008482Y0081879D02*
X0092885Y0081879D01*
X0094564Y0079740D02*
X0016612Y0079740D01*
X0012281Y0075409D01*
X0014981Y0074890D02*
X0080662Y0074890D01*
X0080447Y0073891D02*
X0014574Y0073891D01*
X0015588Y0075888D02*
X0081382Y0075888D01*
X0083147Y0073835D02*
X0114643Y0073835D01*
X0115824Y0075016D01*
X0113877Y0076887D02*
X0016587Y0076887D01*
X0008482Y0069897D02*
X0200332Y0069897D01*
X0200332Y0068899D02*
X0008482Y0068899D01*
X0008482Y0067900D02*
X0062764Y0067900D01*
X0063114Y0068250D02*
X0062354Y0067490D01*
X0061943Y0066498D01*
X0061943Y0065424D01*
X0062354Y0064431D01*
X0063114Y0063672D01*
X0064106Y0063261D01*
X0065180Y0063261D01*
X0065920Y0063567D01*
X0071876Y0063567D01*
X0071786Y0063348D01*
X0071786Y0062274D01*
X0071876Y0062055D01*
X0062524Y0062055D01*
X0062235Y0062344D01*
X0061243Y0062755D01*
X0060169Y0062755D01*
X0059177Y0062344D01*
X0058417Y0061585D01*
X0058006Y0060592D01*
X0058006Y0059518D01*
X0058417Y0058526D01*
X0059177Y0057766D01*
X0060169Y0057355D01*
X0061243Y0057355D01*
X0062235Y0057766D01*
X0062524Y0058055D01*
X0080350Y0058055D01*
X0080447Y0057958D01*
X0080447Y0057550D01*
X0080858Y0056557D01*
X0081618Y0055798D01*
X0082610Y0055387D01*
X0082737Y0055387D01*
X0081137Y0053787D01*
X0078775Y0053787D01*
X0077604Y0052616D01*
X0074051Y0049063D01*
X0020005Y0049063D01*
X0019716Y0049352D01*
X0018723Y0049763D01*
X0017649Y0049763D01*
X0016657Y0049352D01*
X0015897Y0048592D01*
X0015486Y0047600D01*
X0015486Y0046526D01*
X0015897Y0045534D01*
X0016657Y0044774D01*
X0017649Y0044363D01*
X0018723Y0044363D01*
X0019716Y0044774D01*
X0020005Y0045063D01*
X0075708Y0045063D01*
X0080432Y0049787D01*
X0081468Y0049787D01*
X0081050Y0049369D01*
X0080641Y0049369D01*
X0079649Y0048958D01*
X0078890Y0048199D01*
X0078478Y0047206D01*
X0078478Y0046132D01*
X0078890Y0045140D01*
X0079649Y0044380D01*
X0080641Y0043969D01*
X0081716Y0043969D01*
X0082708Y0044380D01*
X0083467Y0045140D01*
X0083878Y0046132D01*
X0083878Y0046541D01*
X0088306Y0050969D01*
X0093140Y0050969D01*
X0093429Y0050680D01*
X0094421Y0050269D01*
X0095495Y0050269D01*
X0096487Y0050680D01*
X0097247Y0051439D01*
X0097658Y0052431D01*
X0097658Y0053506D01*
X0097404Y0054118D01*
X0113241Y0054118D01*
X0113535Y0053408D01*
X0114295Y0052648D01*
X0115287Y0052237D01*
X0116361Y0052237D01*
X0117354Y0052648D01*
X0117871Y0053165D01*
X0117849Y0053112D01*
X0117849Y0052038D01*
X0118260Y0051045D01*
X0119019Y0050286D01*
X0120011Y0049875D01*
X0121086Y0049875D01*
X0122078Y0050286D01*
X0122837Y0051045D01*
X0123249Y0052038D01*
X0123249Y0053112D01*
X0122837Y0054104D01*
X0122549Y0054393D01*
X0122549Y0059702D01*
X0119793Y0062458D01*
X0118621Y0063630D01*
X0100511Y0063630D01*
X0097745Y0066395D01*
X0096574Y0067567D01*
X0066855Y0067567D01*
X0066172Y0068250D01*
X0065180Y0068661D01*
X0064106Y0068661D01*
X0063114Y0068250D01*
X0062110Y0066902D02*
X0008482Y0066902D01*
X0008482Y0065903D02*
X0061943Y0065903D01*
X0062158Y0064905D02*
X0008482Y0064905D01*
X0008482Y0063906D02*
X0062879Y0063906D01*
X0064643Y0065961D02*
X0065037Y0065567D01*
X0095745Y0065567D01*
X0099682Y0061630D01*
X0117793Y0061630D01*
X0120549Y0058874D01*
X0120549Y0052575D01*
X0122913Y0053921D02*
X0128376Y0053921D01*
X0128468Y0053829D02*
X0129460Y0053418D01*
X0130534Y0053418D01*
X0131527Y0053829D01*
X0131816Y0054118D01*
X0146492Y0054118D01*
X0149651Y0050959D01*
X0149651Y0045126D01*
X0138902Y0045126D01*
X0138613Y0045415D01*
X0137621Y0045826D01*
X0136547Y0045826D01*
X0135555Y0045415D01*
X0134795Y0044655D01*
X0134384Y0043663D01*
X0134384Y0042589D01*
X0134795Y0041597D01*
X0135555Y0040837D01*
X0136547Y0040426D01*
X0137621Y0040426D01*
X0138613Y0040837D01*
X0138902Y0041126D01*
X0149833Y0041126D01*
X0150121Y0040837D01*
X0151114Y0040426D01*
X0152188Y0040426D01*
X0153180Y0040837D01*
X0153940Y0041597D01*
X0154351Y0042589D01*
X0154351Y0043663D01*
X0153940Y0044655D01*
X0153651Y0044944D01*
X0153651Y0052616D01*
X0152479Y0053787D01*
X0149320Y0056947D01*
X0148149Y0058118D01*
X0131816Y0058118D01*
X0131527Y0058407D01*
X0130534Y0058818D01*
X0129460Y0058818D01*
X0128468Y0058407D01*
X0127708Y0057648D01*
X0127297Y0056655D01*
X0127297Y0055581D01*
X0127708Y0054589D01*
X0128468Y0053829D01*
X0127571Y0054920D02*
X0122549Y0054920D01*
X0122549Y0055918D02*
X0127297Y0055918D01*
X0127406Y0056917D02*
X0122549Y0056917D01*
X0122549Y0057915D02*
X0127976Y0057915D01*
X0129997Y0056118D02*
X0147320Y0056118D01*
X0151651Y0051787D01*
X0151651Y0043126D01*
X0137084Y0043126D01*
X0135074Y0044934D02*
X0083262Y0044934D01*
X0083796Y0045933D02*
X0149651Y0045933D01*
X0149651Y0046932D02*
X0084269Y0046932D01*
X0085268Y0047930D02*
X0149651Y0047930D01*
X0149651Y0048929D02*
X0086266Y0048929D01*
X0087265Y0049927D02*
X0119885Y0049927D01*
X0121212Y0049927D02*
X0149651Y0049927D01*
X0149651Y0050926D02*
X0122718Y0050926D01*
X0123201Y0051924D02*
X0148686Y0051924D01*
X0147687Y0052923D02*
X0123249Y0052923D01*
X0118379Y0050926D02*
X0096733Y0050926D01*
X0097448Y0051924D02*
X0117896Y0051924D01*
X0117849Y0052923D02*
X0117628Y0052923D01*
X0115824Y0054937D02*
X0114643Y0056118D01*
X0086297Y0056118D01*
X0081966Y0051787D01*
X0079604Y0051787D01*
X0074879Y0047063D01*
X0018186Y0047063D01*
X0016234Y0048929D02*
X0008482Y0048929D01*
X0008482Y0049927D02*
X0074915Y0049927D01*
X0075913Y0050926D02*
X0008482Y0050926D01*
X0008482Y0051924D02*
X0076912Y0051924D01*
X0077910Y0052923D02*
X0008482Y0052923D01*
X0008482Y0053921D02*
X0081271Y0053921D01*
X0082270Y0054920D02*
X0008482Y0054920D01*
X0008482Y0055918D02*
X0081497Y0055918D01*
X0080709Y0056917D02*
X0008482Y0056917D01*
X0008482Y0057915D02*
X0059028Y0057915D01*
X0058256Y0058914D02*
X0008482Y0058914D01*
X0008482Y0059912D02*
X0058006Y0059912D01*
X0058138Y0060911D02*
X0008482Y0060911D01*
X0008482Y0061909D02*
X0058742Y0061909D01*
X0060706Y0060055D02*
X0081178Y0060055D01*
X0083147Y0058087D01*
X0084328Y0058087D01*
X0080447Y0057915D02*
X0062384Y0057915D01*
X0071786Y0062908D02*
X0008482Y0062908D01*
X0008482Y0047930D02*
X0015623Y0047930D01*
X0015486Y0046932D02*
X0008482Y0046932D01*
X0008482Y0045933D02*
X0015732Y0045933D01*
X0016496Y0044934D02*
X0008482Y0044934D01*
X0008482Y0043936D02*
X0134497Y0043936D01*
X0134384Y0042937D02*
X0008482Y0042937D01*
X0008482Y0041939D02*
X0134653Y0041939D01*
X0135451Y0040940D02*
X0008482Y0040940D01*
X0008482Y0039942D02*
X0155556Y0039942D01*
X0155556Y0040520D02*
X0155556Y0039230D01*
X0149155Y0032828D01*
X0148822Y0033632D01*
X0148062Y0034391D01*
X0147070Y0034802D01*
X0145996Y0034802D01*
X0145003Y0034391D01*
X0144714Y0034102D01*
X0132997Y0034102D01*
X0132708Y0034391D01*
X0131716Y0034802D01*
X0130641Y0034802D01*
X0129649Y0034391D01*
X0129360Y0034102D01*
X0106728Y0034102D01*
X0105556Y0032931D01*
X0104366Y0031740D01*
X0083391Y0031740D01*
X0083102Y0032029D01*
X0082109Y0032440D01*
X0081035Y0032440D01*
X0080043Y0032029D01*
X0079283Y0031270D01*
X0078978Y0030532D01*
X0078172Y0030865D01*
X0077098Y0030865D01*
X0076106Y0030454D01*
X0075346Y0029695D01*
X0074935Y0028702D01*
X0074935Y0027628D01*
X0075346Y0026636D01*
X0076106Y0025876D01*
X0077098Y0025465D01*
X0077507Y0025465D01*
X0077988Y0024984D01*
X0095502Y0024984D01*
X0095791Y0024695D01*
X0096783Y0024284D01*
X0097857Y0024284D01*
X0098850Y0024695D01*
X0099609Y0025455D01*
X0100020Y0026447D01*
X0100020Y0027521D01*
X0099930Y0027740D01*
X0106023Y0027740D01*
X0107194Y0028912D01*
X0108385Y0030102D01*
X0110853Y0030102D01*
X0110762Y0029884D01*
X0110762Y0029291D01*
X0110563Y0029291D01*
X0109570Y0028879D01*
X0108811Y0028120D01*
X0108400Y0027128D01*
X0108400Y0026053D01*
X0108791Y0025109D01*
X0108389Y0024942D01*
X0107630Y0024183D01*
X0107219Y0023191D01*
X0107219Y0022116D01*
X0107354Y0021791D01*
X0107306Y0021810D01*
X0106232Y0021810D01*
X0105240Y0021399D01*
X0104480Y0020640D01*
X0104069Y0019647D01*
X0104069Y0018573D01*
X0104460Y0017629D01*
X0104058Y0017462D01*
X0103299Y0016703D01*
X0102888Y0015710D01*
X0102888Y0014636D01*
X0103299Y0013644D01*
X0103707Y0013236D01*
X0077186Y0013236D01*
X0077186Y0013348D01*
X0076774Y0014340D01*
X0076015Y0015100D01*
X0075023Y0015511D01*
X0073948Y0015511D01*
X0072956Y0015100D01*
X0072197Y0014340D01*
X0071786Y0013348D01*
X0071786Y0012274D01*
X0072197Y0011282D01*
X0072956Y0010522D01*
X0073948Y0010111D01*
X0074357Y0010111D01*
X0075232Y0009236D01*
X0110069Y0009236D01*
X0110358Y0008947D01*
X0111350Y0008536D01*
X0112424Y0008536D01*
X0113417Y0008947D01*
X0114176Y0009707D01*
X0114587Y0010699D01*
X0114587Y0011773D01*
X0114176Y0012766D01*
X0113417Y0013525D01*
X0112613Y0013858D01*
X0116259Y0017504D01*
X0124966Y0017504D01*
X0124559Y0017096D01*
X0124148Y0016104D01*
X0124148Y0015030D01*
X0124559Y0014037D01*
X0125318Y0013278D01*
X0126311Y0012867D01*
X0127385Y0012867D01*
X0128377Y0013278D01*
X0129137Y0014037D01*
X0129548Y0015030D01*
X0129548Y0015142D01*
X0157597Y0015142D01*
X0158079Y0015623D01*
X0158487Y0015623D01*
X0159480Y0016034D01*
X0160239Y0016793D01*
X0160650Y0017786D01*
X0160650Y0018860D01*
X0160239Y0019852D01*
X0159480Y0020612D01*
X0158487Y0021023D01*
X0157413Y0021023D01*
X0157107Y0020896D01*
X0157107Y0021222D01*
X0156696Y0022214D01*
X0155936Y0022974D01*
X0155689Y0023076D01*
X0172558Y0039945D01*
X0173730Y0041116D01*
X0173730Y0042882D01*
X0174019Y0043171D01*
X0174430Y0044164D01*
X0174430Y0045238D01*
X0174019Y0046230D01*
X0173259Y0046990D01*
X0172267Y0047401D01*
X0171193Y0047401D01*
X0170200Y0046990D01*
X0169452Y0046242D01*
X0169294Y0046624D01*
X0168535Y0047383D01*
X0167542Y0047794D01*
X0166468Y0047794D01*
X0165476Y0047383D01*
X0164716Y0046624D01*
X0164305Y0045632D01*
X0164305Y0044557D01*
X0164716Y0043565D01*
X0165005Y0043276D01*
X0165005Y0041198D01*
X0163100Y0039293D01*
X0163100Y0043670D01*
X0163389Y0043959D01*
X0163800Y0044951D01*
X0163800Y0046025D01*
X0163389Y0047018D01*
X0162629Y0047777D01*
X0161637Y0048188D01*
X0160563Y0048188D01*
X0159570Y0047777D01*
X0158811Y0047018D01*
X0158400Y0046025D01*
X0158400Y0044951D01*
X0158419Y0044904D01*
X0158093Y0045039D01*
X0157019Y0045039D01*
X0156027Y0044628D01*
X0155267Y0043868D01*
X0154856Y0042876D01*
X0154856Y0041802D01*
X0155267Y0040809D01*
X0155556Y0040520D01*
X0155213Y0040940D02*
X0153284Y0040940D01*
X0154082Y0041939D02*
X0154856Y0041939D01*
X0154882Y0042937D02*
X0154351Y0042937D01*
X0154238Y0043936D02*
X0155335Y0043936D01*
X0156768Y0044934D02*
X0153661Y0044934D01*
X0153651Y0045933D02*
X0158400Y0045933D01*
X0158407Y0044934D02*
X0158345Y0044934D01*
X0158775Y0046932D02*
X0153651Y0046932D01*
X0153651Y0047930D02*
X0159939Y0047930D01*
X0162260Y0047930D02*
X0200332Y0047930D01*
X0200332Y0046932D02*
X0173317Y0046932D01*
X0174142Y0045933D02*
X0200332Y0045933D01*
X0200332Y0044934D02*
X0174430Y0044934D01*
X0174335Y0043936D02*
X0200332Y0043936D01*
X0200332Y0042937D02*
X0173785Y0042937D01*
X0173730Y0041939D02*
X0200332Y0041939D01*
X0200332Y0040940D02*
X0173554Y0040940D01*
X0172555Y0039942D02*
X0200332Y0039942D01*
X0200332Y0038943D02*
X0171557Y0038943D01*
X0170558Y0037945D02*
X0200332Y0037945D01*
X0200332Y0036946D02*
X0169560Y0036946D01*
X0168561Y0035948D02*
X0200332Y0035948D01*
X0200332Y0034949D02*
X0167563Y0034949D01*
X0166564Y0033951D02*
X0200332Y0033951D01*
X0200332Y0032952D02*
X0165566Y0032952D01*
X0164567Y0031954D02*
X0200332Y0031954D01*
X0200332Y0030955D02*
X0163569Y0030955D01*
X0162570Y0029957D02*
X0200332Y0029957D01*
X0200332Y0028958D02*
X0161571Y0028958D01*
X0160573Y0027960D02*
X0200332Y0027960D01*
X0200332Y0026961D02*
X0159574Y0026961D01*
X0158576Y0025963D02*
X0200332Y0025963D01*
X0200332Y0024964D02*
X0157577Y0024964D01*
X0156579Y0023966D02*
X0200332Y0023966D01*
X0200332Y0022967D02*
X0155943Y0022967D01*
X0156798Y0021969D02*
X0200332Y0021969D01*
X0200332Y0020970D02*
X0158614Y0020970D01*
X0157286Y0020970D02*
X0157107Y0020970D01*
X0154407Y0020685D02*
X0153226Y0019504D01*
X0115430Y0019504D01*
X0111100Y0015173D01*
X0105588Y0015173D01*
X0103572Y0016976D02*
X0008482Y0016976D01*
X0008482Y0015978D02*
X0102999Y0015978D01*
X0102888Y0014979D02*
X0076136Y0014979D01*
X0076924Y0013981D02*
X0103159Y0013981D01*
X0104317Y0017975D02*
X0008482Y0017975D01*
X0008482Y0018973D02*
X0104069Y0018973D01*
X0104203Y0019972D02*
X0008482Y0019972D01*
X0008482Y0020970D02*
X0104811Y0020970D01*
X0107280Y0021969D02*
X0008482Y0021969D01*
X0008482Y0022967D02*
X0107219Y0022967D01*
X0107540Y0023966D02*
X0008482Y0023966D01*
X0008482Y0024964D02*
X0095522Y0024964D01*
X0097320Y0026984D02*
X0078816Y0026984D01*
X0077635Y0028165D01*
X0075608Y0029957D02*
X0060689Y0029957D01*
X0060689Y0029597D02*
X0060689Y0030671D01*
X0060278Y0031663D01*
X0059519Y0032423D01*
X0058527Y0032834D01*
X0057452Y0032834D01*
X0056460Y0032423D01*
X0056171Y0032134D01*
X0033784Y0032134D01*
X0033495Y0032423D01*
X0032503Y0032834D01*
X0031429Y0032834D01*
X0030436Y0032423D01*
X0029677Y0031663D01*
X0029266Y0030671D01*
X0029266Y0029597D01*
X0029677Y0028604D01*
X0030436Y0027845D01*
X0031429Y0027434D01*
X0032503Y0027434D01*
X0033495Y0027845D01*
X0033784Y0028134D01*
X0056171Y0028134D01*
X0056460Y0027845D01*
X0057452Y0027434D01*
X0058527Y0027434D01*
X0059519Y0027845D01*
X0060278Y0028604D01*
X0060689Y0029597D01*
X0060425Y0028958D02*
X0075041Y0028958D01*
X0074935Y0027960D02*
X0059634Y0027960D01*
X0057989Y0030134D02*
X0031966Y0030134D01*
X0029967Y0031954D02*
X0008482Y0031954D01*
X0008482Y0032952D02*
X0105578Y0032952D01*
X0104579Y0031954D02*
X0083177Y0031954D01*
X0081572Y0029740D02*
X0105194Y0029740D01*
X0107556Y0032102D01*
X0131178Y0032102D01*
X0146533Y0032102D01*
X0148503Y0033951D02*
X0150277Y0033951D01*
X0149279Y0032952D02*
X0149103Y0032952D01*
X0151276Y0034949D02*
X0008482Y0034949D01*
X0008482Y0033951D02*
X0106577Y0033951D01*
X0108239Y0029957D02*
X0110792Y0029957D01*
X0109761Y0028958D02*
X0107241Y0028958D01*
X0107194Y0028912D02*
X0107194Y0028912D01*
X0106242Y0027960D02*
X0108744Y0027960D01*
X0108400Y0026961D02*
X0100020Y0026961D01*
X0099820Y0025963D02*
X0108437Y0025963D01*
X0108442Y0024964D02*
X0099119Y0024964D01*
X0106769Y0019110D02*
X0111493Y0019110D01*
X0114249Y0021866D01*
X0151651Y0021866D01*
X0171730Y0041945D01*
X0171730Y0044701D01*
X0170142Y0046932D02*
X0168987Y0046932D01*
X0167005Y0045094D02*
X0167005Y0040370D01*
X0150863Y0024228D01*
X0113462Y0024228D01*
X0111887Y0022654D01*
X0109919Y0022654D01*
X0111100Y0026591D02*
X0149682Y0026591D01*
X0161100Y0038008D01*
X0161100Y0045488D01*
X0163424Y0046932D02*
X0165024Y0046932D01*
X0164430Y0045933D02*
X0163800Y0045933D01*
X0163793Y0044934D02*
X0164305Y0044934D01*
X0164563Y0043936D02*
X0163366Y0043936D01*
X0163100Y0042937D02*
X0165005Y0042937D01*
X0165005Y0041939D02*
X0163100Y0041939D01*
X0163100Y0040940D02*
X0164747Y0040940D01*
X0163749Y0039942D02*
X0163100Y0039942D01*
X0157556Y0038402D02*
X0157556Y0042339D01*
X0155270Y0038943D02*
X0008482Y0038943D01*
X0008482Y0037945D02*
X0154271Y0037945D01*
X0153273Y0036946D02*
X0008482Y0036946D01*
X0008482Y0035948D02*
X0152274Y0035948D01*
X0157556Y0038402D02*
X0148501Y0029346D01*
X0113462Y0029346D01*
X0115731Y0016976D02*
X0124509Y0016976D01*
X0124148Y0015978D02*
X0114733Y0015978D01*
X0113734Y0014979D02*
X0124169Y0014979D01*
X0124616Y0013981D02*
X0112736Y0013981D01*
X0113960Y0012982D02*
X0126033Y0012982D01*
X0127663Y0012982D02*
X0139840Y0012982D01*
X0139913Y0013159D02*
X0139502Y0012167D01*
X0139502Y0011093D01*
X0139913Y0010100D01*
X0140673Y0009341D01*
X0141665Y0008930D01*
X0142739Y0008930D01*
X0143731Y0009341D01*
X0144020Y0009630D01*
X0159281Y0009630D01*
X0159570Y0009341D01*
X0160563Y0008930D01*
X0161637Y0008930D01*
X0162629Y0009341D01*
X0163389Y0010100D01*
X0163800Y0011093D01*
X0163800Y0012167D01*
X0163389Y0013159D01*
X0162629Y0013919D01*
X0161637Y0014330D01*
X0160563Y0014330D01*
X0159570Y0013919D01*
X0159281Y0013630D01*
X0144020Y0013630D01*
X0143731Y0013919D01*
X0142739Y0014330D01*
X0141665Y0014330D01*
X0140673Y0013919D01*
X0139913Y0013159D01*
X0140822Y0013981D02*
X0129080Y0013981D01*
X0129527Y0014979D02*
X0200332Y0014979D01*
X0200332Y0013981D02*
X0162480Y0013981D01*
X0163462Y0012982D02*
X0200332Y0012982D01*
X0200332Y0011984D02*
X0163800Y0011984D01*
X0163755Y0010985D02*
X0200332Y0010985D01*
X0200332Y0009987D02*
X0163275Y0009987D01*
X0161777Y0008988D02*
X0200332Y0008988D01*
X0200332Y0007990D02*
X0008482Y0007990D01*
X0008482Y0008988D02*
X0110317Y0008988D01*
X0111887Y0011236D02*
X0076060Y0011236D01*
X0074486Y0012811D01*
X0072493Y0010985D02*
X0008482Y0010985D01*
X0008482Y0009987D02*
X0074482Y0009987D01*
X0071906Y0011984D02*
X0008482Y0011984D01*
X0008482Y0012982D02*
X0071786Y0012982D01*
X0072048Y0013981D02*
X0008482Y0013981D01*
X0008482Y0014979D02*
X0072835Y0014979D01*
X0076019Y0025963D02*
X0008482Y0025963D01*
X0008482Y0026961D02*
X0075211Y0026961D01*
X0079153Y0030955D02*
X0060572Y0030955D01*
X0059988Y0031954D02*
X0079967Y0031954D01*
X0079095Y0044934D02*
X0019876Y0044934D01*
X0029384Y0030955D02*
X0008482Y0030955D01*
X0008482Y0029957D02*
X0029266Y0029957D01*
X0029530Y0028958D02*
X0008482Y0028958D01*
X0008482Y0027960D02*
X0030322Y0027960D01*
X0033610Y0027960D02*
X0056345Y0027960D01*
X0076578Y0045933D02*
X0078561Y0045933D01*
X0078478Y0046932D02*
X0077576Y0046932D01*
X0078575Y0047930D02*
X0078778Y0047930D01*
X0079573Y0048929D02*
X0079619Y0048929D01*
X0081178Y0046669D02*
X0087478Y0052969D01*
X0094958Y0052969D01*
X0097658Y0052923D02*
X0114020Y0052923D01*
X0113322Y0053921D02*
X0097486Y0053921D01*
X0093183Y0050926D02*
X0088263Y0050926D01*
X0091021Y0062024D02*
X0090234Y0062811D01*
X0074486Y0062811D01*
X0066522Y0067900D02*
X0200332Y0067900D01*
X0200332Y0066902D02*
X0097239Y0066902D01*
X0098237Y0065903D02*
X0200332Y0065903D01*
X0200332Y0064905D02*
X0099236Y0064905D01*
X0100235Y0063906D02*
X0200332Y0063906D01*
X0200332Y0062908D02*
X0119343Y0062908D01*
X0120342Y0061909D02*
X0200332Y0061909D01*
X0200332Y0060911D02*
X0121340Y0060911D01*
X0122339Y0059912D02*
X0200332Y0059912D01*
X0200332Y0058914D02*
X0122549Y0058914D01*
X0131619Y0053921D02*
X0146689Y0053921D01*
X0149350Y0056917D02*
X0200332Y0056917D01*
X0200332Y0057915D02*
X0148352Y0057915D01*
X0149320Y0056947D02*
X0149320Y0056947D01*
X0150349Y0055918D02*
X0200332Y0055918D01*
X0200332Y0054920D02*
X0151347Y0054920D01*
X0152346Y0053921D02*
X0200332Y0053921D01*
X0200332Y0052923D02*
X0153344Y0052923D01*
X0153651Y0051924D02*
X0200332Y0051924D01*
X0200332Y0050926D02*
X0153651Y0050926D01*
X0153651Y0049927D02*
X0200332Y0049927D01*
X0200332Y0048929D02*
X0153651Y0048929D01*
X0150018Y0040940D02*
X0138717Y0040940D01*
X0160120Y0019972D02*
X0200332Y0019972D01*
X0200332Y0018973D02*
X0160603Y0018973D01*
X0160650Y0017975D02*
X0200332Y0017975D01*
X0200332Y0016976D02*
X0160315Y0016976D01*
X0159344Y0015978D02*
X0200332Y0015978D01*
X0200332Y0006991D02*
X0008482Y0006991D01*
X0008482Y0005993D02*
X0200332Y0005993D01*
X0200332Y0004994D02*
X0008482Y0004994D01*
X0008482Y0003996D02*
X0200332Y0003996D01*
X0161100Y0011630D02*
X0142202Y0011630D01*
X0139502Y0011984D02*
X0114500Y0011984D01*
X0114587Y0010985D02*
X0139547Y0010985D01*
X0140027Y0009987D02*
X0114292Y0009987D01*
X0113457Y0008988D02*
X0141525Y0008988D01*
X0142880Y0008988D02*
X0160422Y0008988D01*
X0159719Y0013981D02*
X0143582Y0013981D01*
X0156769Y0017142D02*
X0157950Y0018323D01*
X0156769Y0017142D02*
X0128423Y0017142D01*
X0126848Y0015567D01*
X0177635Y0061630D02*
X0177635Y0063992D01*
X0178029Y0064386D01*
X0195559Y0088869D02*
X0137433Y0088869D01*
X0138291Y0089868D02*
X0194004Y0089868D01*
X0193500Y0090866D02*
X0166201Y0090866D01*
X0164643Y0093126D02*
X0194564Y0093126D01*
X0196139Y0091551D01*
X0197572Y0095859D02*
X0200332Y0095859D01*
X0200332Y0096857D02*
X0198026Y0096857D01*
X0198052Y0097856D02*
X0200332Y0097856D01*
X0200332Y0098854D02*
X0197695Y0098854D01*
X0197830Y0107841D02*
X0200332Y0107841D01*
X0200332Y0108839D02*
X0198964Y0108839D01*
X0199689Y0109838D02*
X0200332Y0109838D01*
X0200332Y0110836D02*
X0200103Y0110836D01*
X0200272Y0111835D02*
X0200332Y0111835D01*
X0200332Y0112833D02*
X0200272Y0112833D01*
X0200332Y0113832D02*
X0200041Y0113832D01*
X0200332Y0114830D02*
X0199628Y0114830D01*
X0200332Y0115829D02*
X0198816Y0115829D01*
X0197472Y0116827D02*
X0200332Y0116827D01*
X0200332Y0117826D02*
X0197704Y0117826D01*
X0198949Y0118824D02*
X0200332Y0118824D01*
X0200332Y0119823D02*
X0199654Y0119823D01*
X0200067Y0120821D02*
X0200332Y0120821D01*
X0191572Y0132260D02*
X0122753Y0132260D01*
X0122517Y0132496D01*
X0120136Y0133802D02*
X0113493Y0133802D01*
X0113493Y0132803D02*
X0119817Y0132803D01*
X0119881Y0131805D02*
X0113493Y0131805D01*
X0113493Y0130806D02*
X0120388Y0130806D01*
X0121951Y0129808D02*
X0113493Y0129808D01*
X0113493Y0128809D02*
X0184210Y0128809D01*
X0183468Y0129808D02*
X0123083Y0129808D01*
X0124009Y0134801D02*
X0183504Y0134801D01*
X0184299Y0135799D02*
X0113493Y0135799D01*
X0113493Y0134801D02*
X0121025Y0134801D01*
X0116894Y0139793D02*
X0183474Y0139793D01*
X0184225Y0138795D02*
X0115896Y0138795D01*
X0114897Y0137796D02*
X0185422Y0137796D01*
X0185600Y0136798D02*
X0113899Y0136798D01*
X0111493Y0137220D02*
X0111493Y0128953D01*
X0109919Y0127378D01*
X0094958Y0127378D01*
X0085903Y0118323D01*
X0085903Y0115567D01*
X0087986Y0113832D02*
X0093103Y0113832D01*
X0093517Y0114830D02*
X0088520Y0114830D01*
X0088603Y0115829D02*
X0094329Y0115829D01*
X0095672Y0116827D02*
X0088303Y0116827D01*
X0088234Y0117826D02*
X0095350Y0117826D01*
X0094195Y0118824D02*
X0089233Y0118824D01*
X0090231Y0119823D02*
X0093461Y0119823D01*
X0093048Y0120821D02*
X0091230Y0120821D01*
X0092228Y0121820D02*
X0092872Y0121820D01*
X0101572Y0122260D02*
X0104722Y0119110D01*
X0167399Y0118717D01*
X0165685Y0120821D02*
X0150716Y0120821D01*
X0149757Y0116827D02*
X0107472Y0116827D01*
X0101572Y0112260D02*
X0165588Y0112260D01*
X0166612Y0111236D01*
X0164268Y0109838D02*
X0109689Y0109838D01*
X0108964Y0108839D02*
X0165343Y0108839D01*
X0162559Y0094860D02*
X0008482Y0094860D01*
X0008482Y0093862D02*
X0162025Y0093862D01*
X0161943Y0092863D02*
X0138016Y0092863D01*
X0138532Y0091865D02*
X0162243Y0091865D01*
X0163085Y0090866D02*
X0138603Y0090866D01*
X0135903Y0091157D02*
X0135115Y0090370D01*
X0086690Y0090370D01*
X0085653Y0092863D02*
X0008482Y0092863D01*
X0008482Y0091865D02*
X0084387Y0091865D01*
X0083990Y0090866D02*
X0008482Y0090866D01*
X0008482Y0089868D02*
X0083990Y0089868D01*
X0084390Y0088869D02*
X0008482Y0088869D01*
X0008482Y0105844D02*
X0087680Y0105844D01*
X0086681Y0106842D02*
X0008482Y0106842D01*
X0008482Y0107841D02*
X0083905Y0107841D01*
X0083321Y0108839D02*
X0008482Y0108839D01*
X0008482Y0109838D02*
X0083203Y0109838D01*
X0083467Y0110836D02*
X0008482Y0110836D01*
X0008482Y0129808D02*
X0085967Y0129808D01*
X0085158Y0130806D02*
X0008482Y0130806D01*
X0008482Y0131805D02*
X0084159Y0131805D01*
X0083161Y0132803D02*
X0008482Y0132803D01*
X0008482Y0133802D02*
X0082162Y0133802D01*
X0081164Y0134801D02*
X0008482Y0134801D01*
X0008482Y0135799D02*
X0080165Y0135799D01*
X0079167Y0136798D02*
X0008482Y0136798D01*
X0008482Y0137796D02*
X0078168Y0137796D01*
X0077170Y0138795D02*
X0008482Y0138795D01*
X0008482Y0139793D02*
X0076171Y0139793D01*
X0075173Y0140792D02*
X0008482Y0140792D01*
X0008482Y0141790D02*
X0074174Y0141790D01*
X0073176Y0142789D02*
X0048809Y0142789D01*
X0047320Y0145094D02*
X0073698Y0145094D01*
X0087478Y0131315D01*
X0088265Y0131315D01*
X0107544Y0136798D02*
X0109493Y0136798D01*
X0109493Y0137796D02*
X0107723Y0137796D01*
X0108919Y0138795D02*
X0110239Y0138795D01*
X0109671Y0139793D02*
X0111238Y0139793D01*
X0112236Y0140792D02*
X0110084Y0140792D01*
X0110272Y0141790D02*
X0113235Y0141790D01*
X0114233Y0142789D02*
X0110272Y0142789D01*
X0110060Y0143787D02*
X0115232Y0143787D01*
X0116533Y0142260D02*
X0111493Y0137220D01*
X0109493Y0135799D02*
X0108845Y0135799D01*
X0116533Y0142260D02*
X0191572Y0142260D01*
X0183480Y0149778D02*
X0151492Y0149778D01*
X0152186Y0150777D02*
X0162623Y0150777D01*
X0162052Y0151775D02*
X0152382Y0151775D01*
X0152196Y0152774D02*
X0161943Y0152774D01*
X0162217Y0153772D02*
X0151516Y0153772D01*
X0163021Y0154771D02*
X0109652Y0154771D01*
X0108890Y0158765D02*
X0184255Y0158765D01*
X0183486Y0159763D02*
X0135886Y0159763D01*
X0136728Y0160762D02*
X0183072Y0160762D01*
X0182872Y0161760D02*
X0137028Y0161760D01*
X0136946Y0162759D02*
X0182872Y0162759D01*
X0183072Y0163757D02*
X0136413Y0163757D01*
X0113180Y0127811D02*
X0185386Y0127811D01*
X0185673Y0126812D02*
X0112182Y0126812D01*
X0111183Y0125814D02*
X0184314Y0125814D01*
X0183550Y0124815D02*
X0109634Y0124815D01*
X0110047Y0123817D02*
X0183116Y0123817D01*
X0186778Y0127234D02*
X0186778Y0127234D01*
X0186778Y0117285D02*
X0186778Y0117285D01*
X0145592Y0081879D02*
X0102149Y0081879D01*
X0100470Y0079740D02*
X0146139Y0079740D01*
X0146533Y0079346D01*
X0133790Y0092863D02*
X0087727Y0092863D01*
X0093777Y0102575D02*
X0086690Y0109661D01*
X0085903Y0109661D01*
X0096243Y0081879D02*
X0098791Y0081879D01*
X0098020Y0080881D02*
X0097014Y0080881D01*
X0097264Y0079882D02*
X0097770Y0079882D01*
X0097902Y0078884D02*
X0097132Y0078884D01*
X0096528Y0077885D02*
X0098506Y0077885D01*
X0084912Y0075888D02*
X0113263Y0075888D01*
X0122047Y0100851D02*
X0125243Y0100851D01*
X0045832Y0142789D02*
X0008482Y0142789D01*
X0008482Y0143787D02*
X0044939Y0143787D01*
X0044620Y0144786D02*
X0008482Y0144786D01*
X0008482Y0145784D02*
X0044683Y0145784D01*
X0045190Y0146783D02*
X0008482Y0146783D01*
D13*
X0037478Y0183283D03*
X0037084Y0193126D03*
X0082360Y0149031D03*
X0088265Y0131315D03*
X0085903Y0115567D03*
X0085903Y0109661D03*
X0086690Y0090370D03*
X0081572Y0089189D03*
X0094564Y0079740D03*
X0100470Y0079740D03*
X0104407Y0069110D03*
X0115824Y0075016D03*
X0127635Y0084858D03*
X0135903Y0091157D03*
X0141021Y0083677D03*
X0146926Y0086039D03*
X0146533Y0079346D03*
X0153226Y0079346D03*
X0164249Y0089583D03*
X0164643Y0093126D03*
X0163068Y0102969D03*
X0166612Y0111236D03*
X0167399Y0118717D03*
X0167399Y0125803D03*
X0179604Y0126197D03*
X0176060Y0106512D03*
X0180785Y0090370D03*
X0196139Y0091551D03*
X0197320Y0086039D03*
X0195352Y0097457D03*
X0177635Y0061630D03*
X0167005Y0045094D03*
X0171730Y0044701D03*
X0161100Y0045488D03*
X0157556Y0042339D03*
X0151651Y0043126D03*
X0146533Y0032102D03*
X0137084Y0043126D03*
X0132360Y0052181D03*
X0129997Y0056118D03*
X0120549Y0052575D03*
X0115824Y0054937D03*
X0100863Y0052969D03*
X0094958Y0052969D03*
X0091021Y0062024D03*
X0083147Y0058087D03*
X0074486Y0062811D03*
X0064643Y0065961D03*
X0060706Y0060055D03*
X0081178Y0046669D03*
X0081572Y0029740D03*
X0077635Y0028165D03*
X0074486Y0012811D03*
X0057989Y0030134D03*
X0031966Y0030134D03*
X0018186Y0047063D03*
X0017399Y0067535D03*
X0012281Y0075409D03*
X0083147Y0073835D03*
X0110706Y0105331D03*
X0127241Y0099031D03*
X0122517Y0132496D03*
X0149682Y0151787D03*
X0164643Y0152575D03*
X0134328Y0162024D03*
X0047320Y0145094D03*
X0131178Y0032102D03*
X0126848Y0015567D03*
X0132753Y0013992D03*
X0142202Y0011630D03*
X0154407Y0020685D03*
X0157950Y0018323D03*
X0161100Y0011630D03*
X0175667Y0018323D03*
X0113462Y0029346D03*
X0111100Y0026591D03*
X0109919Y0022654D03*
X0106769Y0019110D03*
X0105588Y0015173D03*
X0111887Y0011236D03*
X0097320Y0026984D03*
D14*
X0037478Y0183283D02*
X0037478Y0193126D01*
X0037084Y0193126D01*
M02*
