G75*
%MOIN*%
%OFA0B0*%
%FSLAX25Y25*%
%IPPOS*%
%LPD*%
%AMOC8*
5,1,8,0,0,1.08239X$1,22.5*
%
%ADD10C,0.00000*%
%ADD11C,0.00600*%
%ADD12C,0.00400*%
%ADD13C,0.01000*%
%ADD14C,0.00500*%
%ADD15R,0.08268X0.01181*%
%ADD16C,0.00200*%
%ADD17C,0.00300*%
%ADD18C,0.01575*%
%ADD19C,0.00800*%
D10*
X0005982Y0001000D02*
X0005982Y0197850D01*
X0202832Y0197850D01*
X0202832Y0001000D01*
X0005982Y0001000D01*
D11*
X0054342Y0107589D02*
X0067542Y0107589D01*
X0067542Y0108389D01*
X0067542Y0119989D02*
X0067542Y0120789D01*
X0054342Y0120789D01*
X0054342Y0119989D01*
X0054342Y0108389D02*
X0054342Y0107589D01*
X0131511Y0016253D02*
X0131511Y0015186D01*
X0131511Y0013051D02*
X0131511Y0008780D01*
X0130444Y0008780D02*
X0132579Y0008780D01*
X0134741Y0008780D02*
X0134741Y0013051D01*
X0137943Y0013051D01*
X0139011Y0011983D01*
X0139011Y0008780D01*
X0141186Y0008780D02*
X0141186Y0015186D01*
X0144389Y0013051D02*
X0141186Y0010915D01*
X0144389Y0008780D01*
X0153003Y0009848D02*
X0153003Y0011983D01*
X0154070Y0013051D01*
X0156206Y0013051D01*
X0157273Y0011983D01*
X0157273Y0010915D01*
X0153003Y0010915D01*
X0153003Y0009848D02*
X0154070Y0008780D01*
X0156206Y0008780D01*
X0159448Y0008780D02*
X0162651Y0008780D01*
X0163719Y0009848D01*
X0162651Y0010915D01*
X0160516Y0010915D01*
X0159448Y0011983D01*
X0160516Y0013051D01*
X0163719Y0013051D01*
X0165894Y0013051D02*
X0169097Y0013051D01*
X0170164Y0011983D01*
X0170164Y0009848D01*
X0169097Y0008780D01*
X0165894Y0008780D01*
X0165894Y0006645D02*
X0165894Y0013051D01*
X0172339Y0013051D02*
X0173407Y0011983D01*
X0175542Y0011983D01*
X0176610Y0010915D01*
X0176610Y0009848D01*
X0175542Y0008780D01*
X0173407Y0008780D01*
X0172339Y0009848D01*
X0172339Y0010915D01*
X0173407Y0011983D01*
X0172339Y0013051D02*
X0172339Y0014118D01*
X0173407Y0015186D01*
X0175542Y0015186D01*
X0176610Y0014118D01*
X0176610Y0013051D01*
X0175542Y0011983D01*
X0178785Y0014118D02*
X0179852Y0015186D01*
X0181988Y0015186D01*
X0183055Y0014118D01*
X0183055Y0013051D01*
X0178785Y0008780D01*
X0183055Y0008780D01*
X0185230Y0009848D02*
X0185230Y0011983D01*
X0188433Y0011983D01*
X0189501Y0010915D01*
X0189501Y0009848D01*
X0188433Y0008780D01*
X0186298Y0008780D01*
X0185230Y0009848D01*
X0185230Y0011983D02*
X0187366Y0014118D01*
X0189501Y0015186D01*
X0191676Y0011983D02*
X0194879Y0011983D01*
X0195946Y0010915D01*
X0195946Y0009848D01*
X0194879Y0008780D01*
X0192743Y0008780D01*
X0191676Y0009848D01*
X0191676Y0011983D01*
X0193811Y0014118D01*
X0195946Y0015186D01*
X0204567Y0013051D02*
X0206702Y0008780D01*
X0208837Y0013051D01*
X0211012Y0013051D02*
X0213148Y0015186D01*
X0213148Y0008780D01*
X0215283Y0008780D02*
X0211012Y0008780D01*
X0183008Y0032761D02*
X0183008Y0050735D01*
X0152971Y0050735D01*
X0152971Y0032761D01*
X0183008Y0032761D01*
X0177708Y0046548D02*
X0177710Y0046632D01*
X0177716Y0046717D01*
X0177726Y0046800D01*
X0177740Y0046884D01*
X0177757Y0046966D01*
X0177779Y0047048D01*
X0177804Y0047128D01*
X0177833Y0047207D01*
X0177866Y0047285D01*
X0177902Y0047361D01*
X0177942Y0047436D01*
X0177986Y0047508D01*
X0178032Y0047579D01*
X0178082Y0047647D01*
X0178135Y0047712D01*
X0178191Y0047775D01*
X0178250Y0047836D01*
X0178312Y0047893D01*
X0178376Y0047948D01*
X0178443Y0047999D01*
X0178512Y0048048D01*
X0178584Y0048093D01*
X0178657Y0048134D01*
X0178732Y0048172D01*
X0178809Y0048207D01*
X0178888Y0048238D01*
X0178968Y0048265D01*
X0179049Y0048288D01*
X0179131Y0048308D01*
X0179214Y0048324D01*
X0179297Y0048336D01*
X0179382Y0048344D01*
X0179466Y0048348D01*
X0179550Y0048348D01*
X0179634Y0048344D01*
X0179719Y0048336D01*
X0179802Y0048324D01*
X0179885Y0048308D01*
X0179967Y0048288D01*
X0180048Y0048265D01*
X0180128Y0048238D01*
X0180207Y0048207D01*
X0180284Y0048172D01*
X0180359Y0048134D01*
X0180432Y0048093D01*
X0180504Y0048048D01*
X0180573Y0047999D01*
X0180640Y0047948D01*
X0180704Y0047893D01*
X0180766Y0047836D01*
X0180825Y0047775D01*
X0180881Y0047712D01*
X0180934Y0047647D01*
X0180984Y0047579D01*
X0181030Y0047508D01*
X0181074Y0047436D01*
X0181114Y0047361D01*
X0181150Y0047285D01*
X0181183Y0047207D01*
X0181212Y0047128D01*
X0181237Y0047048D01*
X0181259Y0046966D01*
X0181276Y0046884D01*
X0181290Y0046800D01*
X0181300Y0046717D01*
X0181306Y0046632D01*
X0181308Y0046548D01*
X0181306Y0046464D01*
X0181300Y0046379D01*
X0181290Y0046296D01*
X0181276Y0046212D01*
X0181259Y0046130D01*
X0181237Y0046048D01*
X0181212Y0045968D01*
X0181183Y0045889D01*
X0181150Y0045811D01*
X0181114Y0045735D01*
X0181074Y0045660D01*
X0181030Y0045588D01*
X0180984Y0045517D01*
X0180934Y0045449D01*
X0180881Y0045384D01*
X0180825Y0045321D01*
X0180766Y0045260D01*
X0180704Y0045203D01*
X0180640Y0045148D01*
X0180573Y0045097D01*
X0180504Y0045048D01*
X0180432Y0045003D01*
X0180359Y0044962D01*
X0180284Y0044924D01*
X0180207Y0044889D01*
X0180128Y0044858D01*
X0180048Y0044831D01*
X0179967Y0044808D01*
X0179885Y0044788D01*
X0179802Y0044772D01*
X0179719Y0044760D01*
X0179634Y0044752D01*
X0179550Y0044748D01*
X0179466Y0044748D01*
X0179382Y0044752D01*
X0179297Y0044760D01*
X0179214Y0044772D01*
X0179131Y0044788D01*
X0179049Y0044808D01*
X0178968Y0044831D01*
X0178888Y0044858D01*
X0178809Y0044889D01*
X0178732Y0044924D01*
X0178657Y0044962D01*
X0178584Y0045003D01*
X0178512Y0045048D01*
X0178443Y0045097D01*
X0178376Y0045148D01*
X0178312Y0045203D01*
X0178250Y0045260D01*
X0178191Y0045321D01*
X0178135Y0045384D01*
X0178082Y0045449D01*
X0178032Y0045517D01*
X0177986Y0045588D01*
X0177942Y0045660D01*
X0177902Y0045735D01*
X0177866Y0045811D01*
X0177833Y0045889D01*
X0177804Y0045968D01*
X0177779Y0046048D01*
X0177757Y0046130D01*
X0177740Y0046212D01*
X0177726Y0046296D01*
X0177716Y0046379D01*
X0177710Y0046464D01*
X0177708Y0046548D01*
X0131511Y0013051D02*
X0130444Y0013051D01*
X0128268Y0011983D02*
X0128268Y0010915D01*
X0123998Y0010915D01*
X0123998Y0009848D02*
X0123998Y0011983D01*
X0125066Y0013051D01*
X0127201Y0013051D01*
X0128268Y0011983D01*
X0127201Y0008780D02*
X0125066Y0008780D01*
X0123998Y0009848D01*
D12*
X0072238Y0055885D02*
X0067634Y0055885D01*
X0067634Y0058187D01*
X0068402Y0058954D01*
X0069936Y0058954D01*
X0070704Y0058187D01*
X0070704Y0055885D01*
X0070704Y0057420D02*
X0072238Y0058954D01*
X0071471Y0060489D02*
X0072238Y0061256D01*
X0072238Y0062791D01*
X0071471Y0063558D01*
X0068402Y0063558D01*
X0067634Y0062791D01*
X0067634Y0061256D01*
X0068402Y0060489D01*
X0069169Y0060489D01*
X0069936Y0061256D01*
X0069936Y0063558D01*
X0064404Y0063071D02*
X0064404Y0061537D01*
X0063636Y0060769D01*
X0063636Y0059235D02*
X0064404Y0058467D01*
X0064404Y0056933D01*
X0063636Y0056165D01*
X0060567Y0056165D01*
X0059800Y0056933D01*
X0059800Y0058467D01*
X0060567Y0059235D01*
X0060567Y0060769D02*
X0061334Y0060769D01*
X0062102Y0061537D01*
X0062102Y0063839D01*
X0063636Y0063839D02*
X0060567Y0063839D01*
X0059800Y0063071D01*
X0059800Y0061537D01*
X0060567Y0060769D01*
X0063636Y0063839D02*
X0064404Y0063071D01*
X0074327Y0071062D02*
X0075095Y0070294D01*
X0078164Y0070294D01*
X0078931Y0071062D01*
X0078931Y0072596D01*
X0078164Y0073364D01*
X0078931Y0074898D02*
X0075862Y0077968D01*
X0075095Y0077968D01*
X0074327Y0077200D01*
X0074327Y0075666D01*
X0075095Y0074898D01*
X0075095Y0073364D02*
X0074327Y0072596D01*
X0074327Y0071062D01*
X0078931Y0074898D02*
X0078931Y0077968D01*
X0066020Y0082361D02*
X0065253Y0081594D01*
X0063718Y0081594D01*
X0062951Y0082361D01*
X0062951Y0083128D01*
X0063718Y0083896D01*
X0065253Y0083896D01*
X0066020Y0083128D01*
X0066020Y0082361D01*
X0065253Y0083896D02*
X0066020Y0084663D01*
X0066020Y0085430D01*
X0065253Y0086198D01*
X0063718Y0086198D01*
X0062951Y0085430D01*
X0062951Y0084663D01*
X0063718Y0083896D01*
X0061416Y0083896D02*
X0060649Y0083128D01*
X0058347Y0083128D01*
X0058347Y0081594D02*
X0058347Y0086198D01*
X0060649Y0086198D01*
X0061416Y0085430D01*
X0061416Y0083896D01*
X0059882Y0083128D02*
X0061416Y0081594D01*
X0062282Y0096554D02*
X0060748Y0098089D01*
X0061515Y0098089D02*
X0059213Y0098089D01*
X0059213Y0096554D02*
X0059213Y0101158D01*
X0061515Y0101158D01*
X0062282Y0100391D01*
X0062282Y0098856D01*
X0061515Y0098089D01*
X0063817Y0097322D02*
X0063817Y0096554D01*
X0063817Y0097322D02*
X0066886Y0100391D01*
X0066886Y0101158D01*
X0063817Y0101158D01*
X0057711Y0101202D02*
X0056943Y0101202D01*
X0053874Y0104272D01*
X0053107Y0104272D01*
X0053107Y0101202D01*
X0053874Y0099668D02*
X0053107Y0098900D01*
X0053107Y0097366D01*
X0053874Y0096598D01*
X0056943Y0096598D01*
X0057711Y0097366D01*
X0057711Y0098900D01*
X0056943Y0099668D01*
X0049875Y0111053D02*
X0046038Y0111053D01*
X0046038Y0114123D02*
X0049875Y0114123D01*
X0050642Y0113355D01*
X0050642Y0111821D01*
X0049875Y0111053D01*
X0050642Y0115657D02*
X0050642Y0118726D01*
X0050642Y0117192D02*
X0046038Y0117192D01*
X0047573Y0115657D01*
X0043125Y0125609D02*
X0040055Y0125609D01*
X0039288Y0126377D01*
X0039288Y0127911D01*
X0040055Y0128679D01*
X0041590Y0130213D02*
X0041590Y0132515D01*
X0042357Y0133283D01*
X0043125Y0133283D01*
X0043892Y0132515D01*
X0043892Y0130981D01*
X0043125Y0130213D01*
X0041590Y0130213D01*
X0040055Y0131748D01*
X0039288Y0133283D01*
X0043125Y0128679D02*
X0043892Y0127911D01*
X0043892Y0126377D01*
X0043125Y0125609D01*
X0056575Y0131594D02*
X0056575Y0136198D01*
X0058877Y0136198D01*
X0059645Y0135430D01*
X0059645Y0133896D01*
X0058877Y0133128D01*
X0056575Y0133128D01*
X0058110Y0133128D02*
X0059645Y0131594D01*
X0061179Y0132361D02*
X0061947Y0131594D01*
X0063481Y0131594D01*
X0064249Y0132361D01*
X0064249Y0133896D01*
X0063481Y0134663D01*
X0062714Y0134663D01*
X0061179Y0133896D01*
X0061179Y0136198D01*
X0064249Y0136198D01*
X0068787Y0142184D02*
X0068787Y0146788D01*
X0071089Y0146788D01*
X0071856Y0146021D01*
X0071856Y0144486D01*
X0071089Y0143719D01*
X0068787Y0143719D01*
X0070322Y0143719D02*
X0071856Y0142184D01*
X0073391Y0142184D02*
X0076460Y0142184D01*
X0074926Y0142184D02*
X0074926Y0146788D01*
X0073391Y0145254D01*
X0077995Y0146021D02*
X0077995Y0142952D01*
X0081064Y0146021D01*
X0081064Y0142952D01*
X0080297Y0142184D01*
X0078762Y0142184D01*
X0077995Y0142952D01*
X0077995Y0146021D02*
X0078762Y0146788D01*
X0080297Y0146788D01*
X0081064Y0146021D01*
X0080454Y0150846D02*
X0078920Y0150846D01*
X0078152Y0151613D01*
X0081222Y0154682D01*
X0081222Y0151613D01*
X0080454Y0150846D01*
X0078152Y0151613D02*
X0078152Y0154682D01*
X0078920Y0155450D01*
X0080454Y0155450D01*
X0081222Y0154682D01*
X0076618Y0150846D02*
X0073549Y0150846D01*
X0075083Y0150846D02*
X0075083Y0155450D01*
X0073549Y0153915D01*
X0072014Y0154682D02*
X0071247Y0155450D01*
X0069712Y0155450D01*
X0068945Y0154682D01*
X0068945Y0151613D01*
X0069712Y0150846D01*
X0071247Y0150846D01*
X0072014Y0151613D01*
X0078819Y0138560D02*
X0081121Y0138560D01*
X0081889Y0137793D01*
X0081889Y0136258D01*
X0081121Y0135491D01*
X0078819Y0135491D01*
X0080354Y0135491D02*
X0081889Y0133956D01*
X0083423Y0134723D02*
X0084191Y0133956D01*
X0085725Y0133956D01*
X0086493Y0134723D01*
X0086493Y0135491D01*
X0085725Y0136258D01*
X0083423Y0136258D01*
X0083423Y0134723D01*
X0083423Y0136258D02*
X0084958Y0137793D01*
X0086493Y0138560D01*
X0078819Y0138560D02*
X0078819Y0133956D01*
X0086926Y0126591D02*
X0091530Y0126591D01*
X0091530Y0128125D02*
X0091530Y0125056D01*
X0091530Y0123521D02*
X0089995Y0121987D01*
X0089995Y0122754D02*
X0089995Y0120452D01*
X0091530Y0120452D02*
X0086926Y0120452D01*
X0086926Y0122754D01*
X0087693Y0123521D01*
X0089228Y0123521D01*
X0089995Y0122754D01*
X0088460Y0125056D02*
X0086926Y0126591D01*
X0087299Y0107106D02*
X0087299Y0104037D01*
X0084997Y0106339D01*
X0089601Y0106339D01*
X0089601Y0102502D02*
X0088066Y0100968D01*
X0088066Y0101735D02*
X0088066Y0099433D01*
X0089601Y0099433D02*
X0084997Y0099433D01*
X0084997Y0101735D01*
X0085764Y0102502D01*
X0087299Y0102502D01*
X0088066Y0101735D01*
X0120075Y0103766D02*
X0120075Y0106068D01*
X0120843Y0106835D01*
X0122377Y0106835D01*
X0123145Y0106068D01*
X0123145Y0103766D01*
X0124679Y0103766D02*
X0120075Y0103766D01*
X0123145Y0105301D02*
X0124679Y0106835D01*
X0124679Y0108370D02*
X0124679Y0111439D01*
X0124679Y0109905D02*
X0120075Y0109905D01*
X0121610Y0108370D01*
X0122377Y0112974D02*
X0122377Y0116043D01*
X0120075Y0115276D02*
X0122377Y0112974D01*
X0124679Y0115276D02*
X0120075Y0115276D01*
X0131772Y0127460D02*
X0134374Y0127460D01*
X0135242Y0128327D01*
X0135242Y0131797D01*
X0134374Y0132664D01*
X0131772Y0132664D01*
X0131772Y0127460D01*
X0136929Y0127460D02*
X0140398Y0127460D01*
X0138663Y0127460D02*
X0138663Y0132664D01*
X0136929Y0130929D01*
X0137796Y0135860D02*
X0136929Y0136727D01*
X0136929Y0138462D01*
X0137796Y0139329D01*
X0139531Y0139329D01*
X0140398Y0138462D01*
X0140398Y0137595D01*
X0136929Y0137595D01*
X0137796Y0135860D02*
X0139531Y0135860D01*
X0142085Y0135860D02*
X0142085Y0141064D01*
X0143820Y0139329D01*
X0145555Y0141064D01*
X0145555Y0135860D01*
X0147241Y0136727D02*
X0148109Y0135860D01*
X0149844Y0135860D01*
X0150711Y0136727D01*
X0150711Y0138462D01*
X0149844Y0139329D01*
X0148109Y0139329D01*
X0147241Y0138462D01*
X0147241Y0136727D01*
X0152398Y0135860D02*
X0155000Y0135860D01*
X0155867Y0136727D01*
X0155000Y0137595D01*
X0153265Y0137595D01*
X0152398Y0138462D01*
X0153265Y0139329D01*
X0155867Y0139329D01*
X0157554Y0136727D02*
X0158422Y0136727D01*
X0158422Y0135860D01*
X0157554Y0135860D01*
X0157554Y0136727D01*
X0160132Y0136727D02*
X0161000Y0135860D01*
X0163602Y0135860D01*
X0165289Y0136727D02*
X0166156Y0135860D01*
X0168758Y0135860D01*
X0168758Y0139329D02*
X0166156Y0139329D01*
X0165289Y0138462D01*
X0165289Y0136727D01*
X0163602Y0139329D02*
X0161000Y0139329D01*
X0160132Y0138462D01*
X0160132Y0136727D01*
X0161859Y0133532D02*
X0161859Y0132664D01*
X0161859Y0130929D02*
X0161859Y0127460D01*
X0160992Y0127460D02*
X0162727Y0127460D01*
X0159305Y0127460D02*
X0159305Y0130062D01*
X0158438Y0130929D01*
X0155835Y0130929D01*
X0155835Y0127460D01*
X0154133Y0127460D02*
X0152398Y0127460D01*
X0153265Y0127460D02*
X0153265Y0130929D01*
X0152398Y0130929D01*
X0150711Y0130062D02*
X0150711Y0127460D01*
X0148976Y0127460D02*
X0148976Y0130062D01*
X0149844Y0130929D01*
X0150711Y0130062D01*
X0148976Y0130062D02*
X0148109Y0130929D01*
X0147241Y0130929D01*
X0147241Y0127460D01*
X0153265Y0132664D02*
X0153265Y0133532D01*
X0160992Y0130929D02*
X0161859Y0130929D01*
X0158361Y0114075D02*
X0159128Y0113307D01*
X0159128Y0111773D01*
X0158361Y0111005D01*
X0159128Y0109471D02*
X0159128Y0106402D01*
X0159128Y0107936D02*
X0154524Y0107936D01*
X0156059Y0106402D01*
X0156826Y0104867D02*
X0155291Y0104867D01*
X0154524Y0104100D01*
X0154524Y0101798D01*
X0159128Y0101798D01*
X0157593Y0101798D02*
X0157593Y0104100D01*
X0156826Y0104867D01*
X0157593Y0103332D02*
X0159128Y0104867D01*
X0155291Y0111005D02*
X0154524Y0111773D01*
X0154524Y0113307D01*
X0155291Y0114075D01*
X0156059Y0114075D01*
X0156826Y0113307D01*
X0157593Y0114075D01*
X0158361Y0114075D01*
X0156826Y0113307D02*
X0156826Y0112540D01*
X0168422Y0112632D02*
X0168422Y0114166D01*
X0169189Y0114934D01*
X0169956Y0114934D01*
X0170724Y0114166D01*
X0170724Y0112632D01*
X0169956Y0111865D01*
X0169189Y0111865D01*
X0168422Y0112632D01*
X0170724Y0112632D02*
X0171491Y0111865D01*
X0172258Y0111865D01*
X0173026Y0112632D01*
X0173026Y0114166D01*
X0172258Y0114934D01*
X0171491Y0114934D01*
X0170724Y0114166D01*
X0169956Y0110330D02*
X0169189Y0110330D01*
X0168422Y0109563D01*
X0168422Y0108028D01*
X0169189Y0107261D01*
X0169189Y0105726D02*
X0170724Y0105726D01*
X0171491Y0104959D01*
X0171491Y0102657D01*
X0171491Y0104191D02*
X0173026Y0105726D01*
X0173026Y0107261D02*
X0169956Y0110330D01*
X0173026Y0110330D02*
X0173026Y0107261D01*
X0169189Y0105726D02*
X0168422Y0104959D01*
X0168422Y0102657D01*
X0173026Y0102657D01*
X0186178Y0081161D02*
X0186945Y0079627D01*
X0188480Y0078092D01*
X0188480Y0080394D01*
X0189247Y0081161D01*
X0190014Y0081161D01*
X0190782Y0080394D01*
X0190782Y0078859D01*
X0190014Y0078092D01*
X0188480Y0078092D01*
X0190782Y0076557D02*
X0190782Y0073488D01*
X0190782Y0075023D02*
X0186178Y0075023D01*
X0187712Y0073488D01*
X0186945Y0071954D02*
X0186178Y0071186D01*
X0186178Y0069652D01*
X0186945Y0068884D01*
X0190014Y0068884D01*
X0190782Y0069652D01*
X0190782Y0071186D01*
X0190014Y0071954D01*
X0187707Y0048867D02*
X0187107Y0048867D01*
X0186506Y0048266D01*
X0186506Y0047666D01*
X0186506Y0048266D02*
X0185906Y0048867D01*
X0185305Y0048867D01*
X0184705Y0048266D01*
X0184705Y0047065D01*
X0185305Y0046465D01*
X0185305Y0045184D02*
X0184705Y0044583D01*
X0184705Y0043382D01*
X0185305Y0042782D01*
X0187707Y0042782D01*
X0188308Y0043382D01*
X0188308Y0044583D01*
X0187707Y0045184D01*
X0187707Y0046465D02*
X0188308Y0047065D01*
X0188308Y0048266D01*
X0187707Y0048867D01*
X0188308Y0041527D02*
X0188308Y0040326D01*
X0188308Y0040927D02*
X0184705Y0040927D01*
X0184705Y0041527D02*
X0184705Y0040326D01*
X0144364Y0101798D02*
X0139760Y0101798D01*
X0139760Y0104100D01*
X0140528Y0104867D01*
X0142062Y0104867D01*
X0142830Y0104100D01*
X0142830Y0101798D01*
X0142830Y0103332D02*
X0144364Y0104867D01*
X0144364Y0106402D02*
X0144364Y0109471D01*
X0144364Y0111005D02*
X0141295Y0114075D01*
X0140528Y0114075D01*
X0139760Y0113307D01*
X0139760Y0111773D01*
X0140528Y0111005D01*
X0139760Y0107936D02*
X0144364Y0107936D01*
X0144364Y0111005D02*
X0144364Y0114075D01*
X0139760Y0107936D02*
X0141295Y0106402D01*
X0135242Y0135860D02*
X0135242Y0141064D01*
X0131772Y0141064D02*
X0131772Y0135860D01*
X0133507Y0137595D01*
X0135242Y0135860D01*
X0135957Y0169861D02*
X0135957Y0175066D01*
X0137644Y0175066D02*
X0137644Y0169861D01*
X0141113Y0169861D01*
X0142800Y0169861D02*
X0142800Y0175066D01*
X0144535Y0173331D01*
X0146270Y0175066D01*
X0146270Y0169861D01*
X0147956Y0170729D02*
X0148824Y0169861D01*
X0150559Y0169861D01*
X0151426Y0170729D01*
X0151426Y0174198D01*
X0150559Y0175066D01*
X0148824Y0175066D01*
X0147956Y0174198D01*
X0147956Y0170729D01*
X0153113Y0170729D02*
X0153980Y0169861D01*
X0155715Y0169861D01*
X0156582Y0170729D01*
X0156582Y0171596D01*
X0155715Y0172464D01*
X0153980Y0172464D01*
X0153113Y0173331D01*
X0153113Y0174198D01*
X0153980Y0175066D01*
X0155715Y0175066D01*
X0156582Y0174198D01*
X0158269Y0173331D02*
X0160004Y0175066D01*
X0160004Y0169861D01*
X0158269Y0169861D02*
X0161739Y0169861D01*
X0141113Y0175066D02*
X0137644Y0175066D01*
X0137644Y0172464D02*
X0139378Y0172464D01*
X0135957Y0169861D02*
X0134222Y0171596D01*
X0132487Y0169861D01*
X0132487Y0175066D01*
X0131303Y0195460D02*
X0134773Y0195460D01*
X0136459Y0195460D02*
X0136459Y0200664D01*
X0139062Y0200664D01*
X0139929Y0199797D01*
X0139929Y0198062D01*
X0139062Y0197195D01*
X0136459Y0197195D01*
X0133038Y0198062D02*
X0131303Y0198062D01*
X0131303Y0200664D02*
X0131303Y0195460D01*
X0129616Y0195460D02*
X0126147Y0195460D01*
X0126147Y0200664D01*
X0129616Y0200664D01*
X0131303Y0200664D02*
X0134773Y0200664D01*
X0133881Y0203860D02*
X0133881Y0209064D01*
X0137351Y0203860D01*
X0137351Y0209064D01*
X0139038Y0209064D02*
X0142507Y0209064D01*
X0144194Y0209064D02*
X0144194Y0203860D01*
X0147664Y0203860D01*
X0149350Y0203860D02*
X0149350Y0209064D01*
X0152820Y0203860D01*
X0152820Y0209064D01*
X0154507Y0209064D02*
X0157976Y0203860D01*
X0157976Y0209064D01*
X0159663Y0207329D02*
X0161398Y0209064D01*
X0163133Y0207329D01*
X0163133Y0203860D01*
X0163133Y0206462D02*
X0159663Y0206462D01*
X0159663Y0207329D02*
X0159663Y0203860D01*
X0160555Y0200664D02*
X0157085Y0200664D01*
X0157085Y0195460D01*
X0160555Y0195460D01*
X0162241Y0195460D02*
X0162241Y0198929D01*
X0163976Y0200664D01*
X0165711Y0198929D01*
X0165711Y0195460D01*
X0167398Y0195460D02*
X0167398Y0200664D01*
X0170000Y0200664D01*
X0170867Y0199797D01*
X0170867Y0198062D01*
X0170000Y0197195D01*
X0167398Y0197195D01*
X0169133Y0197195D02*
X0170867Y0195460D01*
X0165711Y0198062D02*
X0162241Y0198062D01*
X0158820Y0198062D02*
X0157085Y0198062D01*
X0155398Y0195460D02*
X0151929Y0195460D01*
X0151929Y0200664D01*
X0150242Y0199797D02*
X0149374Y0200664D01*
X0147640Y0200664D01*
X0146772Y0199797D01*
X0146772Y0196327D01*
X0147640Y0195460D01*
X0149374Y0195460D01*
X0150242Y0196327D01*
X0154507Y0203860D02*
X0154507Y0209064D01*
X0147664Y0209064D02*
X0144194Y0209064D01*
X0144194Y0206462D02*
X0145929Y0206462D01*
X0140772Y0203860D02*
X0140772Y0209064D01*
X0132194Y0207329D02*
X0132194Y0203860D01*
X0132194Y0206462D02*
X0128725Y0206462D01*
X0128725Y0207329D02*
X0128725Y0203860D01*
X0128725Y0207329D02*
X0130460Y0209064D01*
X0132194Y0207329D01*
X0124460Y0200664D02*
X0120990Y0197195D01*
X0121858Y0198062D02*
X0124460Y0195460D01*
X0126147Y0198062D02*
X0127881Y0198062D01*
X0120990Y0200664D02*
X0120990Y0195460D01*
X0042397Y0182835D02*
X0039141Y0179579D01*
X0040226Y0178494D02*
X0038056Y0180665D01*
X0036971Y0181750D02*
X0036971Y0183920D01*
X0037514Y0182292D02*
X0036428Y0182292D01*
X0035343Y0183377D01*
X0035343Y0184463D01*
X0037514Y0186633D01*
X0038599Y0186633D01*
X0039684Y0185548D01*
X0039684Y0184463D01*
X0037514Y0182292D01*
X0040226Y0182835D02*
X0042397Y0182835D01*
X0030887Y0188247D02*
X0027818Y0188247D01*
X0030887Y0191317D01*
X0030887Y0192084D01*
X0030120Y0192851D01*
X0028585Y0192851D01*
X0027818Y0192084D01*
X0026283Y0192084D02*
X0025516Y0192851D01*
X0023214Y0192851D01*
X0023214Y0188247D01*
X0023214Y0189782D02*
X0025516Y0189782D01*
X0026283Y0190549D01*
X0026283Y0192084D01*
X0024749Y0189782D02*
X0026283Y0188247D01*
X0016084Y0184663D02*
X0015317Y0185430D01*
X0013782Y0185430D01*
X0013015Y0184663D01*
X0011480Y0184663D02*
X0011480Y0181593D01*
X0010713Y0180826D01*
X0009178Y0180826D01*
X0008411Y0181593D01*
X0008411Y0184663D01*
X0009178Y0185430D01*
X0010713Y0185430D01*
X0011480Y0184663D01*
X0009945Y0182361D02*
X0011480Y0180826D01*
X0013015Y0180826D02*
X0016084Y0183895D01*
X0016084Y0184663D01*
X0016084Y0180826D02*
X0013015Y0180826D01*
X0032201Y0159898D02*
X0036805Y0159898D01*
X0036805Y0161432D02*
X0036805Y0158363D01*
X0036038Y0156828D02*
X0036805Y0156061D01*
X0036805Y0154526D01*
X0036038Y0153759D01*
X0032969Y0153759D01*
X0032201Y0154526D01*
X0032201Y0156061D01*
X0032969Y0156828D01*
X0033736Y0158363D02*
X0032201Y0159898D01*
X0024943Y0071198D02*
X0023408Y0071198D01*
X0022641Y0070430D01*
X0022641Y0069663D01*
X0023408Y0068896D01*
X0024943Y0068896D01*
X0025710Y0068128D01*
X0025710Y0067361D01*
X0024943Y0066594D01*
X0023408Y0066594D01*
X0022641Y0067361D01*
X0022641Y0068128D01*
X0023408Y0068896D01*
X0024943Y0068896D02*
X0025710Y0069663D01*
X0025710Y0070430D01*
X0024943Y0071198D01*
X0021106Y0070430D02*
X0020339Y0071198D01*
X0018804Y0071198D01*
X0018037Y0070430D01*
X0018037Y0067361D01*
X0018804Y0066594D01*
X0020339Y0066594D01*
X0021106Y0067361D01*
X0034809Y0052750D02*
X0034809Y0049680D01*
X0034809Y0051215D02*
X0030205Y0051215D01*
X0031740Y0049680D01*
X0030973Y0048146D02*
X0030205Y0047378D01*
X0030205Y0045844D01*
X0030973Y0045076D01*
X0034042Y0045076D01*
X0034809Y0045844D01*
X0034809Y0047378D01*
X0034042Y0048146D01*
X0034809Y0043542D02*
X0034809Y0042007D01*
X0034809Y0042774D02*
X0030205Y0042774D01*
X0030205Y0042007D02*
X0030205Y0043542D01*
X0051766Y0017729D02*
X0051766Y0014660D01*
X0051766Y0016194D02*
X0047162Y0016194D01*
X0048697Y0014660D01*
X0051766Y0013125D02*
X0051766Y0010056D01*
X0051766Y0011591D02*
X0047162Y0011591D01*
X0048697Y0010056D01*
X0049464Y0008521D02*
X0047929Y0008521D01*
X0047162Y0007754D01*
X0047162Y0005452D01*
X0051766Y0005452D01*
X0050231Y0005452D02*
X0050231Y0007754D01*
X0049464Y0008521D01*
X0050231Y0006987D02*
X0051766Y0008521D01*
X0063186Y0010102D02*
X0063186Y0012404D01*
X0063953Y0013172D01*
X0065488Y0013172D01*
X0066255Y0012404D01*
X0066255Y0010102D01*
X0067789Y0010102D02*
X0063186Y0010102D01*
X0066255Y0011637D02*
X0067789Y0013172D01*
X0067022Y0014706D02*
X0067789Y0015474D01*
X0067789Y0017008D01*
X0067022Y0017776D01*
X0066255Y0017776D01*
X0065488Y0017008D01*
X0065488Y0016241D01*
X0065488Y0017008D02*
X0064720Y0017776D01*
X0063953Y0017776D01*
X0063186Y0017008D01*
X0063186Y0015474D01*
X0063953Y0014706D01*
D13*
X0050863Y0077929D02*
X0045155Y0077929D01*
X0047911Y0082063D01*
X0050863Y0077929D01*
D14*
X0042881Y0078120D02*
X0040063Y0080939D01*
X0039358Y0080939D01*
X0038653Y0080234D01*
X0038653Y0078825D01*
X0039358Y0078120D01*
X0039358Y0076589D02*
X0038653Y0075884D01*
X0038653Y0073770D01*
X0042881Y0073770D01*
X0042881Y0075884D01*
X0042177Y0076589D01*
X0039358Y0076589D01*
X0042881Y0078120D02*
X0042881Y0080939D01*
X0043911Y0090913D02*
X0043911Y0066913D01*
X0051911Y0066913D01*
X0051911Y0090913D01*
X0043911Y0090913D01*
X0007596Y0092063D02*
X0007601Y0092488D01*
X0007617Y0092913D01*
X0007643Y0093337D01*
X0007679Y0093761D01*
X0007726Y0094184D01*
X0007783Y0094605D01*
X0007851Y0095025D01*
X0007929Y0095443D01*
X0008017Y0095858D01*
X0008115Y0096272D01*
X0008224Y0096683D01*
X0008342Y0097092D01*
X0008470Y0097497D01*
X0008609Y0097899D01*
X0008757Y0098297D01*
X0008915Y0098692D01*
X0009082Y0099083D01*
X0009259Y0099470D01*
X0009446Y0099852D01*
X0009641Y0100229D01*
X0009846Y0100601D01*
X0010061Y0100969D01*
X0010284Y0101331D01*
X0010515Y0101687D01*
X0010756Y0102038D01*
X0011005Y0102382D01*
X0011262Y0102721D01*
X0011528Y0103053D01*
X0011802Y0103378D01*
X0012084Y0103696D01*
X0012373Y0104008D01*
X0012670Y0104312D01*
X0012974Y0104609D01*
X0013286Y0104898D01*
X0013604Y0105180D01*
X0013929Y0105454D01*
X0014261Y0105720D01*
X0014600Y0105977D01*
X0014944Y0106226D01*
X0015295Y0106467D01*
X0015651Y0106698D01*
X0016013Y0106921D01*
X0016381Y0107136D01*
X0016753Y0107341D01*
X0017130Y0107536D01*
X0017512Y0107723D01*
X0017899Y0107900D01*
X0018290Y0108067D01*
X0018685Y0108225D01*
X0019083Y0108373D01*
X0019485Y0108512D01*
X0019890Y0108640D01*
X0020299Y0108758D01*
X0020710Y0108867D01*
X0021124Y0108965D01*
X0021539Y0109053D01*
X0021957Y0109131D01*
X0022377Y0109199D01*
X0022798Y0109256D01*
X0023221Y0109303D01*
X0023645Y0109339D01*
X0024069Y0109365D01*
X0024494Y0109381D01*
X0024919Y0109386D01*
X0025344Y0109381D01*
X0025769Y0109365D01*
X0026193Y0109339D01*
X0026617Y0109303D01*
X0027040Y0109256D01*
X0027461Y0109199D01*
X0027881Y0109131D01*
X0028299Y0109053D01*
X0028714Y0108965D01*
X0029128Y0108867D01*
X0029539Y0108758D01*
X0029948Y0108640D01*
X0030353Y0108512D01*
X0030755Y0108373D01*
X0031153Y0108225D01*
X0031548Y0108067D01*
X0031939Y0107900D01*
X0032326Y0107723D01*
X0032708Y0107536D01*
X0033085Y0107341D01*
X0033457Y0107136D01*
X0033825Y0106921D01*
X0034187Y0106698D01*
X0034543Y0106467D01*
X0034894Y0106226D01*
X0035238Y0105977D01*
X0035577Y0105720D01*
X0035909Y0105454D01*
X0036234Y0105180D01*
X0036552Y0104898D01*
X0036864Y0104609D01*
X0037168Y0104312D01*
X0037465Y0104008D01*
X0037754Y0103696D01*
X0038036Y0103378D01*
X0038310Y0103053D01*
X0038576Y0102721D01*
X0038833Y0102382D01*
X0039082Y0102038D01*
X0039323Y0101687D01*
X0039554Y0101331D01*
X0039777Y0100969D01*
X0039992Y0100601D01*
X0040197Y0100229D01*
X0040392Y0099852D01*
X0040579Y0099470D01*
X0040756Y0099083D01*
X0040923Y0098692D01*
X0041081Y0098297D01*
X0041229Y0097899D01*
X0041368Y0097497D01*
X0041496Y0097092D01*
X0041614Y0096683D01*
X0041723Y0096272D01*
X0041821Y0095858D01*
X0041909Y0095443D01*
X0041987Y0095025D01*
X0042055Y0094605D01*
X0042112Y0094184D01*
X0042159Y0093761D01*
X0042195Y0093337D01*
X0042221Y0092913D01*
X0042237Y0092488D01*
X0042242Y0092063D01*
X0042237Y0091638D01*
X0042221Y0091213D01*
X0042195Y0090789D01*
X0042159Y0090365D01*
X0042112Y0089942D01*
X0042055Y0089521D01*
X0041987Y0089101D01*
X0041909Y0088683D01*
X0041821Y0088268D01*
X0041723Y0087854D01*
X0041614Y0087443D01*
X0041496Y0087034D01*
X0041368Y0086629D01*
X0041229Y0086227D01*
X0041081Y0085829D01*
X0040923Y0085434D01*
X0040756Y0085043D01*
X0040579Y0084656D01*
X0040392Y0084274D01*
X0040197Y0083897D01*
X0039992Y0083525D01*
X0039777Y0083157D01*
X0039554Y0082795D01*
X0039323Y0082439D01*
X0039082Y0082088D01*
X0038833Y0081744D01*
X0038576Y0081405D01*
X0038310Y0081073D01*
X0038036Y0080748D01*
X0037754Y0080430D01*
X0037465Y0080118D01*
X0037168Y0079814D01*
X0036864Y0079517D01*
X0036552Y0079228D01*
X0036234Y0078946D01*
X0035909Y0078672D01*
X0035577Y0078406D01*
X0035238Y0078149D01*
X0034894Y0077900D01*
X0034543Y0077659D01*
X0034187Y0077428D01*
X0033825Y0077205D01*
X0033457Y0076990D01*
X0033085Y0076785D01*
X0032708Y0076590D01*
X0032326Y0076403D01*
X0031939Y0076226D01*
X0031548Y0076059D01*
X0031153Y0075901D01*
X0030755Y0075753D01*
X0030353Y0075614D01*
X0029948Y0075486D01*
X0029539Y0075368D01*
X0029128Y0075259D01*
X0028714Y0075161D01*
X0028299Y0075073D01*
X0027881Y0074995D01*
X0027461Y0074927D01*
X0027040Y0074870D01*
X0026617Y0074823D01*
X0026193Y0074787D01*
X0025769Y0074761D01*
X0025344Y0074745D01*
X0024919Y0074740D01*
X0024494Y0074745D01*
X0024069Y0074761D01*
X0023645Y0074787D01*
X0023221Y0074823D01*
X0022798Y0074870D01*
X0022377Y0074927D01*
X0021957Y0074995D01*
X0021539Y0075073D01*
X0021124Y0075161D01*
X0020710Y0075259D01*
X0020299Y0075368D01*
X0019890Y0075486D01*
X0019485Y0075614D01*
X0019083Y0075753D01*
X0018685Y0075901D01*
X0018290Y0076059D01*
X0017899Y0076226D01*
X0017512Y0076403D01*
X0017130Y0076590D01*
X0016753Y0076785D01*
X0016381Y0076990D01*
X0016013Y0077205D01*
X0015651Y0077428D01*
X0015295Y0077659D01*
X0014944Y0077900D01*
X0014600Y0078149D01*
X0014261Y0078406D01*
X0013929Y0078672D01*
X0013604Y0078946D01*
X0013286Y0079228D01*
X0012974Y0079517D01*
X0012670Y0079814D01*
X0012373Y0080118D01*
X0012084Y0080430D01*
X0011802Y0080748D01*
X0011528Y0081073D01*
X0011262Y0081405D01*
X0011005Y0081744D01*
X0010756Y0082088D01*
X0010515Y0082439D01*
X0010284Y0082795D01*
X0010061Y0083157D01*
X0009846Y0083525D01*
X0009641Y0083897D01*
X0009446Y0084274D01*
X0009259Y0084656D01*
X0009082Y0085043D01*
X0008915Y0085434D01*
X0008757Y0085829D01*
X0008609Y0086227D01*
X0008470Y0086629D01*
X0008342Y0087034D01*
X0008224Y0087443D01*
X0008115Y0087854D01*
X0008017Y0088268D01*
X0007929Y0088683D01*
X0007851Y0089101D01*
X0007783Y0089521D01*
X0007726Y0089942D01*
X0007679Y0090365D01*
X0007643Y0090789D01*
X0007617Y0091213D01*
X0007601Y0091638D01*
X0007596Y0092063D01*
X0036021Y0055449D02*
X0036021Y0039701D01*
X0055706Y0039701D02*
X0055706Y0055449D01*
X0087320Y0044268D02*
X0087320Y0037378D01*
X0087320Y0044268D02*
X0089289Y0044268D01*
X0089289Y0046039D01*
X0137911Y0046039D01*
X0137911Y0044268D01*
X0140076Y0044268D01*
X0140076Y0037378D01*
X0096572Y0077260D02*
X0196572Y0077260D01*
X0196572Y0202260D01*
X0196569Y0202502D01*
X0196560Y0202743D01*
X0196546Y0202984D01*
X0196525Y0203225D01*
X0196499Y0203465D01*
X0196467Y0203705D01*
X0196429Y0203944D01*
X0196386Y0204181D01*
X0196336Y0204418D01*
X0196281Y0204653D01*
X0196221Y0204887D01*
X0196154Y0205119D01*
X0196083Y0205350D01*
X0196005Y0205579D01*
X0195922Y0205806D01*
X0195834Y0206031D01*
X0195740Y0206254D01*
X0195641Y0206474D01*
X0195536Y0206692D01*
X0195427Y0206907D01*
X0195312Y0207120D01*
X0195192Y0207330D01*
X0195067Y0207536D01*
X0194937Y0207740D01*
X0194802Y0207941D01*
X0194662Y0208138D01*
X0194518Y0208332D01*
X0194369Y0208522D01*
X0194215Y0208708D01*
X0194057Y0208891D01*
X0193895Y0209070D01*
X0193728Y0209245D01*
X0193557Y0209416D01*
X0193382Y0209583D01*
X0193203Y0209745D01*
X0193020Y0209903D01*
X0192834Y0210057D01*
X0192644Y0210206D01*
X0192450Y0210350D01*
X0192253Y0210490D01*
X0192052Y0210625D01*
X0191848Y0210755D01*
X0191642Y0210880D01*
X0191432Y0211000D01*
X0191219Y0211115D01*
X0191004Y0211224D01*
X0190786Y0211329D01*
X0190566Y0211428D01*
X0190343Y0211522D01*
X0190118Y0211610D01*
X0189891Y0211693D01*
X0189662Y0211771D01*
X0189431Y0211842D01*
X0189199Y0211909D01*
X0188965Y0211969D01*
X0188730Y0212024D01*
X0188493Y0212074D01*
X0188256Y0212117D01*
X0188017Y0212155D01*
X0187777Y0212187D01*
X0187537Y0212213D01*
X0187296Y0212234D01*
X0187055Y0212248D01*
X0186814Y0212257D01*
X0186572Y0212260D01*
X0106572Y0212260D01*
X0114682Y0212165D02*
X0177675Y0212165D01*
X0177675Y0189331D01*
X0114682Y0189331D01*
X0114682Y0212165D01*
X0106572Y0212260D02*
X0106330Y0212257D01*
X0106089Y0212248D01*
X0105848Y0212234D01*
X0105607Y0212213D01*
X0105367Y0212187D01*
X0105127Y0212155D01*
X0104888Y0212117D01*
X0104651Y0212074D01*
X0104414Y0212024D01*
X0104179Y0211969D01*
X0103945Y0211909D01*
X0103713Y0211842D01*
X0103482Y0211771D01*
X0103253Y0211693D01*
X0103026Y0211610D01*
X0102801Y0211522D01*
X0102578Y0211428D01*
X0102358Y0211329D01*
X0102140Y0211224D01*
X0101925Y0211115D01*
X0101712Y0211000D01*
X0101502Y0210880D01*
X0101296Y0210755D01*
X0101092Y0210625D01*
X0100891Y0210490D01*
X0100694Y0210350D01*
X0100500Y0210206D01*
X0100310Y0210057D01*
X0100124Y0209903D01*
X0099941Y0209745D01*
X0099762Y0209583D01*
X0099587Y0209416D01*
X0099416Y0209245D01*
X0099249Y0209070D01*
X0099087Y0208891D01*
X0098929Y0208708D01*
X0098775Y0208522D01*
X0098626Y0208332D01*
X0098482Y0208138D01*
X0098342Y0207941D01*
X0098207Y0207740D01*
X0098077Y0207536D01*
X0097952Y0207330D01*
X0097832Y0207120D01*
X0097717Y0206907D01*
X0097608Y0206692D01*
X0097503Y0206474D01*
X0097404Y0206254D01*
X0097310Y0206031D01*
X0097222Y0205806D01*
X0097139Y0205579D01*
X0097061Y0205350D01*
X0096990Y0205119D01*
X0096923Y0204887D01*
X0096863Y0204653D01*
X0096808Y0204418D01*
X0096758Y0204181D01*
X0096715Y0203944D01*
X0096677Y0203705D01*
X0096645Y0203465D01*
X0096619Y0203225D01*
X0096598Y0202984D01*
X0096584Y0202743D01*
X0096575Y0202502D01*
X0096572Y0202260D01*
X0096572Y0077260D01*
X0114672Y0117260D02*
X0177572Y0117260D01*
X0177672Y0117260D02*
X0177672Y0189360D01*
X0177572Y0189360D01*
X0114672Y0189360D02*
X0114672Y0117260D01*
X0068698Y0158835D02*
X0052950Y0158835D01*
X0052950Y0178520D02*
X0068698Y0178520D01*
X0008501Y0136866D02*
X0008506Y0137291D01*
X0008522Y0137716D01*
X0008548Y0138140D01*
X0008584Y0138564D01*
X0008631Y0138987D01*
X0008688Y0139408D01*
X0008756Y0139828D01*
X0008834Y0140246D01*
X0008922Y0140661D01*
X0009020Y0141075D01*
X0009129Y0141486D01*
X0009247Y0141895D01*
X0009375Y0142300D01*
X0009514Y0142702D01*
X0009662Y0143100D01*
X0009820Y0143495D01*
X0009987Y0143886D01*
X0010164Y0144273D01*
X0010351Y0144655D01*
X0010546Y0145032D01*
X0010751Y0145404D01*
X0010966Y0145772D01*
X0011189Y0146134D01*
X0011420Y0146490D01*
X0011661Y0146841D01*
X0011910Y0147185D01*
X0012167Y0147524D01*
X0012433Y0147856D01*
X0012707Y0148181D01*
X0012989Y0148499D01*
X0013278Y0148811D01*
X0013575Y0149115D01*
X0013879Y0149412D01*
X0014191Y0149701D01*
X0014509Y0149983D01*
X0014834Y0150257D01*
X0015166Y0150523D01*
X0015505Y0150780D01*
X0015849Y0151029D01*
X0016200Y0151270D01*
X0016556Y0151501D01*
X0016918Y0151724D01*
X0017286Y0151939D01*
X0017658Y0152144D01*
X0018035Y0152339D01*
X0018417Y0152526D01*
X0018804Y0152703D01*
X0019195Y0152870D01*
X0019590Y0153028D01*
X0019988Y0153176D01*
X0020390Y0153315D01*
X0020795Y0153443D01*
X0021204Y0153561D01*
X0021615Y0153670D01*
X0022029Y0153768D01*
X0022444Y0153856D01*
X0022862Y0153934D01*
X0023282Y0154002D01*
X0023703Y0154059D01*
X0024126Y0154106D01*
X0024550Y0154142D01*
X0024974Y0154168D01*
X0025399Y0154184D01*
X0025824Y0154189D01*
X0026249Y0154184D01*
X0026674Y0154168D01*
X0027098Y0154142D01*
X0027522Y0154106D01*
X0027945Y0154059D01*
X0028366Y0154002D01*
X0028786Y0153934D01*
X0029204Y0153856D01*
X0029619Y0153768D01*
X0030033Y0153670D01*
X0030444Y0153561D01*
X0030853Y0153443D01*
X0031258Y0153315D01*
X0031660Y0153176D01*
X0032058Y0153028D01*
X0032453Y0152870D01*
X0032844Y0152703D01*
X0033231Y0152526D01*
X0033613Y0152339D01*
X0033990Y0152144D01*
X0034362Y0151939D01*
X0034730Y0151724D01*
X0035092Y0151501D01*
X0035448Y0151270D01*
X0035799Y0151029D01*
X0036143Y0150780D01*
X0036482Y0150523D01*
X0036814Y0150257D01*
X0037139Y0149983D01*
X0037457Y0149701D01*
X0037769Y0149412D01*
X0038073Y0149115D01*
X0038370Y0148811D01*
X0038659Y0148499D01*
X0038941Y0148181D01*
X0039215Y0147856D01*
X0039481Y0147524D01*
X0039738Y0147185D01*
X0039987Y0146841D01*
X0040228Y0146490D01*
X0040459Y0146134D01*
X0040682Y0145772D01*
X0040897Y0145404D01*
X0041102Y0145032D01*
X0041297Y0144655D01*
X0041484Y0144273D01*
X0041661Y0143886D01*
X0041828Y0143495D01*
X0041986Y0143100D01*
X0042134Y0142702D01*
X0042273Y0142300D01*
X0042401Y0141895D01*
X0042519Y0141486D01*
X0042628Y0141075D01*
X0042726Y0140661D01*
X0042814Y0140246D01*
X0042892Y0139828D01*
X0042960Y0139408D01*
X0043017Y0138987D01*
X0043064Y0138564D01*
X0043100Y0138140D01*
X0043126Y0137716D01*
X0043142Y0137291D01*
X0043147Y0136866D01*
X0043142Y0136441D01*
X0043126Y0136016D01*
X0043100Y0135592D01*
X0043064Y0135168D01*
X0043017Y0134745D01*
X0042960Y0134324D01*
X0042892Y0133904D01*
X0042814Y0133486D01*
X0042726Y0133071D01*
X0042628Y0132657D01*
X0042519Y0132246D01*
X0042401Y0131837D01*
X0042273Y0131432D01*
X0042134Y0131030D01*
X0041986Y0130632D01*
X0041828Y0130237D01*
X0041661Y0129846D01*
X0041484Y0129459D01*
X0041297Y0129077D01*
X0041102Y0128700D01*
X0040897Y0128328D01*
X0040682Y0127960D01*
X0040459Y0127598D01*
X0040228Y0127242D01*
X0039987Y0126891D01*
X0039738Y0126547D01*
X0039481Y0126208D01*
X0039215Y0125876D01*
X0038941Y0125551D01*
X0038659Y0125233D01*
X0038370Y0124921D01*
X0038073Y0124617D01*
X0037769Y0124320D01*
X0037457Y0124031D01*
X0037139Y0123749D01*
X0036814Y0123475D01*
X0036482Y0123209D01*
X0036143Y0122952D01*
X0035799Y0122703D01*
X0035448Y0122462D01*
X0035092Y0122231D01*
X0034730Y0122008D01*
X0034362Y0121793D01*
X0033990Y0121588D01*
X0033613Y0121393D01*
X0033231Y0121206D01*
X0032844Y0121029D01*
X0032453Y0120862D01*
X0032058Y0120704D01*
X0031660Y0120556D01*
X0031258Y0120417D01*
X0030853Y0120289D01*
X0030444Y0120171D01*
X0030033Y0120062D01*
X0029619Y0119964D01*
X0029204Y0119876D01*
X0028786Y0119798D01*
X0028366Y0119730D01*
X0027945Y0119673D01*
X0027522Y0119626D01*
X0027098Y0119590D01*
X0026674Y0119564D01*
X0026249Y0119548D01*
X0025824Y0119543D01*
X0025399Y0119548D01*
X0024974Y0119564D01*
X0024550Y0119590D01*
X0024126Y0119626D01*
X0023703Y0119673D01*
X0023282Y0119730D01*
X0022862Y0119798D01*
X0022444Y0119876D01*
X0022029Y0119964D01*
X0021615Y0120062D01*
X0021204Y0120171D01*
X0020795Y0120289D01*
X0020390Y0120417D01*
X0019988Y0120556D01*
X0019590Y0120704D01*
X0019195Y0120862D01*
X0018804Y0121029D01*
X0018417Y0121206D01*
X0018035Y0121393D01*
X0017658Y0121588D01*
X0017286Y0121793D01*
X0016918Y0122008D01*
X0016556Y0122231D01*
X0016200Y0122462D01*
X0015849Y0122703D01*
X0015505Y0122952D01*
X0015166Y0123209D01*
X0014834Y0123475D01*
X0014509Y0123749D01*
X0014191Y0124031D01*
X0013879Y0124320D01*
X0013575Y0124617D01*
X0013278Y0124921D01*
X0012989Y0125233D01*
X0012707Y0125551D01*
X0012433Y0125876D01*
X0012167Y0126208D01*
X0011910Y0126547D01*
X0011661Y0126891D01*
X0011420Y0127242D01*
X0011189Y0127598D01*
X0010966Y0127960D01*
X0010751Y0128328D01*
X0010546Y0128700D01*
X0010351Y0129077D01*
X0010164Y0129459D01*
X0009987Y0129846D01*
X0009820Y0130237D01*
X0009662Y0130632D01*
X0009514Y0131030D01*
X0009375Y0131432D01*
X0009247Y0131837D01*
X0009129Y0132246D01*
X0009020Y0132657D01*
X0008922Y0133071D01*
X0008834Y0133486D01*
X0008756Y0133904D01*
X0008688Y0134324D01*
X0008631Y0134745D01*
X0008584Y0135168D01*
X0008548Y0135592D01*
X0008522Y0136016D01*
X0008506Y0136441D01*
X0008501Y0136866D01*
D15*
X0047911Y0082260D03*
D16*
X0102650Y0089618D02*
X0103034Y0089235D01*
X0103801Y0089235D01*
X0104185Y0089618D01*
X0104185Y0090002D01*
X0103801Y0090386D01*
X0103034Y0090386D01*
X0102650Y0090769D01*
X0102650Y0091153D01*
X0103034Y0091537D01*
X0103801Y0091537D01*
X0104185Y0091153D01*
X0104952Y0091537D02*
X0104952Y0089235D01*
X0105719Y0090002D01*
X0106487Y0089235D01*
X0106487Y0091537D01*
X0107254Y0091537D02*
X0108021Y0091537D01*
X0107637Y0091537D02*
X0107637Y0089235D01*
X0107254Y0089235D02*
X0108021Y0089235D01*
X0109556Y0089235D02*
X0109556Y0091537D01*
X0110323Y0091537D02*
X0108788Y0091537D01*
X0108405Y0092985D02*
X0108021Y0093368D01*
X0108405Y0092985D02*
X0109172Y0092985D01*
X0109556Y0093368D01*
X0109556Y0093752D01*
X0109172Y0094136D01*
X0108405Y0094136D01*
X0108021Y0094519D01*
X0108021Y0094903D01*
X0108405Y0095287D01*
X0109172Y0095287D01*
X0109556Y0094903D01*
X0110323Y0095287D02*
X0110323Y0092985D01*
X0111858Y0092985D01*
X0111090Y0094136D02*
X0110323Y0094136D01*
X0110323Y0095287D02*
X0111858Y0095287D01*
X0112625Y0095287D02*
X0114160Y0095287D01*
X0113392Y0095287D02*
X0113392Y0092985D01*
X0113392Y0091537D02*
X0113392Y0089235D01*
X0112625Y0089618D02*
X0112241Y0089235D01*
X0111474Y0089235D01*
X0111090Y0089618D01*
X0111090Y0091153D01*
X0111474Y0091537D01*
X0112241Y0091537D01*
X0112625Y0091153D01*
X0113392Y0090386D02*
X0114927Y0090386D01*
X0114927Y0091537D02*
X0114927Y0089235D01*
X0107254Y0092985D02*
X0105719Y0092985D01*
X0105719Y0095287D01*
X0107254Y0095287D01*
X0106487Y0094136D02*
X0105719Y0094136D01*
X0104952Y0094136D02*
X0104568Y0093752D01*
X0103417Y0093752D01*
X0103417Y0092985D02*
X0103417Y0095287D01*
X0104568Y0095287D01*
X0104952Y0094903D01*
X0104952Y0094136D01*
X0104185Y0093752D02*
X0104952Y0092985D01*
X0107139Y0110860D02*
X0106672Y0111327D01*
X0107139Y0110860D02*
X0108073Y0110860D01*
X0108540Y0111327D01*
X0108540Y0111794D01*
X0108073Y0112261D01*
X0107606Y0112261D01*
X0108073Y0112261D02*
X0108540Y0112728D01*
X0108540Y0113195D01*
X0108073Y0113662D01*
X0107139Y0113662D01*
X0106672Y0113195D01*
X0109435Y0113662D02*
X0109435Y0111794D01*
X0110369Y0110860D01*
X0111303Y0111794D01*
X0111303Y0113662D01*
X0112197Y0113195D02*
X0112664Y0113662D01*
X0113598Y0113662D01*
X0114065Y0113195D01*
X0114065Y0112728D01*
X0113598Y0112261D01*
X0114065Y0111794D01*
X0114065Y0111327D01*
X0113598Y0110860D01*
X0112664Y0110860D01*
X0112197Y0111327D01*
X0113131Y0112261D02*
X0113598Y0112261D01*
X0110836Y0120860D02*
X0109902Y0120860D01*
X0109435Y0121327D01*
X0109435Y0121794D01*
X0109902Y0122261D01*
X0110836Y0122261D01*
X0111303Y0121794D01*
X0111303Y0121327D01*
X0110836Y0120860D01*
X0110836Y0122261D02*
X0111303Y0122728D01*
X0111303Y0123195D01*
X0110836Y0123662D01*
X0109902Y0123662D01*
X0109435Y0123195D01*
X0109435Y0122728D01*
X0109902Y0122261D01*
X0108540Y0121327D02*
X0108540Y0123195D01*
X0108073Y0123662D01*
X0106672Y0123662D01*
X0106672Y0120860D01*
X0108073Y0120860D01*
X0108540Y0121327D01*
X0108073Y0130860D02*
X0106672Y0130860D01*
X0106672Y0133662D01*
X0108073Y0133662D01*
X0108540Y0133195D01*
X0108540Y0131327D01*
X0108073Y0130860D01*
X0109435Y0130860D02*
X0109435Y0131327D01*
X0111303Y0133195D01*
X0111303Y0133662D01*
X0109435Y0133662D01*
X0109902Y0140860D02*
X0110836Y0140860D01*
X0111303Y0141327D01*
X0111303Y0141794D01*
X0110836Y0142261D01*
X0109435Y0142261D01*
X0109435Y0141327D01*
X0109902Y0140860D01*
X0108540Y0141327D02*
X0108073Y0140860D01*
X0106672Y0140860D01*
X0106672Y0143662D01*
X0108073Y0143662D01*
X0108540Y0143195D01*
X0108540Y0141327D01*
X0109435Y0142261D02*
X0110369Y0143195D01*
X0111303Y0143662D01*
X0110836Y0150860D02*
X0109902Y0150860D01*
X0109435Y0151327D01*
X0108540Y0151327D02*
X0108540Y0153195D01*
X0108073Y0153662D01*
X0106672Y0153662D01*
X0106672Y0150860D01*
X0108073Y0150860D01*
X0108540Y0151327D01*
X0109435Y0152261D02*
X0110369Y0152728D01*
X0110836Y0152728D01*
X0111303Y0152261D01*
X0111303Y0151327D01*
X0110836Y0150860D01*
X0109435Y0152261D02*
X0109435Y0153662D01*
X0111303Y0153662D01*
X0110836Y0160860D02*
X0109902Y0160860D01*
X0109435Y0161327D01*
X0111303Y0163195D01*
X0111303Y0161327D01*
X0110836Y0160860D01*
X0109435Y0161327D02*
X0109435Y0163195D01*
X0109902Y0163662D01*
X0110836Y0163662D01*
X0111303Y0163195D01*
X0108540Y0163195D02*
X0108540Y0161327D01*
X0108073Y0160860D01*
X0106672Y0160860D01*
X0106672Y0163662D01*
X0108073Y0163662D01*
X0108540Y0163195D01*
X0108540Y0170860D02*
X0108540Y0172728D01*
X0107606Y0173662D01*
X0106672Y0172728D01*
X0106672Y0170860D01*
X0106672Y0172261D02*
X0108540Y0172261D01*
X0109435Y0171327D02*
X0111303Y0173195D01*
X0111303Y0171327D01*
X0110836Y0170860D01*
X0109902Y0170860D01*
X0109435Y0171327D01*
X0109435Y0173195D01*
X0109902Y0173662D01*
X0110836Y0173662D01*
X0111303Y0173195D01*
X0110836Y0180860D02*
X0109902Y0180860D01*
X0109435Y0181327D01*
X0108540Y0180860D02*
X0107606Y0181794D01*
X0108073Y0181794D02*
X0106672Y0181794D01*
X0106672Y0180860D02*
X0106672Y0183662D01*
X0108073Y0183662D01*
X0108540Y0183195D01*
X0108540Y0182261D01*
X0108073Y0181794D01*
X0109435Y0182728D02*
X0109902Y0182261D01*
X0110836Y0182261D01*
X0111303Y0181794D01*
X0111303Y0181327D01*
X0110836Y0180860D01*
X0113131Y0180860D02*
X0113131Y0183662D01*
X0112197Y0183662D02*
X0114065Y0183662D01*
X0111303Y0183195D02*
X0110836Y0183662D01*
X0109902Y0183662D01*
X0109435Y0183195D01*
X0109435Y0182728D01*
X0178385Y0123195D02*
X0178385Y0121327D01*
X0178852Y0120860D01*
X0179786Y0120860D01*
X0180253Y0121327D01*
X0180253Y0122261D01*
X0179319Y0122261D01*
X0178385Y0123195D02*
X0178852Y0123662D01*
X0179786Y0123662D01*
X0180253Y0123195D01*
X0181147Y0123662D02*
X0181147Y0120860D01*
X0183016Y0120860D02*
X0181147Y0123662D01*
X0183016Y0123662D02*
X0183016Y0120860D01*
X0183910Y0120860D02*
X0185311Y0120860D01*
X0185778Y0121327D01*
X0185778Y0123195D01*
X0185311Y0123662D01*
X0183910Y0123662D01*
X0183910Y0120860D01*
X0183910Y0113662D02*
X0183910Y0111794D01*
X0184844Y0110860D01*
X0185778Y0111794D01*
X0185778Y0113662D01*
X0183016Y0113662D02*
X0181147Y0113662D01*
X0181147Y0112261D01*
X0182082Y0112728D01*
X0182549Y0112728D01*
X0183016Y0112261D01*
X0183016Y0111327D01*
X0182549Y0110860D01*
X0181615Y0110860D01*
X0181147Y0111327D01*
X0181147Y0130860D02*
X0182549Y0130860D01*
X0183016Y0131327D01*
X0183016Y0133195D01*
X0182549Y0133662D01*
X0181147Y0133662D01*
X0181147Y0130860D01*
X0183910Y0132261D02*
X0185778Y0132261D01*
X0185311Y0130860D02*
X0185311Y0133662D01*
X0183910Y0132261D01*
X0184377Y0140860D02*
X0183910Y0141327D01*
X0184377Y0140860D02*
X0185311Y0140860D01*
X0185778Y0141327D01*
X0185778Y0141794D01*
X0185311Y0142261D01*
X0184844Y0142261D01*
X0185311Y0142261D02*
X0185778Y0142728D01*
X0185778Y0143195D01*
X0185311Y0143662D01*
X0184377Y0143662D01*
X0183910Y0143195D01*
X0183016Y0143195D02*
X0182549Y0143662D01*
X0181147Y0143662D01*
X0181147Y0140860D01*
X0182549Y0140860D01*
X0183016Y0141327D01*
X0183016Y0143195D01*
X0182549Y0150860D02*
X0183016Y0151327D01*
X0183016Y0153195D01*
X0182549Y0153662D01*
X0181147Y0153662D01*
X0181147Y0150860D01*
X0182549Y0150860D01*
X0183910Y0150860D02*
X0185778Y0152728D01*
X0185778Y0153195D01*
X0185311Y0153662D01*
X0184377Y0153662D01*
X0183910Y0153195D01*
X0183910Y0150860D02*
X0185778Y0150860D01*
X0185778Y0160860D02*
X0183910Y0160860D01*
X0184844Y0160860D02*
X0184844Y0163662D01*
X0183910Y0162728D01*
X0183016Y0163195D02*
X0182549Y0163662D01*
X0181147Y0163662D01*
X0181147Y0160860D01*
X0182549Y0160860D01*
X0183016Y0161327D01*
X0183016Y0163195D01*
X0183016Y0170860D02*
X0182082Y0171794D01*
X0182549Y0171794D02*
X0181147Y0171794D01*
X0181147Y0170860D02*
X0181147Y0173662D01*
X0182549Y0173662D01*
X0183016Y0173195D01*
X0183016Y0172261D01*
X0182549Y0171794D01*
X0183910Y0170860D02*
X0185778Y0173662D01*
X0183910Y0173662D02*
X0185778Y0170860D01*
X0185778Y0180860D02*
X0183910Y0183662D01*
X0183016Y0183662D02*
X0181147Y0183662D01*
X0182082Y0183662D02*
X0182082Y0180860D01*
X0183910Y0180860D02*
X0185778Y0183662D01*
X0182108Y0049835D02*
X0153871Y0049835D01*
X0153871Y0033661D01*
X0182108Y0033661D01*
X0182108Y0049835D01*
D17*
X0153485Y0082410D02*
X0154102Y0083027D01*
X0154102Y0085496D01*
X0153485Y0086113D01*
X0152250Y0086113D01*
X0151633Y0085496D01*
X0151633Y0083027D01*
X0152250Y0082410D01*
X0153485Y0082410D01*
X0150419Y0082410D02*
X0149184Y0083644D01*
X0149801Y0083644D02*
X0147950Y0083644D01*
X0147950Y0082410D02*
X0147950Y0086113D01*
X0149801Y0086113D01*
X0150419Y0085496D01*
X0150419Y0084261D01*
X0149801Y0083644D01*
X0146735Y0083027D02*
X0146118Y0082410D01*
X0144884Y0082410D01*
X0144267Y0083027D01*
X0144267Y0085496D01*
X0144884Y0086113D01*
X0146118Y0086113D01*
X0146735Y0085496D01*
X0146732Y0088410D02*
X0145498Y0088410D01*
X0144881Y0089027D01*
X0143666Y0089027D02*
X0143666Y0092113D01*
X0144881Y0091496D02*
X0145498Y0092113D01*
X0146732Y0092113D01*
X0147349Y0091496D01*
X0148564Y0092113D02*
X0148564Y0088410D01*
X0150415Y0088410D01*
X0151033Y0089027D01*
X0151033Y0089644D01*
X0150415Y0090261D01*
X0148564Y0090261D01*
X0147349Y0089644D02*
X0147349Y0089027D01*
X0146732Y0088410D01*
X0147349Y0089644D02*
X0146732Y0090261D01*
X0145498Y0090261D01*
X0144881Y0090879D01*
X0144881Y0091496D01*
X0143666Y0089027D02*
X0143049Y0088410D01*
X0141815Y0088410D01*
X0141197Y0089027D01*
X0141197Y0092113D01*
X0140597Y0086113D02*
X0140597Y0082410D01*
X0141811Y0082410D02*
X0143046Y0082410D01*
X0142428Y0082410D02*
X0142428Y0086113D01*
X0141811Y0086113D02*
X0143046Y0086113D01*
X0140597Y0086113D02*
X0139363Y0084879D01*
X0138128Y0086113D01*
X0138128Y0082410D01*
X0148564Y0092113D02*
X0150415Y0092113D01*
X0151033Y0091496D01*
X0151033Y0090879D01*
X0150415Y0090261D01*
X0093719Y0049733D02*
X0091292Y0049733D01*
X0090094Y0049733D02*
X0087667Y0053373D01*
X0090094Y0053373D02*
X0087667Y0049733D01*
X0091292Y0052159D02*
X0092506Y0053373D01*
X0092506Y0049733D01*
X0022026Y0112016D02*
X0019599Y0112016D01*
X0022026Y0114443D01*
X0022026Y0115050D01*
X0021419Y0115656D01*
X0020206Y0115656D01*
X0019599Y0115050D01*
X0018401Y0112016D02*
X0015974Y0112016D01*
X0015974Y0115656D01*
X0015002Y0073609D02*
X0015609Y0073002D01*
X0015609Y0072396D01*
X0015002Y0071789D01*
X0015609Y0071182D01*
X0015609Y0070576D01*
X0015002Y0069969D01*
X0013789Y0069969D01*
X0013182Y0070576D01*
X0011984Y0069969D02*
X0009557Y0069969D01*
X0009557Y0073609D01*
X0013182Y0073002D02*
X0013789Y0073609D01*
X0015002Y0073609D01*
X0015002Y0071789D02*
X0014395Y0071789D01*
D18*
X0055765Y0064563D03*
X0077812Y0158776D03*
D19*
X0101572Y0102260D02*
X0101572Y0082260D01*
X0116572Y0082260D01*
X0116572Y0102260D01*
X0101572Y0102260D01*
X0131572Y0097260D02*
X0131572Y0077260D01*
X0161572Y0077260D01*
X0161572Y0097260D01*
X0131572Y0097260D01*
X0038678Y0023756D02*
X0025785Y0023756D01*
X0025785Y0019425D01*
X0027655Y0020705D02*
X0030214Y0018146D01*
X0026767Y0019425D02*
X0026769Y0019518D01*
X0026775Y0019610D01*
X0026785Y0019702D01*
X0026799Y0019794D01*
X0026816Y0019885D01*
X0026838Y0019975D01*
X0026863Y0020064D01*
X0026892Y0020152D01*
X0026925Y0020238D01*
X0026962Y0020323D01*
X0027002Y0020407D01*
X0027046Y0020488D01*
X0027093Y0020568D01*
X0027144Y0020646D01*
X0027197Y0020721D01*
X0027254Y0020794D01*
X0027314Y0020865D01*
X0027377Y0020933D01*
X0027443Y0020998D01*
X0027512Y0021060D01*
X0027583Y0021119D01*
X0027657Y0021175D01*
X0027732Y0021228D01*
X0027811Y0021278D01*
X0027891Y0021324D01*
X0027973Y0021367D01*
X0028057Y0021407D01*
X0028142Y0021442D01*
X0028229Y0021474D01*
X0028317Y0021502D01*
X0028407Y0021527D01*
X0028497Y0021547D01*
X0028588Y0021564D01*
X0028680Y0021577D01*
X0028772Y0021586D01*
X0028865Y0021591D01*
X0028957Y0021592D01*
X0029050Y0021589D01*
X0029142Y0021582D01*
X0029234Y0021571D01*
X0029325Y0021556D01*
X0029416Y0021538D01*
X0029506Y0021515D01*
X0029595Y0021489D01*
X0029682Y0021459D01*
X0029769Y0021425D01*
X0029853Y0021387D01*
X0029936Y0021346D01*
X0030017Y0021302D01*
X0030097Y0021254D01*
X0030174Y0021202D01*
X0030249Y0021148D01*
X0030321Y0021090D01*
X0030391Y0021029D01*
X0030458Y0020965D01*
X0030523Y0020899D01*
X0030584Y0020830D01*
X0030643Y0020758D01*
X0030698Y0020684D01*
X0030750Y0020607D01*
X0030799Y0020528D01*
X0030844Y0020448D01*
X0030886Y0020365D01*
X0030925Y0020281D01*
X0030960Y0020195D01*
X0030991Y0020108D01*
X0031018Y0020019D01*
X0031041Y0019930D01*
X0031061Y0019839D01*
X0031077Y0019748D01*
X0031089Y0019656D01*
X0031097Y0019564D01*
X0031101Y0019471D01*
X0031101Y0019379D01*
X0031097Y0019286D01*
X0031089Y0019194D01*
X0031077Y0019102D01*
X0031061Y0019011D01*
X0031041Y0018920D01*
X0031018Y0018831D01*
X0030991Y0018742D01*
X0030960Y0018655D01*
X0030925Y0018569D01*
X0030886Y0018485D01*
X0030844Y0018402D01*
X0030799Y0018322D01*
X0030750Y0018243D01*
X0030698Y0018166D01*
X0030643Y0018092D01*
X0030584Y0018020D01*
X0030523Y0017951D01*
X0030458Y0017885D01*
X0030391Y0017821D01*
X0030321Y0017760D01*
X0030249Y0017702D01*
X0030174Y0017648D01*
X0030097Y0017596D01*
X0030018Y0017548D01*
X0029936Y0017504D01*
X0029853Y0017463D01*
X0029769Y0017425D01*
X0029682Y0017391D01*
X0029595Y0017361D01*
X0029506Y0017335D01*
X0029416Y0017312D01*
X0029325Y0017294D01*
X0029234Y0017279D01*
X0029142Y0017268D01*
X0029050Y0017261D01*
X0028957Y0017258D01*
X0028865Y0017259D01*
X0028772Y0017264D01*
X0028680Y0017273D01*
X0028588Y0017286D01*
X0028497Y0017303D01*
X0028407Y0017323D01*
X0028317Y0017348D01*
X0028229Y0017376D01*
X0028142Y0017408D01*
X0028057Y0017443D01*
X0027973Y0017483D01*
X0027891Y0017526D01*
X0027811Y0017572D01*
X0027732Y0017622D01*
X0027657Y0017675D01*
X0027583Y0017731D01*
X0027512Y0017790D01*
X0027443Y0017852D01*
X0027377Y0017917D01*
X0027314Y0017985D01*
X0027254Y0018056D01*
X0027197Y0018129D01*
X0027144Y0018204D01*
X0027093Y0018282D01*
X0027046Y0018362D01*
X0027002Y0018443D01*
X0026962Y0018527D01*
X0026925Y0018612D01*
X0026892Y0018698D01*
X0026863Y0018786D01*
X0026838Y0018875D01*
X0026816Y0018965D01*
X0026799Y0019056D01*
X0026785Y0019148D01*
X0026775Y0019240D01*
X0026769Y0019332D01*
X0026767Y0019425D01*
X0025785Y0009976D02*
X0025785Y0005646D01*
X0038678Y0005646D01*
M02*
