%
M48
M72
T01C0.01200
T02C0.04000
%
T01
X31966Y30134
X18186Y47063
X17399Y67535
X12281Y75409
X57989Y30134
X74486Y12811
X77635Y28165
X81572Y29740
X97320Y26984
X106769Y19110
X105588Y15173
X111887Y11236
X109919Y22654
X111100Y26591
X113462Y29346
X126848Y15567
X132753Y13992
X142202Y11630
X154407Y20685
X157950Y18323
X161100Y11630
X175667Y18323
X157556Y42339
X161100Y45488
X167005Y45094
X171730Y44701
X177635Y61630
X153226Y79346
X146533Y79346
X146926Y86039
X141021Y83677
X135903Y91157
X127635Y84858
X115824Y75016
X104407Y69110
X100470Y79740
X94564Y79740
X83147Y73835
X74486Y62811
X83147Y58087
X91021Y62024
X94958Y52969
X100863Y52969
X115824Y54937
X120549Y52575
X129997Y56118
X132360Y52181
X137084Y43126
X131178Y32102
X146533Y32102
X151651Y43126
X164249Y89583
X164643Y93126
X163068Y102969
X166612Y111236
X167399Y118717
X167399Y125803
X179604Y126197
X176060Y106512
X180785Y90370
X196139Y91551
X197320Y86039
X195352Y97457
X164643Y152575
X149682Y151787
X134328Y162024
X122517Y132496
X110706Y105331
X127241Y99031
X88265Y131315
X85903Y115567
X85903Y109661
X86690Y90370
X81572Y89189
X64643Y65961
X60706Y60055
X81178Y46669
X47320Y145094
X82360Y149031
X37478Y183283
X37084Y193126
T02
X101572Y182260
X101572Y172260
X101572Y162260
X101572Y152260
X101572Y142260
X101572Y132260
X101572Y122260
X101572Y112260
X191572Y112260
X191572Y122260
X191572Y132260
X191572Y142260
X191572Y152260
X191572Y162260
X191572Y172260
X191572Y182260
M30
